<?xml version="1.0" encoding="UTF-8"?>
<svg xmlns="http://www.w3.org/2000/svg" version="1.1" viewBox="0 0 1366 768">
  <defs>
    <style>
      .cls-1 {
        fill: #fff;
      }

      .cls-2 {
        fill: #ff5a5f;
      }
    </style>
  </defs>
  <!-- Generator: Adobe Illustrator 28.6.0, SVG Export Plug-In . SVG Version: 1.2.0 Build 709)  -->
  <g>
    <g id="_레이어_1" data-name="레이어_1">
      <g id="_레이어_1-2" data-name="_레이어_1">
        <path class="cls-2" d="M23.1-.4h1319.9c12.7,0,23.1,10.4,23.1,23.3v721.9c0,12.9-10.3,23.3-23.1,23.3H23.1c-12.7,0-23.1-10.4-23.1-23.3V22.9C0,10,10.3-.4,23.1-.4Z"/>
        <path class="cls-1" d="M704.7,312.3c0,9.7-8.2,17.5-18,16.8s-15.3-7.7-15.6-16.2c-.3-9.6,7-17.4,16.8-17.4,9.5.3,16.8,7.7,16.8,16.8ZM635.4,346.2v4.1s-8-10.3-25.1-10.3c-28.2,0-50.2,21.5-50.2,51.2s21.8,51.2,50.2,51.2,25.1-10.6,25.1-10.6v4.4c0,2.1,1.6,3.6,3.6,3.6h21v-97.2h-21c-2.1,0-3.6,1.8-3.6,3.6h0ZM635.4,408.5c-3.9,5.7-11.6,10.6-21,10.6-16.6,0-29.2-10.3-29.2-27.9s12.6-27.9,29.2-27.9,17.3,5.2,21,10.6v34.6h0ZM675.4,342.6h24.8v97.2h-24.8v-97.2h0ZM1046.1,340c-17.1,0-25.1,10.3-25.1,10.3v-54.6h-24.8v144h21c2.1,0,3.6-1.8,3.6-3.6v-4.4s8,10.6,25.1,10.6c28.2,0,50.2-21.7,50.2-51.2s-22-51.2-49.9-51.2h0ZM1042,418.9c-9.5,0-17.1-4.9-21-10.6v-34.6c3.9-5.2,12.1-10.6,21-10.6,16.6,0,29.2,10.3,29.2,27.9s-12.6,27.9-29.2,27.9h0ZM983.3,382.1v57.9h-24.9v-55.1c0-16-5.2-22.5-19.2-22.5s-15.2,3.9-20.2,9.5v67.8h-24.8v-97.2h19.7c2.1,0,3.6,1.8,3.6,3.6v4.1c7.2-7.5,16.8-10.3,26.4-10.3s19.9,3.1,27.2,9.3c8.8,7.2,12.1,16.6,12.1,32.8h.1ZM834.2,340c-17.1,0-25.1,10.3-25.1,10.3v-54.6h-24.8v144h21c2.1,0,3.6-1.8,3.6-3.6v-4.4s8,10.6,25.1,10.6c28.2,0,50.2-21.7,50.2-51.2.3-29.5-21.8-51.2-49.9-51.2h0ZM830.1,418.9c-9.5,0-17.1-4.9-21-10.6v-34.6c3.9-5.2,12.1-10.6,21-10.6,16.6,0,29.2,10.3,29.2,27.9s-12.6,27.9-29.2,27.9h0ZM762.8,340c7.5,0,11.3,1.3,11.3,1.3v23s-20.7-7-33.6,7.7v68h-24.9v-97.5h21c2.1,0,3.6,1.8,3.6,3.6v4.1c4.6-5.4,14.7-10.3,22.5-10.3h.1ZM505.1,431.1c-1.3-3.1-2.6-6.4-3.9-9.3-2.1-4.6-4.1-9-5.9-13.2l-.3-.3c-17.9-38.8-37-78.1-57.2-116.9l-.8-1.6c-2.1-4-4.2-8.1-6.2-12.1-2.6-4.6-5.2-9.5-9.3-14.2-8.2-10.3-20.2-16-32.8-16s-24.6,5.7-33.1,15.5c-3.9,4.6-6.7,9.5-9.3,14.2-2,4-4.1,8.1-6.2,12.1l-.8,1.6c-19.9,38.8-39.3,78.1-57.2,116.9l-.3.5c-1.8,4.1-3.9,8.5-5.9,13.2-1.3,2.8-2.6,5.9-3.9,9.3-3.4,9.5-4.4,18.6-3.1,27.9,2.8,19.4,15.8,35.7,33.6,42.9,6.7,2.8,13.7,4.1,21,4.1s4.6-.3,6.7-.5c8.5-1,17.3-3.9,25.9-8.8,10.6-5.9,20.7-14.5,32.1-26.9,11.3,12.4,21.8,21,32.1,26.9,8.5,4.9,17.3,7.7,25.9,8.8,2.1.3,4.6.5,6.7.5,7.2,0,14.5-1.3,21-4.1,18.1-7.2,30.8-23.8,33.6-42.9,2-9,1-18.1-2.3-27.7h-.1ZM388.4,444.5c-13.9-17.6-23-34.1-26.1-48.1-1.3-5.9-1.5-11.1-.8-15.8.5-4.1,2.1-7.7,4.1-10.8,4.9-7,13.2-11.3,22.8-11.3s18.1,4.1,22.8,11.3c2.1,3.1,3.6,6.7,4.1,10.8.8,4.6.5,10.1-.8,15.8-3.1,13.7-12.1,30.3-26.1,48.1h0ZM491.6,456.6c-1.8,13.4-10.8,25.1-23.6,30.3-6.2,2.6-12.9,3.4-19.7,2.6-6.4-.8-12.9-2.8-19.7-6.7-9.3-5.2-18.6-13.2-29.5-25.1,17.1-21,27.4-40.1,31.3-57.2,1.8-8,2.1-15.2,1.3-22-1-6.4-3.4-12.4-7-17.6-8-11.6-21.5-18.4-36.5-18.4s-28.5,7-36.4,18.4c-3.6,5.2-5.9,11.1-7,17.6-1,6.7-.8,14.2,1.3,22,3.9,17.1,14.5,36.4,31.3,57.4-10.6,11.9-20.2,19.9-29.5,25.1-6.7,3.9-13.2,5.9-19.7,6.7-7,.8-13.7-.3-19.7-2.6-12.6-5.2-21.8-16.8-23.6-30.3-.8-6.4-.3-12.9,2.3-20.2.8-2.6,2.1-5.2,3.4-8.2,1.8-4.1,3.9-8.5,5.9-12.9l.3-.5c17.9-38.5,37-77.8,56.9-116.1l.8-1.6c2.1-3.9,4.1-8,6.2-11.9,2.1-4.1,4.4-8,7.2-11.3,5.4-6.2,12.6-9.5,20.7-9.5s15.2,3.4,20.7,9.5c2.8,3.4,5.2,7.2,7.2,11.3,2.1,3.9,4.1,8,6.2,11.9l.8,1.6c19.6,38.4,38.5,77.3,56.7,116.4v.3c2.1,4.1,3.9,8.8,5.9,12.9,1.3,3.1,2.6,5.7,3.4,8.2,2.1,6.7,2.8,13.2,1.8,19.9h.3Z"/>
      </g>
    </g>
  </g>
</svg>