<?xml version="1.0" encoding="UTF-8"?>
<svg xmlns="http://www.w3.org/2000/svg" xmlns:xlink="http://www.w3.org/1999/xlink" version="1.1" viewBox="0 0 1366 768">
  <defs>
    <style>
      .cls-1 {
        fill: none;
      }

      .cls-2, .cls-3, .cls-4, .cls-5 {
        isolation: isolate;
      }

      .cls-2, .cls-4, .cls-5 {
        opacity: .7;
      }

      .cls-3 {
        fill: #004a99;
        fill-rule: evenodd;
        opacity: .5;
      }

      .cls-6 {
        fill: #e2e2e2;
      }

      .cls-4 {
        fill: url(#_무제_그라디언트_2);
      }

      .cls-7 {
        fill: #6848b7;
        stroke: #20155e;
        stroke-linecap: round;
        stroke-linejoin: round;
        stroke-width: 19.3px;
      }

      .cls-8 {
        fill: url(#_무제_그라디언트_6);
      }

      .cls-9 {
        fill: url(#_무제_그라디언트_7);
      }

      .cls-5 {
        fill: #000233;
      }

      .cls-10 {
        fill: #fff;
      }

      .cls-11 {
        fill: #94bbeb;
      }

      .cls-12 {
        fill: url(#_무제_그라디언트_7-3);
      }

      .cls-13 {
        fill: url(#_무제_그라디언트_7-2);
      }

      .cls-14 {
        fill: url(#_무제_그라디언트_6-3);
      }

      .cls-15 {
        fill: url(#_무제_그라디언트_6-2);
      }

      .cls-16 {
        fill: #699bc9;
      }

      .cls-17 {
        fill: #009f79;
      }

      .cls-18 {
        fill: #1d64a3;
      }

      .cls-19 {
        fill: #003d9e;
      }

      .cls-20 {
        opacity: .4;
      }

      .cls-21 {
        opacity: .2;
      }

      .cls-22 {
        clip-path: url(#clippath);
      }
    </style>
    <radialGradient id="_무제_그라디언트_2" data-name="무제 그라디언트 2" cx="312.1" cy="791.1" fx="312.1" fy="791.1" r=".5" gradientTransform="translate(-476185.3 -458940.6) rotate(-24.5) scale(778.2)" gradientUnits="userSpaceOnUse">
      <stop offset=".4" stop-color="#0019ff"/>
      <stop offset=".4" stop-color="#0019ff"/>
      <stop offset=".5" stop-color="#0019ff" stop-opacity=".9"/>
      <stop offset=".6" stop-color="#001aff" stop-opacity=".9"/>
      <stop offset=".6" stop-color="#001bff" stop-opacity=".8"/>
      <stop offset=".7" stop-color="#001dff" stop-opacity=".7"/>
      <stop offset=".8" stop-color="#001fff" stop-opacity=".5"/>
      <stop offset=".9" stop-color="#0021ff" stop-opacity=".3"/>
      <stop offset=".9" stop-color="#0023ff" stop-opacity=".2"/>
      <stop offset="1" stop-color="#0026ff" stop-opacity="0"/>
    </radialGradient>
    <clipPath id="clippath">
      <circle class="cls-1" cx="710.1" cy="345.9" r="279.3"/>
    </clipPath>
    <radialGradient id="_무제_그라디언트_6" data-name="무제 그라디언트 6" cx="-9502" cy="-1083.1" fx="-9502" fy="-1083.1" r="52.2" gradientTransform="translate(-9084.6 -737.4) rotate(-180)" gradientUnits="userSpaceOnUse">
      <stop offset=".2" stop-color="#0019ff"/>
      <stop offset=".4" stop-color="#0019ff"/>
      <stop offset=".5" stop-color="#0019ff" stop-opacity=".9"/>
      <stop offset=".6" stop-color="#001aff" stop-opacity=".9"/>
      <stop offset=".6" stop-color="#001bff" stop-opacity=".8"/>
      <stop offset=".7" stop-color="#001dff" stop-opacity=".7"/>
      <stop offset=".8" stop-color="#001fff" stop-opacity=".5"/>
      <stop offset=".9" stop-color="#0021ff" stop-opacity=".3"/>
      <stop offset=".9" stop-color="#0023ff" stop-opacity=".2"/>
      <stop offset="1" stop-color="#0026ff" stop-opacity="0"/>
    </radialGradient>
    <radialGradient id="_무제_그라디언트_6-2" data-name="무제 그라디언트 6" cx="-9774.5" cy="-1457" fx="-9774.5" fy="-1457" r="26.1" xlink:href="#_무제_그라디언트_6"/>
    <radialGradient id="_무제_그라디언트_7" data-name="무제 그라디언트 7" cx="-9376" cy="-1106.9" fx="-9376" fy="-1106.9" r="19.1" gradientTransform="translate(-9084.6 -737.4) rotate(-180)" gradientUnits="userSpaceOnUse">
      <stop offset="0" stop-color="#d42900"/>
      <stop offset=".4" stop-color="#d45800"/>
      <stop offset=".5" stop-color="#d05703"/>
      <stop offset=".6" stop-color="#c6540f" stop-opacity=".9"/>
      <stop offset=".7" stop-color="#b55024" stop-opacity=".8"/>
      <stop offset=".7" stop-color="#9e4b40" stop-opacity=".7"/>
      <stop offset=".8" stop-color="#7f4465" stop-opacity=".6"/>
      <stop offset=".9" stop-color="#593b92" stop-opacity=".4"/>
      <stop offset=".9" stop-color="#2e30c7" stop-opacity=".2"/>
      <stop offset="1" stop-color="#0026ff" stop-opacity="0"/>
    </radialGradient>
    <radialGradient id="_무제_그라디언트_7-2" data-name="무제 그라디언트 7" cx="-9937.3" cy="-1355.9" fx="-9937.3" fy="-1355.9" r="71.3" gradientTransform="translate(504.5 484) rotate(-180)" xlink:href="#_무제_그라디언트_7"/>
    <radialGradient id="_무제_그라디언트_6-3" data-name="무제 그라디언트 6" cx="-12065.9" cy="3653.7" fx="-12065.9" fy="3653.7" r="41.4" gradientTransform="translate(-10544.2 -5591.9) rotate(-133.9)" xlink:href="#_무제_그라디언트_6"/>
    <radialGradient id="_무제_그라디언트_7-3" data-name="무제 그라디언트 7" cx="-9514.8" cy="-1335.3" fx="-9514.8" fy="-1335.3" r="46.3" xlink:href="#_무제_그라디언트_7"/>
  </defs>
  <!-- Generator: Adobe Illustrator 28.6.0, SVG Export Plug-In . SVG Version: 1.2.0 Build 709)  -->
  <g>
    <g id="_레이어_1" data-name="레이어_1">
      <g id="_레이어_1-2">
        <g id="_레이어_1-2-2">
          <path class="cls-4" d="M579.4,759.1h0c230.4,75.5,478.5-50.3,553.8-280.7C1208.5,248.1,1082.8.1,852.4-75.2c-230.4-75.4-478.3,50.3-553.7,280.7-75.5,230.4,50.3,478.5,280.7,553.8h0Z"/>
          <g id="_레이어_1-2-2-2" data-name="_레이어_1-2-2">
            <g>
              <g>
                <path class="cls-2" d="M618.2,633.9c157.9,51.7,327.9-34.4,379.5-192.4,51.6-158-34.5-327.9-192.4-379.5-158-51.7-327.9,34.4-379.5,192.4-51.7,157.9,34.4,327.9,192.4,379.5h0Z"/>
                <g>
                  <circle class="cls-16" cx="711.7" cy="348" r="281.4"/>
                  <g class="cls-22">
                    <g>
                      <g>
                        <path class="cls-19" d="M381.7,131l-.2-.2v-.4h0c-13.6,7-24.1,19.7-28.8,34.5-4.6,14.6-3.2,30.1,3.8,43.6,6.9,13.1,18.5,22.9,32.5,27.5,11.1,3.8,23.1,3.8,34,.4l-8.4,25.8c-11.5,34.9,7.5,72.8,42.3,84.1l7.4,2.4c3,24.9,20.1,47.3,45.2,55.5l30.2,10c1.2,6.4,3.5,12.6,6.6,18.6l44.7,82.9c8.1,15,21.5,26.2,37.6,31.5.8.3,1.3.4,2.1.7,17.1,4.9,35.2,3,50.8-5.8l82.3-45.8c31.8-17.7,43.7-58.1,26.3-90.2l-6.6-12.5c2.3-3.8,4-7.9,5.4-12l6.3-19.2c4.7,3.8,10,6.6,15.8,8.5l56.6,18.6c26.9,8.9,56-5.9,64.8-33l7.8-23.7c8.5-26.2-5.2-54.4-30.7-64.1,0-24.6-15.9-47.5-40.4-55.5l-103.5-33.8c-14.7-4.8-30.1-3.6-43.3,2.7,0-28-17.7-54.1-45.7-63.3l-88.8-29c-32.6-10.7-67.8,5.6-81.5,36.7-5,0-10,.8-15.1,2l-41.5-13.6c-14.4-4.7-30.3-3.4-43.7,3.5l-24.5,12.7h0ZM374.4,196l.3-.2v.4h0c-4-7.4-4.7-16.2-2.1-24.5,2.7-8.5,8.8-15.7,16.6-19.7l24.5-12.7c7.4-3.9,16.5-4.6,24.5-2l4,1.3,45.2,14.8c9.2-3.8,19.3-4.3,28.9-1.3l2.9.9,4.6-14.1c7.2-22,30.7-34,52.4-27l4,1.3,84.8,27.7c21.7,7.2,33.6,30.8,26.4,52.8-2.1,6.3,1.1,12.9,7.2,14.9l4,1.3,13.1,4.3c8.4-11.7,23.7-17.2,38.1-12.5l4,1.3,99.3,32.5c17.7,5.9,27.4,25.1,21.6,43l-1.9,5.9,4,1.3,14.6,4.8c13.8,4.4,21.4,19.5,16.8,33.5l-7.8,23.7c-4.6,14-19.5,21.7-33.4,17.1l-52.6-17.1-4-1.3c-9.5-3-15.9-11-17.7-20.2l-8.8-2.9-4-1.3c-3.1-1.1-6.5.8-7.6,4l-15.4,46.9c-2.2,6.8-6,12.8-11.1,17.6l14.3,26.5c11,20.1,3.4,45.6-16.6,56.7l-82.3,45.8c-9.8,5.5-21.1,6.7-31.8,3.6-.4,0-.8-.4-1.3-.4-10.1-3.3-18.5-10.2-23.6-19.7l-44.7-82.9c-4.2-7.8-5.8-16.6-4.7-25.1l-42.2-13.9-4-1.3c-20.7-6.7-32.5-28.6-27.3-49.6l-21.3-6.9-4-1.3c-21.7-7.2-33.6-30.8-26.4-52.8l17.5-53.4c.9-3-.5-6.3-3.4-7.2l-13.6-4.5-4-1.3-13.3,6.9c-7.7,4-16.3,4.7-24.5,2h0c-7.9-2.5-14.5-8-18.3-15.4h0Z"/>
                        <path class="cls-18" d="M413.4,139l-.3.2v-.4h0l-24.5,12.7c-7.8,4-13.9,11.2-16.6,19.7-2.6,8.3-1.8,17.1,2.1,24.5,3.9,7.3,10.5,12.8,18.3,15.4h0c8.1,2.7,16.8,1.9,24.5-2l13.3-6.9,4,1.3,13.6,4.5c2.9.9,4.5,4.2,3.4,7.2l-17.5,53.4c-7.2,22,4.7,45.7,26.4,52.8l4,1.3,21.3,6.9c-5.2,21,6.6,42.9,27.3,49.6l4,1.3,42.2,13.9c-1.1,8.5.4,17.3,4.7,25.1l44.7,82.9c5.1,9.3,13.5,16.3,23.6,19.7.4.2.8.4,1.3.4,10.8,3.1,22,1.8,31.8-3.6l82.3-45.8c20-11.1,27.3-36.6,16.6-56.7l-14.3-26.5c5-4.8,8.9-10.9,11.1-17.6l15.4-46.9c1.2-3.2,4.5-5.1,7.6-4l4,1.3,8.8,2.9c1.8,9.2,8.3,17.1,17.7,20.2l4,1.3,52.6,17.1c13.9,4.6,28.8-3.1,33.4-17.1l7.8-23.7c4.6-14-2.9-28.9-16.8-33.5l-14.6-4.8-4-1.3,1.9-5.9c5.9-17.9-3.8-37.1-21.6-43l-99.3-32.5-4-1.3c-14.4-4.8-29.6.8-38.1,12.5l-13.1-4.3-4-1.3c-5.9-2-9.3-8.6-7.2-14.9,7.2-22-4.7-45.7-26.4-52.8l-84.8-27.7-4-1.3c-21.7-7-45.2,5-52.4,27l-4.6,14.1-2.9-.9c-9.6-3.1-19.7-2.6-28.9,1.3l-45.2-14.8-4-1.3c-7.9-2.7-16.9-1.9-24.5,2h0ZM430.1,183.6h.2s0-.3,0-.3l-19.1,10c-4.1,2.2-8.7,2.4-12.7,1.1-3.9-1.3-7.4-4.1-9.5-8-4.4-8.4-.6-19.1,7.9-23.4l24.5-12.7c3.9-2.2,8.5-2.4,12.7-1.1l55.5,18.2c6.5-4.3,14.9-5.8,22.7-3.2l17.6,5.8,9.4-28.7c4.5-14,19.3-21.6,33-17.1l88.8,29c13.6,4.5,21.2,18.9,16.6,33.3-4.7,14.4,2.8,29.8,17.1,34.4l25.6,8.3c2.7.8,5.4-.6,6.3-3.2,3.3-9.9,13.7-15.1,23.4-12l103.5,33.8c9.6,3.2,14.9,13.6,11.7,23.6l-6.6,20.4,33.2,10.8c5.8,2.1,9,8.3,7,14.2l-7.8,23.7c-2,5.9-8.2,9.2-14.1,7.3l-56.6-18.6c-5.8-2.1-9-8.3-7-14.2l.8-2.3-24.3-7.9c-11.2-3.6-23.3,2.7-27,14l-15.4,46.9c-2.8,8.3-9.1,14.5-16.8,17.1l21,39.1c6.9,12.8,2.2,29-10.5,36l-82.3,45.8c-12.7,7-28.7,2.4-35.5-10.4l-44.7-82.9c-4.8-8.9-3.8-19.6,1.5-27.6l-61.2-20c-13.6-4.5-21.2-19.3-16.6-33.3l3.8-11.6-40-13c-13.6-4.5-21.2-19.3-16.6-33.3l17.5-53.4c3.6-11.2-2.3-23.2-13.2-26.7l-23.8-7.8h0Z"/>
                        <path class="cls-17" d="M388.9,186.5h-.2s0,.3,0,.3c2.1,4,5.5,6.8,9.5,8,4.1,1.3,8.5,1,12.7-1.1l19.1-10,23.8,7.8c11,3.5,16.8,15.6,13.2,26.7l-17.5,53.4c-4.5,14,2.8,28.8,16.6,33.3l40,13-3.8,11.6c-4.5,14,2.8,28.8,16.6,33.3l61.2,20c-5.4,8.1-6.3,18.7-1.5,27.6l44.7,82.9c6.9,12.8,22.8,17.4,35.5,10.4l82.3-45.8c12.7-7.1,17.4-23.3,10.5-36l-21-39.1c7.6-2.6,14.1-8.8,16.8-17.1l15.4-46.9c3.8-11.4,15.9-17.6,27-14l24.3,7.9-.8,2.3c-1.9,6,1.2,12.3,7,14.2l56.6,18.6c5.9,1.9,12-1.3,14.1-7.3l7.8-23.7c1.9-6-1.2-12.3-7-14.2l-33.2-10.8,6.6-20.4c3.3-9.9-2-20.5-11.7-23.6l-103.5-33.8c-9.7-3.1-20.2,2.1-23.4,12-.8,2.5-3.7,4-6.3,3.2l-25.6-8.3c-14.1-4.7-21.7-20.4-17.1-34.4,4.5-14-2.8-28.8-16.6-33.3l-88.8-29c-13.7-4.5-28.4,3.1-33,17.1l-9.4,28.7-17.6-5.8c-7.9-2.7-16.3-1.2-22.7,3.2l-55.5-18.2c-4.2-1.3-8.8-1-12.7,1.1l-24.5,12.7c-8.4,4.3-12.2,15.1-7.9,23.4h0Z"/>
                      </g>
                      <path class="cls-10" d="M812.2,147.2h.2c-13.5-4.4-28.8.4-36,12.7-10.4,17.4-1.6,38.6,16.4,44.6l101.2,33c16,5.2,33-3.4,38.2-19.3l34.1,11.1c18.1,5.9,37.6-6.1,39.6-26.3,1.3-14.1-8-27.2-21.6-31.5l-100.5-32.9c-16-5.2-33,3.4-38.2,19.3l-33.4-10.9h0Z"/>
                      <path class="cls-6" d="M392.9,413.8h0c-10.4,17.4-1.6,38.6,16.4,44.6l55.7,18.2c-10,17.4-1.2,38.3,16.7,44.2l101.2,33c16,5.2,33-3.4,38.2-19.3l34.1,11.1c18.1,5.9,37.6-6.1,39.6-26.3,1.3-14.1-8-27.2-21.6-31.5l-54.9-18c2.2-3.8,3.8-8,4.2-12.8,1.3-14.1-8-27.2-21.6-31.5l-100.5-32.9c-16-5.2-33,3.4-38.2,19.3l-33.4-10.9c-13.5-4.4-28.8.6-36,12.7h0Z"/>
                      <path class="cls-10" d="M914.5,486.1h0c-19.7-6.4-30.4-27.5-23.9-47.2s27.5-30.4,47.2-23.9l62.1,20.2c19.7,6.4,30.4,27.5,23.9,47.2-6.4,19.7-27.5,30.4-47.2,23.9l-62.1-20.2h0Z"/>
                      <path class="cls-10" d="M586.2,214.5h0c-19.6-6.4-40.7,4.3-47.2,23.9-6.4,19.6,4.3,40.7,23.9,47.2l62.1,20.2c19.6,6.4,40.7-4.3,47.2-23.9,0-.4.3-.9.3-1.3l31.1,10.2c19.6,6.4,40.7-4.3,47.2-23.9,6.4-19.6-4.3-40.7-23.9-47.2l-62.1-20.2c-19.6-6.4-40.7,4.3-47.2,23.9,0,.4-.3.9-.3,1.3l-31.1-10.2h0Z"/>
                    </g>
                  </g>
                  <path class="cls-3" d="M976.7,253h0c-52.4-146.4-213.6-222.5-359.9-170-146.4,52.5-222.5,213.7-170,360,52.5,146.4,213.7,222.5,360,170,146.3-52.5,222.3-213.7,169.9-360h0Z"/>
                  <path class="cls-5" d="M797.6,78.4c149.5,49,230.8,209.8,181.8,359.2-40.5,123.7-157.9,200.7-281.9,195.7,101.9-16.1,191.4-87.4,225.8-192.4,48.9-149.4-32.4-310.2-181.8-359.2-25.8-8.4-51.8-12.9-77.4-14,43.3-6.9,88.8-4,133.4,10.6h0Z"/>
                  <g class="cls-21">
                    <path class="cls-11" d="M463.2,338.3c-2.4,88.7,62.9,164,145.9,168.2,83,4.1,152.2-64.3,154.6-153,2.4-88.7-62.9-164-145.9-168.2-83-4.1-152.2,64.3-154.6,153h0Z"/>
                  </g>
                  <g class="cls-20">
                    <path class="cls-11" d="M570,402.6c31.9,1.7,58.5-24.1,59.3-57.5.8-33.5-24.5-62-56.5-63.6-31.9-1.7-58.5,24.1-59.3,57.5-.8,33.5,24.5,61.9,56.5,63.6Z"/>
                  </g>
                </g>
              </g>
              <path class="cls-8" d="M373.9,337.1h-.2c-4.7,0-8.5,3.8-8.5,8.5s3.8,8.5,8.5,8.5h20c2.6,6.9,8.1,12.5,15.1,15v20.2c0,4.7,3.8,8.5,8.5,8.5s8.5-3.8,8.5-8.5v-20.2c6.9-2.5,12.5-8,15.1-15h20c4.7,0,8.5-3.8,8.5-8.5s-3.8-8.5-8.5-8.5h-19.8c-2.4-7-8.1-12.6-15.1-15.2v-19.7c0-4.7-3.8-8.5-8.5-8.5s-8.5,3.8-8.5,8.5v19.7c-7,2.5-12.7,8.2-15.1,15.2h-19.8s0,0,0,0Z"/>
              <path class="cls-15" d="M668.1,715.3c-2.3,0-4.3,1.9-4.3,4.3s1.9,4.3,4.3,4.3h10c1.2,3.4,3.9,6.2,7.4,7.4v10.1c0,2.3,1.9,4.3,4.3,4.3s4.3-1.9,4.3-4.3v-10.1c3.6-1.2,6.4-4,7.6-7.4h10c2.3,0,4.3-1.9,4.3-4.3s-1.9-4.3-4.3-4.3h-10c-1.3-3.7-4.1-6.4-7.6-7.7v-9.8c0-2.3-1.9-4.3-4.3-4.3s-4.3,1.9-4.3,4.3v9.8c-3.6,1.3-6.4,4.2-7.6,7.7h-10Z"/>
              <path class="cls-9" d="M272.3,369.5c0,1.8,1.3,3.1,3.1,3.1h7.3c.9,2.6,3.1,4.6,5.5,5.5v7.4c0,1.8,1.3,3.1,3.1,3.1s3.1-1.3,3.1-3.1v-7.4c2.6-.9,4.6-3.1,5.5-5.5h7.3c1.8,0,3.1-1.3,3.1-3.1s-1.3-3.1-3.1-3.1h-7.3c-.8-2.6-2.9-4.7-5.5-5.6v-7.2c0-1.8-1.3-3.1-3.1-3.1s-3.1,1.3-3.1,3.1v7.2c-2.6.9-4.6,3-5.5,5.6h-7.3c-1.8,0-3.1,1.3-3.1,3.1Z"/>
              <path class="cls-7" d="M510.4,447.6c40.7,0,73.8,33,73.8,73.8s-33,73.8-73.8,73.8c-40.7,0-73.8-33-73.8-73.8s33-73.8,73.8-73.8Z"/>
              <path class="cls-13" d="M403.5,557.3h0c-6.5,0-11.7,5.2-11.7,11.7,0,6.5,5.3,11.7,11.7,11.7h27.3c3.5,9.6,11,17.1,20.6,20.5v27.6c0,6.5,5.2,11.7,11.7,11.7,6.5,0,11.7-5.3,11.7-11.7v-27.6c9.6-3.4,17.1-11,20.6-20.5h27.3c6.5,0,11.7-5.2,11.7-11.7s-5.3-11.7-11.7-11.7h-27.1c-3.4-9.7-11.1-17.4-20.8-20.9v-26.8c0-6.5-5.2-11.7-11.7-11.7-6.5,0-11.7,5.3-11.7,11.7v26.8c-9.7,3.5-17.2,11.2-20.7,20.9h-27.2s0,0,0,0Z"/>
              <path class="cls-14" d="M435.5,539.6h0c-2.7-2.7-6.9-2.8-9.6-.3-2.7,2.7-2.8,6.9-.3,9.6l11,11.5c-2.6,5.3-2.7,11.4-.3,16.8l-11.5,11.1c-2.7,2.7-2.9,6.9-.3,9.6s6.9,2.8,9.6.3l11.5-11.1c5.3,2.6,11.4,2.8,16.8.4l11,11.5c2.7,2.7,6.9,2.9,9.6.3s2.8-6.9.3-9.6l-10.9-11.3c2.7-5.4,2.8-11.6.4-17.1l11.2-10.8c2.7-2.7,2.9-6.9.3-9.6-2.7-2.7-6.9-2.8-9.6-.3l-11.2,10.8c-5.4-2.7-11.6-2.8-17.1-.3l-10.9-11.3h0Z"/>
            </g>
          </g>
        </g>
        <path class="cls-12" d="M391.4,590.3h0c-4.3,0-7.6,3.3-7.6,7.6s3.4,7.6,7.6,7.6h17.7c2.3,6.2,7.2,11.1,13.4,13.3v17.9c0,4.3,3.3,7.6,7.6,7.6s7.6-3.4,7.6-7.6v-17.9c6.2-2.3,11.1-7.1,13.4-13.3h17.7c4.3,0,7.6-3.3,7.6-7.6s-3.4-7.6-7.6-7.6h-17.6c-2.3-6.3-7.1-11.3-13.5-13.5v-17.4c0-4.3-3.3-7.6-7.6-7.6s-7.6,3.4-7.6,7.6v17.4c-6.3,2.3-11.3,7.2-13.5,13.5h-17.6s0,0,0,0Z"/>
      </g>
    </g>
  </g>
</svg>