<?xml version="1.0" encoding="UTF-8"?>
<svg xmlns="http://www.w3.org/2000/svg" version="1.1" viewBox="0 0 792.5 377.6">
  <defs>
    <style>
      .cls-1, .cls-2 {
        fill: #fff;
      }

      .cls-2 {
        font-family: AdobeMyungjoStd-Medium-KSCpc-EUC-H, 'Adobe Myungjo Std';
        font-size: 10px;
        font-weight: 500;
      }
    </style>
  </defs>
  <!-- Generator: Adobe Illustrator 28.7.1, SVG Export Plug-In . SVG Version: 1.2.0 Build 142)  -->
  <g>
    <g id="_레이어_1" data-name="레이어_1">
      <g>
        <text class="cls-2" transform="translate(417.1 9.1)"><tspan x="0" y="0">WORKs For me</tspan></text>
        <g>
          <g>
            <g>
              <path class="cls-1" d="M52.3,48.2c-14.9-.2-23.4,11.8-23.4,31.9,0,21.2,8.7,32.1,23.1,32.2,11-.2,18-6.2,19.5-16.3l28.6.3c-1.5,19.3-17.6,41.8-48.7,41.8-29.4,0-51.6-20.6-51.4-58.1C-.2,42.7,22.7,22.2,51.4,22.4c26.9-.2,46.4,15.6,48.7,43.4h-28.6c-1.1-10.7-7.8-17.7-19.2-17.6Z"/>
              <path class="cls-1" d="M114.1,52.1h27.1s0,16,0,16h.9c2.9-11.8,9.7-17.1,18.6-17.2,2.4.2,4.9.5,7.3,1.3v25.2c-2.9-1-7.6-1.6-10.7-1.6-8.7,0-15.2,6.5-15.2,16.3v44.7s-28,0-28,0V52.1Z"/>
              <path class="cls-1" d="M172.1,94.5c0-26.2,15.8-43.6,40.8-43.7,23.9.2,39.7,16.3,39.9,43.4v7s-52.9,0-52.9,0v1.3c0,8.6,5.3,14.8,14.3,15,6.1-.2,11-2.9,12.8-7.7h25.6c-2.7,17.2-16.9,28.4-38.9,28.4-25.7,0-41.4-16.4-41.4-43.7ZM226.5,85c0-7.8-5.6-13.2-13.1-13.1-7.6-.2-13.5,5.4-13.7,13.1h26.8Z"/>
              <path class="cls-1" d="M290.7,86.2c5.9-.3,15.5-.5,18.9-.6v-6.7c-.2-4.9-3.8-7.5-9.1-7.7-5.9.2-9.7,2.7-10.3,8h-26.2c1.2-15.3,13.1-28.3,36.8-28.4,22.4.2,36.8,11.8,36.8,28.1v57.8s-26.2,0-26.2,0v-11.8s-.6,0-.6,0c-4.9,9.3-12.8,13.2-23.4,13.1-15.5.2-26.3-7.8-26.5-24.6.2-18.7,13.4-26,29.8-27.1ZM296.5,119.1c6.8.2,13.2-4.6,13.1-12.5v-4.6c-2.9.2-10.2.5-14,.8-4.9.6-8.1,4.2-8.2,8.9.2,4.8,3.8,7.5,9.1,7.3Z"/>
              <path class="cls-1" d="M399.1,44.8h-14s0,36.1,0,36.1c.2,4,2,5.6,5.8,5.7,2.1.2,6.2-.2,9.4-.3v22c-2.6.3-7,1-13.4,1-19.5,0-30-7.8-29.8-25.5v-39s-10.3,0-10.3,0v-21.4s10.3,0,10.3,0V3s28,0,28,0v20.4s14,0,14,0v21.4Z"/>
              <path class="cls-1" d="M425.2,49.7c7.8,0,14,6.1,14,13.7s-6.2,13.6-14,13.4c-7.8.2-14-6.1-14-13.4,0-7.7,6.2-13.7,14-13.7ZM411.2,86.1h28s0,84.6,0,84.6h-28s0-84.6,0-84.6Z"/>
              <path class="cls-1" d="M507.7,170.7h-32.6s-27.4-84.6-27.4-84.6h29.5s13.7,56.5,13.7,56.5h.9s13.4-56.5,13.4-56.5h29.5s-27.1,84.6-27.1,84.6Z"/>
              <path class="cls-1" d="M538,128.4c0-26.2,15.8-43.6,40.8-43.7,23.9.2,39.7,16.3,39.9,43.4v7s-52.9,0-52.9,0v1.3c0,8.6,5.3,14.8,14.3,15,6.1-.2,11-2.9,12.8-7.7h25.6c-2.7,17.2-16.9,28.4-38.9,28.4-25.7,0-41.4-16.4-41.4-43.7ZM592.4,118.8c0-7.8-5.6-13.2-13.1-13.1-7.6-.2-13.5,5.4-13.7,13.1h26.8Z"/>
            </g>
            <path class="cls-1" d="M59.4,295.4h-29.1v-116.4h29.1v116.4Z"/>
            <path class="cls-1" d="M103.3,295.4h-28.8v-116.4h28.8v116.4Z"/>
            <path class="cls-1" d="M147.7,295.4h-28.8v-116.4h28.8v116.4Z"/>
            <path class="cls-1" d="M217,208.3h29.1v87.1h-27.6v-16.4h-.9c-3.6,11-13,17.6-25.4,17.4-17.4.2-28.8-13.3-28.8-32.5v-55.6h28.8v49.3c0,8.9,4.5,14.1,12.2,14.1s12.7-5.3,12.5-14.5v-49Z"/>
            <path class="cls-1" d="M298.1,227.3c-5.5.2-9.9,2.3-9.7,6.2-.2,2.6,1.7,5.1,8.5,6.6l16.6,3c16.8,3.3,24.9,10.9,25.1,23.7-.2,18.4-16.8,30.2-39.8,30.2s-39.5-11.7-41-29.6h28.8c.8,5.8,5.6,8.9,12.5,8.9s10-2.1,10-5.9-3-5.6-9.7-6.9l-14.7-2.6c-16.6-3.1-25.1-12-25.1-25.6s14.6-28.1,37.9-28.3c23.7.2,38.1,11.2,38.9,29.3h-26.6c-.5-5.4-5.5-8.7-11.6-8.9Z"/>
            <path class="cls-1" d="M399,230.3h-14.4v37.2c.2,4.1,2,5.8,6,5.9,2.2.2,6.4-.2,9.7-.3v22.7c-2.7.3-7.2,1-13.8,1-20.1,0-30.9-8.1-30.7-26.3v-40.1h-10.7v-22h10.7v-21h28.8v21h14.4v22Z"/>
            <path class="cls-1" d="M412.1,273h27.9v16.4h.9c3-12.2,10-17.6,19.1-17.8,2.5.2,5,.5,7.5,1.3v26c-3-1-7.8-1.6-11-1.6-8.9,0-15.7,6.7-15.7,16.8v46h-28.8v-87.1Z"/>
            <path class="cls-1" d="M500.6,308.2c6.1-.3,16-.5,19.4-.7v-6.9c-.2-5.1-3.9-7.7-9.4-7.9-6.1.2-10,2.8-10.7,8.2h-26.9c1.3-15.8,13.5-29.1,37.9-29.3,23,.2,37.9,12.2,37.9,28.9v59.5h-26.9v-12.2h-.6c-5,9.5-13.2,13.6-24.1,13.5-16,.2-27.1-8.1-27.3-25.3.2-19.2,13.8-26.8,30.7-27.9ZM506.5,342c7,.2,13.6-4.8,13.5-12.8v-4.8c-3,.2-10.5.5-14.4.8-5,.7-8.3,4.3-8.5,9.2.2,4.9,3.9,7.7,9.4,7.6Z"/>
            <path class="cls-1" d="M612.1,293.4h-14.4v37.2c.2,4.1,2,5.8,6,5.9,2.2.2,6.4-.2,9.7-.3v22.7c-2.7.3-7.2,1-13.8,1-20.1,0-30.9-8.1-30.7-26.3v-40.1h-10.7v-22h10.7v-21h28.8v21h14.4v22Z"/>
            <path class="cls-1" d="M620.6,315.1c0-26.8,16-44.9,42.6-45,26.9.2,42.9,18.2,42.9,45s-16,45-42.9,45-42.6-18.2-42.6-45ZM663.5,337.4c8.1.2,13-8.7,13.2-22.7-.2-13.8-5-22.5-13.2-22.4-8.5-.2-13.5,8.5-13.5,22.4s5,22.8,13.5,22.7Z"/>
            <path class="cls-1" d="M718.7,271.3h27.9v16.4h.9c3-12.2,10-17.6,19.1-17.8,2.5.2,5,.5,7.5,1.3v26c-3-1-7.8-1.6-11-1.6-8.9,0-15.7,6.7-15.7,16.8v46h-28.8v-87.1Z"/>
          </g>
          <text class="cls-2" transform="translate(143.3 356.7)"><tspan x="0" y="0">and more drawing skills</tspan></text>
          <text class="cls-2" transform="translate(30.2 356.7)"><tspan x="0" y="0">Adobe,Ps,AI,Figma</tspan></text>
        </g>
      </g>
    </g>
  </g>
</svg>