<?xml version="1.0" encoding="UTF-8"?>
<svg xmlns="http://www.w3.org/2000/svg" version="1.1" viewBox="0 0 887.5 449">
  <defs>
    <style>
      .cls-1, .cls-2, .cls-3, .cls-4, .cls-5, .cls-6, .cls-7, .cls-8, .cls-9, .cls-10, .cls-11, .cls-12 {
        fill: none;
      }

      .cls-2 {
        stroke: #6777d3;
        stroke-width: 3.1px;
      }

      .cls-2, .cls-3, .cls-4, .cls-5, .cls-6, .cls-7, .cls-8, .cls-13, .cls-9, .cls-14, .cls-15, .cls-16, .cls-17, .cls-10, .cls-11, .cls-18, .cls-12 {
        stroke-linecap: round;
      }

      .cls-2, .cls-4, .cls-19, .cls-10, .cls-11, .cls-20 {
        stroke-miterlimit: 10;
      }

      .cls-21 {
        fill: #f9f1e4;
      }

      .cls-22 {
        fill: #0f456d;
      }

      .cls-23 {
        fill: #2b3138;
      }

      .cls-24 {
        fill: #4f0e0e;
      }

      .cls-25 {
        fill: #660e0e;
      }

      .cls-26 {
        fill: #7cc2f5;
      }

      .cls-27 {
        fill: #b1bece;
      }

      .cls-28 {
        fill: #eaebef;
      }

      .cls-29 {
        fill: #313c49;
      }

      .cls-30 {
        fill: #acd7e8;
      }

      .cls-31 {
        fill: #e86969;
      }

      .cls-32 {
        fill: #b1bbce;
      }

      .cls-33 {
        fill: #343d47;
      }

      .cls-34 {
        fill: #16538a;
      }

      .cls-35 {
        fill: #2170a5;
      }

      .cls-3 {
        stroke: #f09400;
        stroke-width: 9.4px;
      }

      .cls-3, .cls-5, .cls-6, .cls-7, .cls-8, .cls-13, .cls-9, .cls-14, .cls-15, .cls-16, .cls-17, .cls-18, .cls-12 {
        stroke-linejoin: round;
      }

      .cls-36 {
        fill: #7e8a9c;
      }

      .cls-37 {
        fill: #5d6e88;
      }

      .cls-38 {
        fill: #313a4b;
      }

      .cls-4 {
        stroke: #fdcc4d;
        stroke-width: 3.5px;
      }

      .cls-5 {
        stroke: #4068fa;
      }

      .cls-5, .cls-19, .cls-8, .cls-14, .cls-15, .cls-17 {
        stroke-width: 7.5px;
      }

      .cls-39 {
        fill: #fff0da;
      }

      .cls-40 {
        fill: #788b9e;
      }

      .cls-41 {
        fill: #b0bcd0;
      }

      .cls-42 {
        fill: #f4f4f4;
      }

      .cls-43 {
        fill: #175189;
      }

      .cls-44, .cls-18 {
        fill: #353e4b;
      }

      .cls-45 {
        fill: #1e2428;
      }

      .cls-46 {
        fill: #b1bccf;
      }

      .cls-47 {
        fill: #8598af;
      }

      .cls-48 {
        fill: #4f5c6d;
      }

      .cls-6 {
        stroke: #092d91;
      }

      .cls-6, .cls-7 {
        stroke-width: 9px;
      }

      .cls-49 {
        fill: #c14848;
      }

      .cls-50 {
        fill: #545f68;
      }

      .cls-51 {
        fill: #2b333a;
      }

      .cls-52 {
        fill: #1b1829;
      }

      .cls-53 {
        fill: #ff5050;
      }

      .cls-54 {
        fill: #697895;
      }

      .cls-19, .cls-8, .cls-15 {
        stroke: #6498fa;
      }

      .cls-19, .cls-15 {
        fill: #6498fa;
      }

      .cls-55 {
        fill: #e5e5e5;
      }

      .cls-56 {
        fill: #757575;
      }

      .cls-57 {
        fill: #d8d8d8;
      }

      .cls-58 {
        fill: #12518a;
      }

      .cls-59 {
        fill: #afbcd0;
      }

      .cls-60 {
        fill: #5f6f8c;
      }

      .cls-61 {
        fill: #2a343d;
      }

      .cls-62 {
        fill: #262623;
      }

      .cls-7 {
        stroke: #6582ed;
      }

      .cls-63 {
        fill: #2c333a;
      }

      .cls-64 {
        fill: #fffefd;
      }

      .cls-65 {
        fill: #5a5e5e;
      }

      .cls-66 {
        fill: #525456;
      }

      .cls-67 {
        fill: #c9c9c9;
      }

      .cls-68 {
        fill: #114f84;
      }

      .cls-69 {
        fill: #e3f0fd;
      }

      .cls-70 {
        fill: #fff;
      }

      .cls-71 {
        fill: #242c33;
      }

      .cls-72 {
        fill: #3487c7;
      }

      .cls-73 {
        fill: #6c6e70;
      }

      .cls-74 {
        fill: #bbdcfc;
      }

      .cls-75 {
        fill: #3093fa;
        isolation: isolate;
        opacity: .4;
      }

      .cls-76 {
        fill: #1f1c2d;
      }

      .cls-77, .cls-20 {
        fill: #333e49;
      }

      .cls-78 {
        fill: #afbed5;
      }

      .cls-79 {
        fill: #444f56;
      }

      .cls-80 {
        fill: #1c608e;
      }

      .cls-81 {
        fill: #0a3d63;
      }

      .cls-82 {
        fill: #878787;
      }

      .cls-83 {
        fill: #ffc41f;
      }

      .cls-84 {
        fill: #5f6e8c;
      }

      .cls-85 {
        fill: #222126;
      }

      .cls-86 {
        fill: #536070;
      }

      .cls-87 {
        fill: #1d2328;
      }

      .cls-88 {
        fill: #3f4851;
      }

      .cls-89 {
        fill: #2d7cbc;
      }

      .cls-90 {
        fill: #d4e9fd;
      }

      .cls-91 {
        fill: #8e9eb2;
      }

      .cls-13, .cls-14 {
        fill: #aecffc;
        stroke: #aecffc;
      }

      .cls-13, .cls-16 {
        stroke-width: 6.7px;
      }

      .cls-9 {
        stroke-width: 4.8px;
      }

      .cls-9, .cls-12 {
        stroke: #f4f4f4;
      }

      .cls-92 {
        fill: #3784c5;
      }

      .cls-93 {
        fill: #fdcc4d;
      }

      .cls-16, .cls-17 {
        fill: #80b3fb;
        stroke: #80b3fb;
      }

      .cls-94 {
        fill: #33424f;
      }

      .cls-95 {
        fill: #3f444a;
      }

      .cls-10 {
        stroke: #ffc41f;
        stroke-width: 10px;
      }

      .cls-96 {
        fill: #323435;
      }

      .cls-97 {
        fill: #252527;
      }

      .cls-11 {
        stroke: #262626;
        stroke-width: 11.1px;
      }

      .cls-98 {
        fill: #808b9c;
      }

      .cls-99 {
        fill: #681010;
      }

      .cls-100 {
        fill: #99b8ff;
      }

      .cls-18 {
        stroke: #184f80;
        stroke-width: 2.2px;
      }

      .cls-20 {
        stroke: #000;
        stroke-width: .2px;
      }

      .cls-101 {
        fill: #abbbd3;
      }

      .cls-102 {
        fill: #707d91;
      }

      .cls-103 {
        fill: #d1d1d1;
      }

      .cls-104 {
        fill: #b1bdd2;
      }

      .cls-105 {
        fill: #10518e;
      }

      .cls-106 {
        fill: #9dadc4;
      }

      .cls-107 {
        fill: #161616;
      }

      .cls-108 {
        fill: #4f5e6e;
      }

      .cls-109 {
        fill: #3285ca;
      }

      .cls-110 {
        fill: #b0bdd0;
      }

      .cls-111 {
        fill: #232524;
      }

      .cls-12 {
        stroke-width: 8.4px;
      }
    </style>
  </defs>
  <!-- Generator: Adobe Illustrator 28.6.0, SVG Export Plug-In . SVG Version: 1.2.0 Build 709)  -->
  <g>
    <g id="_레이어_1" data-name="레이어_1">
      <g id="_레이어_1-2" data-name="_레이어_1">
        <g>
          <path class="cls-50" d="M612.2,340.9h0c0-.5,0-1-.3-1.4l-22.1-47.7c-.5-1.4-1.9-2.4-3.5-2.4s-.5,0-.8,0h-132.7c-2,0-3.6,1.7-3.6,3.8s0,.1,0,.2h0v34.6c-.4-.1-.8-.2-1.2-.2-3.2,0-6.6,2.4-6.6,6.7v12.5h0c-2.5.5-4.3,2.7-4.3,5.3v17.5c-.3-.1-.6-.2-1-.2h-1.7c-1.8,0-3.2,1.5-3.2,3.2h1.3v3.2h0v3.2h-2.6v4l-3.1,5.8-16.4-34.9c-1-2.1-3.5-3-5.6-2-1.4.7-2.3,2.1-2.4,3.6l-1.6-1-70.2,1.6-.8-1.8c-.7-1.6-2.3-2.5-3.9-2.7h33v-3.2h4.3v-7.7h0v-3.5c0-2.4-2-4.3-4.3-4.3v-13.3h-6,28.5v-15.1h0v-8h0v-14.1h-2.7c0,1.8-1.5,3.2-3.2,3.2s-3.2-1.4-3.2-3.2h-2.9v1h0v-1.1h2.9c0,1.8,1.5,3.1,3.2,3.2,1.8,0,3.1-1.4,3.2-3.2h2.7v-5.6h-24.6v5.6h3.2v4.5h1.2v9.7h-35.9v18c0,5.7,4.6,10.3,10.3,10.4h17.4v4.5h-2.7v5.1h-23.2,23.2v-5.1h-23.2c-2.1,0-4,1.8-4,4v14.5h0v3.9h-15.9c-2.6.1-4.7,2.3-4.7,4.9v70.6c-1.6,0-2.9,1.3-2.9,2.9v15.5c0,1.8,1.4,3.2,3.2,3.2h1.4c.4,0,.8,0,1.1-.2.3,0,.6.1.9.1h293.7v-28c0-2.7-1.9-4.8-4.4-5.3h0v-12.5c0-3.8-2.6-6-5.4-6.6v-10.7h18.4c2.1,0,3.8-1.7,3.8-3.8v-41.3h0ZM372.4,291.2c0,1.8,1.5,3.2,3.2,3.2s3.2-1.5,3.2-3.2h0c0,1.8-1.4,3.2-3.2,3.2s-3.2-1.5-3.2-3.2,0,0,0,0ZM369.5,288.9v7.7h0v-7.7h0ZM357.2,304.6v10.3h0v-10.3h0ZM335.7,304.6h3.1c.2,2.5,2.1,4.5,4.6,4.5h0c-2.5,0-4.5-2-4.7-4.5h-3ZM348,317.2c0-2.7-2.1-4.7-4.7-4.7s-4.7,2.1-4.7,4.7h0c0-2.7,2.1-4.7,4.7-4.7s4.7,2.1,4.7,4.7h0ZM601.3,340.9l-19.3-37.6c1.5-.5,2.7-1.5,3.5-2.9l18.8,40.5h-3ZM587.5,412.9h-8.1v-4.9h8.2v4.9h-.1ZM470.8,412.9c-.5,0-.8.1-1.2.3l-3.5-2.8v-2.2h8.7v4.8h-4ZM441.4,395.1h0v-4h0v4ZM449.2,346.9h0ZM435.3,376.1h0v-3.2h0v3.2h0v3.2h0v-3.2ZM350.2,348h0v-1.2h0v1.2ZM327.1,338.2h23.2-23.2v5.3h0v-5.3Z"/>
          <path class="cls-50" d="M375.6,285.5h0Z"/>
          <path class="cls-50" d="M515,275.9h15-12.7v12.3c0,.6.5,1.1,1.1,1.1h49.7c.6,0,1.2-.5,1.2-1.2v-12.2h8.2c1,0,1.8-.8,1.8-1.8v-23.9h0c0-.5,0-1-.2-1.4l-12.8-27.1c-.6-1.2-2-1.8-3.2-1.2s-1.3,1.2-1.4,2l-.8-.6-40.2.9-.5-1c-.5-1-1.6-1.6-2.7-1.5h-10.4c-1.5.1-2.7,1.3-2.7,2.9v15.9c-1,1.1-1.7,2.6-1.7,4.5v12.5h0c-2.5.5-4.3,2.7-4.3,5.3v28h16.6v-13.4h0Z"/>
          <path class="cls-50" d="M543.2,219c.9,0,1.8-.8,1.8-1.8v-1.5h-1.7,1.8v-1.4c0-.9-.8-1.8-1.8-1.8v-1.5h0v-4h9.2v-6.2h0v-3.3h-4.7v-5.8h0v-2.3h-8.4c-.9,0-1.8.8-1.8,1.8v.5h1.3v1.8h.5v4.1h-10.2v7.4c0,2.4,1.9,4.3,4.2,4.3h7.1v-2.1h0v3.9h-10.7c-.9,0-1.7.6-1.7,1.6v6h1.6v.2h-1.7v1.6h14.9v-1.3h.2v-.2h.1ZM542.4,200.7h0v4.2h0v-4.2ZM544,195.1c0,.7.6,1.3,1.3,1.3s1.3-.6,1.3-1.3h0c0,.8-.6,1.3-1.3,1.3s-1.3-.6-1.3-1.3,0,0,0,0ZM546.6,191.6h0c0,.8-.6,1.3-1.3,1.3s0,0,0,0c.7,0,1.3-.6,1.3-1.3h0ZM542.9,191.5h1.2c0,.8.6,1.3,1.3,1.3h0c-.7,0-1.2-.5-1.2-1.2h-1.3ZM534.9,200.7c0,1,.9,1.8,1.9,1.8h0c-1,0-1.9-.8-1.9-1.8h0ZM538.6,205.9c0-1-.8-1.9-1.9-1.9s-1.9.9-1.9,1.9h0c0-1.1.8-2,1.9-2s1.9.9,1.9,2,0,0,0,0ZM530.1,218.1h9.5v.5h3.6-3.6v-.5h-9.5Z"/>
          <path class="cls-50" d="M357,276.8h24.6v-2.1c1.6,0,2.9-1.3,2.9-3v-2.3h0v-2.4c0-1.7-1.3-3-2.9-3v-9.2h15.4v-10.4h0v-5.6h-7.7v-9.7h-1.8c0,1.2-1,2.1-2.3,2.1s0,0-.1,0h-.1c1.2,0,2.3-1,2.3-2.2h1.8v-3.8h-13.9c-1.6,0-2.9,1.3-2.9,3v.9h2.1v3.1h.9v6.6h-16.8v12.4c0,3.9,3.2,7.1,7.1,7.1h11.9v-3.6h0v6.6h-17.8c-1.5,0-2.7,1.2-2.7,2.7v10.1h0v2.6h0ZM380.2,244.3h0v7.1h0v-7.1ZM380.9,229v.8h0v-.8h0ZM381,233.4v5.3h0v-5.3h0ZM367.6,244.3c0,1.8,1.5,3.1,3.2,3.1h0c-1.7,0-3.1-1.3-3.2-3.1h0ZM370.8,249.7c1.8,0,3.2,1.5,3.2,3.2,0-1.8-1.5-3.2-3.2-3.2ZM359.7,274v-.6h0v.6h0ZM375.6,273.3h0v.8h0v-.8Z"/>
        </g>
        <rect class="cls-33" x="797.7" y="20.4" width="116.6" height="61.1"/>
        <path class="cls-10" d="M889.7,84c-41.5,0-39.2-39.2-39.2-39.2"/>
        <g>
          <g>
            <path class="cls-93" d="M700.8,330.4c2.6,0,4.7-2.1,4.7-4.7v-15c0-5.2-4.1-8-8-8.1-2.6,0-4.7,2-4.8,4.6,0,2.2,1.4,4,3.4,4.6v13.9c0,2.6,2.1,4.7,4.7,4.7h0Z"/>
            <path class="cls-55" d="M697.2,325.7h7.1c3.6,0,6.4,2.9,6.4,6.4v33.7h-20v-33.7c0-3.6,2.9-6.4,6.4-6.4h0Z"/>
          </g>
          <rect class="cls-88" x="539.5" y="396.2" width="38.2" height="18.4"/>
          <rect class="cls-85" x="577.6" y="396.2" width="38.2" height="18.4"/>
          <rect class="cls-88" x="588.9" y="396.2" width="38.2" height="18.4"/>
          <rect class="cls-85" x="627.1" y="396.2" width="38.2" height="18.4"/>
          <g>
            <path class="cls-88" d="M670.1,405.1h-40.4c1.8,0,3.2,1.4,3.2,3.2v37.1c0,1.7-1.4,3.2-3.2,3.2h40.4c1.7,0,3.2-1.4,3.2-3.2v-37.1c0-1.8-1.4-3.2-3.2-3.2Z"/>
            <path class="cls-42" d="M632.9,445.5v-37.1c0-1.8-1.4-3.2-3.2-3.2h-100.2c-1.7,0-3.2,1.4-3.2,3.2v37.1c0,1.8,1.4,3.2,3.2,3.2h100.2c1.7,0,3.2-1.4,3.2-3.2Z"/>
          </g>
          <g>
            <rect class="cls-85" x="687.2" y="414.1" width="32.1" height="34.5"/>
            <rect class="cls-85" x="707.9" y="392.7" width="11.4" height="21.4"/>
            <rect class="cls-38" x="662.7" y="414.1" width="32.1" height="34.5"/>
            <rect class="cls-38" x="675.8" y="392.7" width="32.1" height="21.4"/>
          </g>
          <polygon class="cls-76" points="537.9 270 507.9 328.5 666.7 328.5 685.4 264.9 544.6 263.9 537.9 270"/>
          <path class="cls-88" d="M567.2,361.3h106.6v34.8c0,1.7-1.4,3.2-3.2,3.2h-100.2c-1.8,0-3.2-1.4-3.2-3.2v-34.8h0Z"/>
          <polygon class="cls-88" points="645.7 316.9 671.9 262.3 691.4 262.3 691.4 327.4 645.5 327.4 645.7 316.9"/>
          <rect class="cls-88" x="669.4" y="256.5" width="22.3" height="8.9"/>
          <path class="cls-88" d="M669.7,273.6h-131.1c-4.2,0-7.6-3.4-7.6-7.6s3.4-7.6,7.6-7.6h131.1c4.2,0,7.6,3.4,7.6,7.6s-3.4,7.6-7.6,7.6h0Z"/>
          <line class="cls-3" x1="538.7" y1="266" x2="513.6" y2="319.1"/>
          <path class="cls-88" d="M548.9,318.5h147.2v49.8c0,2.4-2,4.4-4.4,4.4h-138.2c-2.5,0-4.5-2-4.5-4.5v-49.7h0Z"/>
          <path class="cls-42" d="M500,318.5h147.2v49.8c0,2.4-2,4.4-4.4,4.4h-138.2c-2.5,0-4.5-2-4.5-4.5v-49.7h0Z"/>
          <circle class="cls-42" cx="531.2" cy="261" r="4.5"/>
          <circle class="cls-42" cx="669.4" cy="261" r="4.5"/>
          <circle class="cls-42" cx="642.7" cy="318.5" r="4.5"/>
          <path class="cls-42" d="M642.7,323c-.6,0-1.3-.1-1.9-.4-2.2-1-3.2-3.7-2.2-5.9l23.7-51.2h-128.3l-25.5,55c-1,2.2-3.7,3.2-5.9,2.2-2.2-1-3.2-3.7-2.2-5.9l26.7-57.6c.7-1.6,2.3-2.6,4-2.6h138.2c1.5,0,2.9.8,3.8,2.1.8,1.3.9,2.9.3,4.3l-26.7,57.6c-.8,1.6-2.4,2.6-4,2.6v-.2h0Z"/>
          <circle class="cls-42" cx="642.7" cy="368.2" r="4.5"/>
          <rect class="cls-88" x="686.7" y="261.2" width="9.4" height="57.9"/>
          <rect class="cls-30" x="586.5" y="330.5" width="9.7" height="9.7" rx="2" ry="2"/>
          <g>
            <rect class="cls-53" x="599.8" y="330.5" width="9.7" height="9.7" rx="2" ry="2"/>
            <path class="cls-52" d="M626.5,330.5h-20.1c-1.1,0-2,.9-2,2v5.6c0,1.1.9,2,2,2h20.1c1.1,0,2-.9,2-2v-5.6c0-1.1-.9-2-2-2Z"/>
          </g>
          <circle class="cls-88" cx="691.6" cy="261" r="4.5"/>
          <path class="cls-42" d="M526.8,361.3h106.6v34.8c0,1.7-1.4,3.2-3.2,3.2h-100.2c-1.8,0-3.2-1.4-3.2-3.2v-34.8h0Z"/>
          <g>
            <path class="cls-52" d="M541.1,391.9h0Z"/>
            <path class="cls-53" d="M543.7,390v-5.5c0-1.1.9-2,2-2h-4.6c-1.1,0-2,.9-2,2v5.5c0,1.1.9,2,2,2h4.6c-1.1,0-2-.9-2-2Z"/>
            <path class="cls-52" d="M613.9,382.5h-73.8,5.6c-1.1,0-2,.9-2,2v5.5c0,1.1.9,2,2,2h68.1c1.1,0,2-.9,2-2v-5.5c0-1.1-.9-2-2-2h.1Z"/>
          </g>
          <rect class="cls-88" x="526.8" y="372.7" width="115.4" height="5.6"/>
          <polygon class="cls-38" points="705.6 378.9 700.8 378.9 672.9 378.9 668 378.9 668 383.7 671.2 383.7 705.6 383.7 705.6 378.9"/>
          <rect class="cls-38" x="672.9" y="364.6" width="27.9" height="4.8"/>
          <rect class="cls-28" x="709.6" y="360.7" width="3.3" height="3.9"/>
          <path class="cls-28" d="M712.9,353h-1c-2.1,0-3.9,1.7-3.9,3.9h4.9v-3.9h0Z"/>
          <path class="cls-27" d="M716.2,356.9h1.6c0-2.1-1.7-3.9-3.9-3.9h-1v3.9h3.3Z"/>
          <rect class="cls-41" x="712.9" y="360.7" width="3.3" height="3.9"/>
          <rect class="cls-46" x="709.6" y="356.9" width="3.3" height="3.9"/>
          <rect class="cls-60" x="712.9" y="356.9" width="3.3" height="3.9"/>
          <polygon class="cls-85" points="719.3 369.4 719.3 369.4 719.3 364.6 716.8 364.6 712.9 364.6 709 364.6 700.8 364.6 700.8 369.4 719.3 369.4"/>
          <polygon class="cls-108" points="700.8 378.9 705.6 378.9 700.8 369.4 672.9 369.4 668 378.9 668 378.9 672.9 378.9 700.8 378.9"/>
          <polygon class="cls-29" points="705.6 378.9 724.2 378.9 719.3 369.4 700.8 369.4 705.6 378.9"/>
          <path class="cls-85" d="M705.6,391.9c4.1,0,7.5,3.4,7.6,7.5h5.5l2.5-12.6v-3.1h1.6c.8,0,1.4-.6,1.4-1.4v-3.4h-18.5v4.8h-34.4v6.4h34.4v1.8h0Z"/>
          <path class="cls-29" d="M717.9,377.1c-.3-.3-.8-.7-1.7-.7h-3.4c-.9,0-1.4.4-1.7.7-.6.6-.5,1.5-.5,1.5v2.9h1.3v-3c0-.1,0-.4.2-.6,0-.2.4-.2.7-.2h3.4c.3,0,.6,0,.7.2.2.2.2.5.2.7v2.9h1.3v-2.8s0-.9-.5-1.6Z"/>
          <rect class="cls-94" x="710.6" y="381.5" width="1.3" height="1.5"/>
          <rect class="cls-94" x="717.1" y="381.5" width="1.3" height="1.5"/>
          <path class="cls-38" d="M668,390.1h37.7v9.3h-35.7c-1.1,0-2-.9-2-2v-7.3h0Z"/>
          <path class="cls-85" d="M705.6,383.7h15.7v13.7c0,1.1-.9,2-2,2h-13.7v-15.7h0Z"/>
          <circle class="cls-85" cx="719.4" cy="397.5" r="2"/>
          <path class="cls-4" d="M682,328.3s3.4,0,3.4,3.4v15"/>
          <path class="cls-42" d="M683.8,346.7h3.2c1.6,0,2.9,1.3,2.9,2.9v15h-8.9v-15c0-1.6,1.3-2.9,2.9-2.9h-.1Z"/>
          <path class="cls-4" d="M692.9,328.3s3.4,0,3.4,3.4v15"/>
          <path class="cls-42" d="M694.7,346.7h3.2c1.6,0,2.9,1.3,2.9,2.9v15h-8.9v-15c0-1.6,1.3-2.9,2.9-2.9h-.1Z"/>
          <path class="cls-4" d="M663.8,411.6s0,3.4,3.4,3.4h15v-18s.2-2.2,2.8-2.2"/>
          <path class="cls-42" d="M687.8,413v3.8c0,1.4-1.1,2.5-2.5,2.5h-6.9c-1.3,0-2.3-1-2.3-2.3v-4.2c0-1.3,1-2.3,2.3-2.3h6.9c1.4,0,2.5,1.1,2.5,2.5Z"/>
          <rect class="cls-30" x="591.3" y="409.8" width="9.7" height="9.7" rx="2" ry="2"/>
          <rect class="cls-52" x="586.5" y="344.8" width="42.1" height="9.2" rx="2.2" ry="2.2"/>
          <path class="cls-53" d="M590.9,352v-5.3c0-1.1.9-1.9,2-1.9h-4.5c-1.1,0-1.9.9-1.9,1.9v5.3c0,1.1.9,1.9,1.9,1.9h4.5c-1.1,0-2-.9-2-1.9Z"/>
          <path class="cls-93" d="M525,413.2c-2.6,0-4.7-2.1-4.7-4.7v-15c0-5.2,4.1-8,8-8.1,2.6,0,4.7,2,4.8,4.6,0,2.2-1.4,4-3.4,4.6v13.9c0,2.6-2.1,4.7-4.7,4.7h0Z"/>
          <path class="cls-55" d="M535,448.6h-20v-33.7c0-3.6,2.9-6.4,6.4-6.4h7.1c3.6,0,6.4,2.9,6.4,6.4v33.7h0Z"/>
          <g>
            <polygon class="cls-76" points="749.4 338.2 721.3 399.2 818.3 398.6 848.3 337.2 754.2 335.1 749.4 338.2"/>
            <polygon class="cls-88" points="821.2 392.8 847.4 338.2 866.9 338.2 866.9 403.3 821 403.3 821.2 392.8"/>
            <rect class="cls-88" x="844.9" y="331.7" width="22.3" height="8.9"/>
            <path class="cls-88" d="M845.2,346.1h-97.9c-2.3,0-4.2-1.9-4.2-4.2s1.9-4.2,4.2-4.2h97.9c2.3,0,4.2,1.9,4.2,4.2s-1.9,4.2-4.2,4.2Z"/>
            <path class="cls-88" d="M726,399.7c-.7,0-1.4-.1-2-.4-2.4-1.1-3.4-3.9-2.3-6.3l25-53.1c1.1-2.4,3.9-3.4,6.3-2.3,2.4,1.1,3.4,3.9,2.3,6.3l-25,53.1c-.8,1.7-2.5,2.7-4.3,2.7h0Z"/>
            <path class="cls-42" d="M720.4,398.6c-.7,0-1.5-.2-2.1-.5-2.5-1.2-3.6-4.2-2.4-6.7l26.8-56.9c1.2-2.5,4.2-3.6,6.7-2.4s3.6,4.2,2.4,6.7l-26.8,56.9c-.9,1.8-2.7,2.9-4.6,2.9h0Z"/>
            <path class="cls-88" d="M725.6,394.4h147.2v49.8c0,2.4-2,4.4-4.4,4.4h-138.2c-2.5,0-4.5-2-4.5-4.5v-49.7h0Z"/>
            <path class="cls-42" d="M715.3,394.4h107.4v50.4c0,2.1-1.7,3.8-3.8,3.8h-99.7c-2.1,0-3.9-1.7-3.9-3.9v-50.3h0Z"/>
            <rect class="cls-88" x="863.4" y="337.6" width="9.4" height="104.4"/>
            <rect class="cls-53" x="762" y="406.4" width="9.7" height="9.7" rx="2" ry="2"/>
            <g>
              <rect class="cls-53" x="775.3" y="406.4" width="9.7" height="9.7" rx="2" ry="2"/>
              <path class="cls-52" d="M802.1,406.4h-20.1c-1.1,0-2,.9-2,2v5.6c0,1.1.9,2,2,2h20.1c1.1,0,2-.9,2-2v-5.6c0-1.1-.9-2-2-2Z"/>
            </g>
            <circle class="cls-88" cx="866.9" cy="337.6" r="5.9"/>
            <path class="cls-4" d="M857.5,404.2s3.4,0,3.4,3.4v15"/>
            <path class="cls-42" d="M859.9,422.6h2c1.9,0,3.5,1.6,3.5,3.5v19c0,2-1.6,3.5-3.5,3.5h-1.9c-1.9,0-3.5-1.6-3.5-3.5v-19.1c0-1.9,1.6-3.5,3.5-3.5h0Z"/>
            <path class="cls-4" d="M868.4,404.2s3.4,0,3.4,3.4v15"/>
            <path class="cls-42" d="M870.8,422.6h2c1.9,0,3.5,1.6,3.5,3.5v18.7c0,2.1-1.7,3.9-3.9,3.9h-1.6c-1.9,0-3.4-1.5-3.4-3.4v-19.2c0-1.9,1.6-3.5,3.5-3.5h0Z"/>
            <rect class="cls-52" x="762" y="420.7" width="42.1" height="9.2" rx="2.2" ry="2.2"/>
            <path class="cls-53" d="M766.5,427.9v-5.3c0-1.1.9-1.9,2-1.9h-4.5c-1.1,0-1.9.9-1.9,1.9v5.3c0,1.1.9,1.9,1.9,1.9h4.5c-1.1,0-2-.9-2-1.9Z"/>
            <path class="cls-42" d="M814.9,406.3c-.8,0-1.6-.2-2.4-.5-2.8-1.3-4-4.7-2.7-7.5l29.9-63.4c1.3-2.8,4.7-4,7.5-2.7s4,4.7,2.7,7.5l-29.9,63.4c-1,2-3,3.2-5.1,3.2Z"/>
            <line class="cls-12" x1="747" y1="335.8" x2="844.9" y2="335.8"/>
          </g>
          <path class="cls-53" d="M860.9,422.6"/>
          <path class="cls-97" d="M832.7,265.1h-55.2v9.7h5.9v12.4h23.5v-12.4h10.9c.2,3,2.6,5.4,5.6,5.4s5.4-2.4,5.6-5.4h3.7v24.4h0c6.9,0,12.5-5.6,12.5-12.5v-21.6h-12.5Z"/>
          <path class="cls-44" d="M829.1,274.8c-.2,3-2.6,5.4-5.6,5.4s-5.4-2.4-5.6-5.4h-10.9v12.4h-23.5v-12.4h-5.9v18.2h34.3v6.2h20.9v-24.4h-3.7ZM823.5,295.6c-3.1,0-5.6-2.5-5.6-5.7s2.5-5.7,5.6-5.7,5.6,2.5,5.6,5.7-2.5,5.7-5.6,5.7Z"/>
          <polygon class="cls-23" points="804.6 293.1 804.6 304.7 811.9 304.7 811.9 299.3 811.9 293.1 804.6 293.1"/>
          <path class="cls-97" d="M823.5,284.2c-3.1,0-5.6,2.5-5.6,5.7s2.5,5.7,5.6,5.7,5.6-2.5,5.6-5.7-2.5-5.7-5.6-5.7Z"/>
          <path class="cls-44" d="M804.6,304.7v4.4h0c-2.8,0-5.2,2.3-5.2,5.2v4.2h5.2v8.5h10.6v-1.5h27.9v1.5h4.8v-17.5c0-2.7-2.2-4.8-4.8-4.8h0v6.2h-27.9v-6.2h-10.6ZM815.2,318.9v-3.7h27.9v6.4h-27.9v-2.7h0Z"/>
          <polygon class="cls-23" points="815.2 308.3 815.2 310.9 843.1 310.9 843.1 308.3 843.1 307.2 843.1 304.7 843.1 304.7 815.2 304.7 815.2 304.7 815.2 307.2 815.2 308.3"/>
          <polygon class="cls-23" points="843.1 325.4 815.2 325.4 815.2 327 804.6 327 804.6 318.5 804.6 318.4 799.4 318.4 799.4 318.5 799.4 327.8 804.6 327.8 804.6 331.7 815.2 331.7 843.1 331.7 847.9 331.7 847.9 327 843.1 327 843.1 325.4"/>
          <polygon class="cls-23" points="843.1 318.9 843.1 318 843.1 315.3 815.2 315.3 815.2 318 815.2 318.9 815.2 321.7 843.1 321.7 843.1 318.9"/>
          <path class="cls-93" d="M711.3,413.2c-2.6,0-4.7-2.1-4.7-4.7v-15c0-5.2,4.1-8,8-8.1,2.6,0,4.7,2,4.8,4.6,0,2.2-1.4,4-3.4,4.6v13.9c0,2.6-2.1,4.7-4.7,4.7h0Z"/>
          <path class="cls-55" d="M721.2,448.6h-20v-33.7c0-3.6,2.9-6.4,6.4-6.4h7.1c3.6,0,6.4,2.9,6.4,6.4v33.7h0Z"/>
          <path class="cls-44" d="M792.1,255.9h9.9v-2.3h-9.9v-5.4h-3.5c0,2.1-1.8,3.8-3.9,3.8s-3.8-1.7-3.9-3.8h-3.3v17h14.5v-9.3h.1ZM784.7,262.6c-2.2,0-3.9-1.8-3.9-3.9s1.8-3.9,3.9-3.9,3.9,1.8,3.9,3.9-1.8,3.9-3.9,3.9Z"/>
          <path class="cls-97" d="M784.7,254.7c-2.2,0-3.9,1.8-3.9,3.9s1.8,3.9,3.9,3.9,3.9-1.8,3.9-3.9-1.8-3.9-3.9-3.9h0Z"/>
          <path class="cls-97" d="M784.7,251.9c2.1,0,3.8-1.7,3.9-3.8h3.5v5.4h11.3v-5.4h3.8v-6.7h-29.6v6.7h3.3c0,2.1,1.8,3.8,3.9,3.8h-.1Z"/>
          <polygon class="cls-97" points="802 249.4 798.6 249.4 792.1 249.4 792.1 265.1 796.2 265.1 802 265.1 802 249.4"/>
          <g>
            <g>
              <path class="cls-88" d="M568.8,240.3h45.3v14.8c0,.7-.6,1.3-1.3,1.3h-42.6c-.8,0-1.4-.6-1.4-1.4v-14.8h0Z"/>
              <path class="cls-42" d="M551.6,240.3h45.3v14.8c0,.7-.6,1.3-1.3,1.3h-42.6c-.8,0-1.4-.6-1.4-1.4v-14.8h0Z"/>
              <g>
                <path class="cls-52" d="M557.7,253.3h0Z"/>
                <path class="cls-53" d="M558.8,252.5v-2.3c0-.5.4-.8.9-.8h-2c-.5,0-.8.4-.8.8v2.3c0,.5.4.8.8.8h2c-.5,0-.9-.4-.9-.8Z"/>
                <path class="cls-52" d="M588.7,249.3h-31.4,2.4c-.5,0-.9.4-.9.8v2.3c0,.5.4.8.9.8h29c.5,0,.9-.4.9-.8v-2.3c0-.5-.4-.8-.9-.8h0Z"/>
              </g>
            </g>
            <g>
              <polygon class="cls-76" points="559 177.1 542.9 212 598.5 211.7 615.6 176.5 561.7 175.3 559 177.1"/>
              <polygon class="cls-88" points="600.1 208.3 615.1 177.1 626.3 177.1 626.3 214.3 600 214.3 600.1 208.3"/>
              <rect class="cls-88" x="613.7" y="173.3" width="12.8" height="5.1"/>
              <path class="cls-88" d="M613.9,181.6h-56.1c-1.3,0-2.4-1.1-2.4-2.4s1.1-2.4,2.4-2.4h56.1c1.3,0,2.4,1.1,2.4,2.4s-1.1,2.4-2.4,2.4Z"/>
              <path class="cls-88" d="M545.6,212.3c-.4,0-.8,0-1.1-.3-1.3-.6-1.9-2.2-1.3-3.6l14.3-30.4c.6-1.3,2.2-1.9,3.6-1.3,1.3.6,1.9,2.2,1.3,3.6l-14.3,30.4c-.5,1-1.4,1.5-2.4,1.5h0Z"/>
              <path class="cls-42" d="M542.4,211.7c-.4,0-.8,0-1.2-.3-1.4-.7-2.1-2.4-1.4-3.8l15.4-32.6c.7-1.4,2.4-2.1,3.8-1.4,1.4.7,2.1,2.4,1.4,3.8l-15.4,32.6c-.5,1-1.5,1.7-2.6,1.7h0Z"/>
              <path class="cls-88" d="M545.4,209.2h84.3v28.5c0,1.4-1.1,2.5-2.5,2.5h-79.2c-1.4,0-2.6-1.2-2.6-2.6v-28.5h0Z"/>
              <path class="cls-42" d="M539.5,209.2h61.5v28.9c0,1.2-1,2.2-2.2,2.2h-57.1c-1.2,0-2.2-1-2.2-2.2v-28.8h0Z"/>
              <rect class="cls-88" x="624.3" y="176.7" width="5.4" height="59.8"/>
              <rect class="cls-53" x="566.2" y="216.1" width="5.6" height="5.6" rx="1.2" ry="1.2"/>
              <g>
                <rect class="cls-53" x="573.8" y="216.1" width="5.6" height="5.6" rx="1.2" ry="1.2"/>
                <path class="cls-52" d="M589.2,216.1h-11.5c-.6,0-1.2.5-1.2,1.2v3.2c0,.6.5,1.2,1.2,1.2h11.5c.6,0,1.2-.5,1.2-1.2v-3.2c0-.6-.5-1.2-1.2-1.2Z"/>
              </g>
              <circle class="cls-88" cx="626.3" cy="176.7" r="3.4"/>
              <rect class="cls-52" x="566.2" y="224.3" width="24.1" height="5.3" rx="1.3" ry="1.3"/>
              <path class="cls-53" d="M568.8,228.4v-3c0-.6.5-1.1,1.1-1.1h-2.6c-.6,0-1.1.5-1.1,1.1v3c0,.6.5,1.1,1.1,1.1h2.6c-.6,0-1.1-.5-1.1-1.1Z"/>
              <path class="cls-42" d="M596.5,216c-.5,0-.9,0-1.4-.3-1.6-.8-2.3-2.7-1.5-4.3l17.1-36.3c.8-1.6,2.7-2.3,4.3-1.5s2.3,2.7,1.5,4.3l-17.1,36.3c-.5,1.2-1.7,1.8-2.9,1.8h0Z"/>
              <line class="cls-9" x1="557.6" y1="175.7" x2="613.7" y2="175.7"/>
            </g>
          </g>
          <rect class="cls-88" x="551.6" y="240.3" width="53.1" height="2.7"/>
          <g>
            <path class="cls-93" d="M627,221c2.6,0,4.7-2.1,4.7-4.7v-15c0-5.2-4.1-8-8-8.1-2.6,0-4.7,2-4.8,4.6,0,2.2,1.4,4,3.4,4.6v13.9c0,2.6,2.1,4.7,4.7,4.7h0Z"/>
            <path class="cls-42" d="M623.4,216.3h7.1c3.6,0,6.4,2.9,6.4,6.4v33.7h-20v-33.7c0-3.6,2.9-6.4,6.4-6.4h0Z"/>
          </g>
          <path class="cls-97" d="M594.6,145.8h-22.9v4h2.5v5.1h9.7v-5.1h4.5c0,1.2,1.1,2.2,2.3,2.2s2.2-1,2.3-2.2h1.5v10.1h0c2.9,0,5.2-2.3,5.2-5.2v-8.9h-5.2.1Z"/>
          <path class="cls-44" d="M593.1,149.8c0,1.2-1.1,2.2-2.3,2.2s-2.2-1-2.3-2.2h-4.5v5.1h-9.7v-5.1h-2.5v7.5h14.2v2.6h8.6v-10.1h-1.5ZM590.8,158.4c-1.3,0-2.3-1.1-2.3-2.4s1-2.4,2.3-2.4,2.3,1.1,2.3,2.4-1,2.4-2.3,2.4Z"/>
          <polygon class="cls-23" points="582.9 157.3 582.9 162.1 585.9 162.1 585.9 159.9 585.9 157.3 582.9 157.3"/>
          <path class="cls-97" d="M590.8,153.7c-1.3,0-2.3,1.1-2.3,2.4s1,2.4,2.3,2.4,2.3-1.1,2.3-2.4-1-2.4-2.3-2.4Z"/>
          <path class="cls-44" d="M582.9,162.1v1.8h0c-1.2,0-2.1,1-2.1,2.1v1.7h2.1v3.5h4.4v-.6h11.5v.6h2v-7.2c0-1.1-.9-2-2-2h0v2.6h-11.5v-2.6h-4.4ZM587.3,168v-1.5h11.5v2.7h-11.5v-1.1h0Z"/>
          <polygon class="cls-23" points="587.3 163.6 587.3 164.7 598.9 164.7 598.9 163.6 598.9 163.2 598.9 162.1 598.9 162.1 587.3 162.1 587.3 162.1 587.3 163.2 587.3 163.6"/>
          <path class="cls-23" d="M598.9,170.7h-11.5v.6h-4.4v-3.5h-2.1v1.8c0,1.2,1,2.1,2.1,2.1h0v1.6h17.9v-1.9h-2v-.6h0Z"/>
          <polygon class="cls-23" points="598.9 168 598.9 167.6 598.9 166.5 587.3 166.5 587.3 167.6 587.3 168 587.3 169.2 598.9 169.2 598.9 168"/>
          <path class="cls-44" d="M583.4,141.9h4.1v-.9h-4.1v-2.2h-1.4c0,.9-.7,1.6-1.6,1.6s-1.6-.7-1.6-1.6h-1.4v7h6v-3.8h0ZM580.4,144.7c-.9,0-1.6-.7-1.6-1.6s.7-1.6,1.6-1.6,1.6.7,1.6,1.6-.7,1.6-1.6,1.6Z"/>
          <path class="cls-97" d="M580.4,141.4c-.9,0-1.6.7-1.6,1.6s.7,1.6,1.6,1.6,1.6-.7,1.6-1.6-.7-1.6-1.6-1.6Z"/>
          <path class="cls-97" d="M580.4,140.3c.9,0,1.6-.7,1.6-1.6h1.4v2.2h4.7v-2.2h1.6v-.6c0-1.2-1-2.1-2.1-2.1h-10.1v2.8h1.4c0,.9.7,1.6,1.6,1.6h-.1Z"/>
          <polygon class="cls-97" points="587.5 139.3 586.1 139.3 583.4 139.3 583.4 145.8 585.1 145.8 587.5 145.8 587.5 139.3"/>
          <path class="cls-97" d="M796.8,195.5h-37.8v6.7h4.1v8.5h16.1v-8.5h7.5c0,2.1,1.8,3.7,3.8,3.7s3.7-1.6,3.8-3.7h2.5v16.9h0c4.7,0,8.5-3.9,8.5-8.6v-14.9h-8.5,0Z"/>
          <path class="cls-44" d="M794.3,202.2c0,2.1-1.8,3.7-3.8,3.7s-3.7-1.6-3.8-3.7h-7.5v8.5h-16.1v-8.5h-4.1v12.6h23.5v4.3h14.3v-16.9h-2.5ZM790.5,216.5c-2.1,0-3.9-1.8-3.9-3.9s1.7-3.9,3.9-3.9,3.9,1.8,3.9,3.9-1.7,3.9-3.9,3.9Z"/>
          <polygon class="cls-23" points="777.5 214.8 777.5 222.8 782.5 222.8 782.5 219.1 782.5 214.8 777.5 214.8"/>
          <path class="cls-97" d="M790.5,208.7c-2.1,0-3.9,1.8-3.9,3.9s1.7,3.9,3.9,3.9,3.9-1.8,3.9-3.9-1.7-3.9-3.9-3.9Z"/>
          <path class="cls-44" d="M777.5,222.8v3h0c-1.9,0-3.5,1.6-3.5,3.6v2.9h3.5v5.9h7.3v-1h19.1v1h3.3v-12.1c0-1.8-1.5-3.3-3.3-3.3h0v4.3h-19.1v-4.3h-7.3ZM784.8,232.6v-2.5h19.1v4.4h-19.1v-1.9Z"/>
          <polygon class="cls-23" points="784.8 225.3 784.8 227.1 803.9 227.1 803.9 225.3 803.9 224.6 803.9 222.8 803.9 222.8 784.8 222.8 784.8 222.8 784.8 224.6 784.8 225.3"/>
          <path class="cls-23" d="M803.9,237.1h-19.1v1h-7.3v-5.9h-3.5v2.9c0,2,1.6,3.6,3.5,3.6h0v2.6h29.6v-3.3h-3.3v-1h0Z"/>
          <polygon class="cls-23" points="803.9 232.6 803.9 232 803.9 230.1 784.8 230.1 784.8 232 784.8 232.6 784.8 234.5 803.9 234.5 803.9 232.6"/>
          <path class="cls-44" d="M778.3,189.1h6.8v-1.6h-6.8v-3.7h-2.4c0,1.4-1.2,2.6-2.7,2.6s-2.6-1.2-2.7-2.6h-2.2v11.7h9.9v-6.4h.1ZM773.3,193.7c-1.5,0-2.7-1.2-2.7-2.7s1.2-2.7,2.7-2.7,2.7,1.2,2.7,2.7-1.2,2.7-2.7,2.7Z"/>
          <path class="cls-97" d="M773.3,188.3c-1.5,0-2.7,1.2-2.7,2.7s1.2,2.7,2.7,2.7,2.7-1.2,2.7-2.7-1.2-2.7-2.7-2.7Z"/>
          <path class="cls-97" d="M773.3,186.4c1.4,0,2.6-1.2,2.7-2.6h2.4v3.7h7.8v-3.7h2.6v-1.1c0-2-1.6-3.6-3.5-3.6h-16.7v4.6h2.2c0,1.4,1.2,2.6,2.7,2.6h-.2Z"/>
          <polygon class="cls-97" points="785.1 184.7 782.7 184.7 778.3 184.7 778.3 195.5 781.1 195.5 785.1 195.5 785.1 184.7"/>
        </g>
        <rect class="cls-63" x="754.3" y="12.7" width="120.3" height="40.4" rx="4.7" ry="4.7"/>
        <path class="cls-11" d="M827.3,15.6c0,22.4,20.1,40.5,44.9,40.5h1.1"/>
        <rect class="cls-47" x="229.5" y="324.3" width="237.4" height="12.9"/>
        <rect class="cls-106" x="134.8" y="324.3" width="237.4" height="12.9"/>
        <rect class="cls-70" x="286.3" y="279" width="24.2" height="37"/>
        <path class="cls-74" d="M344.4,318.3h0c0,3.2-2.6,5.9-5.8,5.9h-56c-3.3,0-5.9-2.6-5.9-5.8h0c0-3.2,2.7-5.8,5.9-5.8h56c3.2,0,5.8,2.6,5.8,5.8h0Z"/>
        <rect class="cls-74" x="275.8" y="279" width="24.2" height="37"/>
        <polygon class="cls-26" points="275.8 298.3 300.1 292.9 300.1 279 275.8 279 275.8 298.3"/>
        <path class="cls-100" d="M388.5,273.8h-166c-6.3,0-11.4-5.1-11.4-11.4v-87.9c0-6.8,5.6-12.4,12.4-12.4h163.8c6.8,0,12.4,5.6,12.4,12.4v87.9c0,6.3-5.1,11.4-11.4,11.4h.2Z"/>
        <path class="cls-74" d="M374.3,273.8h-151.8c-6.3,0-11.4-5.1-11.4-11.4v-87.9c0-6.8,5.6-12.4,12.4-12.4h149.7c6.8,0,12.4,5.6,12.4,12.4v87.9c0,6.3-5.1,11.4-11.4,11.4h.1Z"/>
        <polygon class="cls-26" points="238.4 223.1 228.5 273.8 238.4 273.8 238.4 223.1"/>
        <path class="cls-69" d="M219.7,174h0c-.8-2.3,1-4.8,3.4-4.8h17.5c1.6,0,2.9,1,3.4,2.5h0c.8,2.3-1,4.8-3.4,4.8h-17.5c-1.6,0-2.9-1-3.4-2.5Z"/>
        <path class="cls-100" d="M259.5,286.4h74.5c8.4,0,15.2-6.8,15.2-15.2v-48c0-7.7-6.3-14-14-14h-71.4l-18.9,57.2c-3.3,9.9,4.1,20,14.5,20h0Z"/>
        <path class="cls-100" d="M259.5,286.4h74.5c8.4,0,15.2-6.8,15.2-15.2v-48c0-7.7-6.3-14-14-14h-71.4l-18.9,57.2c-3.3,9.9,4.1,20,14.5,20h0Z"/>
        <path class="cls-90" d="M320.8,286.4h-67.1c-8.4,0-15.2-6.8-15.2-15.2v-48c0-7.7,6.3-14,14-14h69.7c7.7,0,14,6.3,14,14v48c0,8.4-6.8,15.2-15.2,15.2h-.2,0Z"/>
        <path class="cls-75" d="M280.2,171.7h33.1c2,0,3.6,1.6,3.6,3.6h0c0,2-1.6,3.6-3.6,3.6h-33.1c-2,0-3.6-1.6-3.6-3.6h0c0-2,1.6-3.6,3.6-3.6Z"/>
        <path class="cls-75" d="M280.2,182.8h33.1c2,0,3.6,1.6,3.6,3.6h0c0,2-1.6,3.6-3.6,3.6h-33.1c-2,0-3.6-1.6-3.6-3.6h0c0-2,1.6-3.6,3.6-3.6Z"/>
        <path class="cls-75" d="M280.2,194h33.1c2,0,3.6,1.6,3.6,3.6h0c0,2-1.6,3.6-3.6,3.6h-33.1c-2,0-3.6-1.6-3.6-3.6h0c0-2,1.6-3.6,3.6-3.6Z"/>
        <path class="cls-26" d="M313.6,312.6v11.6c.1,0-61.7,0-61.7,0-3.3,0-5.9-2.6-5.9-5.8h0c0-3.2,2.7-5.8,5.9-5.8h61.7Z"/>
        <circle class="cls-26" cx="313.7" cy="318.4" r="5.8"/>
        <path class="cls-74" d="M273.8,275.7v-28.2c0-3.3-2.7-6.3-6-6.3h-18.5c-3,0-5.5,2.5-5.5,5.5v29.5c0,3,2.5,5.5,5.5,5.5h18.5c3.3,0,6-2.7,6-6h0Z"/>
        <rect class="cls-19" x="251.3" y="249.3" width="13.7" height="25.6" rx="4.4" ry="4.4"/>
        <path class="cls-5" d="M265,270.6c0,2.4-2,4.4-4.4,4.4h-5c-2.4,0-4.4-2-4.4-4.4v-10.4"/>
        <path class="cls-17" d="M259.9,271.2l-3.9-1.6c-.8-.3-1.4-2.4-1.4-4.8v-5.2c0-2.4.6-4.5,1.4-4.8l3.9-1.6h-7.8l-3.9,1.6c-.8.3-1.4,2.4-1.4,4.8v5.2c0,2.4.6,4.5,1.4,4.8l3.9,1.6h7.8Z"/>
        <path class="cls-14" d="M256,269.6l3.9,1.6v-18.1l-3.9,1.6c-.8.3-1.4,2.4-1.4,4.8v5.2c0,2.4.6,4.5,1.4,4.8h0Z"/>
        <rect class="cls-15" x="245.5" y="258.5" width="4.6" height="7.4"/>
        <line class="cls-7" x1="239.9" y1="262.8" x2="244.1" y2="262.8"/>
        <path class="cls-6" d="M239.9,264.1h0c0,4.2,3.4,7.6,7.6,7.6h43c6.9,0,12.5,5.6,12.5,12.5h0c0,6.9,5.6,12.5,12.5,12.5h100.1"/>
        <g>
          <path class="cls-16" d="M417.1,295.6h0c0-5,4.1-9.1,9.1-9.1h4.1v18.1h-4.1c-5,0-9.1-4.1-9.1-9.1h0Z"/>
          <path class="cls-13" d="M430.1,298.5c-3.4,1.6-7.5,2.6-11.3,2.3,1.6,2.3,4.3,3.8,7.4,3.8h4.1v-6.2h-.2Z"/>
          <line class="cls-8" x1="431" y1="306.9" x2="431" y2="284.2"/>
          <line class="cls-5" x1="431" y1="290.8" x2="431" y2="284.2"/>
        </g>
        <rect class="cls-47" x="359.1" y="337.2" width="14.9" height="111.6"/>
        <rect class="cls-40" x="372.2" y="337.2" width="10.8" height="111.6"/>
        <rect class="cls-47" x="433" y="337.2" width="14.9" height="111.6"/>
        <rect class="cls-40" x="446.2" y="337.2" width="10.8" height="111.6"/>
        <rect class="cls-47" x="134.8" y="337.2" width="14.9" height="111.6"/>
        <rect class="cls-40" x="148" y="337.2" width="10.8" height="111.6"/>
        <rect class="cls-47" x="219.7" y="337.2" width="14.9" height="111.6"/>
        <rect class="cls-40" x="232.9" y="337.2" width="10.8" height="111.6"/>
        <path class="cls-2" d="M839.1,15.6c0,19.1,15.5,34.7,34.7,34.7s.6,0,.8,0"/>
        <g>
          <path class="cls-63" d="M757.4,12.5c-.4,0-.9,0-1.3.2h0l-.5.2h-.2l-3.3,1.3h0c.6-.3,1.2-.4,1.8-.4,5.1-.2,9.4,8,9.7,18.2.3,10.3-3.6,18.7-8.7,18.9-.6,0-1.2,0-1.8-.3h0l.8.3c1.4,1.4,3,2.2,4.7,2.1,5.5-.2,9.8-9.5,9.5-20.7s-5-20.1-10.6-19.9h-.1Z"/>
          <path class="cls-33" d="M754.8,51c5.1-.2,9-8.7,8.7-18.9-.3-10.3-4.6-18.4-9.7-18.2-.6,0-1.2.2-1.8.4-4.2,1.9-7.1,9.5-6.9,18.5.2,9,3.6,16.4,7.8,17.9.6.2,1.2.3,1.8.3h.1ZM760.4,26.9l-4.3,4.7h0l-7.1,7.6-.9-2.2,4.3-4.7h0l7.1-7.6s.9,2.2.9,2.2Z"/>
          <polygon class="cls-45" points="752.5 32.3 748.2 37 749 39.2 756.1 31.6 756.1 31.5 760.4 26.9 759.5 24.6 752.5 32.3 752.5 32.3"/>
        </g>
        <path class="cls-45" d="M781.8,40.3h0c1,.7,1.4,2.1.7,3.2l.8-1.3c.6-1.1.3-2.6-.7-3.3h0c-1.1-.7-2.4-.4-3.1.7l-1.8,3.1h0l1.1-1.8c.7-1.1,2-1.4,3.1-.7h0Z"/>
        <g>
          <path class="cls-25" d="M791.2,46h0c-1-.7-1.4-2.1-.8-3.2h0l1.8-3.1c.7-1.1,2-1.4,3.1-.7h0c1.1.7,1.4,2.2.7,3.3l-.8,1.3-1.1,1.8h0c-.7,1-2,1.3-3,.7h0Z"/>
          <path class="cls-45" d="M794.5,40.3h0c1,.7,1.4,2.1.7,3.2l.8-1.3c.6-1.1.3-2.6-.7-3.3h0c-1.1-.7-2.4-.4-3.1.7l-1.8,3.1h0l1.1-1.8c.7-1.1,2-1.4,3.1-.7h0Z"/>
          <path class="cls-77" d="M794.2,45.4h0l1.1-1.8c.6-1.1.3-2.5-.7-3.2h0c-1.1-.7-2.4-.4-3.1.7l-1.1,1.8h0c-.6,1.1-.3,2.5.8,3.2h0c1,.7,2.4.4,3-.7h0Z"/>
        </g>
        <g>
          <path class="cls-25" d="M803.9,46h0c-1-.7-1.4-2.1-.8-3.2h0l1.8-3.1c.7-1.1,2-1.4,3.1-.7h0c1.1.7,1.4,2.2.7,3.3l-.8,1.3-1.1,1.8h0c-.7,1-2,1.3-3,.7h0Z"/>
          <path class="cls-45" d="M807.2,40.3h0c1,.7,1.4,2.1.7,3.2l.8-1.3c.6-1.1.3-2.6-.7-3.3h0c-1.1-.7-2.4-.4-3.1.7l-1.8,3.1h0l1.1-1.8c.7-1.1,2-1.4,3.1-.7h0Z"/>
          <path class="cls-77" d="M806.9,45.4h0l1.1-1.8c.6-1.1.3-2.5-.7-3.2h0c-1.1-.7-2.4-.4-3.1.7l-1.1,1.8h0c-.6,1.1-.3,2.5.8,3.2h0c1,.7,2.4.4,3-.7h0Z"/>
        </g>
        <g>
          <path class="cls-25" d="M816.6,46h0c-1-.7-1.4-2.1-.8-3.2h0l1.8-3.1c.7-1.1,2-1.4,3.1-.7h0c1.1.7,1.4,2.2.7,3.3l-.8,1.3-1.1,1.8h0c-.7,1-2,1.3-3,.7h0Z"/>
          <path class="cls-45" d="M819.9,40.3h0c1,.7,1.4,2.1.7,3.2l.8-1.3c.6-1.1.3-2.6-.7-3.3h0c-1.1-.7-2.4-.4-3.1.7l-1.8,3.1h0l1.1-1.8c.7-1.1,2-1.4,3.1-.7h0Z"/>
          <path class="cls-77" d="M819.6,45.4h0l1.1-1.8c.6-1.1.3-2.5-.7-3.2h0c-1.1-.7-2.4-.4-3.1.7l-1.1,1.8h0c-.6,1.1-.3,2.5.8,3.2h0c1,.7,2.4.4,3-.7h0Z"/>
        </g>
        <g>
          <path class="cls-54" d="M431.3,367.8s-2.6-.8-2.6-3.4v3.4h2.6Z"/>
          <g>
            <rect class="cls-21" x="423.1" y="407.7" width="33.1" height="23.6"/>
            <rect class="cls-32" x="412.1" y="407.7" width="11" height="21.2"/>
            <rect class="cls-21" x="429.4" y="360" width="17.9" height="47.7"/>
            <rect class="cls-21" x="540.7" y="360" width="17.9" height="47.7"/>
            <polygon class="cls-54" points="429.5 362 418.5 362 412.1 347.7 423.1 347.7 429.5 362"/>
            <polygon class="cls-21" points="429.5 362 450.7 362 457.1 347.7 457.1 333.5 423.1 333.5 423.1 347.7 429.5 362"/>
            <g>
              <path class="cls-91" d="M497.4,229.9c-1.1,0-1.8.8-1.8,1.8v3.1h4v-5h-2.2Z"/>
              <path class="cls-110" d="M503.4,231.8c0-1.1-.8-1.8-1.8-1.8h-2.1v5h4v-3.1h-.1Z"/>
            </g>
            <rect class="cls-21" x="533.8" y="263.6" width="4.2" height="16.9"/>
            <rect class="cls-21" x="471.8" y="263.6" width="4.9" height="3.4"/>
            <rect class="cls-110" x="473" y="246.9" width="4.9" height="12.5"/>
            <rect class="cls-21" x="490" y="247.5" width="3.7" height="19.2"/>
            <g>
              <path class="cls-21" d="M440.1,292.1c-9.4,0-17,7.7-17,17.2v38.5h34v-38.5c0-9.5-7.6-17.2-17-17.2h0Z"/>
              <path class="cls-32" d="M423.2,309.3c0-9.5,7.6-17.2,17-17.2h-11c-9.4,0-17,7.7-17,17.2v38.5h11v-38.5h0Z"/>
            </g>
            <polygon class="cls-21" points="539.7 407.7 523 428.8 508.5 428.8 508.5 407.7 539.7 407.7"/>
            <polygon class="cls-104" points="434.6 292.2 434.6 407.7 467 407.7 467 402.9 467 381.2 467 369.5 467 363.1 467 361.4 467 292.2 434.6 292.2"/>
            <polygon class="cls-21" points="543.5 407.7 467 407.7 467 382.7 467 371.6 467 292.2 543.5 292.2 543.5 407.7"/>
            <rect class="cls-72" x="467" y="328.8" width="12.5" height="40.2"/>
            <g>
              <path class="cls-78" d="M489,330.2h10.9c1.1,0,2.1.9,2.1,2.1v33.3c0,1.1-.9,2.1-2.1,2.1h-10.9c-1.1,0-2.1-.9-2.1-2.1v-33.3c0-1.1.9-2.1,2.1-2.1h0Z"/>
              <path class="cls-78" d="M499.9,331.5c.5,0,.8.4.8.8v33.3c0,.5-.4.8-.8.8h-10.9c-.5,0-.8-.4-.8-.8v-33.3c0-.5.4-.8.8-.8h10.9M499.9,328.8h-10.9c-1.9,0-3.4,1.5-3.4,3.4v33.3c0,1.9,1.5,3.4,3.4,3.4h10.9c1.9,0,3.4-1.5,3.4-3.4v-33.3c0-1.9-1.5-3.4-3.4-3.4h0Z"/>
            </g>
            <g>
              <polygon class="cls-78" points="487 379.6 486.9 374.9 502 374.9 502.1 379.5 502 379.6 487 379.6"/>
              <path class="cls-78" d="M500.7,376.2v2h-12.5v-2h12.5M502,373.6h-15c-.8,0-1.4.6-1.4,1.4v4.6c0,.8.6,1.4,1.4,1.4h15c.8,0,1.4-.6,1.4-1.4v-4.6c0-.8-.6-1.4-1.4-1.4h0Z"/>
            </g>
            <g>
              <rect class="cls-78" x="487.3" y="386.7" width="4.3" height="15.1"/>
              <path class="cls-78" d="M490.3,388v12.4h-1.7v-12.4h1.7M491.9,385.4h-4.8c-.6,0-1.1.5-1.1,1.1v15.6c0,.6.5,1.1,1.1,1.1h4.8c.6,0,1.1-.5,1.1-1.1v-15.6c0-.6-.5-1.1-1.1-1.1h0Z"/>
            </g>
            <g>
              <rect class="cls-78" x="497.7" y="386.7" width="4.3" height="15.1"/>
              <path class="cls-78" d="M500.7,388v12.4h-1.7v-12.4h1.7M502.3,385.4h-4.8c-.6,0-1.1.5-1.1,1.1v15.6c0,.6.5,1.1,1.1,1.1h4.8c.6,0,1.1-.5,1.1-1.1v-15.6c0-.6-.5-1.1-1.1-1.1h0Z"/>
            </g>
            <rect class="cls-1" x="467" y="375.1" width="10.7" height="4.1"/>
            <rect class="cls-104" x="463.2" y="375.1" width="3.8" height="4.1"/>
            <g>
              <rect class="cls-78" x="508" y="374.9" width="8.3" height="4.7"/>
              <path class="cls-78" d="M514.9,376.2v2h-5.6v-2h5.6M516.2,373.6h-8.3c-.8,0-1.3.6-1.3,1.3v4.7c0,.8.6,1.3,1.3,1.3h8.3c.8,0,1.3-.6,1.3-1.3v-4.7c0-.8-.6-1.3-1.3-1.3h0Z"/>
            </g>
            <g>
              <path class="cls-78" d="M509.7,302.7h4.6c1,0,1.8.8,1.8,1.8v61.4c0,1-.8,1.8-1.8,1.8h-4.6c-1,0-1.8-.8-1.8-1.8v-61.4c0-1,.8-1.8,1.8-1.8h0Z"/>
              <path class="cls-78" d="M514.4,304c.3,0,.5.2.5.5v61.4c0,.3-.2.5-.5.5h-4.6c-.3,0-.5-.2-.5-.5v-61.4c0-.3.2-.5.5-.5h4.6M514.4,301.4h-4.6c-1.8,0-3.1,1.4-3.1,3.1v61.4c0,1.8,1.4,3.1,3.1,3.1h4.6c1.8,0,3.1-1.4,3.1-3.1v-61.4c0-1.8-1.4-3.1-3.1-3.1h0Z"/>
            </g>
            <rect class="cls-54" x="441.1" y="328.8" width="15.9" height="15.3" rx="2.2" ry="2.2"/>
            <g>
              <rect class="cls-54" x="450.9" y="348" width="5.9" height="20.6"/>
              <path class="cls-54" d="M456.5,348.4v20h-5.2v-20h5.2M457.1,347.7h-6.5v21.3h6.5v-21.3h0Z"/>
            </g>
            <rect class="cls-48" x="441.1" y="347.7" width="5.2" height="3.1"/>
            <rect class="cls-36" x="446.3" y="347.7" width="2.6" height="3.1"/>
            <rect class="cls-48" x="441.1" y="352.3" width="5.2" height="3.1"/>
            <rect class="cls-36" x="446.3" y="352.3" width="2.6" height="3.1"/>
            <rect class="cls-48" x="441.1" y="356.8" width="5.2" height="3.1"/>
            <rect class="cls-36" x="446.3" y="356.8" width="2.6" height="3.1"/>
            <rect class="cls-48" x="441.1" y="361.3" width="5.2" height="3.1"/>
            <rect class="cls-36" x="446.3" y="361.3" width="2.6" height="3.1"/>
            <rect class="cls-48" x="441.1" y="365.8" width="5.2" height="3.1"/>
            <rect class="cls-36" x="446.3" y="365.8" width="2.6" height="3.1"/>
            <path class="cls-1" d="M467.5,346.7h6.1c1.5,0,2.8-1.2,2.8-2.7v-9.6c0-1.5-1.2-2.7-2.8-2.7h-6.4v14.9h.4-.1Z"/>
            <path class="cls-105" d="M464.7,334.4v9.6c0,1.4,1.1,2.5,2.4,2.7v-14.9c-1.4.2-2.4,1.3-2.4,2.7h0Z"/>
            <path class="cls-105" d="M463.8,344v-9.6c0-1.8,1.4-3.2,3.2-3.4v-2.1h-5.3v40.2h5.3v-21.6c-1.8-.2-3.2-1.7-3.2-3.4h0Z"/>
            <path class="cls-70" d="M473.6,330.9h-6.4v.8h6.4c1.5,0,2.8,1.2,2.8,2.7v9.6c0,1.5-1.2,2.7-2.8,2.7h-6.4v.8h6.4c2,0,3.7-1.5,3.7-3.5v-9.6c0-1.9-1.6-3.5-3.7-3.5Z"/>
            <path class="cls-101" d="M464.7,344v-9.6c0-1.4,1.1-2.5,2.4-2.7v-.8c-1.8.2-3.2,1.7-3.2,3.4v9.6c0,1.8,1.4,3.2,3.2,3.4v-.8c-1.4-.2-2.4-1.3-2.4-2.7v.2Z"/>
            <path class="cls-70" d="M473.6,350.1h-6.4v.8h6.4c1.5,0,2.8,1.2,2.8,2.7v9.6c0,1.5-1.2,2.7-2.8,2.7h-6.4v.8h6.4c2,0,3.7-1.5,3.7-3.5v-9.6c0-1.9-1.6-3.5-3.7-3.5Z"/>
            <path class="cls-101" d="M464.7,363.1v-9.6c0-1.4,1.1-2.5,2.4-2.7v-.8c-1.8.2-3.2,1.7-3.2,3.4v9.6c0,1.8,1.4,3.2,3.2,3.4v-.8c-1.4-.2-2.4-1.3-2.4-2.7v.2Z"/>
            <g>
              <rect class="cls-54" x="446.6" y="373.8" width="10.2" height="6.7"/>
              <path class="cls-54" d="M456.5,374.1v6.2h-9.7v-6.2h9.7M457.1,373.6h-10.7v7.3h10.7v-7.3h0Z"/>
            </g>
            <rect class="cls-86" x="441.2" y="385.4" width="15.4" height="17.7"/>
            <rect class="cls-98" x="442.8" y="390.1" width="6.6" height="13"/>
            <rect class="cls-105" x="461.6" y="385.4" width="5.4" height="17.7"/>
            <rect class="cls-72" x="467" y="385.4" width="12.3" height="17.7"/>
            <rect class="cls-1" x="467" y="312" width="35.6" height="10.8"/>
            <rect class="cls-1" x="442" y="312" width="25.1" height="10.8"/>
            <polygon class="cls-78" points="504.2 292.2 502.5 292.2 502.5 310.5 467 310.5 467 312 502.5 312 502.5 322.8 467 322.8 467 324.4 504.2 324.4 504.2 292.2"/>
            <polygon class="cls-84" points="442 322.8 442 312 467 312 467 310.5 442 310.5 442 292.2 440.4 292.2 440.4 310.5 440.4 312 440.4 324.4 467 324.4 467 322.8 442 322.8"/>
            <polygon class="cls-104" points="508.5 407.7 504.5 407.7 504.5 412.9 441.7 412.9 454.3 428.8 485.9 428.8 491.3 428.8 508.5 428.8 508.5 418.2 531.4 418.2 539.7 407.7 508.5 407.7"/>
            <polygon class="cls-37" points="504.5 407.7 491.3 407.7 485.9 407.7 437.6 407.7 441.7 412.9 504.5 412.9 504.5 407.7"/>
            <path class="cls-1" d="M487.8,244.3l.2-.2-.2.2Z"/>
            <path class="cls-1" d="M485.4,246.2h.2-.2Z"/>
            <path class="cls-1" d="M490.5,242.4s.2-.2.3-.2c0,0-.2.2-.3.2Z"/>
            <path class="cls-1" d="M493.4,240.6s-.2,0-.2.2c0,0,.2,0,.2-.2h0Z"/>
            <path class="cls-1" d="M467.6,278.1v-.3.3Z"/>
            <polygon class="cls-1" points="467.3 281 467.3 281 467.3 281 467.3 281"/>
            <path class="cls-1" d="M468.1,275.4v-.4.4Z"/>
            <path class="cls-1" d="M469.6,269.7v-.2.2Z"/>
            <path class="cls-1" d="M483.2,248.2h0Z"/>
            <polygon class="cls-59" points="434.8 286.7 434.8 286.7 434.8 292.5 467.2 292.5 467.2 292.3 434.8 292.3 434.8 286.7"/>
            <rect class="cls-110" x="434.8" y="286.7" width="32.4" height="5.6"/>
            <rect class="cls-21" x="467.2" y="286.7" width="76.4" height="5.7"/>
            <path class="cls-92" d="M467.3,281h0Z"/>
            <path class="cls-92" d="M467.2,283v2.1-2.1Z"/>
            <path class="cls-92" d="M543.4,281h-76c0,.7,0,1.4-.2,2v3.7h76.4v-5.7h-.2Z"/>
            <path class="cls-43" d="M467.2,285v-2.1c0-.7,0-1.4.2-2h-32.4c0,1.4-.2,2.8-.2,4.1v1.6h32.4v-1.6h0Z"/>
            <path class="cls-43" d="M467.3,281c0,.7,0,1.4-.2,2,0-.7,0-1.4.2-2Z"/>
            <path class="cls-110" d="M467.4,281h0c0-.9.2-1.8.3-2.8v-.3c.2-.8.2-1.6.4-2.4v-.4c.4-1.8.8-3.6,1.4-5.4v-.2c1.1-3.6,2.7-6.9,4.6-10.1s0-.1,0-.2l1.5-10.5c0-.2.2-.4.5-.4h6.9c.8-.7,1.5-1.4,2.3-2.1h.2c.8-.6,1.5-1.2,2.3-1.8l.2-.2c.8-.6,1.6-1.1,2.5-1.8,0,0,.2-.2.3-.2.8-.5,1.5-1,2.4-1.5,0,0,.2,0,.2-.2h-1.7c-.3,0-.5-.2-.5-.5v-6.5c0-.3-.2-.5-.5-.5h-3.7c-.3,0-.5.2-.5.5v6.4c0,.3-.2.5-.5.5h-25.2c-14.3,8.4-24.4,22.9-25.9,39.7s.2.5.5.5h32v.4h0Z"/>
            <path class="cls-110" d="M468.2,275.1c.4-1.8.8-3.6,1.4-5.4-.5,1.8-1,3.5-1.4,5.4Z"/>
            <path class="cls-110" d="M485.6,246.1c.8-.6,1.5-1.2,2.3-1.8-.8.6-1.5,1.2-2.3,1.8Z"/>
            <path class="cls-110" d="M488,244.1c.8-.6,1.6-1.1,2.5-1.8-.8.5-1.6,1.1-2.5,1.8Z"/>
            <path class="cls-110" d="M490.9,242.2c.8-.5,1.5-1,2.4-1.5-.8.5-1.6,1-2.4,1.5Z"/>
            <path class="cls-110" d="M483.2,248.2c.8-.7,1.5-1.4,2.3-2.1-.8.7-1.5,1.3-2.3,2.1Z"/>
            <path class="cls-110" d="M474.2,259.4c-1.9,3.2-3.4,6.6-4.6,10.2,1.1-3.6,2.8-7,4.6-10.2h0Z"/>
            <path class="cls-110" d="M467.7,277.8c.2-.8.2-1.6.4-2.4-.2.8-.3,1.6-.4,2.4Z"/>
            <path class="cls-110" d="M467.3,281c0-.9.2-1.8.3-2.8-.2.9-.2,1.8-.3,2.8Z"/>
            <path class="cls-109" d="M483.1,248.3h0Z"/>
            <path class="cls-43" d="M483,248.5c-3.4,3.3-6.4,7-8.7,11h0c2.4-4,5.4-7.7,8.7-11Z"/>
            <path class="cls-109" d="M496,239.9c.2,0,.3-.2.5-.2-.2,0-.3.2-.5.2Z"/>
            <path class="cls-109" d="M502,237.3c.2,0,.5-.2.6-.2-.2,0-.5.2-.6.2Z"/>
            <path class="cls-109" d="M499.1,238.5h.2-.2Z"/>
            <path class="cls-109" d="M493.5,240.6h0Z"/>
            <path class="cls-109" d="M502.6,236.4c-.2,0-.5.2-.6.2-.9.3-1.8.7-2.7,1.1h-.2c-.8.4-1.7.8-2.5,1.1-.2,0-.3.2-.5.2-.8.5-1.8.9-2.6,1.4h24.1c-3.8-2.1-7.7-3.9-12-5.2-.9.3-1.9.6-2.8.9v.2h-.2,0Z"/>
            <path class="cls-68" d="M493.4,240.6h0c.8-.5,1.7-.9,2.6-1.4.2,0,.3-.2.5-.2.8-.4,1.7-.8,2.5-1.1h.2c.9-.4,1.8-.8,2.7-1.1.2,0,.5-.2.6-.2.9-.3,1.8-.6,2.8-.9-4.5-1.4-9.3-2.1-14.3-2.3v7.5h2.2v-.2h.2,0Z"/>
            <path class="cls-109" d="M502.6,237c.9-.3,1.8-.6,2.8-.9-.9.3-1.9.6-2.8.9Z"/>
            <path class="cls-109" d="M493.5,240.6c.8-.5,1.7-.9,2.6-1.4-.8.5-1.8.9-2.6,1.4Z"/>
            <path class="cls-109" d="M496.5,239.6c.8-.4,1.7-.8,2.5-1.1-.8.4-1.7.8-2.5,1.1Z"/>
            <path class="cls-109" d="M499.3,238.4c.9-.4,1.8-.8,2.7-1.1-.9.3-1.8.7-2.7,1.1Z"/>
            <path class="cls-68" d="M486.6,233.1c-9.4.5-18,3.1-25.5,7.4h25.5v-7.4Z"/>
            <path class="cls-21" d="M543.5,279.1v.2h-8.8v-14.8h4.8c-4.5-10-12.2-18.3-21.8-23.9h-24.1s-.2,0-.2.2c-.8.5-1.6,1-2.4,1.5,0,0-.2.2-.3.2-.8.5-1.6,1.1-2.5,1.8l-.2.2c-.8.6-1.5,1.2-2.3,1.8h-.2c-.8.7-1.5,1.3-2.3,2.1h9.2v17.3h-19l.9-6.3c-1.9,3.2-3.5,6.6-4.6,10.2v.2c-.5,1.8-1,3.5-1.4,5.4v.4c-.2.8-.3,1.6-.4,2.4v.3c-.2.9-.2,1.8-.3,2.8h76.4c0-.6-.2-1.1-.2-1.8h-.2v-.2h-.1Z"/>
            <path class="cls-92" d="M534.5,278.2c0,.6.5,1.1,1.1,1.1h7.7v-.2c-.6-5.1-2-10.1-4.1-14.6h-3.6c-.6,0-1.1.5-1.1,1.1v12.6h0Z"/>
            <path class="cls-22" d="M446,278.2c0,.6-.5,1.1-1.1,1.1h-7.7v-.2c.6-5.1,2-10.1,4.1-14.6h3.6c.6,0,1.1.5,1.1,1.1v12.6h0Z"/>
            <rect class="cls-35" x="479.1" y="268" width="15.8" height="10.5" rx=".8" ry=".8"/>
            <g>
              <path class="cls-21" d="M548.1,292.1c-9.4,0-17,7.7-17,17.2v38.5h34v-38.5c0-9.5-7.6-17.2-17-17.2h0Z"/>
              <path class="cls-32" d="M531,309.3c0-9.5,7.6-17.2,17-17.2h-11c-9.4,0-17,7.7-17,17.2v38.5h11v-38.5Z"/>
            </g>
            <circle class="cls-70" cx="470.3" cy="394.2" r="7"/>
            <circle class="cls-95" cx="470.3" cy="394.2" r="5.5"/>
            <rect class="cls-37" x="502.8" y="407.7" width="5.8" height="21.2"/>
            <rect class="cls-37" x="454.4" y="407.7" width="5.8" height="21.2"/>
            <rect class="cls-37" x="467" y="407.7" width="5.8" height="21.2"/>
            <rect class="cls-37" x="479.1" y="407.7" width="5.8" height="21.2"/>
            <rect class="cls-37" x="491.1" y="407.7" width="5.8" height="21.1"/>
            <g>
              <polygon class="cls-58" points="460.9 314.1 455.7 315.8 449.9 315.8 449.9 315.8 449.9 317.5 449.9 319.1 449.9 319.1 455.7 319.1 460.9 320.8 467 320.8 467 314.1 460.9 314.1"/>
              <polygon class="cls-109" points="474.2 315.8 474.2 314.1 472.8 314.1 467 314.1 467 320.8 472.8 320.8 474.2 320.8 474.2 319.1 474.2 317.5 474.2 315.8"/>
              <polygon class="cls-109" points="485.2 314.1 485.2 317.5 485.2 320.8 497.2 320.8 497.2 314.1 485.2 314.1"/>
              <rect class="cls-62" x="497.2" y="314.1" width="1.5" height="6.7"/>
              <polygon class="cls-109" points="485.2 314.1 480 315.8 476.7 315.8 476.7 319.1 480 319.1 485.2 320.8 485.2 317.5 485.2 314.1"/>
              <polygon class="cls-44" points="449.9 315.8 448.2 315.8 448.2 319.1 449.9 319.1 449.9 317.5 449.9 315.8"/>
              <polygon class="cls-34" points="474.2 315.8 474.2 317.5 474.2 319.1 476.7 319.1 476.7 315.8 474.2 315.8"/>
            </g>
            <g>
              <polygon class="cls-58" points="461.5 302 449.6 302 449.6 308.7 461.5 308.7 461.5 305.3 461.5 302"/>
              <rect class="cls-62" x="448.2" y="302" width="1.5" height="6.7"/>
              <rect class="cls-109" x="467" y="303.7" width="3.1" height="3.4"/>
              <polygon class="cls-81" points="467 303.7 461.5 302 461.5 305.3 461.5 308.7 467 307 467 307 467 303.7 467 303.7"/>
              <polygon class="cls-109" points="496.8 303.7 491 303.7 485.8 302 473.9 302 472.5 302 472.5 303.7 472.5 305.3 472.5 307 472.5 308.7 473.9 308.7 485.8 308.7 491 307 496.8 307 496.8 307 496.8 305.3 496.8 303.7"/>
              <polygon class="cls-44" points="496.8 303.7 496.8 305.3 496.8 307 498.6 307 498.6 303.7 496.8 303.7"/>
              <polygon class="cls-34" points="472.5 303.7 470.1 303.7 470.1 307 472.5 307 472.5 305.3 472.5 303.7"/>
            </g>
            <polygon class="cls-81" points="455.6 319.1 461.1 320.8 461.1 317.5 461.1 314.1 455.6 315.8 455.6 315.8 455.6 319.1 455.6 319.1"/>
            <g>
              <rect class="cls-66" x="465.3" y="339.6" width="2.1" height="2.2"/>
              <rect class="cls-66" x="465.3" y="336.7" width="2.1" height="2"/>
              <path class="cls-66" d="M474.1,344.4h-5.1c-.8,0-1.5-.7-1.5-1.5v-.2h-2.1v1c0,1,.8,1.9,1.8,2.1h6.1c1.2,0,2.2-.9,2.2-2.1v-.8c0,.8-.7,1.5-1.5,1.5h.1Z"/>
              <path class="cls-66" d="M473.3,332.6h-6.1c-1.1.2-1.8,1-1.8,2.1v1.1h2.1v-.5c0-.8.7-1.5,1.5-1.5h5.1c.8,0,1.5.7,1.5,1.5v-.7c0-1.1-1-2.1-2.2-2.1h-.1Z"/>
              <path class="cls-70" d="M473.3,330.8h-6.3c-2,.2-3.5,1.8-3.5,3.8v9.1c0,1.9,1.5,3.5,3.6,3.8h6.2c2.1,0,4-1.7,4-3.8v-9.1c0-2.1-1.8-3.8-4-3.8v.2-.2h0ZM475.5,335.3v8.4c0,1.1-1,2.1-2.2,2.1h-6.1c-1.1-.2-1.8-1-1.8-2.1v-9.1c0-1,.8-1.9,1.8-2.1h6.1c1.2,0,2.2.9,2.2,2.1v.7h0Z"/>
              <path class="cls-96" d="M467.5,342.9c0,.8.7,1.5,1.5,1.5h5.1c.8,0,1.5-.7,1.5-1.5v-.2h-8v.2h-.1Z"/>
              <path class="cls-96" d="M474.1,333.8h-5.1c-.8,0-1.5.7-1.5,1.5v.5h8v-.5c0-.8-.7-1.5-1.5-1.5h.1Z"/>
              <rect class="cls-96" x="467.5" y="339.6" width="8" height="2.2"/>
              <rect class="cls-96" x="467.5" y="336.7" width="8" height="2"/>
              <polygon class="cls-73" points="465.3 335.8 465.3 336.7 467.5 336.7 475.5 336.7 475.5 335.8 467.5 335.8 465.3 335.8"/>
              <polygon class="cls-73" points="465.3 338.7 465.3 339.6 467.5 339.6 475.5 339.6 475.5 338.7 467.5 338.7 465.3 338.7"/>
              <polygon class="cls-73" points="465.3 341.8 465.3 342.8 467.5 342.8 475.5 342.8 475.5 341.8 467.5 341.8 465.3 341.8"/>
            </g>
            <g>
              <path class="cls-1" d="M481.4,379.9c.2,0,.4-.2.4-.4v-4.5c0-.2-.2-.4-.4-.4h-14.3v5.4h14.3Z"/>
              <path class="cls-1" d="M461,375v4.5c0,.2.2.4.4.4h5.7v-5.4h-5.7c-.2,0-.4.2-.4.4h0Z"/>
              <path class="cls-78" d="M481.4,373.2h-14.3v1.4h14.3c.2,0,.4.2.4.4v4.5c0,.2-.2.4-.4.4h-14.3v1.4h14.3c1,0,1.8-.8,1.8-1.8v-4.5c0-1-.8-1.8-1.8-1.8Z"/>
              <path class="cls-54" d="M461.4,379.9c-.2,0-.4-.2-.4-.4v-4.5c0-.2.2-.4.4-.4h5.7v-1.4h-5.7c-1,0-1.8.8-1.8,1.8v4.5c0,1,.8,1.8,1.8,1.8h5.7v-1.4h-5.7Z"/>
            </g>
            <g>
              <rect class="cls-66" x="467" y="358.9" width=".5" height="2.2"/>
              <rect class="cls-66" x="467" y="355.9" width=".5" height="2"/>
              <path class="cls-66" d="M474.5,363.5h-5.4c-.8,0-1.5-.7-1.5-1.5v-.2h-.5v3h6.4c.4,0,.8,0,1.1-.3v-1.2.2h-.1Z"/>
              <path class="cls-66" d="M467.5,355v-.5c0-.8.7-1.5,1.5-1.5h5.4v-1.1c-.3-.2-.7-.3-1.1-.3h-6.4v3.1h.5v.2h.1Z"/>
              <path class="cls-96" d="M468.4,362h-.8v.2c0,.8.7,1.5,1.5,1.5h5.4v-1.5h-6.1v-.2Z"/>
              <path class="cls-96" d="M474.5,355v-1.9h-5.4c-.8,0-1.5.7-1.5,1.5v.5h6.9Z"/>
              <polygon class="cls-96" points="467.5 358.9 467.5 361.1 468.4 361.1 474.5 361.1 474.5 358.9 468.4 358.9 467.5 358.9"/>
              <polygon class="cls-96" points="467.5 355.9 467.5 357.9 468.4 357.9 474.5 357.9 474.5 355.9 468.4 355.9 467.5 355.9"/>
              <rect class="cls-56" x="466.7" y="358.9" width=".2" height="2.2"/>
              <rect class="cls-56" x="466.7" y="355.9" width=".2" height="2"/>
              <path class="cls-56" d="M466.7,362v2.8h.2v-3h-.2v.2Z"/>
              <path class="cls-56" d="M467,355v-3.1h-.2v3.1h.2Z"/>
              <path class="cls-82" d="M474.5,355v9.7c.7-.4,1.1-1,1.1-1.8v-9.1c0-.8-.5-1.5-1.1-1.8v3h0Z"/>
              <path class="cls-82" d="M466.7,361.1v-9.1c-.8.3-1.4,1-1.4,1.9v9.1c0,.8.5,1.6,1.4,1.9v-3.8h0Z"/>
              <path class="cls-70" d="M473.3,350h-6.3c-2,.2-3.5,1.8-3.5,3.8v9.1c0,1.9,1.5,3.5,3.6,3.8h6.2c2.1,0,4-1.7,4-3.8v-9.1c0-2.1-1.8-3.8-4-3.8v.2-.2h0ZM467.6,365.1h-.7c-.8-.3-1.4-1-1.4-1.9v-9.1c0-.8.5-1.6,1.4-1.9h6.6c.4,0,.8,0,1.1.3.7.4,1.1,1,1.1,1.8v9.1c0,.8-.5,1.5-1.1,1.8-.3.2-.7.3-1.1.3h-5.8v-.4h-.1Z"/>
              <polygon class="cls-73" points="467.5 355.9 468.4 355.9 474.5 355.9 474.5 355 468.4 355 467.5 355 467 355 466.7 355 466.7 355.9 467 355.9 467.5 355.9"/>
              <polygon class="cls-73" points="467.5 358.9 468.4 358.9 474.5 358.9 474.5 357.9 468.4 357.9 467.5 357.9 467 357.9 466.7 357.9 466.7 358.9 467 358.9 467.5 358.9"/>
              <polygon class="cls-73" points="474.5 362 474.5 361.1 468.4 361.1 467.5 361.1 467 361.1 466.7 361.1 466.7 362 467 362 467.5 362 468.4 362 474.5 362"/>
            </g>
            <rect class="cls-111" x="455.6" y="294.5" width="41" height="2.1" rx=".5" ry=".5"/>
            <rect class="cls-35" x="474.1" y="268" width="2.1" height="10.5" rx=".8" ry=".8"/>
            <rect class="cls-35" x="474.5" y="268" width="2.1" height="10.5" rx=".8" ry=".8"/>
            <g>
              <rect class="cls-35" x="511.7" y="264.5" width="8.8" height="14.8" rx=".7" ry=".7"/>
              <rect class="cls-92" x="510.2" y="264.5" width="8.8" height="14.8" rx=".7" ry=".7"/>
            </g>
            <g>
              <rect class="cls-35" x="524.1" y="264.5" width="8.8" height="14.8" rx=".7" ry=".7"/>
              <rect class="cls-92" x="522.5" y="264.5" width="8.8" height="14.8" rx=".7" ry=".7"/>
            </g>
            <path class="cls-35" d="M476.8,259.4l-.6,4.2c-.2,1.1.7,2,1.8,2h15.1c1,0,1.8-.8,1.8-1.8v-13.4c0-1.1-.9-2.1-2.1-2.1h-7.2c-3.4,3.4-6.4,7.1-8.7,11h0Z"/>
            <path class="cls-109" d="M474.2,259.4l-.6,4.2c-.2,1.1.7,2,1.8,2h15.1c1,0,1.8-.8,1.8-1.8v-13.4c0-1.1-.9-2.1-2.1-2.1h-7.2c-3.4,3.4-6.4,7.1-8.7,11h0Z"/>
            <path class="cls-43" d="M483.1,248.3h-5.4c-1,0-1.8.8-2,1.8l-1.4,9.4c2.5-4.1,5.4-7.7,8.8-11h0v-.2Z"/>
            <g>
              <ellipse class="cls-107" cx="482.4" cy="256" rx="6.3" ry="6.1"/>
              <ellipse class="cls-70" cx="484.9" cy="257.8" rx="1" ry=".9"/>
              <ellipse class="cls-70" cx="481.4" cy="254.6" rx="2.9" ry="2.8"/>
            </g>
            <rect class="cls-92" x="476.5" y="268" width="15.8" height="10.5" rx=".8" ry=".8"/>
            <circle class="cls-31" cx="486.9" cy="273.3" r="3.7"/>
            <rect class="cls-92" x="473.3" y="268" width="2.1" height="10.5" rx=".8" ry=".8"/>
            <g>
              <path class="cls-67" d="M502.1,269.2c-.5,0-1,0-1.5.2h-.3l-.9.5h.9c2.1,0,3.8,1.7,3.8,3.8s-1.7,3.8-3.8,3.8-.6,0-.9-.2h0l1.2.5h0c.5.2.9.2,1.5.2,2.5,0,4.4-2,4.4-4.4s-2-4.4-4.4-4.4h0Z"/>
              <path class="cls-57" d="M500.4,277.4c2.1,0,3.8-1.7,3.8-3.8s-1.7-3.8-3.8-3.8-.6,0-.9.2c-1.6.4-2.8,1.9-2.8,3.7s1.2,3.2,2.8,3.7c.3,0,.6.2.9.2v-.2h0Z"/>
            </g>
            <circle class="cls-67" cx="499.8" cy="273.5" r="3.1"/>
            <rect class="cls-67" x="498.6" y="270.4" width="1.4" height="6.3"/>
            <circle class="cls-57" cx="498.7" cy="273.5" r="3.1"/>
            <circle class="cls-67" cx="498.7" cy="273.5" r="2.5"/>
            <path class="cls-68" d="M444,278.2c0,.6-.5,1.1-1.1,1.1h-7.7v-.2c.6-5.1,2-10.1,4.1-14.6h3.6c.6,0,1.1.5,1.1,1.1v12.6h0Z"/>
            <polygon class="cls-54" points="537.4 362 526.4 362 520.1 347.7 531 347.7 537.4 362"/>
            <polygon class="cls-21" points="547.8 362 558.7 362 565.1 347.7 554.1 347.7 547.8 362"/>
            <polygon class="cls-21" points="537.4 362 558.7 362 565.1 347.7 565.1 333.5 531 333.5 531 347.7 537.4 362"/>
            <circle class="cls-107" cx="499.2" cy="273.5" r="1.9"/>
            <rect class="cls-80" x="542" y="316.4" width="9.6" height="91.3"/>
            <circle class="cls-57" cx="550.1" cy="310" r="10.3"/>
            <circle class="cls-32" cx="547.8" cy="310" r="8"/>
            <rect class="cls-32" x="526.4" y="362" width="11" height="45.7"/>
            <rect class="cls-32" x="418.4" y="362" width="11" height="45.7"/>
            <rect class="cls-21" x="531.9" y="407.7" width="33.1" height="21.2"/>
            <rect class="cls-32" x="520.9" y="407.7" width="11" height="21.2"/>
            <path class="cls-32" d="M547.3,412.4h2.3c8.5,0,15.4,6.9,15.4,15.4v1h-33.1v-1c0-8.5,6.9-15.4,15.4-15.4h0Z"/>
            <rect class="cls-109" x="545.4" y="316.4" width="9.6" height="91.3"/>
            <rect class="cls-109" x="548.9" y="316.4" width="9.6" height="14.5"/>
            <polygon class="cls-80" points="555 335.7 545.4 335.7 548.9 330.8 558.5 330.8 555 335.7"/>
            <polygon class="cls-80" points="542 316.4 548.9 316.4 548.9 330.8 545.4 335.7 542 335.7 542 316.4"/>
            <path class="cls-110" d="M467.9,277.1s0,3.8,3.9,3.8h-6.4l1-5.3,1.5,1.5Z"/>
            <path class="cls-110" d="M467.2,290.6s0-3.8,3.9-3.8h-6.4l1,5.3,1.5-1.5Z"/>
            <rect class="cls-18" x="448" y="292.2" width="50.6" height="6.7" rx="1.3" ry="1.3"/>
            <path class="cls-21" d="M498.3,238"/>
            <path class="cls-54" d="M527.7,347.7s3.3-1,3.3-4.3v4.3h-3.3Z"/>
            <path class="cls-54" d="M523.4,347.7s-3.3-1-3.3-4.3v4.3h3.3Z"/>
            <path class="cls-54" d="M419.9,347.9s3.3-1,3.3-4.3v4.3h-3.3Z"/>
            <polygon class="cls-54" points="537.5 428.8 537.5 449.1 505.8 449.1 521 428.8 537.5 428.8"/>
            <polygon class="cls-21" points="565.1 428.8 548.5 428.8 531.9 428.8 516.7 449.1 548.5 449.1 580.3 449.1 565.1 428.8"/>
            <g>
              <polygon class="cls-54" points="428.6 428.8 428.6 428.8 412.1 428.8 396.8 449.1 407.9 449.1 423.1 428.8 428.6 428.8"/>
              <polygon class="cls-21" points="456.3 428.8 439.7 428.8 428.6 428.8 423.1 428.8 407.9 449.1 428.6 449.1 439.7 449.1 471.5 449.1 456.3 428.8"/>
            </g>
            <rect class="cls-70" x="471.3" y="393.7" width="4.6" height="1.2"/>
            <rect class="cls-70" x="468.1" y="388.1" width="1.2" height="11.8"/>
            <circle class="cls-89" cx="468.7" cy="394.2" r="3.1"/>
            <circle class="cls-39" cx="468.7" cy="394.2" r="2.1"/>
            <path class="cls-21" d="M563.9,426h-30.7c-1.2,0-2.1-1-2.1-2.1s1-2.1,2.1-2.1h30.7c1.2,0,2.1,1,2.1,2.1s-1,2.1-2.1,2.1Z"/>
            <rect class="cls-109" x="541.2" y="419.6" width="15.2" height="8.5"/>
            <path class="cls-80" d="M541.2,419.6v8.5l2.8-2.9c.7-.8.7-1.9,0-2.7l-2.8-2.9h0Z"/>
            <path class="cls-109" d="M556.4,419.6v8.5l2.8-2.9c.7-.8.7-1.9,0-2.7l-2.8-2.9h0Z"/>
            <circle class="cls-21" cx="541.2" cy="423.9" r="2.1"/>
            <circle class="cls-109" cx="549.7" cy="420.1" r="4"/>
            <polygon class="cls-54" points="531.9 428.8 527.5 449.1 514.3 449.1 528 428.8 531.9 428.8"/>
          </g>
          <rect class="cls-43" x="465" y="281" width="6.8" height="5.7"/>
          <path class="cls-104" d="M467,403.1s-.2,4.6,4.8,4.6h-9.5l4.8-4.6h0Z"/>
          <path class="cls-64" d="M519.2,245.2c-2.6,1-6.2,3.1-10,7-2,2.1-.2,5.4,2.6,5.1,5.1-.7,12.4-2.4,19.5-.2,6.2,2,2.2-1.1,1.8-3.1-1.8-2.2-4.1-5-7-7.4-2.8-2.5-4.6-2.2-7-1.3h0Z"/>
          <circle class="cls-102" cx="544.5" cy="310" r="4"/>
          <rect class="cls-54" x="506.6" y="386.1" width="15.9" height="15.3" rx="2.2" ry="2.2"/>
          <circle class="cls-43" cx="471.8" cy="283.8" r="2.8"/>
          <rect class="cls-21" x="423.1" y="424.2" width="12" height="10.9"/>
          <polygon class="cls-54" points="423.1 428.8 428.7 449.1 397 449.1 412.1 428.8 423.1 428.8"/>
        </g>
        <g>
          <g>
            <circle class="cls-33" cx="803" cy="78.7" r="26.2"/>
            <g>
              <g>
                <path class="cls-83" d="M753.6,146.1c8.1-4.4,18.4-1.4,22.8,6.7l-58.4,31.9-.4-.7c-4.2-7.7-1.4-17.3,6.3-21.5l29.8-16.2h0v-.2h0Z"/>
                <g>
                  <circle class="cls-87" cx="709.1" cy="198.8" r="26.2"/>
                  <g>
                    <rect class="cls-83" x="779.9" y="78.7" width="46.5" height="72.8" rx="14.8" ry="14.8"/>
                    <g>
                      <g>
                        <path class="cls-99" d="M791.2,197.4"/>
                        <path class="cls-24" d="M718.8,196.7h0c.5.8,1.3,1.6,2.2,1.7l33.4,7.5c1.6.3,3.3-.6,3.6-2.4s-.6-3.5-2.4-3.8l-29.4-6.6,4.4-7.8c.8-1.6.3-3.5-1.3-4.2s-3.5-.3-4.2,1.3l-6.3,11.5c-.3.8-.3,1.7,0,2.7l-.2.2h.2Z"/>
                      </g>
                      <g>
                        <path class="cls-51" d="M783.8,192.2c6.9,1.9,14.1.8,19.3-3.8l-6.1,5.5h0c-4.7,3.9-10.8,5.3-17.1,3.9h.3c.3-.3.8-.6.8-.9h.2c1.1-.6,1.4-2,.8-3.1h0l2-1.3-.2-.3h0Z"/>
                        <path class="cls-33" d="M806.3,185.1c-.8,1.4-1.9,2.7-3.1,3.8-5.2,4.6-12.4,5.8-19.3,3.8l10.2-6.3c4.2.8,8.5.3,12.2-1.3h0Z"/>
                        <path class="cls-79" d="M780.8,197.5c-.2.3-.5.8-.8,1.1h-.3l-6.3,3.9c-.3.3-.8.3-1.1.3,0,.2-.2.2-.2.2-1.1.6-2.5.3-3.1-.8v-.2l12.9-7.8h0c.6,1.1.3,2.5-.8,3.1h-.2l-.2.2h0Z"/>
                        <path class="cls-51" d="M796.8,180.1c7.2,2.4,14.9,1.4,20.2-3.5l-6.1,5.5h0c-1.4,1.3-3,2.2-4.7,3-3.6,1.7-8,2-12.2,1.3l1.1-.6h0c1.4-.9,1.9-2.8,1.9-5.5l-.2-.2Z"/>
                        <path class="cls-71" d="M746,193.4c.9,2.8,1.7,5.7,1.7,7.7-.5,0-.9,0-1.4.3l-12.2,7.5c-.9.6-1.3,1.6-1.3,2.5h-.3c-.3.2-.6.5-.8.8-.2.2-.5.3-.6.3l-8.3,5.2c-1.6-4.1-3.1-8-4.7-11.3-.8-1.6-1.7-3.3-2.5-4.9l27.6-14.4c.5.9,1.6,3.5,2.7,6.4l.2-.2h-.1Z"/>
                        <path class="cls-83" d="M769.1,201.8l12.9-7.8,2-1.3,10.2-6.3,1.1-.6h0c1.4-.9,1.9-2.8,1.9-5.5s-.5-3.9-1.1-6.4c-2.8-1.4-5.3-3.5-7.5-6-4.4-5.2-6.4-11.6-6-17.6l-23.2,14.3h0c-.9.5-2,.5-3,0h0l-6.3-1.9-5.7,3.5,5.5,4.2c1.6,1.4,2,3.8.8,5.5-.3.5-.8.8-1.3,1.1h-.3c7.8,13.7,12.2,28.7,5.2,33.9l14.8-9.1h0ZM785.2,177c.3-.3.8-.3,1.3-.3h0c1.1-.6,2.5-.3,3.1.8s.3,2.5-.8,3.1h-.2c-.2.5-.5.8-.8.9l-6.6,4.1c-.3.3-.8.3-1.1.3,0,.2-.2.2-.2.2-1.1.6-2.5.3-3.1-.8s-.3-2.5.8-3.1h.2c.2-.5.3-.8.8-1.1l6.6-4.1h0Z"/>
                        <path class="cls-87" d="M749.3,176.5c7.8,13.7,12.2,28.7,5.2,33.9-.3,0-.5.3-.6.3-2.5,1.4-5.5,1.4-8.6,0l5.2-3.1c.9-.5,1.3-1.4,1.3-2.4h0c1.1-.6,1.4-2,.8-3.1-.5-.6-1.3-1.1-2-1.1-.2-2.4-.8-5.3-1.9-8.5-1.4-3.8-3-6.9-3-6.9-.3-.6-.6-1.3-.9-1.9.5-.9.6-2.4,0-3.5-.3-.5-.6-.9-1.1-1.3h0l-3.3-2.5c-2-2.8-3.6-5.2-4.1-5.7l1.6-.9c.3.8.8,1.4,1.4,1.9l6.1,4.6c1.1.9,2.5.9,3.8.5l.3-.3h-.2Z"/>
                        <path class="cls-77" d="M734.2,172.1h0l1.9-1.1c.5.5,2.2,2.8,4.1,5.7l-5.8-4.6h-.2Z"/>
                        <path class="cls-20" d="M743.9,184.8c.2-.2.2-.3.2-.3.3.6.6,1.3.9,1.9.2,0,1.6,3,3,6.9,1.1,3.1,1.9,6.1,1.9,8.5-.3,0-.8.2-1.1.3h0c-.3-.5-.8-.5-1.3-.5-.2-2-.8-4.9-1.7-7.7-1.1-3-2.2-5.5-2.7-6.4l-27.6,14.4c-.2-.6-.5-1.1-.8-1.6l27.6-14.6h0c.3-.2.5-.3.8-.3.5-.3.8-.6,1.1-1.1h0l-.3.5h0Z"/>
                        <path class="cls-79" d="M717.3,179.1l-.3,1.1-4.6,14.8c0,.3-.2.5-.2.8.9,1.4,1.7,2.8,2.5,4.2l27.6-14.6h0c.3-.2.5-.3.8-.3.5-.3.8-.6,1.1-1.1h0c.2-.2.2-.3.2-.3.5-.9.6-2.4,0-3.5-.3-.5-.6-.9-1.1-1.3h0l-3.3-2.5-5.8-4.6h0c-.8-.9-2-1.3-3.3-.9h0c-.3.2-.5.3-.8.3-.3.2-.6.5-.9.8l-11.8,7.2-.2-.2h0ZM718.4,181.3c.6-.2,1.4.3,1.4,1.1l1.7,11.5c.2.6-.5,1.4-1.1,1.4-.6.2-1.3-.3-1.4-.9v-.2l-1.7-11.5c-.2-.6.5-1.3,1.1-1.4h0ZM725.7,192.5c-.6.2-1.3-.3-1.4-.9v-.2l-1.7-11.5c-.2-.6.5-1.4,1.1-1.4.6-.2,1.4.3,1.4,1.1l1.7,11.5c.2.6-.5,1.4-1.1,1.4h0ZM727.5,177c0-.8.3-1.4,1.1-1.6s1.6.3,1.6,1.1l2.2,12.2c0,.8-.5,1.6-1.1,1.6-.6.2-1.3-.3-1.4-.9h0l-2.2-12.2-.2-.2h0ZM739.4,178.1c.6-.2,1.4.3,1.4,1.1l.6,4.1c.2.6-.5,1.4-1.1,1.4-.6.2-1.3-.3-1.4-.9v-.2l-.6-4.1c-.2-.6.5-1.4,1.1-1.4h0ZM735.6,174.4l1.7,11.5c.2.6-.5,1.4-1.1,1.4-.6.2-1.3-.3-1.4-.9v-.2l-1.7-11.5c-.2-.6.5-1.4,1.1-1.4.6-.2,1.4.3,1.4,1.1h0Z"/>
                        <path class="cls-77" d="M738.3,179.6c-.2-.6.5-1.4,1.1-1.4.6-.2,1.4.3,1.4,1.1l.6,4.1c.2.6-.5,1.4-1.1,1.4-.6.2-1.3-.3-1.4-.9v-.2l-.6-4.1h0Z"/>
                        <path class="cls-77" d="M735.6,174.4l1.7,11.5c.2.6-.5,1.4-1.1,1.4-.6.2-1.3-.3-1.4-.9v-.2l-1.7-11.5c-.2-.6.5-1.4,1.1-1.4.6-.2,1.4.3,1.4,1.1h0Z"/>
                        <path class="cls-77" d="M729.7,189.2l-2.2-12.2c0-.8.3-1.4,1.1-1.6s1.6.3,1.6,1.1l2.2,12.2c0,.8-.5,1.6-1.1,1.6-.6.2-1.3-.3-1.4-.9h0l-.2-.2h0Z"/>
                        <path class="cls-77" d="M725.7,192.5c-.6.2-1.3-.3-1.4-.9v-.2l-1.7-11.5c-.2-.6.5-1.4,1.1-1.4.6-.2,1.4.3,1.4,1.1l1.7,11.5c.2.6-.5,1.4-1.1,1.4h0Z"/>
                        <path class="cls-77" d="M719,194.2l-1.7-11.5c-.2-.6.5-1.3,1.1-1.4s1.4.3,1.4,1.1l1.7,11.5c.2.6-.5,1.4-1.1,1.4-.6.2-1.3-.3-1.4-.9v-.2h0Z"/>
                        <path class="cls-103" d="M751.6,205.8c0,.9-.5,1.9-1.3,2.4l-5.2,3.1-7.1,4.2c-.8.6-1.9.5-2.7,0-.2.2-.3.2-.3.2-.3.3-.8.3-1.1.3.5-.6.5-1.7,0-2.5-.5-.9-1.4-1.3-2.2-1.1.2-.3.5-.6.8-.8h.3c0-1.1.5-2,1.3-2.5l12.2-7.5c.5-.3.9-.3,1.4-.3.5.2.8.2,1.3.5h0c.3-.3.6-.3,1.1-.3.8,0,1.6.3,2,1.1.6,1.1.3,2.5-.8,3.1h0l.2.2h0Z"/>
                        <path class="cls-51" d="M798.6,132.4h0Z"/>
                        <path class="cls-51" d="M824.3,162.7h0Z"/>
                        <path class="cls-33" d="M807.2,131.9c-3-.5-6.1-.3-8.9.6h0c-.2.2-.5.3-.8.3-1.6.6-3.1,1.6-4.6,2.8-7.5,6.7-7.5,19.3,0,28.1s19.9,10.5,27.5,3.8c.8-.8,1.7-1.7,2.4-2.7l-1.3,2.2c-.2.5-.5.9-.8,1.4h0c-.8,1.3-1.7,2.4-2.8,3.3-6,5.3-14.6,5.7-22,1.9.6,2.4,1.1,4.6,1.1,6.4,7.2,2.4,14.9,1.4,20.2-3.5,3.6-3.3,5.7-7.8,6.3-12.7.3-.5.6-.8.8-1.3h0c3.5-7.1,2.2-16.3-3.8-23.4-3.6-4.1-8.3-6.7-13-7.5l-.3.2h0ZM814.6,164.1l-19-22.1,3.3-2.8,19,22.1-3.3,2.8Z"/>
                        <polygon class="cls-45" points="817.9 161.3 814.7 164.1 795.7 142 798.9 139.1 817.9 161.3"/>
                        <path class="cls-79" d="M785.2,177c.3-.3.8-.3,1.3-.3h0c1.1-.6,2.5-.3,3.1.8s.3,2.5-.8,3.1h-.2c-.2.5-.5.8-.8.9l-6.6,4.1c-.3.3-.8.3-1.1.3,0,.2-.2.2-.2.2-1.1.6-2.5.3-3.1-.8s-.3-2.5.8-3.1h.2c.2-.5.3-.8.8-1.1l6.6-4.1h0Z"/>
                        <path class="cls-65" d="M734.1,216c0,.2-.3.5-.5.5l-9.3,5.7c-.5-1.4-.9-2.8-1.4-4.2l8.3-5.2c.2-.3.3-.3.6-.3.8-.2,1.7.3,2.2,1.1.6.8.5,1.9,0,2.5h.1Z"/>
                        <path class="cls-61" d="M736.7,173.2c-.6-.5-1.1-1.3-1.4-2l7.1-4.2,6.1,4.6c1.9,1.4,2.4,4.1.9,6-.5.6-.9.9-1.4,1.3h-.3c-1.4.6-3,.5-4.2-.5l-6.7-5h0v-.2h0Z"/>
                      </g>
                      <g>
                        <path class="cls-51" d="M817.6,171.8c-6,5.3-14.6,5.7-22,1.9-2.8-1.4-5.3-3.5-7.5-6-.5-.6-.9-1.3-1.4-1.9l2.4-3.1-5.3-14.6-1.4.9c.6-4.6,2.5-8.6,6-11.6,1.4-1.1,3-2,4.6-2.8v-.2h.5c.3,0,.6-.3.9-.3l3.3-1.3c-1.6.6-3.1,1.6-4.6,2.8-7.5,6.7-7.5,19.3,0,28.1s19.9,10.5,27.5,3.8c.8-.8,1.7-1.7,2.4-2.7l-1.3,2.2c-.2.5-.5.9-.8,1.4h0c-.8,1.3-1.7,2.4-2.8,3.3h-.5Z"/>
                        <path class="cls-87" d="M782.4,150.1c-.5,5.2,1.1,10.8,4.6,15.7h0l-33.3,20.1s-3.3-7.1-4.6-9.1c0,0-3.5-5.8-7.7-9.7l8.5-4.6,7.8,1.9,24.8-15.4v1.1h-.2.1Z"/>
                        <path class="cls-51" d="M784.1,148.1l5.3,14.6-2.4,3.1c-3.5-4.7-5-10.4-4.6-15.7v-1.1l1.4-.9h.3Z"/>
                      </g>
                      <path class="cls-87" d="M756.7,181l-3.1,4.9c.9,1.4,2,5.5,2,5.5-.9-5.5,3.1-8.6,3.1-8.6l-2-1.7h0Z"/>
                      <path class="cls-87" d="M782.9,168.2l3.9-2.5c2.7,4.6,9.1,8,9.1,8-5.7,1.3-13-5.3-13-5.3v-.2Z"/>
                      <path class="cls-87" d="M742.8,190.3l.6-.5-.3-2.5-26.2,13.7c.3.6,1.1,2,1.1,2l24.8-12.7h0Z"/>
                      <path class="cls-87" d="M744.1,191.1l-.3-2.5-26.2,13.7c.3.6,1.1,2,1.1,2l24.8-12.7.6-.5h0Z"/>
                      <path class="cls-87" d="M738,190l5.3-2.8c3.9,7.5,4.4,14,4.4,14-1.6-8.8-9.9-11.1-9.9-11.1h.2Z"/>
                      <path class="cls-49" d="M722,202.5"/>
                      <path class="cls-87" d="M722.8,202.1l-3-1.3-1.6,2.2c2.5,4.9,5.5,12.7,5.5,12.7-2.7-8.6-.9-13.5-.9-13.5v-.2h0Z"/>
                    </g>
                  </g>
                </g>
                <path class="cls-77" d="M741.4,168.6c.2,0,.5,0,.7-.2l7.9-4.3,7.1,1.7c.4,0,.8,0,1.2-.2l21.7-13.3c.7-.5,1-1.4.5-2.2-.5-.7-1.4-1-2.2-.5l-21.1,13-7.1-1.7c-.4,0-.8,0-1.1.1l-8.5,4.6c-.8.4-1,1.4-.6,2.1.3.5.8.8,1.4.8h0Z"/>
              </g>
              <path class="cls-77" d="M724.2,223.7h.4c.8-.2,1.3-1.1,1.1-1.9-.2-.6-3.9-14-11.6-26l4.6-15.4,13-8c.7-.5,1-1.4.5-2.2-.5-.7-1.4-1-2.2-.5l-13.5,8.3c-.3.2-.6.5-.7.9l-5,16.6c0,.4,0,.9.2,1.3,7.6,11.7,11.5,25.6,11.6,25.8.2.7.8,1.1,1.5,1.1h.1Z"/>
            </g>
          </g>
          <path class="cls-77" d="M688.7,192.3c2,0,4-.9,5.2-2.7,2-2.9,1.3-6.8-1.6-8.9l-12.6-8.8c-1.7-1.2-3.9-1.5-5.9-.8l-15.3,5.6c-3.3,1.2-5,4.9-3.8,8.2,1.2,3.3,4.9,5,8.2,3.8l12.2-4.5,9.9,6.8c1.1.8,2.4,1.2,3.7,1.2h0Z"/>
          <path class="cls-77" d="M676.3,241c.7,0,1.4-.1,2.1-.4l18.4-6.9c1.7-.7,3-2,3.6-3.8l4.8-14c1.1-3.2-.6-6.6-3.8-7.7-3.2-1.1-6.6.6-7.7,3.8l-3.9,11.3-15.7,5.9c-3.2,1.2-4.8,4.6-3.6,7.8.9,2.4,3.2,4,5.7,4h0Z"/>
        </g>
      </g>
    </g>
  </g>
</svg>