<?xml version="1.0" encoding="UTF-8"?>
<svg xmlns="http://www.w3.org/2000/svg" version="1.1" viewBox="0 0 108.5 106">
  <defs>
    <style>
      .cls-1, .cls-2, .cls-3, .cls-4 {
        fill: none;
      }

      .cls-5 {
        fill: #333d49;
      }

      .cls-6 {
        fill: #2b3138;
      }

      .cls-7 {
        fill: #242428;
      }

      .cls-8 {
        fill: #b1bece;
      }

      .cls-9 {
        fill: #eaebef;
      }

      .cls-10 {
        fill: #313c49;
      }

      .cls-11 {
        fill: #546070;
      }

      .cls-2 {
        stroke-width: 2px;
      }

      .cls-2, .cls-12, .cls-13 {
        stroke: #fdcc4d;
      }

      .cls-2, .cls-12, .cls-13, .cls-4 {
        stroke-linecap: round;
        stroke-linejoin: round;
      }

      .cls-14 {
        fill: #313a4b;
      }

      .cls-15 {
        fill: #272629;
      }

      .cls-16 {
        fill: #333f45;
      }

      .cls-3 {
        stroke: #afbbce;
        stroke-miterlimit: 10;
        stroke-width: .3px;
      }

      .cls-17 {
        fill: #b0bcd0;
      }

      .cls-18 {
        fill: #b4bcd1;
      }

      .cls-19 {
        fill: #353e4b;
      }

      .cls-20 {
        fill: #b1bccf;
      }

      .cls-21 {
        fill: #ebecf1;
      }

      .cls-22 {
        fill: #525f70;
      }

      .cls-23 {
        fill: #5e6c8a;
      }

      .cls-24 {
        fill: #b0bbcf;
      }

      .cls-25 {
        fill: #343d4c;
      }

      .cls-26 {
        fill: #29303a;
      }

      .cls-12 {
        stroke-width: 1.6px;
      }

      .cls-12, .cls-13, .cls-27 {
        fill: #fdcc4d;
      }

      .cls-13 {
        stroke-width: 1.2px;
      }

      .cls-28 {
        fill: #5f6f8c;
      }

      .cls-29 {
        fill: #afbbce;
      }

      .cls-30 {
        fill: #343c4b;
      }

      .cls-31 {
        fill: #5d6c8a;
      }

      .cls-32 {
        fill: #8f9cac;
      }

      .cls-33 {
        fill: #fff;
      }

      .cls-34 {
        fill: #333c4b;
      }

      .cls-35 {
        fill: #454f5b;
      }

      .cls-36 {
        fill: #262729;
      }

      .cls-37 {
        fill: #b2bed4;
      }

      .cls-38 {
        fill: #363f4e;
      }

      .cls-39 {
        fill: #343e49;
      }

      .cls-40 {
        fill: #262828;
      }

      .cls-41 {
        fill: #242527;
      }

      .cls-42 {
        fill: #b0bccf;
      }

      .cls-43 {
        fill: #222126;
      }

      .cls-44 {
        fill: #b4bece;
      }

      .cls-45 {
        fill: #ebecf0;
      }

      .cls-46 {
        fill: #33424f;
      }

      .cls-47 {
        fill: #61728b;
      }

      .cls-48 {
        fill: #252527;
      }

      .cls-49 {
        fill: #b1bed1;
      }

      .cls-4 {
        stroke: #5e6c8a;
      }

      .cls-50 {
        fill: #b1bed0;
      }

      .cls-51 {
        fill: #242426;
      }

      .cls-52 {
        fill: #4f5e6e;
      }

      .cls-53 {
        fill: #b0bdd0;
      }

      .cls-54 {
        fill: #b1bcd0;
      }

      .cls-55 {
        fill: #252628;
      }
    </style>
  </defs>
  <!-- Generator: Adobe Illustrator 28.6.0, SVG Export Plug-In . SVG Version: 1.2.0 Build 709)  -->
  <g>
    <g id="_레이어_1" data-name="레이어_1">
      <g>
        <path class="cls-43" d="M15.4,79.3c0-.6-.5-1.2-1.2-1.2h-7.6v2h8.7v-.8Z"/>
        <path class="cls-43" d="M115.3,78.7v.8h8.7v-2h-7.6c-.6,0-1.2.5-1.2,1.2Z"/>
        <path class="cls-43" d="M133.7,90.2h-22.6v-9.2l1.4-2.3.3-.4s0,0,0,0l.3-.4s0,0,0-.1l1.1-1.7s0,0,0,0l-.9-.7h0l3,2.3h7.7l3-2.3v-2.3h-2.4v-1.8h0s-1.3,0-1.3,0v-7.4h-6.8v6.2l-3.6-3.2c0-.1,0-.2,0-.4,0-.4.1-.7.2-1.1,0-.3,0-.7.1-1v-.9c.2-.3.2-.5.2-.8,0-.4.1-.8.2-1.2,0-.4,0-.8,0-1.2v-2.1c0-.2,0-.4,0-.6v-7.5h-4.3l-.2,1.2h-.5l-.2.9-1.1,5.4c-.3,0-.7,0-.8,0l1.3-6.6v-1.6h1.6v-2.5l-2.5-5h0v-2.5h-1.6v-4h.8v-2h-5.1v2h.8v4h-19.1v2.5l-2.5,5v2.5h1.7v3.3h-1.7v4.8h-1.1v-6.3l-3.5-2.8h.4v-1.4h.8v-1.9h.6v-10.2h-5.1s-5.1,0-5.1,0v10.2h.9v1.9h.5v1.1l-9.2,3.8c-1-1.2-2.2-2.1-3.6-2.6h.2l-2.1-4.9c.8,0,1.3-.2,1.7-.6.4-.4.4-1,.4-1v-14.4h-.9v14.4c0,.1,0,.7-1.2.7v.9h0v-16h4.3v-3.3h-4.3v-7.3h1.6v1.9h0v.7h-.8v1.5h0v1.5h.8v.6h7v-4.4h-5.9v-.9h3.4s2,0,2,0v-5.5h0s3.1,0,3.1,0v-3.3h-1.7V1.7h0c0-.4-.2-.8-.4-1.1,0,0,0,0,0,0,0,0,0,0,0,0-.3-.3-.6-.4-1.1-.4h-21.8c-.9,0-1.6.7-1.6,1.6v8.3h-1.7v3.3h4.6v5.6h4.8v4s0,.5.4.9c.4.4,1,.6,1.8.6v.8h-4.3v3.3h4.3v4.9h-2.8v1.6h2.8v9.5l-2.1,4.9h.2c-2.7,1-4.8,3.3-5.4,6.2,0,0,0,0,0,0-.6.5-1,1.2-1.2,1.9,0,0,0,0,0,0h-7.7c0-2.2-1.8-4-4-4h0s-4,0-4,0c-2.2,0-4,1.8-4,4h4s-1.2,0-1.2,0c0,.8.5,1.4,1.2,1.7-.2.4-.4.9-.4,1.5s0,.3,0,.5l.3,2.4h-5.6l-4.3,3.9h0v-3.1h-6.8v7.4h-1.3v1.8h-2.4v2.3l3,2.3h7.7l2-1.6h0l1,1.7s0,.1,0,.1l.3.4s0,0,0,0l.3.4,1.5,2.5s0,0,0,0v8.3H1.3c-.7,0-1.3.6-1.3,1.3v13.4c0,.7.6,1.3,1.3,1.3h31.9c.7,0,1.3-.6,1.3-1.3v-5.6h2.8l.6-1.1c.7-1.2,1.3-2.3,2-3.5l.3-.6,1.3-2.3c0,0,0-.1.1-.2l.3-.4c0,0,0-.1.1-.2h0l.4-.7v-.2c.1,0,.9-1.4.9-1.4,0,0,0-.1.1-.2l.3-.4c.2-.3.4-.6.5-1,.1-.3.2-.6.2-.9s0-.6-.2-.9c-.1-.3-.3-.5-.4-.8h48.9s0,0,0,.1c-.1.3-.2.6-.2.9s0,.6.2.9c.2.4.4.7.5,1l.3.4s0,0,.1.2l.8,1.4v.2c.1,0,.5.7.5.7h0c0,0,0,.1.1.2l.3.4s0,0,.1.2l1.3,2.3.3.6c.7,1.2,1.3,2.3,2,3.5l.6,1v6.3c0,.7.6,1.3,1.3,1.3h1.8s0,0,0,0h31.1c.1,0,.2,0,.2-.2v-15.5c0-.1,0-.2-.2-.2Z"/>
      </g>
      <g>
        <path class="cls-7" d="M33.1,90.2h-2.8c.3,0,.5,0,.7.2.3.2.5.5.5.8,0,0,0,.2,0,.3v13.4c0,.7-.6,1.3-1.3,1.3h2.8c.7,0,1.3-.6,1.3-1.3v-13.4c0-.7-.6-1.3-1.3-1.3Z"/>
        <path class="cls-11" d="M25.9,91.5v1.5h5.6v-1.5c0,0,0-.2,0-.3,0-.3-.3-.6-.5-.8-.2-.1-.4-.2-.7-.2h-4.9s-.1.2-.1.2c.4.2.6.6.6,1.1Z"/>
        <path class="cls-7" d="M25.9,104.8v-13.4c0-.5-.2-.8-.6-1.1l-.4.7h0c0,0,0,.1-.1.2l-.3.4s0,0-.1.2l-1.3,2.3v10.7c0,.7-.6,1.3-1.3,1.3h2.8c.7,0,1.3-.6,1.3-1.3Z"/>
        <path class="cls-39" d="M20.2,94.6h0c-.3.5-.5.9-.8,1.4,0,0,0,0,0,0l.8-1.3Z"/>
        <path class="cls-39" d="M17.4,94.9c.4-.7.8-1.3,1.2-2h-1.3v2.1h.2Z"/>
        <path class="cls-39" d="M23.1,104.8v-10.7l-.3.6c-.7,1.2-1.3,2.3-2,3.5l-.6,1.1h-3v5.6c0,.7-.6,1.3-1.3,1.3h5.9c.7,0,1.3-.6,1.3-1.3Z"/>
        <path class="cls-11" d="M17.2,91.5v1.5h1.3c.3-.5.6-1,.9-1.5l.7-1.2h-4.2c.7,0,1.3.6,1.3,1.3Z"/>
        <path class="cls-7" d="M17.2,104.8v-5.6h-2.8v5.6c0,.7-.6,1.3-1.3,1.3h2.8c.7,0,1.3-.6,1.3-1.3Z"/>
        <path class="cls-7" d="M14.4,91.5v3.6h2.8v-3.6c0-.7-.6-1.3-1.3-1.3h-2.8c.7,0,1.3.6,1.3,1.3Z"/>
        <path class="cls-11" d="M8.7,92.9h5.6v-1.5c0-.7-.6-1.3-1.3-1.3H4.1s-2.8,0-2.8,0c-.7,0-1.3.6-1.3,1.3v1.5h8.7Z"/>
        <polygon class="cls-23" points="19.4 65.8 14.3 70.4 14.3 71.7 15.9 71.7 15.9 71.8 20.3 67.9 26.2 67.9 26.2 65.7 25.4 65.7 25.4 65.8 19.4 65.8"/>
        <polygon class="cls-24" points="14.3 70.4 19.4 65.8 25.4 65.8 25.4 65.7 25.4 63.5 18.6 63.5 14.3 67.4 14.3 70.4"/>
        <line class="cls-4" x1="17.2" y1="73.5" x2="17.2" y2="73.5"/>
        <path class="cls-23" d="M25.1,86.4c0,0,0,.1-.1.2l-.3.4s0,0-.1.2l-1.1,1.8h0c0,0,0,.1-.1.2h0c0,.1-.5.9-.5.9-.7,1.2-1.4,2.3-2.1,3.5l-.6,1.1h0l-.8,1.3s0,0,0,0c0,0,0,0,0,.1l-.5.9h-4.4s0,0,0,0v2.3h5.8l.6-1.1c.7-1.2,1.3-2.3,2-3.5l.3-.6,1.3-2.3c0,0,0-.1.1-.2l.3-.4c0,0,0-.1.1-.2h0l.4-.7v-.2c.1,0,.9-1.4.9-1.4,0,0,0-.1.1-.2l.3-.4c.2-.3.4-.6.5-1,.1-.3.2-.6.2-.9s0-.6-.2-.9c-.2-.4-.4-.7-.5-1l-.3-.4s0,0-.1-.2l-1.7-2.9c-.7-1.2-1.4-2.3-2.1-3.5l-1.1-1.9c-.2-.3-.4-.7-.8-1.1-.5-.5-1-.8-1.6-1-.6-.2-1.2-.2-1.7-.2h0s0,0,0,0h-6.6v2.3h6.8l-.9.7s0,0,0,0l1.1,1.7s0,.1,0,.1l.3.4s0,0,0,0l.3.4,1.5,2.5c.7,1.2,1.4,2.3,2.1,3.5l.6,1.1h2.7Z"/>
        <path class="cls-20" d="M18.5,92.9c-.4.7-.8,1.3-1.2,2h0c0,.1,0,.1,0,.1h-2.8v1.9h4.4s.5-.9.5-.9c0,0,0,0,0-.1.3-.5.5-.9.8-1.4h0l.6-1.1c.7-1.2,1.4-2.3,2.1-3.5l.5-.8h0c0-.2,0-.2.1-.3h0l1.1-1.8c0,0,0-.1.1-.2l.3-.4c0,0,0-.1.1-.2h-2.7l-1.5,2.5s0,0,0,0h0l-.7,1.2-.7,1.2c-.3.5-.6,1-.9,1.5Z"/>
        <path class="cls-23" d="M42.1,86.4c0,0,0,.1-.1.2l-.3.4s0,0-.1.2l-1.1,1.8h0c0,0,0,.1-.1.2h0c0,.1-.5.9-.5.9-.7,1.2-1.4,2.3-2.1,3.5l-.6,1.1h0l-.8,1.3s0,0,0,0c0,0,0,0,0,.1l-.5.9h-4.5v2.3h5.8l.6-1.1c.7-1.2,1.3-2.3,2-3.5l.3-.6,1.3-2.3c0,0,0-.1.1-.2l.3-.4c0,0,0-.1.1-.2h0l.4-.7v-.2c.1,0,.9-1.4.9-1.4,0,0,0-.1.1-.2l.3-.4c.2-.3.4-.6.5-1,.1-.3.2-.6.2-.9s0-.6-.2-.9c-.2-.4-.4-.7-.5-1l-.3-.4s0,0-.1-.2l-1.7-2.9c-.7-1.2-1.4-2.3-2.1-3.5l-1.1-1.9c-.2-.3-.4-.7-.8-1.1-.5-.5-1-.8-1.6-1-.6-.2-1.2-.2-1.7-.2h0s0,0,0,0h-6.6v2.3h6.8l-.9.7s0,0,0,0l1.1,1.7s0,.1,0,.1l.3.4s0,0,0,0l.3.4,1.5,2.5c.7,1.2,1.4,2.3,2.1,3.5l.6,1.1h2.7Z"/>
        <path class="cls-20" d="M35.5,92.9c-.4.7-.8,1.3-1.2,2h0c0,.1,0,.1,0,.1h-2.8v1.9h4.4l.5-.9s0,0,0-.1c.3-.5.5-.9.8-1.4h0l.6-1.1c.7-1.2,1.4-2.3,2.1-3.5l.5-.8h0c0-.2,0-.2.1-.3h0l1.1-1.8c0,0,0-.1.1-.2l.3-.4c0,0,0-.1.1-.2h-2.7l-1.5,2.5s0,0,0,0h0l-.7,1.2-.7,1.2c-.3.5-.6,1-.9,1.5Z"/>
        <path class="cls-23" d="M94.6,85.7c0,0,0,.1.1.2l.3.4s0,0,.1.2l1.1,1.8h0c0,0,0,.1.1.2h0c0,.1.5.9.5.9.7,1.2,1.4,2.3,2.1,3.5l.6,1.1h0l.8,1.3s0,0,0,0c0,0,0,0,0,.1l.5.9h4.5v2.3h0s-2.8,0-2.8,0h-.4s-1.3,0-1.3,0h-1.3s-.6-1.1-.6-1.1c-.7-1.2-1.3-2.3-2-3.5l-.3-.6-1.3-2.3c0,0,0-.1-.1-.2l-.3-.4c0,0,0-.1-.1-.2h0l-.4-.7v-.2c-.1,0-.9-1.4-.9-1.4,0,0,0-.1-.1-.2l-.3-.4c-.2-.3-.4-.6-.5-1-.1-.3-.2-.6-.2-.9s0-.6.2-.9c.2-.4.4-.7.5-1l.3-.4s0,0,.1-.2l1.7-2.9c.7-1.2,1.4-2.3,2.1-3.5l1.1-1.9c.2-.3.4-.7.8-1.1.5-.5,1-.8,1.6-1,.6-.2,1.2-.2,1.7-.2h0s0,0,0,0h1.3s5.3,0,5.3,0v2.3h-6.8s.9.7.9.7c0,0,0,0,0,0l-1.1,1.7s0,.1,0,.1l-.3.4s0,0,0,0l-.3.4-1.5,2.5c-.7,1.2-1.4,2.3-2.1,3.5l-.6,1.1h-2.6s0,0,0,0Z"/>
        <path class="cls-5" d="M101.2,92.3c.4.7.8,1.3,1.2,2h0c0,.1,0,.1,0,.1h2.8v1.9h-4.4s-.5-.9-.5-.9c0,0,0,0,0-.1-.3-.5-.5-.9-.8-1.4h0l-.6-1.1c-.7-1.2-1.4-2.3-2.1-3.5l-.5-.8h0c0-.2,0-.2-.1-.3h0l-1.1-1.8c0,0,0-.1-.1-.2l-.3-.4c0,0,0-.1-.1-.2h2.7s0,0,0,0l1.5,2.5s0,0,0,0h0l.7,1.2.7,1.2c.3.5.6,1,.9,1.5Z"/>
        <polygon class="cls-29" points="10.6 73.5 6.2 73.5 3.8 73.5 3.8 75.8 10.6 75.8 10.6 73.5"/>
        <polygon class="cls-30" points="15.9 73.5 15.9 71.8 15.9 71.7 14.3 71.7 14.3 70.4 14.3 67.4 14.3 67.4 10.6 67.4 7.5 67.4 7.5 71.7 6.2 71.7 6.2 73.5 10.6 73.5 15.9 73.5"/>
        <path class="cls-45" d="M10.6,64.3h-3v3h3v-3ZM9.1,66.7c-.5,0-.9-.4-.9-.9s.4-.9.9-.9.9.4.9.9-.4.9-.9.9Z"/>
        <rect class="cls-53" x="10.6" y="64.3" width="3.7" height="3"/>
        <polygon class="cls-47" points="17.4 75.8 10.6 75.8 3.8 75.8 6.7 78.1 10.6 78.1 14.4 78.1 16.5 76.5 17.4 75.8"/>
        <path class="cls-51" d="M9.1,64.9c-.5,0-.9.4-.9.9s.4.9.9.9.9-.4.9-.9-.4-.9-.9-.9Z"/>
        <path class="cls-51" d="M15.4,79.3c0-.6-.5-1.2-1.2-1.2h-7.6v2h8.7v-.8Z"/>
        <path class="cls-1" d="M26.6,57.5c0,0,.1,0,.2,0h-.2s0,0,0,0Z"/>
        <rect class="cls-1" x="69.7" y="45.2" width="1.5" height="1.9"/>
        <path class="cls-1" d="M48.5,17.7h-2.1s.8,0,.8,0v5.2c0,.2.3.6,1.3.6v-5.7Z"/>
        <polygon class="cls-1" points="56.8 13.2 57.8 13.2 60.2 13.2 60.2 13.2 59.2 13.2 54.1 13.2 54.1 13.2 56.8 13.2"/>
        <rect class="cls-1" x="73.8" y="45.2" width="1.8" height="1.9"/>
        <polygon class="cls-1" points="70.5 49.2 68 51.2 70.5 51.2 70.5 49.2"/>
        <polygon class="cls-1" points="72.6 51.2 73 51.2 73 48.4 72.5 48.4 72.5 48.4 71.9 48.4 71.9 51.2 72.3 51.2 72.6 51.2"/>
        <polygon class="cls-1" points="74.4 49.2 74.4 51.2 77 51.2 74.4 49.2"/>
        <polygon class="cls-14" points="99.9 46.8 97.4 46.8 82.8 46.8 80.3 46.8 80.3 49.3 82 49.3 99.9 49.3 99.9 46.8"/>
        <rect class="cls-14" x="82.8" y="39.4" width="14.5" height="2.5"/>
        <rect class="cls-9" x="102" y="37.4" width="1.7" height="2"/>
        <polygon class="cls-9" points="103.7 33.3 101.2 33.3 101.2 35.3 102 35.3 103.7 35.3 103.7 33.3"/>
        <polygon class="cls-8" points="105.4 35.3 106.2 35.3 106.2 33.3 103.7 33.3 103.7 35.3 105.4 35.3"/>
        <rect class="cls-17" x="103.7" y="37.4" width="1.7" height="2"/>
        <rect class="cls-20" x="102" y="35.3" width="1.7" height="2"/>
        <rect class="cls-28" x="103.7" y="35.3" width="1.7" height="2"/>
        <polygon class="cls-43" points="107 41.9 107 41.9 107 39.4 105.7 39.4 103.7 39.4 101.7 39.4 97.4 39.4 97.4 41.9 107 41.9"/>
        <polygon class="cls-52" points="97.4 46.8 99.9 46.8 97.4 41.9 82.8 41.9 80.3 46.8 80.3 46.8 82.8 46.8 97.4 46.8"/>
        <polygon class="cls-10" points="99.9 46.8 109.6 46.8 107 41.9 97.4 41.9 99.9 46.8"/>
        <path class="cls-14" d="M87,57.5h4.9c0-2.2,1.8-3.9,4-3.9h4s0,0,0,0v-.9h-19.6v4.8h6.6Z"/>
        <path class="cls-43" d="M99.9,53.6c2.1,0,3.9,1.7,3.9,3.9h2.9l1.3-6.6v-1.6h1.6v-2.5h-9.6v2.5h-17.9v3.3h17.9v.9Z"/>
        <path class="cls-5" d="M44.7,55c.8-2.6,2.8-4.7,5.3-5.7h-3.4c-2.7,1-4.8,3.4-5.5,6.3.6-.5,1.4-.8,2.3-.8s.9,0,1.3.2Z"/>
        <path class="cls-51" d="M51.3,49.3h-1.3c-2.5.9-4.5,3.1-5.3,5.7.8.3,1.4.9,1.8,1.6h1.1c0-.2,0-.4.1-.6h0s0,0,0,0c.7-2.3,2.8-4,5.3-4s5,2,5.4,4.7h3.2c-.3-3.4-2.6-6.2-5.6-7.3h-4.7Z"/>
        <path class="cls-5" d="M47.7,56.6v-.6c0,.2,0,.4-.1.6h.1Z"/>
        <path class="cls-5" d="M56.6,56.6v-.7h1.4s0,.7,0,.7h.3c-.4-2.6-2.7-4.7-5.4-4.7s-4.6,1.7-5.3,4h1.2v.7h7.7Z"/>
        <polygon class="cls-6" points="46.5 17.7 46.5 17.7 45 17.7 45 18.8 46.4 18.8 46.4 17.7 46.5 17.7"/>
        <polygon class="cls-49" points="48.5 16.6 47.3 16.6 45 16.6 45 17.7 46.5 17.7 48.5 17.7 48.5 16.6"/>
        <polygon class="cls-6" points="48.5 14.8 47.7 14.8 47.7 16.1 47.3 16.1 47.3 16.6 48.5 16.6 48.5 14.8"/>
        <rect class="cls-6" x="47.3" y="13.2" width="1.2" height="0"/>
        <rect class="cls-19" x="41.6" y="13.2" width="5.7" height="0"/>
        <path class="cls-21" d="M47.5,4.8c0-1.9,1.5-3.5,3.5-3.5h.3c1.9,0,3.5,1.5,3.5,3.5v4.1h4.4V1.7c0-.9-.7-1.6-1.6-1.6h-17.4c-.9,0-1.6.7-1.6,1.6v7.2h8.9v-4.1Z"/>
        <path class="cls-21" d="M63.1.5s0,0,0,0c0,0,0,0,0,0Z"/>
        <path class="cls-21" d="M63.6,1.7c0-.4-.2-.8-.4-1.1.3.3.4.6.4,1.1h0Z"/>
        <polygon class="cls-21" points="48.5 13.2 51.3 13.2 51.3 13.2 51.3 13.2 51.3 13.2 54.1 13.2 59.2 13.2 59.2 9.9 59.2 9.9 38.7 9.9 37 9.9 37 13.2 41.6 13.2 47.3 13.2 48.5 13.2"/>
        <polygon class="cls-21" points="51.3 30 48.5 30 48.5 33.3 49 33.3 49 34.9 48.5 34.9 48.5 42.8 51.3 42.8 51.3 30"/>
        <polygon class="cls-21" points="48.5 17.7 48.5 18.8 51.3 18.8 51.3 17.8 51.3 17.8 51.3 14.8 48.5 14.8 48.5 14.8 48.5 16.6 48.5 17.7"/>
        <polygon class="cls-21" points="51.3 25.1 51.3 19.4 48.5 19.4 48.5 23.4 48.5 24.3 48.5 25.1 44.2 25.1 44.2 28.4 48.5 28.4 51.3 28.4 51.3 25.1"/>
        <path class="cls-18" d="M59.2,8.9h-4.4v-4.1c0-1.9-1.5-3.5-3.5-3.5h-.3c-1.9,0-3.5,1.5-3.5,3.5v4.1h-8.9v1.1h20.5v-1.1ZM51.2,2.5c1.4,0,2.5,1.1,2.5,2.5s-1.1,2.5-2.5,2.5-2.5-1.1-2.5-2.5,1.1-2.5,2.5-2.5Z"/>
        <polygon class="cls-21" points="50 49.3 51.3 49.3 51.3 44.4 48.5 44.4 46.4 49.3 46.6 49.3 50 49.3"/>
        <polygon class="cls-49" points="51.3 49.3 56 49.3 56.2 49.3 54.1 44.4 54.1 44.4 54.1 44.4 54.1 44.4 51.3 44.4 51.3 49.3"/>
        <path class="cls-49" d="M59.2,1.7v8.3h0v-1.1h4.4V1.7c0-.4-.2-.8-.4-1.1,0,0,0,0,0,0,0,0,0,0,0,0-.3-.3-.6-.4-1.1-.4h-4.5c.9,0,1.6.7,1.6,1.6Z"/>
        <polygon class="cls-49" points="59.2 13.2 60.2 13.2 60.2 13.2 62.2 13.2 62.2 13.2 65.3 13.2 65.3 9.9 63.6 9.9 59.2 9.9 59.2 13.2"/>
        <rect class="cls-49" x="51.3" y="17.8" width="2.8" height="1"/>
        <polygon class="cls-49" points="51.3 42.8 54.1 42.8 54.1 34.9 52.3 34.9 52.3 33.3 54.1 33.3 54.1 30 51.3 30 51.3 42.8"/>
        <polygon class="cls-49" points="51.3 25.1 51.3 28.4 54.1 28.4 58.4 28.4 58.4 25.1 54.1 25.1 54.1 19.4 51.3 19.4 51.3 25.1"/>
        <rect class="cls-49" x="51.3" y="13.2" width="2.8" height="0"/>
        <path class="cls-48" d="M60.2,13.2h0s-2.4,0-2.4,0h-6.5v1.6h1v2h3.8v-2h1.8c0,.5.4.9.9.9s.9-.4.9-.9h.6v4h2v-5.5h0s-2,0-2,0Z"/>
        <path class="cls-19" d="M59.6,14.8c0,.5-.4.9-.9.9s-.9-.4-.9-.9h-1.8s0,2,0,2h-3.8v-2h-1v3h0s2.8,0,2.8,0h1.6s1.2,0,1.2,0v1h3.4v-4h-.6ZM58.7,18.2c-.5,0-.9-.4-.9-.9s.4-.9.9-.9.9.4.9.9-.4.9-.9.9Z"/>
        <path class="cls-19" d="M45,16.6h2.3v-.5h-2.3v-1.3h-.8c0,.5-.4.9-.9.9s-.9-.4-.9-.9h-.8v4h3.4v-2.2ZM43.3,18.2c-.5,0-.9-.4-.9-.9s.4-.9.9-.9.9.4.9.9-.4.9-.9.9Z"/>
        <polygon class="cls-6" points="55.6 17.8 55.6 19.6 56.8 19.6 56.8 18.8 56.8 17.8 55.6 17.8"/>
        <path class="cls-48" d="M43.3,16.4c-.5,0-.9.4-.9.9s.4.9.9.9.9-.4.9-.9-.4-.9-.9-.9Z"/>
        <path class="cls-48" d="M43.3,15.7c.5,0,.9-.4.9-.9h.8v1.3h2.6v-1.3h.9v-1.6h-6.9v1.6h.8c0,.5.4.9.9.9Z"/>
        <path class="cls-48" d="M58.7,16.3c-.5,0-.9.4-.9.9s.4.9.9.9.9-.4.9-.9-.4-.9-.9-.9Z"/>
        <path class="cls-41" d="M51.2,7.6c1.4,0,2.5-1.1,2.5-2.5s-1.1-2.5-2.5-2.5-2.5,1.1-2.5,2.5,1.1,2.5,2.5,2.5ZM51.6,5.4c.2,0,.4.2.4.4s-.2.4-.4.4-.4-.2-.4-.4.2-.4.4-.4ZM50.3,3.3c.5,0,.9.4.9.9s-.4.9-.9.9-.9-.4-.9-.9.4-.9.9-.9Z"/>
        <path class="cls-33" d="M50.3,5.2c.5,0,.9-.4.9-.9s-.4-.9-.9-.9-.9.4-.9.9.4.9.9.9Z"/>
        <path class="cls-33" d="M51.6,6.2c.2,0,.4-.2.4-.4s-.2-.4-.4-.4-.4.2-.4.4.2.4.4.4Z"/>
        <polygon class="cls-49" points="51.3 13.2 51.3 13.2 48.5 13.2 48.5 13.3 48.5 14.8 51.3 14.8 51.3 13.2"/>
        <rect class="cls-49" x="48.5" y="28.4" width="2.8" height="1.6"/>
        <polygon class="cls-49" points="49 33.3 48.5 33.3 45.7 33.3 45.7 34.9 48.5 34.9 49 34.9 49 33.3"/>
        <rect class="cls-32" x="52.3" y="33.3" width="1.8" height="1.6"/>
        <rect class="cls-49" x="48.5" y="18.8" width="2.8" height=".7"/>
        <path class="cls-19" d="M55.6,19.6v.7h-.8v1.5h.8v1.4h1.7v-.2h4.5v.2h.8v-3.6h-.8v1h-4.5v-1h-1.7ZM57.4,22h0v-.6h4.5v.4h0v.6h-4.5v-.4Z"/>
        <polygon class="cls-6" points="57.4 20.2 57.4 20.7 61.9 20.7 61.9 20.2 61.9 20.1 61.9 19.6 61.9 19.6 57.4 19.6 57.4 19.6 57.4 20.1 57.4 20.2"/>
        <polygon class="cls-6" points="61.9 23 57.4 23 57.4 23.3 55.6 23.3 55.6 21.9 55.6 21.9 54.8 21.9 54.8 21.9 54.8 23.4 55.6 23.4 55.6 24 57.4 24 61.9 24 62.7 24 62.7 23.3 61.9 23.3 61.9 23"/>
        <polygon class="cls-6" points="61.9 22 61.9 21.8 61.9 21.4 57.4 21.4 57.4 21.8 57.4 22 57.4 22.4 61.9 22.4 61.9 22"/>
        <path class="cls-13" d="M47.3,22.8v-5.2h-.9v5.1s0,.5.4.9c.4.4,1,.6,1.8.6v-.9c-1,0-1.3-.4-1.3-.6Z"/>
        <path class="cls-13" d="M54.1,44.4c.8,0,1.3-.2,1.7-.6.4-.4.4-1,.4-1v-14.4h-.9v14.4c0,.1,0,.7-1.2.7v.9h0s0,0,0,0Z"/>
        <rect class="cls-32" x="51.3" y="18.8" width="2.8" height=".7"/>
        <rect class="cls-32" x="59.2" y="8.9" width="4.4" height="1.1"/>
        <rect class="cls-32" x="51.3" y="28.4" width="2.8" height="1.6"/>
        <rect class="cls-49" x="48.5" y="42.8" width="2.8" height="1.6"/>
        <rect class="cls-32" x="51.3" y="42.8" width="2.8" height="1.6"/>
        <path class="cls-21" d="M40,82.8h57.6v-.2l3.1-21.5c0-.2,0-.3,0-.5,0-1.5-1-2.7-2.4-3.1h-.1c0,1-.8,1.8-1.8,1.8s-1.8-.8-1.8-1.8h1.2v-4c-2.2,0-3.9,1.7-4,3.9h-16.9c0,.2,0,.5,0,.8,0,1.9-1.6,3.5-3.5,3.5s-2.3-.6-2.9-1.6h-22.2c-.6.9-1.7,1.6-2.9,1.6-1.9,0-3.5-1.6-3.5-3.5s0-.5,0-.8h-7.8s0,0,0,0h-4s-1.4,0-1.4,0c0,0-.1,0-.2,0,0,1-.8,1.8-1.8,1.8s-.4,0-.6-.1c-.2.4-.4.9-.4,1.5s0,.3,0,.5l3.1,21.5v.2h13ZM91.5,81h-5.2v-3.5h5.2v3.5ZM91.5,76.6h-5.2v-3.5h5.2v3.5ZM91.5,72.3h-5.2v-3.5h5.2v3.5ZM91.5,67.9h-5.2v-3.5h5.2v3.5ZM91.5,63.5h-5.2v-3.5h5.2v3.5ZM94.8,81h-2.3v-3.5h2.9l-.5,3.5ZM95.4,76.6h-3v-3.5h3.5l-.5,3.5ZM96,72.3h-3.6v-3.5h4.1l-.5,3.5ZM96.7,67.9h-4.2v-3.5h4.8l-.5,3.5ZM97.3,60c.2,0,.4.2.4.4v.6l-.4,2.5h-4.9v-3.5h4.8ZM32.4,60h5.2v3.5h-5.2v-3.5ZM32.4,64.4h5.2v3.5h-5.2v-3.5ZM32.4,68.8h5.2v3.5h-5.2v-3.5ZM32.4,73.1h5.2v3.5h-5.2v-3.5ZM32.4,77.5h5.2v3.5h-5.2v-3.5ZM26.2,61v-.6c0-.2.2-.4.4-.4h4.8v3.5h-4.9l-.4-2.5ZM26.7,64.4h4.8v3.5h-4.2l-.5-3.5ZM27.3,68.8h4.1v3.5h-3.6l-.5-3.5ZM28,73.1h3.5s0,3.5,0,3.5h-3s-.5-3.5-.5-3.5ZM28.6,77.5h2.9v3.5h-2.3l-.5-3.5Z"/>
        <polygon class="cls-21" points="47.7 58.3 47.8 58.3 48.9 58.3 48.9 58.3 47.8 58.3 47.7 58.3 46.9 58.3 46.9 58.3 47.7 58.3"/>
        <path class="cls-55" d="M72.5,39.9v7.2h0v1.4h.6v2.8h1.4v-2.1l2.5,2.1h2.2l-3.5-2.8h.4v-1.4h.8v-1.9h.6v-10.2h-5.1s0,5,0,5h0ZM75.6,47h-1.8v-1.9h1.8v1.9Z"/>
        <path class="cls-34" d="M68,51.2l2.5-2.1v2.1h1.4v-2.8h.6v-1.4h0v-7.2h0v-5h0s-5.1,0-5.1,0v10.2h.9v1.9h.5v1.4h.4l-3.5,2.8h2.2ZM69.7,45.2h1.5v1.9h-1.5v-1.9Z"/>
        <polygon class="cls-21" points="67.4 51.2 65.8 51.2 63.8 56.6 65.4 56.6 67.4 51.2"/>
        <path class="cls-49" d="M67,56v.6h1.4c.3-.5.7-1,1.1-1.3l1.5-4.1h-3.7l-2,5.4h.4v-.7h1.2Z"/>
        <path class="cls-21" d="M71.3,54.8l1.3-3.5h-1.6l-1.5,4.1c.5-.3,1.1-.5,1.8-.6Z"/>
        <path class="cls-49" d="M77,51.2h-4.3l-1.3,3.5c0,0,.1,0,.2,0,1.7,0,3.1,1.2,3.4,2.8h4.2v-6.3h-2.2Z"/>
        <rect class="cls-49" x="32.4" y="60" width="5.2" height="3.5"/>
        <rect class="cls-49" x="32.4" y="64.4" width="5.2" height="3.5"/>
        <rect class="cls-49" x="32.4" y="68.8" width="5.2" height="3.5"/>
        <rect class="cls-49" x="32.4" y="73.1" width="5.2" height="3.5"/>
        <rect class="cls-49" x="32.4" y="77.5" width="5.2" height="3.5"/>
        <path class="cls-49" d="M31.5,60h-4.8c-.2,0-.4.2-.4.4v.6l.4,2.5h4.9v-3.5Z"/>
        <polygon class="cls-49" points="31.5 64.4 26.7 64.4 27.2 67.9 31.5 67.9 31.5 64.4"/>
        <polygon class="cls-49" points="31.5 68.8 27.3 68.8 27.8 72.3 31.5 72.3 31.5 68.8"/>
        <polygon class="cls-49" points="31.5 73.1 28 73.1 28.5 76.6 31.5 76.6 31.5 73.1"/>
        <polygon class="cls-49" points="31.5 77.5 28.6 77.5 29.1 81 31.5 81 31.5 77.5"/>
        <rect class="cls-49" x="86.2" y="60" width="5.2" height="3.5"/>
        <rect class="cls-49" x="86.2" y="64.4" width="5.2" height="3.5"/>
        <rect class="cls-49" x="86.2" y="68.8" width="5.2" height="3.5"/>
        <rect class="cls-49" x="86.2" y="73.1" width="5.2" height="3.5"/>
        <rect class="cls-49" x="86.2" y="77.5" width="5.2" height="3.5"/>
        <path class="cls-49" d="M92.4,63.5h4.9l.4-2.5v-.6c0-.2-.2-.4-.4-.4h-4.8v3.5Z"/>
        <polygon class="cls-49" points="92.4 67.9 96.7 67.9 97.2 64.4 92.4 64.4 92.4 67.9"/>
        <polygon class="cls-49" points="92.4 72.3 96 72.3 96.5 68.8 92.4 68.8 92.4 72.3"/>
        <polygon class="cls-49" points="92.4 76.6 95.4 76.6 95.9 73.1 92.4 73.1 92.4 76.6"/>
        <polygon class="cls-49" points="92.4 81 94.8 81 95.3 77.5 92.4 77.5 92.4 81"/>
        <path class="cls-21" d="M20.2,57.5h4v-4c-2.2,0-4,1.8-4,4Z"/>
        <path class="cls-49" d="M26.8,57.5h1.4s4,0,4,0c0,0,0,0,0,0,0-2.2-1.8-4-4-4h0s-4,0-4,0v4h0s2.4,0,2.4,0h.2Z"/>
        <path class="cls-5" d="M26.6,57.5s0,0,0,0h-3.6c0,.8.5,1.4,1.2,1.7.2,0,.4.1.6.1,1,0,1.8-.8,1.8-1.8Z"/>
        <polygon class="cls-21" points="107.2 58.7 107.2 58.7 108.4 58.7 110 51.2 108.7 51.2 108.5 52.1 107.2 58.7"/>
        <path class="cls-49" d="M112.5,50h-3l-1.5,7.5s-1.3,0-1.3,0h-2.9c0-2.2-1.8-3.9-3.9-3.9,0,0,0,0,0,0h-4v4h0s2.4,0,2.4,0h.1c1.4.3,2.4,1.6,2.4,3.1s0,.3,0,.5l-3.1,21.5v.2H26.9s.5,1.9,2.4,1.9h78.9c1.9,0,2.4-1.9,2.4-1.9v-.2s0,0,0-.1v-.3c0-.2,0-.3.1-.5v-.6c.1-.3.2-.5.2-.8v-.9c.2-.3.2-.7.3-1l.2-1.1.2-1.2.2-1.2.2-1.3.2-1.3.2-1.3.2-1.3.2-1.3.2-1.2.2-1.2.2-1.1v-1c.2-.3.2-.6.3-.9v-.8c.2-.4.2-.8.3-1.2s0-.8,0-1.2v-2.1c0-.2,0-.4,0-.6v-7.5h-1.3Z"/>
        <path class="cls-5" d="M96.4,59.4c1,0,1.8-.8,1.8-1.8h-3.6c0,1,.8,1.8,1.8,1.8Z"/>
        <rect class="cls-38" x="56.6" y="56" width="1.4" height=".7"/>
        <circle class="cls-25" cx="71.5" cy="58.3" r="1.1"/>
        <g>
          <path class="cls-22" d="M85.4,66.6v-8.1h0v-.9c0-2,1.8-3.7,4.1-3.7h0s-3.1,0-3.1,0c0,0,0,0,0,0h0s-.1,0-.1,0c-2.5,0-4.6,1.9-4.6,4.1v.5h0v5.5h-2v2.6h2.7v6.1h3v-6.1Z"/>
          <polygon class="cls-22" points="85.4 79.2 85.4 74.1 83.1 74.1 83.1 74.1 83.1 79.3 83.9 79.3 83.9 81 85.4 81 85.4 79.3 85.4 79.2"/>
          <polygon class="cls-14" points="85.4 74.1 85.4 79.2 85.4 79.3 85.4 81 86.9 81 86.9 79.3 87.7 79.3 87.7 74.1 87.7 74.1 85.4 74.1"/>
          <path class="cls-14" d="M91.5,64h-1.9v-10.1h0s0,0,0,0c-2.2,0-4.1,1.7-4.1,3.7v.9h0v14.2h3v-6.1h3.1v-2.6Z"/>
          <polygon class="cls-35" points="85.4 74.1 85.4 74 85.4 72.7 82.4 72.7 83.1 74.1 83.1 74.1 85.4 74.1"/>
          <polygon class="cls-26" points="85.4 74 85.4 74.1 87.7 74.1 87.7 74.1 88.4 72.7 85.4 72.7 85.4 74"/>
        </g>
        <rect class="cls-3" x="63.2" y="78.1" width="16.9" height="2.6" rx=".2" ry=".2"/>
        <polygon class="cls-31" points="100.6 61.2 100.5 62 113.6 62 113.7 61.2 100.6 61.2"/>
        <polygon class="cls-31" points="98.7 75.2 98.6 75.9 111.6 75.9 111.7 75.2 98.7 75.2"/>
        <rect class="cls-27" x="55.1" y="72.6" width=".6" height="5.9" transform="translate(-20.2 130.9) rotate(-90)"/>
        <rect class="cls-12" x="57" y="55.7" width=".7" height="15.3" transform="translate(-25.5 84.5) rotate(-62.2)"/>
        <rect class="cls-44" x="58.8" y="74.7" width=".6" height="1.6" transform="translate(-16.4 134.6) rotate(-90)"/>
        <g>
          <path class="cls-29" d="M50.1,78c-1.4,0-2.5-1.1-2.5-2.5s1.1-2.5,2.5-2.5,2.5,1.1,2.5,2.5-1.1,2.5-2.5,2.5ZM50.1,73.6c-1,0-1.9.8-1.9,1.9s.8,1.9,1.9,1.9,1.9-.8,1.9-1.9-.8-1.9-1.9-1.9Z"/>
          <rect class="cls-29" x="49.8" y="77.6" width=".6" height="5.8"/>
          <rect class="cls-29" x="49.8" y="60.3" width=".6" height="13.1"/>
          <circle class="cls-42" cx="52.7" cy="78.4" r=".7"/>
          <circle class="cls-42" cx="52.8" cy="73" r=".7"/>
          <circle class="cls-42" cx="47.4" cy="73" r=".7"/>
          <circle class="cls-42" cx="47.4" cy="78.4" r=".7"/>
        </g>
        <g>
          <g>
            <polygon class="cls-54" points="57.1 63.6 55.8 63 49 59.4 48.3 60.8 48.3 60.8 48.3 60.8 47.4 62.5 62.3 70.4 63.1 68.8 63.9 67.2 63.6 67.1 62.2 66.3 60.3 65.3 57.4 63.8 57.1 63.6"/>
            <path class="cls-36" d="M47.3,60.3h0s-.7-.4-.7-.4c0,0,0,0,0,0l-1-.5h-.2c-.6,1-1.9,1.4-3,.8s-1.5-1.9-.9-3l-1.2-.6c-.9,1.7-.2,3.9,1.5,4.8,1.1.6,2.3.5,3.3,0l1.2.6h0s1,.6,1,.6l.9-1.7-1-.5Z"/>
            <path class="cls-38" d="M40.3,56.6l1.2.6c.6-1.1,1.9-1.5,3-.9s1.5,1.9.9,3h.2c0,0,1,.6,1,.6l.7.4h0s1,.6,1,.6h0s.8-1.4.8-1.4l.3-.6-1.1-.6h0s0,0,0,0l-.3.5h-.1c0,0-1-.6-1-.6,0-.8-.3-1.6-.9-2.2-.3-.3-.6-.6-1-.8-.8-.4-1.6-.5-2.4-.3-.7.2-1.4.6-1.9,1.2-.2.2-.3.4-.4.6Z"/>
            <path class="cls-37" d="M42.4,60.2c1.1.6,2.4.2,3-.9s.2-2.4-.9-3-2.4-.2-3,.9-.2,2.4.9,3ZM43.9,57.3c.5.3.8,1,.5,1.5s-1,.8-1.5.5-.8-1-.5-1.5,1-.8,1.5-.5Z"/>
            <circle class="cls-25" cx="43.4" cy="58.3" r="1.1"/>
            <path class="cls-36" d="M67.2,73.3c-1.1-.6-1.5-1.9-.9-3l-1.2-.6s0,.1,0,.1l-.9-.5h0s-1-.6-1-.6l-.8,1.6,1,.5h0s1.4.8,1.4.8c.1,1.1.8,2.2,1.9,2.7,1.7.9,3.9.2,4.8-1.5l-1.2-.6c-.6,1.1-1.9,1.5-3,.9Z"/>
            <path class="cls-38" d="M69.9,68.2s0,0-.1,0c-.6-.3-1.2-.4-1.9-.3-.6,0-1.1.3-1.6.6l-1.3-.7.3-.6-1.1-.6-.3.6-.8,1.6,1,.5h0s.9.5.9.5c0,0,0-.1,0-.1l1.2.6c.6-1.1,1.9-1.5,3-.9s1.5,1.9.9,3l1.2.6c.1-.2.2-.5.3-.7.4-1.6-.3-3.3-1.8-4.1Z"/>
            <path class="cls-37" d="M67.2,73.3c1.1.6,2.4.2,3-.9s.2-2.4-.9-3-2.4-.2-3,.9-.2,2.4.9,3ZM68.8,70.4c.5.3.8,1,.5,1.5s-1,.8-1.5.5-.8-1-.5-1.5,1-.8,1.5-.5Z"/>
          </g>
          <circle class="cls-25" cx="68.3" cy="71.3" r="1.1"/>
        </g>
        <path class="cls-2" d="M48.9,56.3h24.9s1.1.2,1.1-1.2v-8s.1-.9-1.1-.9"/>
        <g>
          <polygon class="cls-54" points="58.1 56.6 56.6 56.6 48.9 56.6 48.9 58.2 48.9 58.2 48.9 58.3 48.9 60.2 65.8 60.2 65.8 58.4 65.8 56.6 65.4 56.6 63.8 56.6 61.6 56.6 58.4 56.6 58.1 56.6"/>
          <path class="cls-36" d="M47.7,58.3h-.8s0,0,0,0h-1.3c0,1.2-1,2.2-2.2,2.2s-2.2-1-2.2-2.2h-1.3c0,2,1.6,3.5,3.5,3.5s2.3-.6,2.9-1.6h2.6v-2h-1.1Z"/>
          <path class="cls-38" d="M39.8,58.2h1.3c0-1.2,1-2.2,2.2-2.2s2.2,1,2.2,2.2h3.3v-2.3h-1.2v.6h-1.2c-.4-.7-1-1.3-1.8-1.6-.4-.2-.8-.2-1.3-.2-.9,0-1.7.3-2.3.8-.6.5-1,1.2-1.2,1.9,0,.2,0,.5,0,.8Z"/>
          <path class="cls-37" d="M43.4,60.5c1.2,0,2.2-1,2.2-2.2s-1-2.2-2.2-2.2-2.2,1-2.2,2.2,1,2.2,2.2,2.2ZM43.4,57.1c.6,0,1.1.5,1.1,1.1s-.5,1.1-1.1,1.1-1.1-.5-1.1-1.1.5-1.1,1.1-1.1Z"/>
          <path class="cls-25" d="M43.4,59.4c.6,0,1.1-.5,1.1-1.1s-.5-1.1-1.1-1.1-1.1.5-1.1,1.1.5,1.1,1.1,1.1Z"/>
          <path class="cls-36" d="M71.5,60.5c-1.2,0-2.2-1-2.2-2.2h-1.3c0,0,0,.1,0,.2h-2.2v1.8h2.8c.6.9,1.7,1.6,2.9,1.6,2,0,3.5-1.6,3.5-3.5h-1.3c0,1.2-1,2.2-2.2,2.2Z"/>
          <path class="cls-38" d="M71.5,54.7c0,0-.1,0-.2,0-.7,0-1.3.2-1.8.6-.5.3-.9.8-1.1,1.3h-1.4v-.6h-1.2v2.4h2.2c0,0,0-.1,0-.2h1.3c0-1.2,1-2.2,2.2-2.2s2.2,1,2.2,2.2h1.3c0-.3,0-.5,0-.8-.3-1.6-1.8-2.8-3.5-2.8Z"/>
          <path class="cls-37" d="M71.5,60.5c1.2,0,2.2-1,2.2-2.2s-1-2.2-2.2-2.2-2.2,1-2.2,2.2,1,2.2,2.2,2.2ZM71.5,57.1c.6,0,1.1.5,1.1,1.1s-.5,1.1-1.1,1.1-1.1-.5-1.1-1.1.5-1.1,1.1-1.1Z"/>
        </g>
        <rect class="cls-38" x="56.7" y="55.9" width="1.2" height=".7"/>
        <path class="cls-13" d="M106.3,45.9c-.1-.2-.4-.3-.9-.3h-1.8c-.5,0-.7.2-.9.3-.3.3-.3.8-.3.8v1.5h.7s0-1.5,0-1.5c0,0,0-.2,0-.3,0,0,.2-.1.4-.1h1.8c.2,0,.3,0,.4.1,0,.1,0,.3,0,.4v1.5h.7v-1.5s0-.5-.3-.8Z"/>
        <rect class="cls-46" x="102.5" y="48.2" width=".7" height=".8"/>
        <rect class="cls-46" x="105.9" y="48.2" width=".7" height=".8"/>
        <path class="cls-39" d="M31.6,104.8v-11.9h-5.6v11.9c0,.7-.6,1.3-1.3,1.3h5.6c.7,0,1.3-.6,1.3-1.3Z"/>
        <path class="cls-39" d="M8.7,92.9H0v11.9c0,.7.6,1.3,1.3,1.3h11.9c.7,0,1.3-.6,1.3-1.3v-11.9h-5.6Z"/>
        <g>
          <path class="cls-13" d="M20,76.3c-.6-.6-1.5-.6-1.5-.6h-7v.8h7s.6,0,1,.3c.2.2.3.5.3.9v17.8c0,.4-.1.7-.3.9-.4.4-.9.3-1,.3h-4.1v.8h4.1s0,0,0,0c.2,0,.9,0,1.5-.6.4-.4.6-.9.6-1.5v-17.8c0-.6-.2-1.1-.6-1.5Z"/>
          <rect class="cls-16" x="10.7" y="75.8" width=".8" height=".8"/>
        </g>
        <polygon class="cls-15" points="107.5 74.1 109.1 63 102.7 63 101.2 74.1 107.5 74.1"/>
        <polygon class="cls-23" points="115.3 74.7 116.8 73.1 110.1 67 103.3 67 103.3 69.2 109.2 69.2 115.3 74.7"/>
        <polygon class="cls-49" points="116.2 72.6 117.6 71 110.9 64.9 104.1 64.9 104.1 67.1 110.1 67.1 116.2 72.6"/>
        <polygon class="cls-29" points="113.3 72.9 117.7 72.9 120.2 72.9 120.2 75.2 113.3 75.2 113.3 72.9"/>
        <polygon class="cls-5" points="121.6 72.9 127 72.9 127 75.2 120.2 75.2 120.2 72.9 121.6 72.9"/>
        <polygon class="cls-30" points="114.8 72.9 114.8 71.1 116.4 71.1 116.4 66.7 120.2 66.7 123.2 66.7 123.2 71.1 124.5 71.1 124.5 72.9 120.2 72.9 114.8 72.9"/>
        <rect class="cls-45" x="116.4" y="63.7" width="3.7" height="3"/>
        <polygon class="cls-5" points="127 75.2 124 77.5 120.2 77.5 116.3 77.5 113.3 75.2 120.2 75.2 127 75.2"/>
        <path class="cls-51" d="M116.5,77.5h7.6v2h-8.7v-.8c0-.6.5-1.2,1.2-1.2Z"/>
        <rect class="cls-40" x="120.2" y="66.7" width="3" height="6.2"/>
        <rect class="cls-40" x="123.2" y="71.1" width="1.3" height="1.8"/>
        <rect class="cls-29" x="120.2" y="63.7" width="3" height="3"/>
        <path class="cls-51" d="M121.7,64.3c.5,0,.9.4.9.9s-.4.9-.9.9-.9-.4-.9-.9.4-.9.9-.9Z"/>
        <path class="cls-23" d="M105.6,85.7c0,0,0,.1.1.2l.3.4s0,0,.1.2l1.1,1.8h0c0,0,0,.1.1.2h0c0,.1.5.9.5.9.7,1.2,1.4,2.3,2.1,3.5l.6,1.1h0l.8,1.3s0,0,0,0c0,0,0,0,0,.1l.5.9h4.5v2.3h-2.8s-.4,0-.4,0h-1.3s-1.3,0-1.3,0l-.6-1.1c-.7-1.2-1.3-2.3-2-3.5l-.3-.6-1.3-2.3c0,0,0-.1-.1-.2l-.3-.4c0,0,0-.1-.1-.2h0l-.4-.7v-.2c-.1,0-.9-1.4-.9-1.4,0,0,0-.1-.1-.2l-.3-.4c-.2-.3-.4-.6-.5-1-.1-.3-.2-.6-.2-.9s0-.6.2-.9c.2-.4.4-.7.5-1l.3-.4s0,0,.1-.2l1.7-2.9c.7-1.2,1.4-2.3,2.1-3.5l1.1-1.9c.2-.3.4-.7.8-1.1.5-.5,1-.8,1.6-1,.6-.2,1.2-.2,1.7-.2h0s0,0,0,0h1.3s5.3,0,5.3,0v2.3h-6.8s.9.7.9.7c0,0,0,0,0,0l-1.1,1.7s0,.1,0,.1l-.3.4s0,0,0,0l-.3.4-1.5,2.5c-.7,1.2-1.4,2.3-2.1,3.5l-.6,1.1h-2.6s0,0,0,0Z"/>
        <path class="cls-20" d="M112.2,92.3c.4.7.8,1.3,1.2,2h0c0,.1,0,.1,0,.1h2.8v1.9h-4.4s-.5-.9-.5-.9c0,0,0,0,0-.1-.3-.5-.5-.9-.8-1.4h0l-.6-1.1c-.7-1.2-1.4-2.3-2.1-3.5l-.5-.8h0c0-.2,0-.2-.1-.3h0l-1.1-1.8c0,0,0-.1-.1-.2l-.3-.4c0,0,0-.1-.1-.2h2.7s0,0,0,0l1.5,2.5s0,0,0,0h0l.7,1.2.7,1.2c.3.5.6,1,.9,1.5Z"/>
        <g>
          <path class="cls-13" d="M110.9,74.9c.6-.6,1.5-.6,1.5-.6h7v.8h-7s-.6,0-1,.3c-.2.2-.3.5-.3.9v8.9s0,8.9,0,8.9c0,.4.1.7.3.9.4.4.9.3,1,.3h4.1v.8h-4.1s0,0,0,0c-.2,0-.9,0-1.5-.6-.4-.4-.6-.9-.6-1.5v-8.9s0-8.9,0-8.9c0-.6.2-1.1.6-1.5Z"/>
          <rect class="cls-16" x="119.4" y="74.4" width=".8" height=".8" transform="translate(239.5 149.5) rotate(-180)"/>
        </g>
        <polygon class="cls-23" points="103.3 69.2 101.9 69.2 102.2 67 103.3 67 103.3 69.2"/>
        <polygon class="cls-49" points="104.1 67.1 102 67.1 102.3 64.9 104.1 64.9 104.1 67.1"/>
        <rect class="cls-7" x="119.5" y="90.2" width="14.4" height="15.9" rx=".2" ry=".2"/>
        <rect class="cls-39" x="116.7" y="90.2" width="14.4" height="15.9" rx=".2" ry=".2"/>
        <path class="cls-39" d="M129.9,90.2h-11.9c-.7,0-1.3.6-1.3,1.3v1.5h14.4v-1.5c0-.7-.6-1.3-1.3-1.3Z"/>
        <rect class="cls-7" x="111.1" y="90.2" width="14.4" height="15.9" rx=".2" ry=".2"/>
        <rect class="cls-39" x="108.3" y="90.2" width="14.4" height="15.9" rx=".2" ry=".2"/>
        <path class="cls-39" d="M121.4,90.2h-11.9c-.7,0-1.3.6-1.3,1.3v1.5h14.4v-1.5c0-.7-.6-1.3-1.3-1.3Z"/>
        <rect class="cls-7" x="102.4" y="90.2" width="14.4" height="15.9" rx=".2" ry=".2"/>
        <path class="cls-39" d="M99.5,104.8c0,.7.6,1.3,1.3,1.3h11.9c.7,0,1.3-.6,1.3-1.3v-11.9h-14.4v11.9Z"/>
        <path class="cls-39" d="M112.7,90.2h-11.9c-.7,0-1.3.6-1.3,1.3v1.5h14.4v-1.5c0-.7-.6-1.3-1.3-1.3Z"/>
        <path class="cls-50" d="M113.9,92.5v2.5c.7,0,1.2-.6,1.2-1.2s-.6-1.2-1.2-1.2Z"/>
        <path class="cls-50" d="M113.9,96.9v2.5c.7,0,1.2-.6,1.2-1.2s-.6-1.2-1.2-1.2Z"/>
        <path class="cls-50" d="M113.9,101.3v2.5c.7,0,1.2-.6,1.2-1.2s-.6-1.2-1.2-1.2Z"/>
        <path class="cls-50" d="M122.7,92.5v2.5c.7,0,1.2-.6,1.2-1.2s-.6-1.2-1.2-1.2Z"/>
        <path class="cls-50" d="M122.7,96.9v2.5c.7,0,1.2-.6,1.2-1.2s-.6-1.2-1.2-1.2Z"/>
        <path class="cls-50" d="M122.7,101.3v2.5c.7,0,1.2-.6,1.2-1.2s-.6-1.2-1.2-1.2Z"/>
        <path class="cls-50" d="M131.1,92.5v2.5c.7,0,1.2-.6,1.2-1.2s-.6-1.2-1.2-1.2Z"/>
        <path class="cls-50" d="M131.1,96.9v2.5c.7,0,1.2-.6,1.2-1.2s-.6-1.2-1.2-1.2Z"/>
        <path class="cls-50" d="M131.1,101.3v2.5c.7,0,1.2-.6,1.2-1.2s-.6-1.2-1.2-1.2Z"/>
      </g>
    </g>
  </g>
</svg>