<?xml version="1.0" encoding="UTF-8"?>
<svg xmlns="http://www.w3.org/2000/svg" version="1.1" viewBox="0 0 1080.8 749.9">
  <defs>
    <style>
      .cls-1 {
        fill: #266894;
      }

      .cls-2 {
        fill: #262626;
      }

      .cls-2, .cls-3, .cls-4, .cls-5, .cls-6, .cls-7, .cls-8, .cls-9, .cls-10, .cls-11, .cls-12, .cls-13, .cls-14, .cls-15 {
        stroke-miterlimit: 10;
      }

      .cls-2, .cls-3, .cls-4, .cls-5, .cls-7, .cls-8, .cls-9, .cls-10, .cls-11, .cls-12, .cls-13, .cls-16, .cls-14, .cls-17, .cls-15 {
        stroke: #000;
      }

      .cls-2, .cls-4, .cls-5, .cls-6, .cls-8, .cls-10, .cls-11, .cls-12, .cls-13, .cls-14, .cls-15 {
        stroke-width: 1.3px;
      }

      .cls-3 {
        fill: #ef5261;
      }

      .cls-3, .cls-7, .cls-9 {
        stroke-width: 5px;
      }

      .cls-4 {
        fill: #ff7122;
      }

      .cls-18 {
        fill: #c7ebff;
      }

      .cls-6 {
        stroke: #1a1a1a;
      }

      .cls-6, .cls-13 {
        fill: #2b2b2b;
      }

      .cls-7 {
        fill: #308ac5;
      }

      .cls-8 {
        fill: #9462e8;
      }

      .cls-9, .cls-17 {
        fill: #ffce00;
      }

      .cls-10, .cls-19, .cls-20, .cls-21 {
        fill: #fff;
      }

      .cls-11 {
        fill: #fdd227;
      }

      .cls-12 {
        fill: none;
      }

      .cls-16 {
        fill: #ff7900;
      }

      .cls-16, .cls-19, .cls-20, .cls-21, .cls-17 {
        stroke-linecap: round;
        stroke-linejoin: round;
      }

      .cls-16, .cls-17 {
        stroke-width: 10.3px;
      }

      .cls-14 {
        fill: #303030;
      }

      .cls-19 {
        stroke-width: 4.8px;
      }

      .cls-19, .cls-20, .cls-21 {
        stroke: #1c1c1c;
      }

      .cls-20 {
        stroke-width: 5.7px;
      }

      .cls-21 {
        stroke-width: 7.1px;
      }

      .cls-15 {
        fill: #057eba;
      }
    </style>
  </defs>
  <!-- Generator: Adobe Illustrator 28.6.0, SVG Export Plug-In . SVG Version: 1.2.0 Build 709)  -->
  <g>
    <g id="_레이어_1" data-name="레이어_1">
      <g id="_레이어_1-2" data-name="_레이어_1">
        <g>
          <g>
            <rect class="cls-3" x="-1.1" y="113" width="107.8" height="52.8"/>
            <rect class="cls-3" x="-1.1" y="219.3" width="107.8" height="52.8"/>
            <rect class="cls-3" x="-1.1" y="324.8" width="107.8" height="52.8"/>
            <rect class="cls-3" x="-1.1" y="430.4" width="107.8" height="52.8"/>
            <rect class="cls-3" x="-1.1" y="536.1" width="107.8" height="52.8"/>
            <rect class="cls-3" x="-1.1" y="641.6" width="107.8" height="52.8"/>
            <rect class="cls-3" x="-1.1" y="166.5" width="54" height="52.8"/>
            <rect class="cls-3" x="52.9" y="166.5" width="54" height="52.8"/>
            <rect class="cls-3" x="-1.1" y="272" width="54" height="52.8"/>
            <rect class="cls-3" x="52.9" y="272" width="54" height="52.8"/>
            <rect class="cls-3" x="-1.1" y="377.7" width="54" height="52.8"/>
            <rect class="cls-3" x="52.9" y="377.7" width="54" height="52.8"/>
            <rect class="cls-3" x="-1.1" y="483.2" width="54" height="52.8"/>
            <rect class="cls-3" x="52.9" y="483.2" width="54" height="52.8"/>
            <rect class="cls-3" x="-1.1" y="588.8" width="54" height="52.8"/>
            <rect class="cls-3" x="-1.1" y="694.4" width="54" height="52.8"/>
            <rect class="cls-3" x="1023.9" y="694.3" width="54" height="52.8"/>
            <rect class="cls-3" x="52.9" y="588.8" width="54" height="52.8"/>
            <rect class="cls-3" x="969.9" y="218.7" width="107.8" height="52.8"/>
            <rect class="cls-3" x="969.9" y="324.2" width="107.8" height="52.8"/>
            <rect class="cls-3" x="969.9" y="429.9" width="107.8" height="52.8"/>
            <rect class="cls-3" x="969.9" y="535.4" width="107.8" height="52.8"/>
            <rect class="cls-3" x="969.9" y="165.8" width="54" height="52.8"/>
            <rect class="cls-3" x="1023.9" y="165.8" width="54" height="52.8"/>
            <rect class="cls-3" x="969.9" y="271.5" width="54" height="52.8"/>
            <rect class="cls-3" x="1023.9" y="271.5" width="54" height="52.8"/>
            <rect class="cls-3" x="969.9" y="377" width="54" height="52.8"/>
            <rect class="cls-3" x="1023.9" y="377" width="54" height="52.8"/>
            <rect class="cls-3" x="969.9" y="482.6" width="54" height="52.8"/>
            <rect class="cls-3" x="1023.9" y="482.6" width="54" height="52.8"/>
            <rect class="cls-3" x="969.9" y="588.3" width="54" height="52.8"/>
            <rect class="cls-3" x="1023.9" y="588.3" width="54" height="52.8"/>
            <rect class="cls-3" x="106.9" y="113" width="107.8" height="52.8"/>
            <rect class="cls-3" x="214.7" y="113" width="107.8" height="52.8"/>
            <rect class="cls-3" x="322.7" y="113" width="107.8" height="52.8"/>
            <rect class="cls-3" x="430.5" y="113" width="107.8" height="52.8"/>
            <rect class="cls-3" x="538.5" y="113" width="107.8" height="52.8"/>
            <rect class="cls-3" x="646.3" y="113" width="107.8" height="52.8"/>
            <rect class="cls-3" x="754.1" y="113" width="107.8" height="52.8"/>
            <rect class="cls-3" x="862.1" y="113" width="107.8" height="52.8"/>
            <rect class="cls-3" x="969.9" y="113" width="107.8" height="52.8"/>
            <rect class="cls-3" x="214.7" y="641.6" width="107.8" height="52.8"/>
            <rect class="cls-3" x="107.4" y="641.6" width="107.8" height="52.8"/>
            <rect class="cls-3" x="160.9" y="694.4" width="107.8" height="52.8"/>
            <rect class="cls-3" x="52.9" y="694.4" width="107.8" height="52.8"/>
            <rect class="cls-3" x="268.7" y="694.4" width="107.8" height="52.8"/>
            <rect class="cls-3" x="376.5" y="694.3" width="107.8" height="52.8"/>
            <rect class="cls-3" x="484.5" y="694.3" width="107.8" height="52.8"/>
            <rect class="cls-3" x="592.3" y="694.3" width="107.8" height="52.8"/>
            <rect class="cls-3" x="700.3" y="694.3" width="107.8" height="52.8"/>
            <rect class="cls-3" x="808.1" y="694.3" width="107.8" height="52.8"/>
            <rect class="cls-3" x="916.1" y="694.3" width="107.8" height="52.8"/>
            <rect class="cls-3" x="322.7" y="641" width="107.8" height="52.8"/>
            <rect class="cls-3" x="430.5" y="641" width="107.8" height="52.8"/>
            <rect class="cls-3" x="538.5" y="641" width="107.8" height="52.8"/>
            <rect class="cls-3" x="646.3" y="641" width="107.8" height="52.8"/>
            <rect class="cls-3" x="754.1" y="641" width="107.8" height="52.8"/>
            <rect class="cls-3" x="862.1" y="641" width="107.8" height="52.8"/>
            <rect class="cls-3" x="969.9" y="641" width="107.8" height="52.8"/>
            <path class="cls-9" d="M30.4,269.3"/>
            <rect class="cls-7" x="106.9" y="165.8" width="861.9" height="474.5"/>
            <g>
              <ellipse class="cls-1" cx="570.5" cy="543.3" rx="266.2" ry="40.5"/>
              <g>
                <path class="cls-12" d="M536.5,421.1c-1.4-1.5-2.7-3.3-3.8-5.1l-49,37.7c13.6-1.9,38.7-8.1,58.8-27.3-2.2-1.5-4.1-3.3-6-5.3h0Z"/>
                <path class="cls-12" d="M400,368.3c-1-.3-2.2-.6-3.2-1,0,.9.1,1.9,0,2.9,0,.4-2.7,41.4,20.4,67.2,4.8,5.3,10.5,9.8,17.1,13.1,5.6-8.4,16.4-14.4,26.5-10.2,1.5.6,3,1.5,4.4,2.5l59.3-45.7c-.4-1.8-.8-3.7-1.1-5.5-18-.5-40-3.4-58-12.7-5.6-.4-11.6-1-17.9-1.8-14.6-1.8-31.8-4.2-47.9-9h.3Z"/>
                <path class="cls-12" d="M429.7,68.9c1.5.3,3.3,1.3,5,3.6.9,1.3,1.8,2.5,2.5,3.8,1.7,2.4,3.3,5,5.1,7.2,2.9,3.9,5.7,7.5,8.3,10.7l-1.4-34.9c-6.9,3-13.3,6.4-19.6,9.8h.1Z"/>
                <path class="cls-4" d="M570.5,259.8c4.3.8,8.6,2,12.7,3.8,5.7,2.4,10.9,5.7,15.6,9.7,20.2-12.1,34.3-31.6,41.8-58h-2c-3.9,0-6.6-.4-6.7-.4-1.1-.1-1.9-1.1-1.7-2.3.1-1.1,1.3-1.9,2.3-1.8,1.3.1,26.8,3.7,36.8-13.3-1.4.5-2.9,1-4.4,1.1h-2c-3.6,0-6.7-1.3-9.5-3.6-2.3-1.9-3.6-4.6-3.4-7,0-.8.3-1.5.6-2.4-.8,0-1.5-.1-2.3-.4-5.2-1.3-9.9-5.7-8.9-11.8.1-.9.4-1.8.8-2.7-1.3-.6-2.5-1.5-3.6-2.4,0,2.5-.5,5.5-1.8,8.8-3.4,9-11.2,11.6-17.7,11.6s-5.1-.4-6.9-1c-1-.4-1.7-1.4-1.4-2.5.4-1,1.4-1.7,2.5-1.4.6.1,15,4.2,19.7-8.1,3.8-9.9-.6-15.4-2.8-17.3-3.3,2.2-6.9,2.7-9,2.7s-1.9,0-2-.1c-1.1-.1-1.9-1.3-1.7-2.3.1-1.1,1.3-1.9,2.3-1.7.4,0,7.9,1.1,11.7-5.7.5-.9,1.4-1.1,2.3-.9.9.1,1.7.8,1.8,1.8.4,3.7,2.2,12.6,9.1,15.5,5.5,2.3,11.7,0,14.4-5.1,1.9-3.9.8-5.7-1.8-9.7-2.7-4.1-2.7-7.9-2.8-11.7,0-2.7,0-5.1-1-7.5-1.1-2.9-3.8-4.3-7.9-5.7-6-2-12.8-2.2-19.4-.5-13.3,3.4-24.3,15.4-27.8,30.4-7.7,33,21.2,46.4,22.4,46.9,1,.5,1.5,1.7,1,2.7-.4.8-1.1,1.3-1.9,1.3s-.5,0-.8-.1c0,0-2.5-1.1-5.8-3.4-5.3,19.7-15,33.9-29,42-16.9,9.9-36.8,9.7-50.2,8,.5.4,1,.8,1.5,1,4.4,2.8,9.4,3.9,14.6,4.8,7.4-2,14.9-2.5,22.1-1.3h.1Z"/>
                <path class="cls-4" d="M658.1,184.2h-.1c-.5.3-1.1.5-1.8.8-.1,0-.4,0-.5.1-.1.3-.3.5-.5.6-1,.6-1.5,1.5-1.5,2.5s.8,2.9,2.2,4.2c2.4,2.2,5.5,3,8.8,2.5,6.4-.8,12.8-6.2,16.1-10.9,3.7-5.2,6.1-12.7,3.3-17.7-1-1.8-2.7-3-5-4.1-.6,1.5-1.3,2.9-1.9,4.1-4.4,8.3-11.2,14.5-18.8,17.7h-.3Z"/>
                <path class="cls-4" d="M660.8,164.4c-3.2,6.4-10.4,9.5-17.3,7.7-.3.6-.5,1.3-.6,2-.6,4.1,2.8,6.9,6.2,7.7,2,.5,4.1.4,5.8-.1.5-.1,1-.4,1.5-.6h.4c0-.3.1-.3.3-.3,6.7-2.8,12.7-8.5,16.8-15.9,2.5-4.8,6.2-13.7,2-19.7-.6-.9-1.4-1.7-2.3-2.3-2.2-1.4-5-2-7.7-1.8-.4,1.7-.9,3.2-1.5,4.7-1,2.3-2.5,4.6-4.3,6.7,2.2,3.4,3.4,6.7.9,11.8h-.1Z"/>
                <path class="cls-4" d="M655.4,132.4c1.1,3,1.3,6,1.3,8.9s0,5.6,1.3,8.1c1.3-1.7,2.3-3.4,3-5.1,3.3-7,2-16.8-5.6-20.3-3.4-1.5-7.1-1.3-10.4.1h0c4.3,1.4,8.6,3.4,10.4,8.1h0Z"/>
                <path class="cls-4" d="M383.1,361.4h0c-1-.6-2-1.3-3-1.9-12.1-8.4-6.2-24.1-3.4-31.8,1.4-3.7,3-7.2,4.8-10.7-7.9-2.5-17.7-3.3-26.2-3-9.3.4-17.9,2.3-25.8,5.7l-.8.3c-4.6,2-10.8,4.7-11.2,9.5-.3,3.2,2.7,4.4,7.1,5.8.6.1,1.1.4,1.8.5,7,2.4,11.9,6.2,14.9,11.3.6,1.1,1.1,2.3,1.5,3.3.8,1.9,1.3,3.9,1.9,6.1,1.5,5.6,3.2,11.4,7.5,14.5,6.9,4.8,18-1.9,23.5-7.9.8-.8,1.9-.9,2.8-.1.8.8.9,1.9.1,2.8-1.4,1.5-3,3-5,4.4-.3,7.4-.5,34.8,11.9,60.7,6.6.4,12.8,2,18.3,5.1,7.1,3.9,12.2,10.2,15.5,17.3,2.9-.8,5.8-1.4,8.8-1.7-5.1-3.2-9.7-7-13.7-11.4-24.4-27.2-21.6-70-21.6-70.4,0-1.5-.1-2.9-.8-4.3-2.7-1-5.3-2.3-8-3.7-.3,0-.6-.3-.9-.4h-.1Z"/>
                <path class="cls-13" d="M383.9,361.9c-.3-.1-.6-.4-.9-.5h0c.3.3.5.4.9.4h0Z"/>
                <path class="cls-10" d="M435.2,490.8c-1.4.6-2.8,1-4.3,1-2.9,0-5.8-1.3-7.7-3.8-.3-.3-.4-.5-.5-.9-.8,4.1-1.8,7.9-3.3,11.6-.4.9-1.3,1.3-2.2.9s-1.3-1.3-.9-2.2c8.1-20.4,5.1-47.9-14.2-58.7-9.4-5.2-21.3-6.2-33-2.8-12.3,3.7-22.4,11.7-27.7,21.8-7,13.5-5.6,29.1-3.2,39.8.5,2.3,13.8,56.5,90.4,47.2h.1c8.4-1.5,16.4-5.1,23.6-10.5,7.9-6,13.7-13.6,17.3-21.7-1,0-1.9.1-2.9.1-13.5,0-25.4-9.8-31.8-22.1l.3.3Z"/>
                <path class="cls-10" d="M424.9,474.3l4.8-3.8c-.3-5.1.3-10.5,2.5-15.9-3.9,0-8,.6-11.9,1.7,2.2,6,3.3,12.4,3.3,19.2.4-.4.8-.8,1.3-1.1Z"/>
                <path class="cls-4" d="M578.1,423.1h-2.2c-.6,0-1.3-.1-1.8-.3-1.5,3.3-4.2,6-7.6,7.5-2.3,1-4.8,1.5-7.5,1.5s-.5,0-.6,0c-4.3-.1-8.3-1.1-12.1-3-25.1,24.6-58.2,29.1-69,29.8l-3,2.4c0,1-.1,2-.3,2.9-.1,1.1-.4,2.4-.5,3.6-.5,3.2-.9,6.1-.6,9,.5,5.7,3.8,10.8,9.9,15h0c10.9-1.1,30.7-4.4,51.4-14.4,22.9-10.9,50.3-31.6,65.3-70.1-.8.1-1.5.3-2.3.3-1.8,9.1-10,15.9-19.3,15.9h.1Z"/>
                <path class="cls-10" d="M460,443.3c-1.8-.8-3.7-1.1-5.6-1.1-7.6,0-15.2,5.7-18.5,12.7-2,4.3-2.8,8.9-2.8,13.1l30-23.1c-1-.6-1.9-1.3-3-1.7h0Z"/>
                <path class="cls-10" d="M480.9,494.1c-7-4.8-10.8-10.5-11.3-17.4-.3-3.4.3-6.6.8-9.8.1-1.1.4-2.2.5-3.3l-32.9,25.3c6.9,13.7,21.1,24.1,36.2,19.6,2.9-.9,7.1-2.4,8.8-5.6,1.5-2.9.6-7.1-1.9-8.9h-.1Z"/>
                <path class="cls-10" d="M794.8,531.2c15-10.2,25.4-29.3,25.9-47.5.3-10.2-2.3-24.5-16.3-35.1-9.1-6.9-20.4-10.2-30.2-8.5-5.5.9-10.4,3.3-14.5,6.9,2.3,8.9.4,18.8-5.3,25.9-6.4,7.9-17,12.7-28.8,12.7h0c-1.1,0-2-.9-2-2s.9-2,2-2c10.5,0,20.2-4.2,25.7-11.2,6.1-7.7,7.1-19.7,2.3-28.5-2.9-5.2-8-9.1-15.4-11.9-.1,2.9-.4,5.8-.6,8.9v.5c.3,0,.6-.1.9-.3,1.1-.4,2.4.3,2.7,1.4.4,1.1-.3,2.4-1.4,2.7-8.5,2.8-16.1,3.7-22.6,3.7-16.6,0-26.2-6.5-26.8-7-1-.6-1.3-2-.5-3,.6-1,2-1.3,3-.5,0,0,.4.3.9.5v-2.7c.3-2.2.4-4.8.5-7.6-8.1,1.5-14.2,4.8-17.9,9.8-6.1,8-6.9,19.9-1.8,28.5,4.4,7.7,13.3,13.2,23.9,14.7,1.1.1,1.8,1.1,1.7,2.3-.1,1-1,1.7-1.9,1.7s-.1,0-.3,0c-8.9-1.3-16.9-5.3-22.4-11-7.7,9.1-12.2,21-11.8,32.1.4,10.9,5.3,20.2,14.1,26.8,13.1,9.8,30.2,12.6,45.5,13.8,20.4,1.8,49.4.8,71.8-14.4l-.3.4Z"/>
                <path class="cls-6" d="M737.7,549.9c18.8,0,41-3.3,59.1-15.6h0c15.9-10.8,26.9-31,27.4-50.4.4-15.5-5.8-29-17.7-38-9.9-7.5-22.2-10.9-32.9-9.3-5.7.9-10.8,3.2-15.1,6.7-.4-1.1-.9-2.2-1.5-3.2-3.6-6.4-9.8-11-18.7-14.1,1.9-50-15.2-90.3-48.1-111.6-5-3.2-10-5.8-15.1-8.1l13.7-10.5c2-.3,3.9-1,5.6-2.3l5.3-4.2c1.8,2.3,3.7,4.7,5.8,7.1,0,.1.3.3.4.4l.3.4c.9,1,1.7,2,2.5,3,8.3,9.3,17.4,14,27.3,14s11.2-1.8,14.5-3.4l.5-.3c10.8-5.3,16.9-15.2,21.7-23.2l.8-1.3c5-8,10.5-14.6,17.1-20.4,2.4-2.2,3.9-5.1,4.2-8.3s-.8-6.4-2.9-8.8h0c-4.3-5.1-12.1-5.6-17-1.1-8.5,7.4-15.7,15.9-22,26l-.8,1.3c-3.6,5.8-7.2,11.9-11.7,14.1h-.3c-2.2,1.1-6.4,3.2-13.2-4.7-.9-1-1.9-2.2-2.8-3.2l-5.2-6.6,50.8-39.1c2.4-1.9,4.1-4.7,4.4-7.7.4-3-.4-6.2-2.3-8.6-3.9-5.1-11.3-6.1-16.4-2.2l-50.9,39.2-6-7.5c-.4-.4-.8-.9-1.1-1.1l-.4-.6c-.3-.4-.5-.8-.8-1-6.1-8.6-3.2-12.1-1.5-14.1,3.3-3.9,10-6.1,16.5-8.3l1.4-.5c11.2-3.7,21.2-8.8,30.4-15.4,5.5-3.9,6.6-11.4,2.8-16.9-3.9-5.5-11.4-6.6-16.9-2.8-7.2,5.2-15,9.1-23.9,12.1l-1.4.5c-8.9,2.9-19.8,6.5-27.6,15.7l-.4.4c-5.8,7.4-13.7,22.7.8,43.1,2.8,3.9,5.7,7.7,8.6,11.4l-5.1,3.8c-1.9,1.5-3.3,3.6-4.1,5.8l-23.5,18.2c-.5,0-1-.3-1.7-.4-6.6-12.3-18.5-20.7-32.1-20.7s-6.1,0-13.6,1.9c-1-1.1-2-2.4-3.2-3.4,21-13,35.4-33.7,43.1-61.5,10.7-1.1,24.6-5.6,30-20.4,3.3-2.3,6.2-5.2,8.3-8.1,3.9-5.7,7.2-14.7,3.4-21.5-1.4-2.4-3.7-4.4-6.9-5.7,1.5-5.1,2-11.2-1.4-16-.9-1.3-1.9-2.3-3.2-3-2.7-1.8-6-2.5-9.3-2.4.3-6.7-2.5-13.6-9.3-16.8-5.8-2.8-12.2-1.3-17,2.2-5.3-.9-11.2-.8-16.6.8-14.9,3.8-26.9,16.9-30.7,33.4-5.5,23.4,6.1,37.8,15.2,45.3-5,19.6-14.1,33.3-27.4,41-17.4,10.2-39,8.8-51.6,6.7-1.3,1.4-2.5,2.7-4.1,3.7,2,2,4.3,3.9,7.1,5.6,3,1.9,6.4,3.2,9.7,4.1-6.5,2.7-12.6,6.6-17.9,11.6-6.2,5.7-11.3,12.6-15.1,20.4-7.1,14.6-8.9,30.9-5,45.6.3.8.5,1.7.8,2.4-9.7-4.4-18.5-11-25.3-19.7,1.8-6.4,7.7-13.8,16.5-20.3,1-.8,1.1-2,.5-3-.8-1-2-1.1-3-.5-14.2,10.5-21.3,23.1-18,32.1,4.4,12.2,27.8,19.7,57.9,19.2-2.9,3.2-5.3,6.9-7.1,10.7-.5,1,0,2.3,1.1,2.8s2.3,0,2.8-1.1c8.6-19.8,37.2-31.1,59.9-23.6,2.3.8,4.4,1.7,6.5,2.7l-17.3,13.3-1.4-1.4v-1.7c.1-1.1-.6-2.3-1.8-2.4s-2.3.6-2.4,1.8c0,.4-1.1,8.3,7.2,15.7,8.1,7.2,16.9,7.4,17.3,7.4,1.1,0,2.2-1,2.2-2.2s-1-2.2-2.2-2.2-1,0-2.7-.4l-1.7-1.5,2.4-1.9c0,.9.6,1.8,1.5,2,.5,0,11,3,13.8,14.7,2.7,11.3-6.9,16.6-7.2,16.8-16.5,8-33.7-12.6-33.9-12.7-.8-.9-2.2-1-3-.3-.9.8-1,2.2-.3,3,.6.8,12.2,14.5,26.4,16-1.8,7.2-9,12.3-16.5,11.6-10.5-1.3-18.5-11-22.4-16.8-.6-1-2-1.3-3-.6s-1.3,2-.6,3c4.2,6.4,10.8,14,19.4,17.3-1,2-2.8,3.8-5.1,4.7-1.9.8-4.1,1.3-6.4,1.1-7.1-.3-13.3-3.3-18.5-9.3-9.7-10.9-13.5-29.1-12.3-41.4,0-1.1-.8-2.3-1.9-2.4-1.1,0-2.3.8-2.4,1.9-.3,3.3-.3,7.1,0,11.2-30.4-.9-71.3-8.9-83.8-42.9-8.4-23,1.4-49.7,25.7-69.7.9-.8,1-2.2.3-3,0,0-.1,0-.3-.3.4-3.6.9-7.2,1.7-10.8-1.1-.5-2.3-1.1-3.6-1.8-1,4.6-1.7,9-2,13.5-24.9,21.2-34.9,49.3-25.9,73.7,4.7,12.7,12.8,21.8,23,28.6,2.4,1.7,5,3,7.5,4.4,18,9.3,39.9,12.2,58,12.7.3,1.8.6,3.6,1.1,5.5l-59.3,45.7c-1.4-1-2.9-1.9-4.4-2.5-10.2-4.2-21,1.7-26.5,10.2-6.6-3.4-12.3-7.7-17.1-13.1-23.1-25.8-20.6-66.8-20.4-67.2v-2.9c-1.7-.5-3.3-1.1-5-1.8.5,1.3.9,2.8.8,4.3,0,.4-2.8,43.3,21.6,70.4,4.1,4.4,8.6,8.3,13.7,11.4-2.9.3-5.8.9-8.8,1.7-3.3-7.1-8.3-13.2-15.5-17.3-5.5-3-11.7-4.7-18.3-5.1-12.4-26-12.3-53.5-11.9-60.7,1.9-1.4,3.6-2.9,5-4.4.8-.8.6-2-.1-2.8s-2-.6-2.8.1c-5.5,6-16.6,12.7-23.5,7.9-4.2-3-5.8-8.8-7.5-14.5-.6-2.2-1.1-4.2-1.9-6.1-.4-1-.9-2.2-1.5-3.3-2.9-5.1-7.9-8.9-14.9-11.3-.5-.1-1.1-.4-1.8-.5-4.4-1.4-7.5-2.5-7.1-5.8.4-4.8,6.6-7.6,11.2-9.5l.8-.3c7.9-3.4,16.5-5.3,25.8-5.7,8.4-.3,18.3.5,26.2,3,.6-1.1,1.3-2.3,1.9-3.4-10.7-3.7-23.4-3.7-28.2-3.4-9.8.4-18.9,2.4-27.2,6l-.8.3c-5.2,2.3-13,5.6-13.5,12.8-.5,6.6,5.7,8.5,9.9,9.9.5.1,1.1.4,1.7.5,6,2,10.3,5.3,12.7,9.5.5.9.9,1.9,1.3,2.8.6,1.8,1.3,3.7,1.8,5.8,1.7,6,3.6,12.8,9,16.6,2.3,1.7,5,2.3,7.6,2.3s7.9-1.4,11.6-3.4c0,10.3.9,34.3,11.6,57.8-4.2.1-8.4.9-12.4,2-13.1,3.9-24,12.4-29.7,23.4-7.5,14.4-6,30.7-3.4,42,0,.4,5.5,22.1,27.3,37.1,11.4,7.9,27.6,13.8,49.8,13.8s3.3,0,5-.1h2.4c12.2,0,24.5-4.3,34.9-12.2.9-.6,1.7-1.4,2.5-2,7.6-6.5,13.3-14.5,16.6-23,.5,0,1-.3,1.5-.4,3.6-1,8.4-2.9,10.7-7.1,1.5-2.8,1.4-6.4.1-9.1,11.6-1.4,30.5-5.1,50.2-14.5,24.1-11.6,53.5-33.7,68.6-75.4.4-.1.6-.3,1-.4,2.8-1.5,6.7-5,8.8-10.2,9-7,14.7-17,14.7-28.3s-.1-3.2-.4-4.7c9-3.2,16.6-9.5,21.6-17.9,5.7,1.8,11,4.2,15.9,7.4,25.1,16.4,28.8,50,28.2,71.6-9.7,1.7-16.8,5.5-21.2,11.4-7.1,9.4-7.9,22.9-2,32.9.6,1,1.3,1.9,1.9,2.9-8.6,9.9-13.5,22.7-13.1,34.9.4,12.1,5.8,22.2,15.5,29.6.4.3.6.5,1,.6,13.6,9.8,31,12.4,46.2,13.8,4.6.4,9.7.6,15,.6l-.3.3ZM679.4,283.2c.3-2,1.4-3.9,3-5.2l8-6.2c-3.7-4.7-6.4-8.3-6.4-8.3h0c-1.5-2-3-4.1-4.4-6.1-13-18.4-6.1-32-.9-38.5l.4-.4c7-8.4,17.4-11.8,25.8-14.6l1.4-.5c9.3-3,17.4-7.1,24.9-12.6,1.4-1,3.2-1.5,4.8-1.5,2.5,0,5.1,1.1,6.7,3.4,2.7,3.7,1.8,8.9-1.9,11.6-8.9,6.4-18.5,11.2-29.3,14.9l-1.4.5c-7,2.3-14.2,4.7-18.4,9.7-1.8,2.2-5.6,7,.3,16.6l12.2,15.4,54-41.5c1.4-1.1,3.2-1.7,4.8-1.7s4.7,1,6.2,3c1.3,1.7,1.8,3.7,1.5,5.8-.3,2-1.4,3.9-3,5.2l-53.9,41.4,9.4,11.9c.4.4.6.8,1,1.1,8.9,10,15.1,7,17.8,5.7h.4c5.5-2.9,9.4-9.4,13.3-15.7l.8-1.3c6-9.8,13-17.9,21.2-25.1,3.4-2.9,8.6-2.7,11.7.8,1.4,1.7,2.2,3.8,2,6-.1,2.2-1.1,4.2-2.8,5.7-7,6.1-12.8,13.1-17.9,21.3l-.8,1.3c-4.6,7.5-10.3,16.9-20.2,21.7l-.5.3c-2.9,1.4-7.4,3-12.7,3-8.8,0-17-4.3-24.5-12.7-.9-1-1.7-1.9-2.5-2.9l-.8-.9c-.3-.3-.4-.5-.6-.8-2-2.3-4.7-5.5-7.5-9l-8.3,6.4c-3.3,2.5-8.5,1.9-11-1.4s-1.8-3.7-1.5-5.8h-.4ZM478.8,330.6c-.1-.4-.3-.9-.4-1.3,4.1,4.6,8.6,8.5,13.7,11.8-7-2.7-11.8-6.4-13.3-10.5ZM532.6,416c1.1,1.8,2.4,3.6,3.8,5.1,1.9,2.2,3.8,3.9,6,5.3-20.2,19.2-45.2,25.4-58.8,27.3l49-37.7h0ZM435.7,455c3.3-7,10.9-12.7,18.5-12.7s3.8.4,5.6,1.1c1,.4,2,1,3,1.7l-30,23.1c0-4.3.8-8.9,2.8-13.1h0ZM432.3,454.6c-2.3,5.3-2.8,10.8-2.5,15.9l-4.8,3.8c-.5.4-.9.8-1.3,1.1,0-6.6-1-13.2-3.3-19.2,3.9-1,8-1.5,11.9-1.7ZM452.3,534.5c-7.1,5.5-15.2,9-23.6,10.5h-.1c-76.5,9.1-89.8-45-90.4-47.2-2.4-10.7-3.9-26.3,3.2-39.8,5.3-10.2,15.4-18.2,27.7-21.8,11.7-3.4,23.6-2.4,33,2.8,19.2,10.8,22.4,38.2,14.2,58.7-.4.9,0,1.8.9,2.2.9.4,1.8,0,2.2-.9,1.5-3.7,2.5-7.6,3.3-11.6.1.3.3.5.5.9,1.9,2.5,4.8,3.8,7.7,3.8s2.9-.4,4.3-1c6.4,12.3,18.3,22.1,31.8,22.1s1.9,0,2.9-.1c-3.6,8.1-9.4,15.7-17.3,21.7l-.3-.3ZM482.8,503c-1.7,3.2-5.8,4.7-8.8,5.6-15.1,4.6-29.3-5.8-36.2-19.6l32.9-25.3c-.1,1.1-.3,2.2-.5,3.3-.5,3.2-1,6.5-.8,9.8.5,6.7,4.3,12.6,11.3,17.4,2.5,1.8,3.6,6,1.9,8.9h.1ZM534.3,477.1c-20.7,9.9-40.5,13.3-51.4,14.4h0c-6.1-4.2-9.4-9.3-9.9-15-.3-3,.3-6,.6-9,.1-1.1.4-2.4.5-3.6,0-.9.3-1.9.3-2.9l3-2.4c10.7-.8,43.7-5.3,69-29.8,3.7,1.9,7.7,2.9,12.1,3h.6c2.7,0,5.2-.5,7.5-1.5,3.4-1.5,6.1-4.2,7.6-7.5.6,0,1.1.3,1.8.3h2.2c9.3,0,17.5-6.7,19.3-15.9.8,0,1.5-.1,2.3-.3-15,38.6-42.5,59.2-65.3,70.1h-.1ZM618.7,282.3c12.6,0,23.6,8.1,29.3,20.2l-29.1,22.5c1.7-14.2-2.2-29.3-10.7-41.3,6-1.4,10.4-1.4,10.5-1.4h-.1ZM678.8,162.5c2.3,1,3.9,2.3,5,4.1,2.8,5,.4,12.4-3.3,17.7-3.3,4.7-9.7,10-16.1,10.9-3.3.4-6.2-.5-8.8-2.5-1.4-1.3-2.3-2.8-2.2-4.2,0-1,.6-1.8,1.5-2.5.3-.1.4-.4.5-.6.1,0,.4,0,.5-.1.6-.3,1.1-.5,1.8-.8h.1c7.6-3.2,14.4-9.4,18.8-17.7.6-1.1,1.3-2.5,1.9-4.1h.3ZM665.7,141.2c2.8-.1,5.6.4,7.7,1.8.9.6,1.7,1.4,2.3,2.3,4.3,6,.6,14.9-2,19.7-4.1,7.5-9.9,13.1-16.8,15.9h-.6c-.5.5-1,.6-1.5.9-1.7.6-3.7.6-5.8.1-3.4-.9-6.9-3.7-6.2-7.7,0-.6.4-1.4.6-2,6.9,1.8,14.1-1.4,17.3-7.7,2.5-5.1,1.3-8.4-.9-11.8,1.8-2.2,3.3-4.6,4.3-6.7.6-1.5,1.1-3,1.5-4.7h.1ZM655.3,124c7.6,3.6,8.9,13.3,5.6,20.3-.8,1.7-1.8,3.4-3,5.1-1.3-2.5-1.3-5.3-1.3-8.1s0-5.8-1.3-8.9c-1.8-4.7-6.1-6.7-10.4-8.1h0c3.3-1.4,7-1.8,10.4-.1h0ZM533.8,256.1c-.5-.4-1-.6-1.5-1,13.3,1.8,33.4,1.9,50.2-8,13.8-8.1,23.6-22.2,29-42,3.3,2.3,5.7,3.3,5.8,3.4.3,0,.5.1.8.1.8,0,1.5-.5,1.9-1.3.5-1,0-2.3-1-2.7-1.3-.5-30.1-13.8-22.4-46.9,3.6-15,14.5-26.9,27.8-30.4,6.6-1.7,13.5-1.5,19.4.5,4.1,1.4,6.9,2.8,7.9,5.7.9,2.4.9,4.8,1,7.5,0,3.8,0,7.6,2.8,11.7,2.5,3.9,3.8,5.7,1.8,9.7-2.5,5.2-8.9,7.5-14.4,5.1-7-3-8.8-11.8-9.1-15.5,0-.9-.9-1.7-1.8-1.8-.9-.3-1.8,0-2.3.9-3.9,6.9-11.4,5.7-11.7,5.7-1.1-.1-2.2.6-2.3,1.7-.1,1.1.5,2.2,1.7,2.3,0,0,.9.1,2,.1,2.2,0,5.7-.4,9-2.7,2.2,1.9,6.6,7.4,2.8,17.3-4.7,12.3-19.1,8.3-19.7,8.1-1-.4-2.2.3-2.5,1.4-.4,1,.3,2.2,1.4,2.5,1.9.5,4.3,1,6.9,1,6.5,0,14.2-2.5,17.7-11.6,1.3-3.3,1.8-6.2,1.8-8.8,1,.9,2.2,1.8,3.6,2.4-.4.9-.6,1.8-.8,2.7-1,6.1,3.7,10.5,8.9,11.8.8.1,1.5.3,2.3.4-.4.9-.6,1.8-.6,2.4-.1,2.4,1.1,5.1,3.4,7,2.7,2.3,6,3.6,9.5,3.6h2c1.5-.1,2.9-.6,4.4-1.1-10,17-35.6,13.5-36.8,13.3-1.1-.1-2.2.6-2.3,1.8-.1,1.1.6,2.2,1.7,2.3,0,0,2.8.4,6.7.4s1.4,0,2,0c-7.5,26.4-21.6,46-41.8,58-4.6-3.9-9.9-7.2-15.6-9.7-4.1-1.8-8.4-3-12.7-3.8-7.2-1.3-14.9-.8-22.1,1.3-5.2-.9-10.2-2.2-14.6-4.8h-.1ZM590.7,335.9c-18-5.8-39.4-.8-53.3,10.8-10.3.4-19.9,0-28.3-1.4-.6-1.8-1.3-3.6-1.8-5.5-3.7-13.8-2-29.1,4.7-42.8,3.6-7.4,8.4-13.8,14.2-19.2,10.4-9.5,23.4-14.7,36.1-14.7s5.1.3,7.5.6c4.1.6,8,1.9,11.8,3.6,8.6,3.7,16.3,9.5,22,16.8,9.8,12.4,13.6,29.2,10.7,44.3l-14.9,11.4c-2.8-1.7-5.7-2.9-8.8-3.9h.1ZM614.4,380.9c-4.1-11.8-15.1-15.1-16.1-15.4l12.3-9.5c1.8,2.8,3.2,5.7,3.9,8.6,1.1,4.2,1.4,8.1,1,11.8,0,.3-.3,2.2-1.1,4.4h0ZM615.7,388.1v-.9c3.6-5,4.2-10.3,4.2-10.4.5-4.2.1-8.6-1.1-13.3-.9-3.6-2.5-7-4.7-10.2l5.2-3.9c3.6,5.1,5.6,10.9,5.6,17.3s-3.4,15.7-9.1,21.5h0ZM627.9,357.6c-1.1-3.9-2.9-7.5-5.2-10.9l29.5-22.6c-1.1,15.6-10.7,28.6-24.1,33.5h-.1ZM668.9,347.2c-5.1-3.3-10.5-5.7-16.3-7.7,2.5-5.6,3.9-11.9,3.9-18.5s0-.3,0-.4l14.1-10.9c5.8,2.4,11.4,5.2,16.9,8.8,34,22.1,50.5,65.9,45.1,120,0,.9-.3,1.7-.5,2.4-15.5,3.6-26.9,1-33.4-1.4-.3-1.4-.3-2.9-.1-4.4,1.9-19.4,2.9-66.7-29.7-87.9h0ZM663.6,504.9c-.4-11.2,4.1-22.9,11.8-32.1,5.5,5.7,13.5,9.8,22.4,11h.3c1,0,1.8-.8,1.9-1.7.1-1.1-.6-2-1.7-2.3-10.4-1.5-19.3-7-23.9-14.7-5-8.5-4.2-20.6,1.8-28.5,3.8-5,9.8-8.3,17.9-9.8-.1,2.9-.4,5.5-.5,7.6v2.7c-.5-.4-.9-.5-.9-.5-1-.6-2.3-.5-3,.5-.6,1-.5,2.3.5,3,.5.4,10,7,26.8,7s14.1-1,22.6-3.7c1.1-.4,1.8-1.7,1.4-2.7-.4-1.1-1.5-1.8-2.7-1.4-.3,0-.6.1-.9.3v-.5c.3-2.9.5-6,.6-8.9,7.4,2.7,12.4,6.7,15.4,11.9,4.8,8.8,3.9,20.7-2.3,28.5-5.6,7-15.1,11.2-25.7,11.2s-2,.9-2,2,.9,2,2,2h0c11.7,0,22.5-4.7,28.8-12.7,5.7-7.1,7.5-17,5.3-25.9,4.1-3.7,8.9-6,14.5-6.9,9.8-1.5,21.1,1.7,30.2,8.5,14,10.5,16.5,24.9,16.3,35.1-.5,18.3-10.9,37.3-25.9,47.5-22.4,15.1-51.3,16.1-71.8,14.4-15.1-1.4-32.4-4.1-45.5-13.8-8.8-6.6-13.7-15.9-14.1-26.8l.3-.4Z"/>
                <path class="cls-4" d="M698.6,435.2c-.1,1.5,0,3,.1,4.4,6.5,2.4,18,5,33.4,1.4.3-.8.4-1.7.5-2.4,5.5-54.1-11-97.8-45.1-120-5.5-3.6-11-6.5-16.9-8.8l-14.1,10.9v.4c0,6.7-1.4,13-3.9,18.5,5.7,1.9,11.3,4.4,16.3,7.7,32.6,21.2,31.6,68.6,29.7,87.9h0Z"/>
                <path class="cls-8" d="M619,324.8l29.1-22.5c-5.7-12.1-16.6-20.2-29.3-20.2,0,0-4.6,0-10.5,1.4,8.5,11.9,12.3,26.9,10.7,41.3h.1Z"/>
                <path class="cls-8" d="M627.9,357.6c13.5-5,23-17.9,24.1-33.5l-29.5,22.6c2.4,3.3,4.2,7,5.2,10.9h.1Z"/>
                <path class="cls-8" d="M614,353.3c2.2,3.2,3.7,6.6,4.7,10.2,1.3,4.7,1.7,9.3,1.1,13.3,0,0-.6,5.5-4.2,10.4v.9c5.7-5.8,9.1-13.3,9.1-21.5s-2-12.2-5.6-17.3l-5.2,3.9h0Z"/>
                <path class="cls-15" d="M450.8,249.9c-1,.3-2.2.5-3,.8-10.9,3-17.9,10.5-25.3,18.5-.9.9-1.7,1.8-2.5,2.7-9.4,10-17,19.3-23.6,28.3-6.4,8.8-12.7,18.4-16.5,28.7-3.9,10.8-6.4,21.5,2.2,27.4,6,4.1,13,6.5,19.2,8.4,15.9,4.8,32.8,7.2,47.2,8.9,3.4.4,6.7.8,9.9,1-10-6.7-18.3-16-23-28.6-9-24.4,1-52.5,25.9-73.7.4-4.4,1-9,2-13.5l-1.5-.8c-1.5-.9-6.9-3.9-10.9-8.3h0Z"/>
                <path class="cls-15" d="M478.4,329.3c0,.4.3.9.4,1.3,1.5,4.2,6.4,7.9,13.3,10.5-5-3.3-9.7-7.2-13.7-11.8Z"/>
                <path class="cls-14" d="M376.4,327.6c-2.8,7.6-8.5,23.4,3.4,31.8,1,.6,2,1.3,3,1.9.3.1.6.4.9.5,2.7,1.4,5.3,2.7,8,3.7,1.7.6,3.3,1.3,5,1.8,1.1.4,2.2.6,3.2,1,16.1,4.8,33.3,7.4,47.9,9,6.4.8,12.3,1.4,17.9,1.8-2.5-1.4-5.1-2.8-7.5-4.4-3.2-.3-6.5-.6-9.9-1-14.5-1.8-31.4-4.2-47.2-8.9-6.1-1.9-13.2-4.3-19.2-8.4-8.5-5.8-6.1-16.6-2.2-27.4,3.8-10.4,10.2-19.9,16.5-28.7,6.5-9.1,14.2-18.4,23.6-28.3.9-.9,1.7-1.8,2.5-2.7,7.4-8,14.4-15.5,25.3-18.5,1-.3,2-.5,3-.8,4.1,4.3,9.4,7.5,10.9,8.3l1.5.8c1.1.6,2.4,1.3,3.6,1.8,9.1,4.3,17.1,6.5,24.8,6.5s3.7,0,5.5-.4c6.7-.9,14-4.1,17.8-9.9,1.8,0,3.7-.4,5.7-1.1,1.4-.5,2.8-1.3,4.1-2,1.5-1,2.9-2.3,4.1-3.7,1.8-2,3.2-4.3,3.9-6.7,1-3.2.9-6.2-.3-9-1.1.8-2.3,1.4-3.4,2,.8,2.2.4,4.3,0,5.8-1.4,4.3-5.3,8.4-9.7,10-.8.3-1.7.5-2.5.8.5-1.5.8-3,.9-4.7v-3.2c-.1-.9-.4-1.9-.8-2.9-1.1.4-2.4.8-3.7,1.1.3.5.4,1,.5,1.7-.9,1-3.4,3-7.7,3.2-1.1,0-1.9.9-1.9,2s.9,1.9,1.9,1.9,0,0,0,0c3.4,0,6-1.1,7.7-2.3-1.3,8.4-9.5,12.4-17.1,13.5-9.8,1.4-20.2-1.3-32.9-8.3-5.1-2.8-13.7-9.1-14.2-15.2,0-1,0-1.9.5-2.9-1.1-.6-2.3-1.3-3.3-1.9-.8,1.7-1,3.3-.9,5.1.3,2.4,1.1,4.7,2.7,6.7-.5.1-1,.3-1.5.4-11.9,3.3-19.6,11.6-26.9,19.6-.9.9-1.7,1.8-2.5,2.7-9.5,10.2-17.3,19.6-23.9,28.7-3.6,4.8-7,10-10.2,15.4-.6,1.1-1.3,2.3-1.9,3.4-1.9,3.4-3.6,7-4.8,10.7h-.1Z"/>
                <path class="cls-4" d="M514.8,257c-3.8,5.8-11,8.9-17.8,9.9-1.8.3-3.7.4-5.5.4-7.6,0-15.7-2.2-24.8-6.5-.8,3.7-1.3,7.2-1.7,10.8,0,0,.1,0,.3.3.8.9.6,2.3-.3,3-24.3,20.1-34.2,46.7-25.7,69.7,12.6,34,53.5,41.9,83.8,42.9-.4-3.9-.4-7.7,0-11.2,0-1.1,1.1-2,2.4-1.9,1.1,0,2,1.1,1.9,2.4-1.1,12.3,2.7,30.5,12.3,41.4,5.2,6,11.4,9,18.5,9.3,2.3,0,4.4-.3,6.4-1.1,2.3-1,4.1-2.7,5.1-4.7-8.6-3.3-15.2-10.8-19.4-17.3-.6-1-.4-2.3.6-3,1-.6,2.3-.4,3,.6,3.8,5.7,11.8,15.6,22.4,16.8,7.5.9,14.7-4.3,16.5-11.6-14.4-1.5-25.9-15.2-26.4-16-.8-.9-.6-2.3.3-3s2.3-.6,3,.3c.1.3,17.4,20.7,33.9,12.7.4-.1,9.9-5.5,7.2-16.8-2.7-11.7-13.3-14.6-13.8-14.7-1-.3-1.5-1.1-1.5-2l-2.4,1.9,1.7,1.5c1.7.3,2.7.4,2.7.4,1.1,0,2.2,1,2.2,2.2s-1,2.2-2.2,2.2-9.1,0-17.3-7.4c-8.4-7.5-7.2-15.5-7.2-15.7.1-1.1,1.3-1.9,2.4-1.8s1.9,1.3,1.8,2.4v1.7l1.4,1.4,17.3-13.3c-2-1-4.2-2-6.5-2.7-22.6-7.4-51.2,3.9-59.9,23.6-.5,1-1.8,1.5-2.8,1.1s-1.5-1.8-1.1-2.8c1.7-3.9,4.2-7.5,7.1-10.7-30.1.4-53.5-7-57.9-19.2-3.3-9,3.8-21.6,18-32.1,1-.8,2.3-.5,3,.5.8,1,.5,2.3-.5,3-8.8,6.5-14.7,14-16.5,20.3,6.7,8.6,15.6,15.2,25.3,19.7-.3-.8-.5-1.5-.8-2.4-3.9-14.7-2.2-31,5-45.6,3.8-7.9,8.9-14.7,15.1-20.4,5.5-5,11.6-8.9,17.9-11.6-3.3-.9-6.6-2.2-9.7-4.1-2.7-1.7-5.1-3.6-7.1-5.6-1.3.9-2.7,1.5-4.1,2-2,.8-4.1,1.1-5.7,1.1v-.4Z"/>
                <path class="cls-10" d="M384.9,130.9c-.8.4-1.5.5-2.3.5-1.4,0-2.8-.5-3.8-1.4h0l-2-1.7c-.1.5-.3,1.1-.3,1.7,0,1.3.5,2.5,1.5,3.4,4.2,4.2,10.5,7.1,18.4,8.8-.3-2.2-.3-4.3-.3-6.5s0-2.4.1-3.6c-3.4-.9-6.4-2.2-8.6-3.7-.6,1-1.5,1.9-2.8,2.4Z"/>
                <path class="cls-5" d="M387.6,128.5c2.3,1.5,5.2,2.7,8.6,3.7,0-1.5.3-3,.4-4.6-3.4-1-6.2-2.3-8.1-3.9v2.3c-.1,1-.5,1.8-1,2.7h.1Z"/>
                <path class="cls-5" d="M377.9,133.4c-.9-.9-1.5-2.2-1.5-3.4s0-1.1.3-1.7l-3.6-3c-.8,1.4-1.3,3-1.3,4.7,0,2.5,1,4.8,2.8,6.6,5.1,5,12.7,8.4,22.1,10.3-.3-1.5-.5-3.2-.6-4.7-7.9-1.7-14.1-4.6-18.4-8.8h.3Z"/>
                <path class="cls-15" d="M517.5,244.9v.5c0,1,.1,2,0,2.7,0,1.8-.4,3.3-.9,4.7.9-.1,1.8-.4,2.5-.8,4.3-1.5,8.4-5.7,9.7-10,.5-1.5.8-3.6,0-5.8-3.9,2.2-8,4.1-12.3,5.6.4,1,.6,2,.8,2.9l.3.3Z"/>
                <path class="cls-15" d="M472,244.9c-1.5-.4-3-.8-4.6-1.1.3.5.3,1,0,1.7-.3.8-1,1.1-1.8,1.1s-.5,0-.8-.1c-3.4-1.5-5.7-3.7-7.1-5.8-2.8-1.1-5.5-2.4-8-3.8-.4.9-.5,1.9-.5,2.9.5,6.1,9.1,12.4,14.2,15.2,12.7,7,23.2,9.7,32.9,8.3,7.6-1,15.7-5.2,17.1-13.5-1.9,1.1-4.4,2.2-7.7,2.3h0c-1,0-1.9-.9-1.9-1.9s.9-2,1.9-2c4.4,0,6.9-2.2,7.7-3.2,0-.5-.3-1.1-.5-1.7-7.5,2.3-15.5,3.6-23.8,3.6s-11.6-.6-17.4-1.8h.1Z"/>
                <path class="cls-14" d="M465,246.3c.3,0,.5.1.8.1.8,0,1.4-.4,1.8-1.1.3-.5.1-1.1,0-1.7-3.3-.9-6.5-2-9.7-3.3,1.5,2.2,3.7,4.3,7.1,5.8h0Z"/>
                <path class="cls-15" d="M456.8,21.7l-1.9,1.3c-.9-1.4-1.4-1.8-1.8-1.8,0,0-.6.1-.6,1.1l.6,17c1.5,1.1,2.7,2.5,3.4,4.3,1.1,2.8,1.3,5.8.1,8.6-.6,1.7-1.7,3-2.9,4.2l1.7,42.4c15.1-6.2,31.9-7.9,48.4-4.3l-49-71.4,1.8-1.4h.3Z"/>
                <path class="cls-14" d="M453.1,39.3l-.6-17c0-1,.5-1.1.6-1.1.5,0,.9.4,1.8,1.8l1.9-1.3-1.8,1.4,49,71.4h0c2.3.5,4.4,1,6.7,1.8l-51.7-75.3-.4-.6c-.9-1.4-2.9-4.3-6.6-3.7-3.7.9-4.4,4.3-4.3,5.8l.6,14.6c.6.1,1.3.3,1.9.5,1,.4,1.9,1,2.8,1.7h0Z"/>
                <path class="cls-14" d="M450.7,58.5c-.5.3-.9.4-1.4.6l1.4,34.9c1.4,1.8,2.8,3.4,4.2,5,.3,0,.4-.1.6-.3l-1.7-42.4c-.9.9-1.9,1.5-3,2h-.1Z"/>
                <path class="cls-10" d="M547.2,119c1.1-1.8,2.3-3.6,3.4-5.5,4.1-7,7.9-15,11-23.6.8-2,1.1-4.7-1.1-5.8-.3,0-.6-.3-1-.3-.6,0-1.5.3-2.7,1.3s-2.3,1.9-3.4,2.9c-2.3,1.9-4.6,3.8-7,5.7-5.8,4.4-11,8.1-16,11.3,6.4,3.9,12.1,8.6,16.9,14h-.1Z"/>
                <path class="cls-4" d="M562.3,186.8c-4.3,3.4-9.5,5.6-15.1,6,1.4,2.3,2.4,4.7,3,7.2.3,1-.4,2.2-1.5,2.3h-.4c-.9,0-1.7-.6-1.9-1.5-.5-2.4-1.7-4.8-3-6.9-4.4-6.5-12.6-9.5-21.8-8.3-9.1,1.3-18.4,5.8-25.9,12.7-.8.8-2,.6-2.8,0-.8-.8-.6-2,0-2.8,2.4-2.3,5.1-4.3,7.9-6.1-11.8-3.6-20.4-14.6-20.4-27.6s0-1.9.1-2.8c-1.1-1.4-2.8-4.1-3.2-7.7-.5-5.3,1.8-11.2,6.7-17.1.6-.9,1.9-.9,2.8-.3s.9,1.9.3,2.8c-8.9,10.7-5.6,17.3-3.7,19.7,5.6-3.3,26.5-13.8,52.2-2.9,1-.6,2.9-2,2.9-4.7s-.3-2.2-.6-2.7c-.5-.8-1.4-1.4-2.4-2-2.4-1.4-5.3-2.4-9.4-3.2-1.4-.3-2.9-.5-4.3-.6-1,0-1.9-1-1.8-2.2,0-1,1.1-1.9,2.2-1.8,1.5.1,3.2.4,4.7.8,2.9.6,5.2,1.3,7.4,2.2-.3-1.8-1.3-4.2-4.1-6-.9-.5-1.1-1.7-.6-2.5s1.7-1.1,2.5-.6c5.8,3.7,6,9.4,6,11,1.1.8,2.2,1.7,2.9,2.5,1.1,1.5,1.4,3.6,1.4,5,0,4.7-3,7.1-4.8,8.1,0,.5.1.9.3,1.4,2.9,0,5.7.4,7.9.6,7.5,1,14.7,3.2,21.3,6.2.6.3,1.3.6,1.9.9,2.2,1.1,4.1,2.2,6.2,1.5,1.3-.4,2.4-1.4,2.8-2.8.5-1.4.3-3-.6-4.2-.8-1-1.9-1.9-3.7-2.8-1.1-.5-2.3-1-3.6-1.5l-1.1-.4c-1.4-.5-3.2-1.3-5.1-1.8-1-.3-1.7-1.4-1.3-2.4.3-1,1.4-1.7,2.4-1.3.4,0,.9.3,1.3.4-3.7-6.4-10.2-10.9-17.9-11.9-1.1-.1-2.3-.3-3.6-.1-1,0-1.9-.9-2-1.9,0-1,.9-1.9,1.9-2,1.4,0,2.7,0,4.1.3,2.3.3,4.4.9,6.5,1.7-10.3-18.8-28.8-33.3-51.9-38.2-5.6-1.1-11.2-1.8-16.6-1.8-9.9,0-19.7,1.9-28.8,5.6.4.5.9.9,1.3,1.4,3,3.2,5.7,5.7,8.1,7.6,5,3.9,7.6,10.2,6.7,16.4-1.1,9-8.9,15.7-17.9,15.7s-1.5,0-2.3-.1c-3.6-.5-6.7-1.9-9.4-4.2-2.7-1.8-5-4.6-6.7-7.1-2.4-3.4-4.6-7.2-6.5-11.6-2.8,2.9-5.2,6.1-7.5,9.4,1.1,1.7,2.4,3.2,3.9,4.7,1.8,2,3.9,3.8,6,5.6,2.3,1.9,4.6,3.9,6.6,6.2,4.1,4.6,7.4,10.4,9.9,17.5.4,1,.8,2.2,1,3.3.3,1-.4,2.2-1.4,2.4s-2.2-.4-2.4-1.4c-.3-1-.5-1.9-.9-2.9-2.3-6.6-5.3-12.1-9.1-16.3-1.9-2.2-4.1-3.9-6.2-6-2.2-1.9-4.3-3.8-6.2-6-4.1-4.3-7.2-9-9.4-13.7v-.4c-1.8-3.6-3.6-7.2-6.2-10-.5-.5-1.1-.8-1.7-.8-3,0-4.3,4.1-5.3,8.1l-.3.9c-1.1,4.3-1.7,9.1-1.9,14.7-.1,6.7,1,13.3,3.4,19.7,1.9,5,4.4,9.5,7.7,13.7.4.5,3,3.7,3.8,4.4.3,0,.4.3.6.5.6.9.5,2-.4,2.8h0c-3.9,3-6.2,7.7-6.2,12.6,0,9,7.6,16.3,17,16.3s13.1-3.9,15.7-9.9c.4-1,1.7-1.4,2.5-1,1,.4,1.4,1.7,1,2.5-3.3,7.5-10.9,12.3-19.3,12.3s-.6,0-.9,0c11.2,16.1,28.2,27.3,47.9,31.5,40.6,8.6,80.5-15.7,89.4-54.4h0ZM504,215.4c.4-1,1.5-1.5,2.5-1.1,5.3,2,9.7,0,11.9-1.7-7-3-10.9-8.5-11-8.6-.6-.9-.4-2.2.5-2.7.9-.6,2.2-.4,2.7.5.3.4,5.5,7.4,14.1,8.8,4.4-3.8,4.8-10.2,4.8-11.9-3-.6-5.6-2.2-7-3.4-.8-.8-.9-1.9,0-2.8.8-.8,1.9-.9,2.8,0,.3.3,5.8,5.2,11,1.1.9-.6,2-.5,2.8.4.6.9.5,2-.4,2.8-1.8,1.4-3.6,2-5.2,2.3,0,2-.4,7.5-3.6,11.9,2.4-.3,5.1-1,8-2.3,1-.5,2.2,0,2.7.9.5,1,0,2.2-.9,2.7-4.2,2-8.1,2.9-11.7,2.9s-3.6-.3-5.1-.6c-1,1-5.3,5-11.8,5s-3.8-.3-5.8-1.1c-1-.4-1.5-1.5-1.1-2.5l-.3-.4ZM447.3,183.5h-.8c-3.3,0-6.1-.8-8.4-2.2h0c-.6-.3-3.9-1.3-6,2.8-.4.6-1,1-1.8,1s-.6,0-.9-.3c-1-.5-1.4-1.7-.9-2.7,1.4-2.9,3.4-4.2,5.5-4.8-3-4.6-2.7-10-2.7-10.3,0-1,1-1.9,2.2-1.8,1,0,1.9,1,1.8,2,0,0-.4,5.7,3,9.1,2,2,5,3,8.8,2.9,1.1,0,2,.8,2,1.9s-.8,2-1.9,2h0Z"/>
                <path class="cls-13" d="M457.9,240.6c3.2,1.3,6.4,2.4,9.7,3.3,1.5.4,3,.8,4.6,1.1,5.8,1.3,11.7,1.8,17.4,1.8,8.1,0,16.1-1.3,23.8-3.6,1.3-.4,2.4-.8,3.7-1.1,4.3-1.5,8.4-3.4,12.3-5.6,1.1-.6,2.3-1.3,3.4-2,16.9-10.7,29.6-27.4,33.9-48,.4-1.5.6-3,.8-4.6,2-2.5,3.6-5.5,4.7-8.6,0-.3.1-.4.3-.6v-.5c0-.1,0-.4.1-.5.5,0,.9.1,1.4.1.8,0,1.7,0,2.4-.4,2.5-.8,4.4-2.7,5.3-5.3s.5-5.5-1.1-7.7c-1.1-1.5-2.8-2.9-5.1-4.1s-2.7-1.1-3.9-1.7h0c-2.2-5.2-5.7-9.8-10.3-13-2.9-6.4-6.7-12.3-11.2-17.7,1.4-2,2.8-4.2,4.1-6.5,4.2-7.2,8-15.4,11.3-24.1,1.9-5,.6-9-3.3-10.8-1.8-.8-4.4-1.1-7.7,1.5-1.1,1-2.4,1.9-3.6,2.9-2.3,1.9-4.6,3.8-6.9,5.6-6.5,5-12.2,8.9-17.4,12.2-5-2.7-10.2-4.8-15.7-6.5-2.2-.6-4.4-1.3-6.7-1.8h0c-16.5-3.6-33.3-1.9-48.4,4.3-.3,0-.4.1-.6.3-1.4-1.5-2.8-3.2-4.2-5-2.7-3.2-5.3-6.7-8.3-10.7-1.8-2.4-3.4-4.8-5.1-7.2-.9-1.3-1.7-2.5-2.5-3.8-1.7-2.3-3.4-3.3-5-3.6-2.5,1.4-5.1,2.9-7.6,4.4-.5,1.4-.8,3-.5,4.8.8,9.4,2.2,18.3,4.2,26.4,1,4.2,2.3,8.1,3.7,11.7-3,3-5.7,6.4-8.3,9.9-.9-1.5-1.8-3-2.4-4.6v-.4c-1.9-3.8-3.8-7.9-7-11.2-1.3-1.3-2.8-2-4.4-2-6.4,0-8.1,7.2-9.1,11l-.3.8c-.6,2.3-1,4.8-1.4,7.5-.1,1.4-.3,2.9-.4,4.6,0,1.1-.1,2.4-.1,3.6,0,2.2,0,4.3.3,6.5.1,1.5.4,3.2.6,4.7.6,3.4,1.5,6.7,2.8,10,2,5.2,4.8,10.2,8.3,14.7h0c0,2.3.3,4.3.5,6.4-2.4,3.3-3.7,7.2-3.7,11.4,0,9,6.2,16.8,14.9,19.3.5.8,1,1.7,1.5,2.4,6.6,9.8,15.2,17.8,25.1,23.8,1.1.6,2.2,1.3,3.3,1.9,2.5,1.4,5.3,2.7,8,3.8v.3ZM544.4,189.2c-3.7-3.9-8.8-6.5-14.5-7.4,4.8-5.1,7.9-11.8,8.1-19.3h.9c1.3,3.3,4.2,5.7,8,6.1,3.3.4,6.4-1,8.3-3.4,3.6,1,7,2.3,10.2,3.8.5.3,1.1.5,1.7.9.5.3,1.1.6,1.8.9-3,11-13.2,18.7-24.3,18.4h-.1ZM524.9,181.4c-1.3,0-2.5.1-3.9.3-5.2.8-10.4,2.4-15.2,4.8-12.2-1.8-21.5-12.2-21.5-24.8s0-.9,0-1.3c.3-.3,10.4-6.9,25.1-7.7.6,4.7,4.6,8.3,9.4,8.3s7.5-2.7,8.9-6.2c2,.6,4.2,1.3,6.2,2.2.3,1.5.5,3.2.5,5,0,7.9-3.7,15-9.5,19.6h0ZM546.3,93.7c2.4-1.8,4.8-3.8,7-5.7,1.1-1,2.3-1.9,3.4-2.9,1.1-.9,2-1.3,2.7-1.3s.8,0,1,.3c2.4,1,1.9,3.7,1.1,5.8-3.2,8.6-7,16.5-11,23.6-1.1,1.9-2.3,3.7-3.4,5.5-5-5.3-10.7-10-16.9-14,5-3.2,10-6.9,16-11.3h.1ZM425.5,77.9c-.1-2.2.1-5,2.7-5.2h.4c.8,0,1.8.4,2.9,2,.9,1.3,1.7,2.5,2.5,3.7,1.7,2.4,3.4,5,5.2,7.4,6.2,8.4,11.6,14.9,16.9,20.4,3.2,3.3,6,6,8.5,8h0c3.9,3.2,6,7.9,5.3,12.8-1,7.7-8,13.2-15.7,12.2-2.8-.4-5.3-1.5-7.6-3.4-2.4-1.7-4.3-4.1-6-6.4-4.7-6.6-8.4-15.1-11.2-25.9-2-7.9-3.4-16.5-4.1-25.7h.1ZM425,209.5h.9c8.4,0,16-4.8,19.3-12.3.4-1,0-2.2-1-2.5s-2.2,0-2.5,1c-2.7,6.1-8.9,9.9-15.7,9.9s-17-7.2-17-16.3,2.3-9.5,6.2-12.6h0c.9-.6,1-1.9.4-2.8-.1-.3-.4-.4-.6-.5-.8-.8-3.4-3.9-3.8-4.4-3.3-4.2-5.8-8.8-7.7-13.7-2.4-6.4-3.6-13-3.4-19.7.1-5.6.8-10.4,1.9-14.7l.3-.9c1-4.1,2.3-8.1,5.3-8.1s1.1.3,1.7.8c2.8,2.8,4.4,6.5,6.1,10v.4c2.4,4.7,5.6,9.4,9.5,13.7,1.9,2.2,4.2,4.1,6.2,6,2.3,2,4.3,3.8,6.2,6,3.7,4.2,6.7,9.7,9.1,16.3.4,1,.6,1.9.9,2.9s1.3,1.7,2.4,1.4c1-.3,1.7-1.3,1.4-2.4-.3-1.1-.6-2.2-1-3.3-2.5-7.1-5.8-13.1-9.9-17.5-2-2.3-4.3-4.3-6.6-6.2-2-1.8-4.2-3.7-6-5.6-1.4-1.5-2.7-3.2-3.9-4.7,2.2-3.3,4.7-6.5,7.5-9.4,1.9,4.3,4.1,8.3,6.5,11.6,1.8,2.5,4.1,5.3,6.7,7.1,2.7,2.3,6,3.8,9.4,4.2.8,0,1.5.1,2.3.1,8.9,0,16.6-6.6,17.9-15.7.8-6.2-1.8-12.6-6.7-16.4-2.5-2-5.1-4.4-8.1-7.6-.4-.4-.9-.9-1.3-1.4,9.1-3.7,18.9-5.6,28.8-5.6s11.2.6,16.6,1.8c23.1,5,41.7,19.4,51.9,38.2-2-.8-4.2-1.4-6.5-1.7-1.4-.1-2.7-.3-4.1-.3s-1.9.9-1.9,2,.9,1.9,2,1.9,2.4,0,3.6.1c7.7,1,14.2,5.6,17.9,11.9-.4-.1-.9-.3-1.3-.4-1-.3-2.2.3-2.4,1.3-.3,1,.3,2.2,1.3,2.4,1.9.5,3.7,1.3,5.1,1.8l1.1.4c1.3.5,2.4.9,3.6,1.5,1.8.9,2.9,1.8,3.7,2.8.9,1.3,1.1,2.8.6,4.2-.5,1.4-1.5,2.4-2.8,2.8-2,.6-3.9-.4-6.2-1.5-.6-.4-1.3-.6-1.9-.9-6.6-3-13.8-5.2-21.3-6.2-2.2-.3-5-.6-7.9-.6,0-.5-.1-.9-.3-1.4,1.8-1,5-3.6,4.8-8.1,0-1.4-.3-3.4-1.4-5-.8-.9-1.8-1.8-2.9-2.5,0-1.7,0-7.5-6-11-.9-.5-2-.3-2.5.6s-.3,2,.6,2.5c2.8,1.8,3.8,4.2,4.1,6-2.2-.9-4.4-1.5-7.4-2.2-1.5-.4-3.2-.6-4.7-.8-1,0-2,.6-2.2,1.8,0,1,.6,2,1.8,2.2,1.4.1,2.9.4,4.3.6,3.9.9,7,1.9,9.4,3.2,1.1.6,1.9,1.3,2.4,2,.4.5.6,1.5.6,2.7,0,2.7-1.8,4.1-2.9,4.7-25.8-10.9-46.6-.4-52.2,2.9-1.9-2.4-5.2-9,3.7-19.7.6-.9.6-2-.3-2.8-.9-.6-2-.6-2.8.3-5,6-7.2,11.8-6.7,17.1.4,3.7,2,6.4,3.2,7.7,0,.9-.1,1.8-.1,2.8,0,13,8.6,24,20.4,27.6-2.8,1.8-5.5,3.8-7.9,6.1-.8.8-.9,2,0,2.8.8.8,2,.9,2.8,0,7.5-7,16.6-11.4,25.9-12.7,9.1-1.3,17.3,1.8,21.8,8.3,1.5,2.2,2.5,4.6,3,6.9.3.9,1,1.5,1.9,1.5s.3,0,.4,0c1-.3,1.7-1.3,1.5-2.3-.5-2.4-1.7-5-3-7.2,5.6-.5,10.8-2.7,15.1-6-8.9,38.7-48.8,63-89.4,54.4-19.7-4.2-36.6-15.4-47.9-31.5h0Z"/>
                <path class="cls-10" d="M565.4,169c-3.3-1.5-6.7-2.8-10.2-3.8-1.9,2.4-5,3.7-8.3,3.4-3.7-.4-6.7-2.8-8-6.1h-.9c-.1,7.5-3.2,14.2-8.1,19.3,5.7.9,10.8,3.3,14.5,7.4,11,.3,21.3-7.4,24.3-18.4-.6-.3-1.1-.6-1.8-.9-.5-.3-1.1-.6-1.7-.9h.1Z"/>
                <path class="cls-10" d="M527.7,154.8c-1.3,3.7-4.7,6.2-8.9,6.2s-8.8-3.6-9.4-8.3c-14.9.9-24.9,7.6-25.1,7.7v1.3c0,12.6,9.4,23.1,21.5,24.8,5-2.5,10-4.2,15.2-4.8,1.3-.1,2.7-.3,3.9-.3,5.7-4.6,9.5-11.7,9.5-19.6s-.1-3.3-.5-5c-2.2-.9-4.2-1.7-6.2-2.2h0Z"/>
                <path class="cls-10" d="M440.8,129.6c1.7,2.3,3.6,4.7,6,6.4,2.3,1.9,4.8,3,7.6,3.4,7.7,1,14.7-4.4,15.7-12.2.6-5-1.4-9.8-5.3-12.8h0c-2.7-2.2-5.3-4.7-8.5-8-5.3-5.6-10.7-12.1-16.9-20.4-1.8-2.4-3.6-5-5.2-7.4-.9-1.3-1.7-2.5-2.5-3.7-1.1-1.7-2.2-2-2.9-2s-.3,0-.4,0c-2.5.4-2.9,3-2.7,5.2.8,9.1,2.2,17.8,4.1,25.7,2.8,10.8,6.4,19.3,11.2,25.9h-.1Z"/>
                <path class="cls-13" d="M505.2,217.8c2,.8,4.1,1.1,5.8,1.1,6.5,0,10.8-3.9,11.8-5,1.7.4,3.3.6,5.1.6,3.6,0,7.4-.8,11.7-2.9,1-.5,1.4-1.7.9-2.7s-1.7-1.4-2.7-.9c-2.8,1.4-5.5,2-8,2.3,3.2-4.6,3.6-9.9,3.6-11.9,1.8-.3,3.6-1,5.2-2.3.9-.6,1-1.9.4-2.8s-1.9-1-2.8-.4c-5.2,4.1-10.8-.9-11-1.1-.8-.8-2-.6-2.8,0-.8.8-.6,2,0,2.8,1.4,1.3,4.1,2.9,7,3.4,0,1.8-.3,8.1-4.8,11.9-8.6-1.4-13.8-8.4-14.1-8.8-.6-.9-1.9-1.1-2.7-.5-.9.6-1.1,1.8-.5,2.7,0,0,4.1,5.6,11,8.6-2.3,1.5-6.6,3.7-11.9,1.7-1-.4-2.2.1-2.5,1.1-.4,1,.1,2.2,1.1,2.5l.3.4Z"/>
                <path class="cls-11" d="M383.2,127.2c.6-.3,1.1-.9,1.1-1.7l.5-8.6c0-1.9,1.1-3.7,2.8-4.7l7.4-4.4c.6-.4.9-1,.9-1.8s-.5-1.3-1.1-1.5l-8-3.2c-1.8-.8-3.2-2.3-3.6-4.2l-2-8.4c-.1-.8-.6-1.3-1.4-1.4s-1.4,0-1.9.6l-5.5,6.7c-1.3,1.5-3,2.3-5.1,2.2l-8.6-.8c-.8,0-1.4.3-1.8.9s-.4,1.4,0,1.9l4.7,7.2c1,1.7,1.3,3.7.5,5.5l-3.3,8c-.3.6-.1,1.4.3,1.9.5.5,1.1.8,1.9.6l8.4-2.2c1.9-.5,3.8,0,5.3,1.3l6.6,5.6c.5.5,1.3.6,1.9.3h0Z"/>
                <path class="cls-2" d="M378.7,130h0c1.1.9,2.4,1.4,3.8,1.4s1.5-.1,2.3-.5c1.1-.5,2.2-1.4,2.8-2.4.5-.8.8-1.7.9-2.7v-2.3l.5-6.4c0-.6.4-1.1.9-1.5l7.4-4.4c1.9-1.1,3-3.3,2.8-5.6-.3-2.3-1.7-4.2-3.7-5l-8-3.2c-.5-.3-1-.8-1.1-1.3l-2-8.4c-.5-2.2-2.2-3.9-4.4-4.4-2.2-.5-4.4.3-5.8,2l-5.5,6.7c-.4.5-1,.8-1.7.6l-8.6-.8c-2.3-.3-4.3.9-5.6,2.8-1.1,1.9-1.1,4.3,0,6.2l4.7,7.2c.4.5.4,1.1.1,1.8l-3.3,8c-.9,2-.5,4.4,1,6.1,1.5,1.7,3.8,2.4,6,1.8l8.4-2.2c.6-.1,1.3,0,1.7.4l1,.9,3.6,3,2,1.7v.3ZM369.4,120.1l-8.4,2.2c-.6.1-1.4,0-1.9-.6-.5-.5-.6-1.3-.3-1.9l3.3-8c.8-1.8.5-3.8-.5-5.5l-4.7-7.2c-.4-.6-.4-1.4,0-1.9.4-.6,1-.9,1.8-.9l8.6.8c1.9.1,3.8-.6,5.1-2.2l5.5-6.7c.5-.5,1.1-.8,1.9-.6s1.3.6,1.4,1.4l2,8.4c.5,1.9,1.8,3.4,3.6,4.2l8,3.2c.6.3,1.1.9,1.1,1.5s-.3,1.4-.9,1.8l-7.4,4.4c-1.7,1-2.7,2.8-2.8,4.7l-.5,8.6c0,.8-.5,1.3-1.1,1.7-.6.3-1.4.1-1.9-.3l-6.6-5.6c-1.5-1.3-3.4-1.8-5.3-1.3h0Z"/>
                <path class="cls-11" d="M501.1,29.7c1,1.7,1.3,3.7.5,5.5l-3.3,8c-.3.6-.1,1.4.3,1.9.5.5,1.1.8,1.9.6l8.4-2.2c1.9-.5,3.8,0,5.3,1.3l6.6,5.6c.5.5,1.3.6,1.9.3.6-.3,1.1-.9,1.1-1.7l.5-8.6c0-1.9,1.1-3.7,2.8-4.7l7.4-4.4c.6-.4.9-1,.9-1.8s-.5-1.3-1.1-1.5l-8-3.2c-1.8-.8-3.2-2.3-3.6-4.2l-2-8.4c-.1-.8-.6-1.3-1.4-1.4-.8-.1-1.4,0-1.9.6l-5.5,6.7c-1.3,1.5-3,2.3-5.1,2.2l-8.6-.8c-.8,0-1.4.3-1.8.9-.4.6-.4,1.4,0,1.9l4.7,7.2h0Z"/>
                <path class="cls-2" d="M497.7,31.8c.4.5.4,1.1.1,1.8l-3.3,8c-.9,2-.5,4.4,1,6.1,1.5,1.7,3.8,2.4,6,1.8l8.4-2.2c.6-.1,1.3,0,1.7.4l6.6,5.6h0c1.1.9,2.4,1.4,3.8,1.4s1.5-.1,2.3-.5c2-.9,3.4-2.8,3.6-5.1l.5-8.6c0-.6.4-1.1.9-1.5l7.4-4.4c1.9-1.1,3-3.3,2.8-5.6-.3-2.3-1.7-4.2-3.7-5l-8-3.2c-.5-.3-1-.8-1.1-1.3l-2-8.4c-.5-2.2-2.2-3.9-4.4-4.4-2.2-.5-4.4.3-5.8,2l-5.5,6.7c-.4.5-1,.8-1.7.6l-8.6-.8c-2.3-.3-4.3.9-5.6,2.8-1.1,1.9-1.1,4.3,0,6.2l4.7,7.2v.3ZM496.4,20.5c.4-.6,1-.9,1.8-.9l8.6.8c1.9.1,3.8-.6,5.1-2.2l5.5-6.7c.5-.5,1.1-.8,1.9-.6.8.1,1.3.6,1.4,1.4l2,8.4c.5,1.9,1.8,3.4,3.6,4.2l8,3.2c.6.3,1.1.9,1.1,1.5s-.3,1.4-.9,1.8l-7.4,4.4c-1.7,1-2.7,2.8-2.8,4.7l-.5,8.6c0,.8-.5,1.3-1.1,1.7-.6.3-1.4.1-1.9-.3l-6.6-5.6c-1.5-1.3-3.4-1.8-5.3-1.3l-8.4,2.2c-.6.1-1.4,0-1.9-.6-.5-.5-.6-1.3-.3-1.9l3.3-8c.8-1.8.5-3.8-.5-5.5l-4.7-7.2c-.4-.6-.4-1.4,0-1.9h0Z"/>
                <path class="cls-2" d="M447.1,179.7c-3.8,0-6.7-.9-8.8-2.9-3.3-3.4-3-9-3-9.1,0-1-.8-2-1.8-2s-2,.8-2.2,1.8c0,.3-.4,5.7,2.7,10.3-2,.6-3.9,1.9-5.5,4.8-.5,1,0,2.2.9,2.7.3.1.6.3.9.3.8,0,1.4-.4,1.8-1,2-4.1,5.3-3,6-2.8h0c2.3,1.4,5.1,2.2,8.4,2.2s.5,0,.8,0c1,0,1.9-.9,1.9-2s-.9-1.9-2-1.9h0Z"/>
                <path class="cls-10" d="M452.5,50.6c.6-1.7.6-3.6,0-5.2-.8-1.7-2-2.9-3.7-3.6-.8-.3-1.7-.5-2.4-.5s-1.8.1-2.7.5c-18.7,8.1-35.7,18.2-49.3,29.1-2.9,2.3-3.3,6.6-1,9.5,1.3,1.5,3,2.4,5,2.5h0c1.7,0,3.2-.5,4.4-1.5,12.7-10.2,28.6-19.6,46.2-27.2,1.7-.8,2.9-2,3.6-3.7h-.1Z"/>
                <path class="cls-5" d="M449.3,59.1c.5-.3.9-.4,1.4-.6,1.1-.5,2.2-1.3,3-2,1.3-1.1,2.3-2.5,2.9-4.2,1.1-2.8,1-5.8-.1-8.6-.8-1.8-1.9-3.2-3.4-4.3-.9-.6-1.8-1.3-2.8-1.7-.6-.3-1.3-.4-1.9-.5-2.3-.5-4.6-.3-6.6.8-19.1,8.3-36.5,18.5-50.3,29.7-4.8,3.9-5.6,10.9-1.8,15.7,2,2.5,5.1,4.1,8.4,4.2h.4c2.5,0,5.1-.9,7-2.5,5.1-4.1,10.7-8,16.8-11.7,2.4-1.5,5-3,7.6-4.4,6.2-3.4,12.7-6.7,19.6-9.8h-.1ZM402.7,81.6c-1.3,1-2.9,1.5-4.4,1.5h0c-1.9,0-3.8-1-5-2.5-2.3-2.9-1.9-7.1,1-9.5,13.6-10.9,30.6-21,49.3-29.1.9-.4,1.8-.5,2.7-.5s1.7.1,2.4.5c1.7.6,3,1.9,3.7,3.6.8,1.7.8,3.4,0,5.2-.6,1.7-1.9,3-3.6,3.7-17.7,7.6-33.7,17-46.2,27.2h.1Z"/>
                <path class="cls-8" d="M614.3,328.4c2.9-15.1-1-31.9-10.7-44.3-5.7-7.2-13.3-13.1-22-16.8-3.8-1.7-7.7-2.8-11.8-3.6-2.5-.4-5-.6-7.5-.6-12.7,0-25.7,5.2-36.1,14.7-5.8,5.3-10.7,11.8-14.2,19.2-6.7,13.7-8.4,29-4.7,42.8.5,1.9,1.1,3.7,1.8,5.5,8.4,1.3,18,1.8,28.3,1.4,14-11.6,35.3-16.6,53.3-10.8,3,1,6.1,2.4,8.8,3.9l14.9-11.4h-.1Z"/>
                <path class="cls-4" d="M614.7,364.6c-.8-3-2.2-6-3.9-8.6l-12.3,9.5c1,.3,12.1,3.6,16.1,15.4.9-2.3,1.1-4.2,1.1-4.4.5-3.7.1-7.6-1-11.8h0Z"/>
                <path class="cls-4" d="M692.1,290.4l8.3-6.4c2.8,3.6,5.5,6.7,7.5,9,.3.3.4.5.6.8l.8.9c.9,1,1.7,2,2.5,2.9,7.5,8.5,15.7,12.7,24.5,12.7s9.9-1.7,12.7-3l.5-.3c9.8-4.8,15.5-14.2,20.2-21.7l.8-1.3c5.1-8.3,10.9-15.2,17.9-21.3,1.7-1.4,2.7-3.4,2.8-5.7.1-2.2-.5-4.3-2-6-3-3.4-8.3-3.8-11.7-.8-8.3,7.1-15.2,15.4-21.2,25.1l-.8,1.3c-3.8,6.4-7.9,12.8-13.3,15.5h-.4c-2.7,1.4-8.9,4.4-17.8-5.6-.4-.4-.6-.8-1-1.1l-9.4-11.9,53.9-41.4c1.7-1.3,2.7-3.2,3-5.2.3-2-.3-4.2-1.5-5.8-1.5-2-3.9-3-6.2-3s-3.3.5-4.8,1.7l-54,41.5-12.2-15.4c-5.8-9.7-2-14.5-.3-16.6,4.2-5,11.4-7.4,18.4-9.7l1.4-.5c10.8-3.6,20.4-8.4,29.3-14.9,3.7-2.7,4.6-7.9,1.9-11.6-1.7-2.3-4.2-3.4-6.7-3.4s-3.3.5-4.8,1.5c-7.5,5.3-15.6,9.5-24.9,12.6l-1.4.5c-8.4,2.8-18.8,6.2-25.8,14.6l-.4.4c-5.2,6.5-12.1,20.1.9,38.5,1.4,2,2.9,4.1,4.4,6.1h0s2.7,3.6,6.4,8.3l-8,6.2c-1.7,1.3-2.7,3.2-3,5.2-.3,2,.3,4.2,1.5,5.8,2.5,3.3,7.6,4.1,11,1.4h.4Z"/>
              </g>
            </g>
            <g>
              <path class="cls-20" d="M1042.7,608.2c-2.2,0-4.2.3-6.1.8-5.5-13.7-18.4-23.2-33.5-23.2s-6.9.5-10,1.5c-8-17.4-25.1-29.5-44.8-29.5s-49.8,23.2-49.8,51.9,0,1.3,0,1.9c-3.7-2.2-8-3.4-12.4-3.4-13.1,0-23.9,10.3-25.4,23.5h-13.2c-8,0-14.4,6.7-14.4,15s6.5,15,14.4,15h195.3c14.1,0,25.7-11.9,25.7-26.8s-11.4-26.8-25.7-26.8h0Z"/>
              <path class="cls-18" d="M893.3,620.4s-19.7,1.8-27.7,16.6c-.5.9-1.9.6-2-.4-.5-5.6.3-16.5,11.2-23.1,0,0,9.5-6.9,20.6-2.7,3.4,1.3,6.5,3,8.9,6,1,1.3,0,3.2-1.5,3.2-2.8,0-6.9,0-9.4.4Z"/>
            </g>
            <path class="cls-20" d="M240.7,609.8c-2.2,0-4.2.3-6.1.8-5.5-13.7-18.4-23.2-33.5-23.2s-6.9.5-10,1.5c-8-17.4-25.1-29.5-44.8-29.5s-49.8,23.2-49.8,51.9,0,1.3,0,1.9c-3.7-2.2-8-3.4-12.4-3.4-13.1,0-23.9,10.3-25.4,23.5h-13.2c-8,0-14.4,6.7-14.4,15s6.5,15,14.4,15h195.3c14.1,0,25.7-11.9,25.7-26.8s-11.4-26.8-25.7-26.8h0Z"/>
            <g>
              <polygon class="cls-17" points="904.2 124 880.4 250.5 949.2 250.5 926 368.5 1038.4 201.4 959.4 201.4 973.1 124 904.2 124"/>
              <polygon class="cls-17" points="886.7 102.6 862.8 229.1 931.7 229.1 908.4 347.1 1020.8 179.8 941.8 179.8 955.6 102.6 886.7 102.6"/>
              <polygon class="cls-16" points="941.8 179.8 955.6 102.6 973.1 124 963.2 179.8 941.8 179.8"/>
              <polygon class="cls-16" points="931.7 229.1 862.8 229.1 880.4 250.5 927.4 250.5 931.7 229.1"/>
              <polygon class="cls-16" points="1038.4 201.4 1020.8 179.8 908.4 347.1 926 368.5 1038.4 201.4"/>
            </g>
            <path class="cls-21" d="M1023.2,80.7c-2.7,0-5.2.4-7.6,1-6.9-17-23-29-41.8-29s-8.5.6-12.4,1.9c-10-21.7-31.4-36.8-56-36.8s-62.1,29.1-62.1,64.9,0,1.5,0,2.3c-4.6-2.7-9.9-4.2-15.6-4.2-16.4,0-29.7,12.8-31.8,29.3h-16.5c-9.9,0-17.9,8.4-17.9,18.8s8,18.8,17.9,18.8h243.6c17.7,0,32-15,32-33.4s-14.4-33.4-32-33.4l.3-.3Z"/>
          </g>
          <path class="cls-19" d="M947.2,636.3c-1.8,0-3.4.3-5.1.6-4.6-11.4-15.5-19.6-28.2-19.6s-5.7.5-8.4,1.3c-6.7-14.6-21.1-24.8-37.7-24.8s-41.8,19.6-41.8,43.7,0,1,0,1.5c-3-1.8-6.7-2.8-10.5-2.8-11,0-20.1,8.6-21.3,19.7h-11.2c-6.7,0-12.1,5.7-12.1,12.6s5.5,12.6,12.1,12.6h164.2c11.9,0,21.6-10,21.6-22.5s-9.7-22.5-21.6-22.5h0Z"/>
        </g>
      </g>
    </g>
  </g>
</svg>