<?xml version="1.0" encoding="UTF-8"?>
<svg id="_레이어_1" data-name="레이어_1" xmlns="http://www.w3.org/2000/svg" version="1.1" viewBox="0 0 1920 1183.3">
  <!-- Generator: Adobe Illustrator 29.0.1, SVG Export Plug-In . SVG Version: 2.1.0 Build 192)  -->
  <defs>
    <style>
      .st0 {
        isolation: isolate;
      }

      .st1 {
        fill: #fff;
      }
    </style>
  </defs>
  <rect class="st1" x="1162.9" y="61.4" width="201.5" height="2.9"/>
  <rect class="st1" x="1162.9" y="108.4" width="248" height="2.9"/>
  <rect class="st1" x="1162.9" y="155.4" width="231.7" height="2.9"/>
  <path class="st1" d="M.6,150.4L50.3,0h53.9l49.7,150.4h-42.4l-8.9-29.3h-50.5l-8.9,29.3H.6ZM93.5,91.4l-15.5-50.9h-1.2l-15.5,50.9h32.3-.2,0Z"/>
  <path class="st1" d="M200.7,37.9h37v21.2h1.2c4.7-14,16.6-22.6,32.3-22.9,15.8.2,28.2,9.1,30.5,22.9h1.2c4-13.8,17.4-22.6,34.1-22.9,21.4.2,36.3,15.1,36.1,38.2v76h-39.1v-66.2c0-10.2-5.5-16.2-14-16.2s-14.2,6.2-14.4,16.2v66.2h-37.4v-66.2c0-10-5.8-16.2-14.4-16.2s-14,6.2-14,16.6v65.8h-39.1V37.9h.2-.2Z"/>
  <path class="st1" d="M426.3,83.4c8.3-.4,21.6-.7,26.4-.9v-8.9c-.2-6.7-5.3-10-12.8-10.2-8.3.2-13.5,3.6-14.4,10.7h-36.5c1.7-20.4,18.3-37.6,51.4-37.8,31.2.2,51.4,15.8,51.4,37.4v76.9h-36.5v-15.8h-.9c-6.8,12.3-17.9,17.6-32.6,17.4-21.6.2-36.7-10.4-37-32.6.2-24.9,18.6-34.6,41.6-36.2,0,0-.1,0-.1,0ZM434.4,127c9.5.2,18.5-6.2,18.3-16.6v-6.2c-4,.2-14.2.7-19.5,1-6.8.9-11.2,5.5-11.4,11.9.2,6.4,5.3,10,12.8,9.8h-.2,0Z"/>
  <path class="st1" d="M550.7,150.4h-39.1V37.9h37v21.2h1.2c5.1-14.2,18.1-22.6,34.4-22.9,24,.2,39.5,17.6,39.5,42.4v71.7h-39.1v-63.7c-.2-11.4-6.4-18.4-17-18.6-10.2.2-17,7.2-17,18.6v63.8h0Z"/>
  <path class="st1" d="M.3,215.2h39.5l13.5,69.6h.9l14.9-69.6h38.2l15.3,68.8h.9l13.1-68.8h39.1l-28.4,112.5h-42l-16.6-61.9h-1.2l-16.2,61.9H28.9L.5,215.2h-.2Z"/>
  <path class="st1" d="M228.4,327.7h-39.1v-150.4h37.8v59h1.2c5-14.4,17-22.6,34.1-22.9,23.5.2,39.1,17.6,39.1,42.4v71.7h-39.1v-63.7c0-11.4-6.2-18.4-17-18.6-10.2.2-17,7.2-17,18.6v63.8h0Z"/>
  <path class="st1" d="M317.6,271.7c0-34.6,21.6-57.9,57.7-58.1,36.5.2,58.1,23.5,58.1,58.1s-21.6,58.1-58.1,58.1-57.7-23.5-57.7-58.1ZM375.7,300.6c11,.2,17.6-11.2,17.9-29.3-.2-17.9-6.8-29.1-17.9-28.9-11.4-.2-18.3,11-18.3,28.9s6.8,29.5,18.3,29.3Z"/>
  <path class="st1" d="M73.1,396.8c-20.8-.2-32.6,15.8-32.6,42.4s12.1,42.6,32.3,42.8c15.3-.2,25.1-8.3,27.2-21.6l40,.4c-2.1,25.7-24.6,55.7-67.9,55.7S.1,489.2.3,439.3c-.2-49.8,31.6-77.1,71.7-76.9,37.6-.2,64.8,20.8,67.9,57.7h-40c-1.4-14.2-10.8-23.5-26.7-23.3h-.2,0Z"/>
  <path class="st1" d="M162.2,402h37.8v21.2h1.2c4-15.8,13.5-22.6,26-22.9,3.3.2,6.8.7,10.2,1.7v33.5c-4-1.2-10.7-2.1-14.9-2.1-12.1,0-21.2,8.8-21.2,21.6v59.4h-39.1v-112.5h0Z"/>
  <path class="st1" d="M246.7,458.4c0-34.8,22.1-57.9,56.9-58.1,33.3.2,55.5,21.6,55.6,57.7v9.3h-73.9v1.7c0,11.4,7.4,19.8,20,20,8.5-.2,15.3-3.8,17.9-10.2h35.7c-3.8,22.9-23.5,37.8-54.4,37.8s-57.7-21.9-57.7-58.1h-.1ZM322.7,445.7c0-10.4-7.9-17.6-18.3-17.4-10.7-.2-18.9,7.2-19.1,17.4h37.4Z"/>
  <path class="st1" d="M412.2,447.3c8.3-.4,21.6-.7,26.4-.9v-8.9c-.2-6.7-5.3-10-12.8-10.2-8.3.2-13.5,3.6-14.4,10.7h-36.5c1.7-20.4,18.3-37.6,51.4-37.8,31.2.2,51.4,15.8,51.4,37.4v76.9h-36.5v-15.8h-.9c-6.8,12.3-17.9,17.6-32.6,17.4-21.6.2-36.7-10.4-37-32.6.2-24.9,18.6-34.6,41.6-36.2h-.1ZM420.3,491.2c9.5.2,18.5-6.2,18.3-16.6v-6.2c-4,.2-14.2.7-19.5,1-6.8.9-11.2,5.5-11.4,11.9.2,6.4,5.3,10,12.8,9.8h-.2,0Z"/>
  <path class="st1" d="M567.7,433.9h-19.5v47.9c.2,5.3,2.8,7.4,8.1,7.7,3,.2,8.8-.2,13.1-.4v29.3c-3.6.4-9.8,1.2-18.6,1.2-27.2,0-41.8-10.4-41.6-34.1v-51.8h-14.4v-28.4h14.4v-27.2h39.1v27.2h19.5v28.6h0Z"/>
  <path class="st1" d="M584.6,405.4h39.1v112.5h-39.1v-112.5h0ZM604.1,357.1c10.9,0,19.5,8.1,19.5,18.3s-8.8,18.1-19.5,17.9c-10.9.2-19.5-8.1-19.5-17.9s8.8-18.3,19.5-18.3Z"/>
  <path class="st1" d="M719.2,518h-45.5l-38.2-112.5h41.2l19.1,75.1h1.2l18.6-75.1h41.2l-37.8,112.5h.2Z"/>
  <path class="st1" d="M755.1,461.9c0-34.8,22.1-57.9,56.9-58.1,33.3.2,55.5,21.6,55.6,57.7v9.3h-73.9v1.7c0,11.4,7.4,19.8,20,20,8.5-.2,15.3-3.8,17.9-10.2h35.7c-3.8,22.9-23.5,37.8-54.4,37.8s-57.7-21.9-57.7-58.1h0ZM831.2,449.2c0-10.4-7.9-17.6-18.3-17.4-10.7-.2-18.9,7.2-19.1,17.4h37.4,0Z"/>
  <path class="st1" d="M15.5,713.9v-150.4h56.5c46.3.2,75.1,28.3,75.1,75.1s-28.9,75.1-74.8,75.1H15.5v.2h0ZM71.1,680.3c23.1,0,36.3-10,36.1-41.6.2-31.6-12.9-41.4-37-41.6h-15.3v83.2h16.2Z"/>
  <path class="st1" d="M164.6,657.7c0-34.8,22.1-57.9,56.9-58.1,33.3.2,55.5,21.6,55.7,57.7v9.3h-73.9v1.7c0,11.4,7.4,19.8,20,20,8.5-.2,15.3-3.8,17.9-10.2h35.7c-3.8,22.9-23.5,37.8-54.4,37.8s-57.7-21.9-57.7-58.1h-.2ZM240.5,645c0-10.4-7.9-17.6-18.3-17.4-10.7-.2-18.9,7.2-19.1,17.4h37.4Z"/>
  <path class="st1" d="M299.4,561.4h39.1v57.4h.4c4.7-11.2,14.9-21,31.9-21.2,22.6.2,44.4,17.4,44.2,57.7.2,39.1-20.2,57.9-44.2,58.1-16.4-.2-27-8.9-31.9-20h-.9v18.3h-38.6v-150.4h0ZM356.3,682.8c11.7.2,18.5-10.4,18.3-27.6.2-17-6.7-27.4-18.3-27.2-11.7-.2-18.6,10.2-18.6,27.2s7,27.9,18.6,27.6Z"/>
  <path class="st1" d="M471.8,712.6h-39.1v-150.4h39.1v150.4Z"/>
  <path class="st1" d="M493,600.1h39.1v112.5h-39.1v-112.5h0ZM512.5,551.6c10.8,0,19.5,8.1,19.5,18.3s-8.8,18.1-19.5,17.9c-10.8.2-19.5-8.1-19.5-17.9s8.8-18.3,19.5-18.3h0Z"/>
  <path class="st1" d="M610.2,628.6c-7.4.2-13.3,3-13.1,8.1-.2,3.3,2.3,6.7,11.4,8.5l22.4,3.8c22.6,4.2,33.7,14,34.1,30.5-.2,23.8-22.6,39.1-53.9,39.1s-53.6-15.1-55.6-38.2h39.1c1.1,7.4,7.7,11.4,17,11.4s13.5-2.8,13.5-7.7-4-7.2-13.1-8.9l-20-3.3c-22.4-4-34.1-15.5-34.1-33.1s19.8-36.3,51.4-36.5c32.1.2,51.6,14.4,52.6,37.8h-36.2c-.7-7-7.4-11.2-15.8-11.4v-.2h.3Z"/>
  <path class="st1" d="M719.7,719.3h-39.1v-150.4h37.8v59h1.2c4.9-14.4,17-22.6,34.1-22.9,23.5.2,39.1,17.6,39.1,42.4v71.7h-39.1v-63.7c0-11.4-6.2-18.4-17-18.6-10.2.2-17,7.2-17,18.6v63.8h0Z"/>
  <path class="st1" d="M814.1,661.3c0-34.8,22.1-57.9,56.9-58.1,33.3.2,55.5,21.6,55.6,57.7v9.3h-73.9v1.7c0,11.4,7.4,19.8,20,20,8.5-.2,15.3-3.8,17.9-10.2h35.7c-3.8,22.9-23.5,37.8-54.4,37.8s-57.7-21.9-57.7-58.1h0ZM890.1,648.6c0-10.4-7.9-17.6-18.3-17.4-10.7-.2-18.9,7.2-19.1,17.4h37.4,0Z"/>
  <path class="st1" d="M942.5,605.4h37.8v21.2h1.2c4-15.8,13.5-22.6,26-22.9,3.3.2,6.8.7,10.2,1.7v33.5c-4-1.2-10.7-2.1-14.9-2.1-12.1,0-21.2,8.8-21.2,21.6v59.4h-39.1v-112.5h0Z"/>
  <g class="st0">
    <g class="st0">
      <g class="st0">
        <g class="st0">
          <path class="st1" d="M1164.7,37.2h2.7v15.3h7.9v2.3h-10.6v-17.6Z"/>
          <path class="st1" d="M1178,37.2h11v2.3h-8.3v5.3h7.7v2.3h-7.7v5.4h8.4v2.3h-11.1v-17.6Z"/>
          <path class="st1" d="M1192.3,37.2h11v2.3h-8.3v5.3h7.7v2.3h-7.7v5.4h8.4v2.3h-11.1v-17.6Z"/>
          <path class="st1" d="M1222.1,37.2v12.5c0,3.4-2.1,5.4-5.4,5.4s-5.2-1.7-5.2-4.7h2.7c0,1.5,1.1,2.4,2.6,2.4s2.6-1.1,2.6-3.1v-12.5h2.7Z"/>
          <path class="st1" d="M1239.6,37.2v11.6c0,3.7-2.8,6.3-6.9,6.3s-7-2.6-7-6.3v-11.6h2.7v11.3c0,2.4,1.6,4.1,4.3,4.1s4.3-1.7,4.3-4.1v-11.3h2.7Z"/>
          <path class="st1" d="M1257.3,54.8h-2.4l-8.9-12.8h-.1v12.8h-2.7v-17.6h2.5l8.9,12.9h.1v-12.9h2.6v17.6Z"/>
          <path class="st1" d="M1268.2,39.4c-3,0-5.2,2.3-5.2,6.6s2.2,6.6,5.3,6.6c2.8,0,4.7-1.8,4.7-4.6h-4.3v-2.2h6.9v2c0,4.4-3.1,7.2-7.3,7.2s-8-3.5-8-9c0-5.6,3.3-9,7.9-9,3.8,0,6.7,2.3,7.3,5.8h-2.7c-.7-2.1-2.2-3.4-4.6-3.3Z"/>
          <path class="st1" d="M1283.3,37.2h2.8l3.4,13.6h.1l3.6-13.6h2.8l3.5,13.6h.1l3.4-13.6h2.8l-4.9,17.6h-2.7l-3.7-13.1h0l-3.7,13.1h-2.7l-4.9-17.6Z"/>
          <path class="st1" d="M1314.6,55c-4.6,0-7.9-3.4-7.9-9,0-5.6,3.4-9,7.9-9,4.5,0,7.9,3.4,7.9,9s-3.4,9-7.9,9ZM1314.6,52.6c3,0,5.3-2.3,5.3-6.6s-2.3-6.6-5.3-6.6c-3,0-5.3,2.3-5.3,6.6s2.2,6.6,5.3,6.6Z"/>
          <path class="st1" d="M1332.8,55c-4.6,0-7.9-3.4-7.9-9,0-5.6,3.4-9,7.9-9,4.5,0,7.9,3.4,7.9,9s-3.4,9-7.9,9ZM1332.8,52.6c3,0,5.3-2.3,5.3-6.6s-2.3-6.6-5.3-6.6c-3,0-5.3,2.3-5.3,6.6s2.2,6.6,5.3,6.6Z"/>
          <path class="st1" d="M1357.9,54.8h-2.4l-8.9-12.8h-.1v12.8h-2.7v-17.6h2.5l8.9,12.9h.1v-12.9h2.6v17.6Z"/>
        </g>
      </g>
    </g>
  </g>
  <g class="st0">
    <g class="st0">
      <g class="st0">
        <g class="st0">
          <path class="st1" d="M1164.7,81.7h2.7v7.6h8.7v-7.6h2.7v17.6h-2.7v-7.6h-8.7v7.6h-2.7v-17.6Z"/>
          <path class="st1" d="M1181.4,81.7h13.6v2.3h-5.5v15.2h-2.6v-15.2h-5.5v-2.3Z"/>
          <path class="st1" d="M1201,81.7l5.6,13.6h.2l5.6-13.6h3.2v17.6h-2.5v-12.7h-.1l-5.2,12.6h-2.1l-5.2-12.7h-.1v12.7h-2.5v-17.6h3.2Z"/>
          <path class="st1" d="M1219.1,81.7h2.7v15.3h7.9v2.3h-10.6v-17.6Z"/>
          <path class="st1" d="M1233.5,104.3h-2l1.3-6.7h2.7l-2,6.7Z"/>
          <path class="st1" d="M1246.5,84c-3,0-5.3,2.3-5.3,6.6s2.3,6.6,5.3,6.6c2.2,0,4.1-1.2,4.5-3.5h2.7c-.6,3.5-3.4,5.9-7.2,5.9s-7.9-3.4-7.9-9c0-5.6,3.4-9,7.9-9,3.7,0,6.6,2.2,7.2,6h-2.7c-.4-2.3-2.3-3.6-4.5-3.5Z"/>
          <path class="st1" d="M1262.5,83.8c-2.2,0-3.5,1.1-3.5,2.6s1.8,2.3,3.2,2.7l1.7.4c2.2.5,5,1.8,5,4.9,0,3-2.4,5.2-6.5,5.2s-6.4-2-6.6-5.2h2.7c.1,1.9,1.8,2.8,3.9,2.8s3.9-1.1,3.9-2.8-1.4-2.2-3.3-2.7l-2-.5c-2.9-.8-4.6-2.2-4.6-4.7,0-3,2.7-5,6.3-5,3.6,0,6.1,2,6.2,4.9h-2.6c-.2-1.6-1.6-2.6-3.6-2.6Z"/>
          <path class="st1" d="M1277.8,83.8c-2.2,0-3.5,1.1-3.5,2.6s1.8,2.3,3.2,2.7l1.7.4c2.2.5,5,1.8,5,4.9,0,3-2.4,5.2-6.5,5.2s-6.4-2-6.6-5.2h2.7c.1,1.9,1.8,2.8,3.9,2.8s3.9-1.1,3.9-2.8-1.4-2.2-3.3-2.7l-2-.5c-2.9-.8-4.6-2.2-4.6-4.7,0-3,2.7-5,6.3-5,3.6,0,6.1,2,6.2,4.9h-2.6c-.2-1.6-1.6-2.6-3.6-2.6Z"/>
          <path class="st1" d="M1288.1,104.3h-2l1.3-6.7h2.7l-2,6.7Z"/>
          <path class="st1" d="M1303.2,81.7v12.5c0,3.4-2.1,5.4-5.4,5.4s-5.2-1.7-5.2-4.7h2.7c0,1.5,1.1,2.4,2.6,2.4s2.6-1.1,2.6-3.1v-12.5h2.7Z"/>
          <path class="st1" d="M1310.8,91.7c.9,0,2.9-.2,3.5-.2v-1c0-1.5-.9-2.4-2.7-2.4-1.5,0-2.4.7-2.7,1.7h-2.6c.2-2.2,2.3-3.7,5.4-3.8,2.1,0,5.2.8,5.2,4.6v8.7h-2.5v-1.8h0c-.5,1-1.7,2.1-3.9,2.1s-4.4-1.4-4.5-4c0-3,2.6-3.8,4.9-3.9ZM1310.9,97.5c2.1,0,3.4-1.4,3.4-3v-1.2l-3.1.2c-1.7.1-2.8.8-2.8,2.1,0,1.2,1.1,1.9,2.5,1.9Z"/>
          <path class="st1" d="M1326,99.3h-2.8l-4.8-13.2h2.8l3.3,10.1h0l3.3-10.1h2.8l-4.8,13.2Z"/>
          <path class="st1" d="M1336.8,91.7c.9,0,2.9-.2,3.5-.2v-1c0-1.5-.9-2.4-2.7-2.4-1.5,0-2.4.7-2.7,1.7h-2.6c.2-2.2,2.3-3.7,5.4-3.8,2.1,0,5.2.8,5.2,4.6v8.7h-2.5v-1.8h0c-.5,1-1.7,2.1-3.9,2.1s-4.4-1.4-4.5-4c0-3,2.6-3.8,4.9-3.9ZM1336.9,97.5c2.1,0,3.4-1.4,3.4-3v-1.2l-3.1.2c-1.7.1-2.8.8-2.8,2.1,0,1.2,1.1,1.9,2.5,1.9Z"/>
          <path class="st1" d="M1352.2,83.8c-2.2,0-3.5,1.1-3.5,2.6s1.8,2.3,3.2,2.7l1.7.4c2.2.5,5,1.8,5,4.9,0,3-2.4,5.2-6.5,5.2s-6.4-2-6.6-5.2h2.7c.1,1.9,1.8,2.8,3.9,2.8s3.9-1.1,3.9-2.8-1.4-2.2-3.3-2.7l-2-.5c-2.9-.8-4.6-2.2-4.6-4.7,0-3,2.7-5,6.3-5,3.6,0,6.1,2,6.2,4.9h-2.6c-.2-1.6-1.6-2.6-3.6-2.6Z"/>
          <path class="st1" d="M1360.6,92.8c0-4,2.4-6.8,6.1-6.8,3,0,5.2,1.8,5.5,4.5h-2.5c-.3-1.2-1.2-2.3-2.9-2.3s-3.6,1.8-3.6,4.6c0,2.9,1.4,4.7,3.6,4.7s2.6-.8,2.9-2.2h2.5c-.3,2.6-2.3,4.4-5.4,4.4-3.8,0-6.2-2.8-6.2-6.8Z"/>
          <path class="st1" d="M1374.7,86.2h2.5v2.1h.1c.5-1.4,1.8-2.3,3.3-2.3s.8,0,1.1,0v2.5c-.2,0-.8-.2-1.3-.1-1.8,0-3.1,1.2-3.1,2.9v8h-2.6v-13.2Z"/>
          <path class="st1" d="M1385,81c.9,0,1.6.7,1.6,1.5s-.7,1.5-1.6,1.5-1.7-.7-1.6-1.5c0-.8.7-1.5,1.6-1.5ZM1383.7,86.2h2.6v13.2h-2.6v-13.2Z"/>
          <path class="st1" d="M1389.4,86.2h2.5v2.1h.2c.4-.8,1.3-2.3,3.8-2.3,3.2,0,5.5,2.5,5.5,6.8,0,4.2-2.3,6.8-5.5,6.8s-3.4-1.4-3.8-2.3h-.1v7h-2.6v-18.1ZM1395.4,97.4c2.3,0,3.5-2,3.5-4.7,0-2.6-1.2-4.5-3.5-4.5-2.2,0-3.4,1.8-3.4,4.5s1.2,4.7,3.4,4.7Z"/>
          <path class="st1" d="M1410.2,88.2h-2.7v7.2c0,1.5.7,1.7,1.5,1.7.4,0,1,0,1.3,0v2.2c-.3,0-.9.1-1.6.1-2,0-3.8-1.1-3.8-3.5v-7.8h-1.9v-2h1.9v-3.2h2.6v3.2h2.7v2Z"/>
        </g>
      </g>
    </g>
  </g>
  <g class="st0">
    <g class="st0">
      <g class="st0">
        <g class="st0">
          <path class="st1" d="M1163.3,148.4l6.3-17.6h3.1l6.4,17.6h-2.9l-1.6-4.6h-6.8l-1.6,4.6h-2.8ZM1173.8,141.5l-2.6-7.5h-.1l-2.6,7.5h5.3Z"/>
          <path class="st1" d="M1180.3,141.8c0-4.3,2.4-6.8,5.6-6.8,2.4,0,3.3,1.5,3.8,2.3h.1v-6.6h2.6v17.6h-2.5v-2h-.2c-.5.8-1.4,2.3-3.8,2.3s-5.5-2.6-5.5-6.8ZM1186.4,146.4c2.2,0,3.4-1.9,3.4-4.7s-1.2-4.5-3.4-4.5c-2.3,0-3.5,1.9-3.5,4.5s1.2,4.7,3.5,4.7Z"/>
          <path class="st1" d="M1195.1,141.9c0-4.1,2.4-6.8,6.2-6.8,3.7,0,6.1,2.7,6.2,6.8,0,4-2.5,6.8-6.2,6.8-3.7,0-6.2-2.7-6.2-6.8ZM1201.3,146.5c2.4,0,3.5-2.1,3.5-4.6s-1.1-4.7-3.5-4.7c-2.4,0-3.6,2.1-3.6,4.7,0,2.5,1.2,4.6,3.6,4.6Z"/>
          <path class="st1" d="M1210.2,130.8h2.6v6.6h.1c.5-.8,1.3-2.3,3.8-2.3,3.2,0,5.5,2.5,5.6,6.8,0,4.2-2.3,6.8-5.5,6.8s-3.4-1.4-3.8-2.3h-.2v2h-2.5v-17.6ZM1216.1,146.4c2.3,0,3.5-2,3.5-4.7,0-2.6-1.2-4.5-3.5-4.5-2.2,0-3.4,1.8-3.4,4.5s1.2,4.7,3.4,4.7Z"/>
          <path class="st1" d="M1224.2,141.9c0-4,2.4-6.8,6.1-6.8,3,0,5.9,1.9,5.9,6.7v.9h-9.3c0,2.5,1.5,3.9,3.7,3.9,1.4,0,2.4-.6,2.8-1.4h2.6c-.6,2.2-2.6,3.6-5.5,3.6-3.9,0-6.3-2.7-6.3-6.8ZM1233.6,140.6c0-2-1.3-3.5-3.3-3.5s-3.4,1.6-3.5,3.5h6.8Z"/>
          <path class="st1" d="M1245,130.8h6.3c4.1,0,6.1,2.5,6.1,5.7s-2,5.7-6.1,5.7h-3.6v6.2h-2.7v-17.6ZM1251,139.9c2.6,0,3.6-1.4,3.7-3.4,0-2-1.1-3.4-3.7-3.4h-3.3v6.8h3.3Z"/>
          <path class="st1" d="M1266,132.9c-2.2,0-3.5,1.1-3.5,2.6s1.8,2.3,3.2,2.7l1.7.4c2.2.5,5,1.8,5,4.9,0,3-2.4,5.2-6.5,5.2s-6.4-2-6.6-5.2h2.7c.1,1.9,1.8,2.8,3.9,2.8s3.9-1.1,3.9-2.8-1.4-2.2-3.3-2.7l-2-.5c-2.9-.8-4.6-2.2-4.6-4.7,0-3,2.7-5,6.3-5,3.6,0,6.1,2,6.2,4.9h-2.6c-.2-1.6-1.6-2.6-3.6-2.6Z"/>
          <path class="st1" d="M1276.3,153.4h-2l1.3-6.7h2.7l-2,6.7Z"/>
          <path class="st1" d="M1286.4,148.4l6.3-17.6h3.1l6.4,17.6h-2.9l-1.6-4.6h-6.9l-1.6,4.6h-2.8ZM1296.9,141.5l-2.6-7.5h-.1l-2.6,7.5h5.3Z"/>
          <path class="st1" d="M1307.1,148.4h-2.7v-17.6h2.7v17.6Z"/>
          <path class="st1" d="M1317.7,153.4h-2l1.3-6.7h2.7l-2,6.7Z"/>
          <path class="st1" d="M1329.1,130.8h10.9v2.3h-8.2v5.3h7.4v2.3h-7.4v7.6h-2.7v-17.6Z"/>
          <path class="st1" d="M1344.1,130.1c.9,0,1.6.7,1.6,1.5s-.7,1.5-1.6,1.5-1.7-.7-1.6-1.5c0-.8.7-1.5,1.6-1.5ZM1342.8,135.2h2.6v13.2h-2.6v-13.2Z"/>
          <path class="st1" d="M1348.3,149.7h2.7c.2,1.2,1.4,1.8,3.1,1.8s3.3-.9,3.3-2.9v-2.6h-.1c-.5.8-1.4,2.2-3.8,2.2s-5.5-2.3-5.5-6.5,2.4-6.6,5.6-6.7c2.4,0,3.3,1.5,3.8,2.3h.2v-2.1h2.5v13.5c0,3.4-2.6,4.9-6,4.9s-5.5-1.5-5.8-3.9ZM1354,146c2.2,0,3.4-1.6,3.4-4.3s-1.2-4.5-3.4-4.5c-2.3,0-3.5,1.9-3.5,4.5s1.2,4.3,3.5,4.3Z"/>
          <path class="st1" d="M1363.2,135.2h2.5v2.1h.1c.5-1.5,1.9-2.3,3.6-2.3,1.8,0,3,.9,3.6,2.3h0c.6-1.4,2.1-2.3,4-2.3,2.4,0,4.1,1.5,4.1,4.5v8.8h-2.6v-8.6c0-1.8-1.1-2.5-2.5-2.5-1.7,0-2.6,1.1-2.6,2.7v8.4h-2.5v-8.7c0-1.4-1-2.4-2.4-2.4-1.4,0-2.7,1.2-2.7,3v8.1h-2.6v-13.2Z"/>
          <path class="st1" d="M1388.5,140.7c.9,0,2.9-.2,3.5-.2v-1c0-1.5-.9-2.4-2.7-2.4-1.5,0-2.4.7-2.7,1.7h-2.6c.2-2.2,2.3-3.7,5.4-3.8,2.1,0,5.2.8,5.2,4.6v8.7h-2.5v-1.8h0c-.5,1-1.7,2.1-3.9,2.1s-4.4-1.4-4.5-4c0-3,2.6-3.8,4.9-3.9ZM1388.6,146.6c2.1,0,3.4-1.4,3.4-3v-1.2l-3.1.2c-1.7.1-2.8.8-2.8,2.1,0,1.2,1.1,1.9,2.5,1.9Z"/>
        </g>
      </g>
    </g>
  </g>
  <path class="st1" d="M7.8,999.7l20.5-19.1c5.5-5.1,8.3-8.3,8.3-12.9s-3.8-8.3-9.2-8.3-9,3.4-9,9H7.2c0-11.2,8.4-18.5,20.5-18.4,12.3,0,20.5,6.9,20.5,16.9s-3.1,11.9-15.2,22.7l-8.6,8.5v.5h24.6v9.8H7.8v-8.6h0Z"/>
  <path class="st1" d="M56.7,979.5c0-18.8,8.8-29.5,23.1-29.5s23.1,10.7,23.1,29.5-8.7,29.6-23.1,29.6-23.1-10.7-23.1-29.6ZM79.8,999.2c6.7,0,11-6.4,10.9-19.7,0-13.1-4.3-19.7-10.9-19.7s-10.9,6.6-10.9,19.7,4.3,19.7,10.9,19.7Z"/>
  <path class="st1" d="M111.2,999.7l20.5-19.1c5.5-5.1,8.3-8.3,8.3-12.9s-3.8-8.3-9.2-8.3-9,3.4-9,9h-11.4c0-11.2,8.4-18.5,20.5-18.4,12.3,0,20.5,6.9,20.5,16.9s-3.1,11.9-15.2,22.7l-8.6,8.5v.5h24.6v9.8h-41.2v-8.6h0Z"/>
  <path class="st1" d="M158.7,988.6l24.4-37.9h15v37.8h7.1v9.6h-7.1v10.3h-11.4v-10.3h-28v-9.4h0ZM186.9,988.4v-24.6h-.6l-15.5,24.2v.4h16.1Z"/>
  <path class="st1" d="M232.2,950.6h22.5c13.2,0,20.7,8.1,20.7,19.5s-7.7,19.3-20.8,19.3h-10.5v18.7h-11.8v-57.7h0ZM252.5,980c7.1,0,10.6-4.1,10.5-9.8,0-5.7-3.3-9.7-10.5-9.6h-8.5v19.3h8.5Z"/>
  <path class="st1" d="M308.7,1009.1c-15.3,0-26.8-10.9-26.8-29.6s11.6-29.5,26.8-29.5,26.9,10.7,26.8,29.5c0,18.8-11.6,29.6-26.8,29.6ZM308.7,998.5c9,0,14.8-6.8,14.8-19.1s-5.8-19-14.8-18.9c-8.9,0-14.7,6.6-14.6,18.9,0,12.3,5.7,19,14.6,19.1Z"/>
  <path class="st1" d="M344.5,950.6h22.5c13.2,0,20.7,7.4,20.7,18.9s-3.6,13.5-10.2,16.4l12.3,22.4h-13.3l-11-20.5h-9.1v20.5h-11.8v-57.7h0ZM364.8,978.2c7.1,0,10.6-3,10.5-8.6,0-5.8-3.3-9.1-10.5-9h-8.5v17.6h8.5Z"/>
  <path class="st1" d="M393.6,950.6h47.1v9.9h-17.6v47.8h-11.8v-47.8h-17.6v-9.9h0Z"/>
  <path class="st1" d="M448.2,950.6h37.9v9.9h-26.1v14h23.4v9.8h-23.4v24h-11.8v-57.7Z"/>
  <path class="st1" d="M519.8,1009.1c-15.3,0-26.8-10.9-26.8-29.6s11.6-29.5,26.8-29.5,26.9,10.7,26.8,29.5c0,18.8-11.6,29.6-26.8,29.6ZM519.8,998.5c9,0,14.8-6.8,14.8-19.1s-5.8-19-14.8-18.9c-8.9,0-14.7,6.6-14.6,18.9,0,12.3,5.7,19,14.6,19.1Z"/>
  <path class="st1" d="M555.4,950.6h11.8v47.8h24.8v9.9h-36.7v-57.7Z"/>
  <path class="st1" d="M611.8,1008.3h-11.8v-57.7h11.8v57.7Z"/>
  <path class="st1" d="M647.3,1009.1c-15.3,0-26.8-10.9-26.8-29.6s11.6-29.5,26.8-29.5,26.9,10.7,26.8,29.5c0,18.8-11.6,29.6-26.8,29.6ZM647.3,998.5c9,0,14.8-6.8,14.8-19.1s-5.8-19-14.8-18.9c-8.9,0-14.7,6.6-14.6,18.9,0,12.3,5.7,19,14.6,19.1Z"/>
  <path class="st1" d="M6.4,1030.9h11.8v47.8h24.8v9.9H6.4v-57.7h0Z"/>
  <path class="st1" d="M48.8,1067.2c0-13.3,8.3-22.4,21-22.5,11.2,0,20.2,7.2,20.2,22v3.2h-29.5c0,6.5,3.8,10.6,9.9,10.6s6.8-1.8,8-4.3h11.2c-1.7,7.9-8.8,13.1-19.3,13.1s-21.4-8.5-21.5-22.1h0ZM79,1062.6c0-5.3-3.7-9.1-9-9.2-5.6,0-9.3,4.2-9.4,9.2h18.4Z"/>
  <path class="st1" d="M120.2,1054.2h-8.1v21.2c0,3.3,1.7,4.3,4.1,4.3s3.2,0,4.7-.2v9.3c-1.3.2-3.4.4-6.2.5-8.6,0-14.4-3.9-14.3-12.4v-22.7h-6v-8.8h6v-10.5h11.8v10.5h8.1v8.8h0Z"/>
  <path class="st1" d="M161.2,1030.9l16.1,39.1h.6l15.9-39.1h14.8v57.7h-11.8v-37.8h-.5l-15,37.5h-8l-15-37.5h-.5v37.8h-11.6v-57.7h14.7Z"/>
  <path class="st1" d="M216.3,1067.2c0-13.3,8.3-22.4,21-22.5,11.2,0,20.2,7.2,20.2,22v3.2h-29.5c0,6.5,3.8,10.6,9.9,10.6s6.8-1.8,8-4.3h11.2c-1.7,7.9-8.8,13.1-19.3,13.1s-21.4-8.5-21.5-22.1h0ZM246.4,1062.6c0-5.3-3.7-9.1-9-9.2-5.6,0-9.3,4.2-9.4,9.2h18.4Z"/>
  <path class="st1" d="M295.8,1088.5h-11.8v-57.7h11.8v57.7Z"/>
  <path class="st1" d="M317,1088.5h-11.8v-43.1h11.2v7.5h.5c1.9-5,6.6-8.1,13.1-8.1,9,0,14.9,6.2,14.8,16.3v27.5h-11.8v-25.5c0-5.4-2.9-8.5-7.8-8.6-4.9,0-8.2,3.3-8.3,9v25.1h0Z"/>
  <path class="st1" d="M376.8,1054.2h-8.1v21.2c0,3.3,1.7,4.3,4.1,4.3s3.2,0,4.7-.2v9.3c-1.3.2-3.4.4-6.2.5-8.6,0-14.4-3.9-14.3-12.4v-22.7h-6v-8.8h6v-10.5h11.8v10.5h8.1v8.8h0Z"/>
  <path class="st1" d="M384.1,1045.4h11.4v7.5h.5c1.6-5.4,5.6-8.1,10.5-8.1s2.7.2,3.7.4v10.6c-1-.4-3.3-.6-5.1-.6-5.3,0-9.2,3.7-9.3,9v24.6h-11.8v-43.1h0Z"/>
  <path class="st1" d="M412.7,1067c0-13.2,8.2-22.2,21.4-22.3,13.1,0,21.1,9.1,21.2,22.3,0,13.3-8.1,22.3-21.2,22.3s-21.3-9-21.4-22.3h0ZM434,1080.2c6,0,9.2-5.6,9.2-13.2s-3.1-13.2-9.2-13.2-9.3,5.6-9.3,13.2c0,7.6,3.1,13.2,9.3,13.2Z"/>
  <path class="st1" d="M460.9,1067c0-14.8,8.1-22.2,17.6-22.3,7.2,0,10.6,4.4,12.2,7.8h.5v-21.7h11.8v57.7h-11.6v-6.8h-.6c-1.7,3.5-5.2,7.6-12.2,7.5-9.8,0-17.6-7.8-17.6-22.1h0ZM482.2,1079.9c5.7,0,9.2-5.2,9.2-13.1s-3.2-12.7-9.2-12.7-9.3,5.2-9.3,12.7,3.2,13,9.3,13.1Z"/>
  <path class="st1" d="M540,1045.4h11.8v43.1h-11.2v-7.8h-.5c-1.9,5.1-6.6,8.4-13.1,8.3-8.7,0-14.6-6-14.6-16.1v-27.5h11.8v25.5c0,5.1,3.1,8.3,7.7,8.3s8.4-3.1,8.3-9v-24.8h-.2Z"/>
  <path class="st1" d="M559.3,1067c0-13.2,8.1-22.2,21.2-22.3,11.2,0,18.7,6.6,19.3,16.5h-11.1c-.6-4.3-3.5-7.1-8-7.1s-9.3,4.7-9.3,12.9c0,8.4,3.7,13.2,9.3,13.2s7.2-2.6,8-7.1h11.1c-.5,9.8-7.8,16.5-19.1,16.5s-21.3-9.2-21.4-22.3v-.2h0Z"/>
  <path class="st1" d="M605.2,1067.2c0-13.3,8.3-22.4,21-22.5,11.2,0,20.2,7.2,20.2,22v3.2h-29.5c0,6.5,3.8,10.6,9.9,10.6s6.8-1.8,8-4.3h11.2c-1.7,7.9-8.8,13.1-19.3,13.1s-21.4-8.5-21.5-22.1h0ZM635.4,1062.6c0-5.3-3.7-9.1-9-9.2-5.6,0-9.3,4.2-9.4,9.2h18.4Z"/>
  <path class="st1" d="M-.5,1165.9l19.9-57.7h15.5l19.9,57.7h-12.9l-4.4-13.2h-20.8l-4.4,13.2H-.5ZM34.6,1143.2l-7.1-22h-.5l-7.1,22h14.8,0Z"/>
  <path class="st1" d="M61.2,1108.2h11.8v21.7h.4c1.7-3.4,5.1-7.8,12.4-7.8s17.5,7.5,17.4,22.3c0,14.4-7.6,22.2-17.4,22.1-7.1,0-10.6-4-12.4-7.5h-.5v6.8h-11.6v-57.7h0ZM82,1157.3c5.9,0,9.2-5.4,9.3-13.1,0-7.5-3.2-12.7-9.3-12.7s-9.2,5-9.3,12.7c0,7.8,3.4,13,9.3,13.1Z"/>
  <path class="st1" d="M109,1144.4c0-13.2,8.2-22.2,21.4-22.3,13.1,0,21.1,9.1,21.2,22.3,0,13.3-8.1,22.3-21.2,22.3s-21.3-9-21.4-22.3ZM130.3,1157.6c6,0,9.2-5.6,9.2-13.2s-3.1-13.2-9.2-13.2-9.3,5.6-9.3,13.2c0,7.6,3.1,13.2,9.3,13.2Z"/>
  <path class="st1" d="M186.6,1122.8h11.8v43.1h-11.2v-7.8h-.5c-1.9,5.1-6.6,8.4-13.1,8.3-8.7,0-14.6-6-14.6-16.1v-27.5h11.8v25.5c0,5.1,3.1,8.3,7.7,8.3s8.4-3.1,8.3-9v-24.8h-.2,0Z"/>
  <path class="st1" d="M230.3,1131.6h-8.1v21.2c0,3.3,1.7,4.3,4.1,4.3s3.2,0,4.7-.2v9.3c-1.3.2-3.4.4-6.2.5-8.6,0-14.4-3.9-14.3-12.4v-22.7h-6v-8.8h6v-10.5h11.8v10.5h8.1v8.8h0Z"/>
  <path class="st1" d="M271.4,1108.2l16.1,39.1h.6l15.9-39.1h14.8v57.7h-11.8v-37.8h-.5l-15,37.5h-8l-15-37.5h-.5v37.8h-11.6v-57.7h14.7Z"/>
  <path class="st1" d="M329.2,1181.9v-9.2c1.6,0,3.3.2,4.7.2,2.4,0,4.4-.3,5.7-3.9l.6-1.9-15.5-44.3h12.4l9.2,31.7h.5l9.2-31.7h12.4l-16.8,47.9c-2.5,7-7.1,11.5-16.3,11.4-2.4,0-4.4,0-6-.2h-.2,0Z"/>
  <path class="st1" d="M414.4,1117.5c-6.1,0-9.4,2.8-9.4,6.5-.2,4.4,4.2,6.2,9.2,7.3l5.2,1.3c9.8,2.1,17.2,7.1,17.3,16.8,0,10.6-8.3,17.3-22.3,17.3s-22.8-6.5-23.1-18.7h11.6c.5,5.7,5.1,8.6,11.4,8.6s10.4-2.9,10.5-7.1c0-3.9-3.6-5.7-9.9-7.3l-6.2-1.5c-9.8-2.4-15.7-7.2-15.8-15.8,0-10.4,9.3-17.3,21.8-17.3s21.2,7,21.4,17.3h-11.6c-.4-4.6-4-7.3-9.8-7.3h0Z"/>
  <path class="st1" d="M442.3,1144.6c0-13.3,8.3-22.4,21-22.5,11.2,0,20.2,7.2,20.2,22v3.2h-29.5c0,6.5,3.8,10.6,9.9,10.6s6.8-1.8,8-4.3h11.2c-1.7,7.9-8.8,13.1-19.3,13.1s-21.4-8.5-21.5-22.1h0,0ZM472.4,1140c0-5.3-3.7-9.1-9-9.2-5.6,0-9.3,4.2-9.4,9.2h18.4Z"/>
  <path class="st1" d="M502.5,1165.9h-11.8v-57.7h11.8v57.7Z"/>
  <path class="st1" d="M534.9,1131.6h-8.6v34.3h-11.8v-34.3h-6.2v-8.8h6.2v-3.2c0-9.2,5.5-13.9,14.2-13.9s4.9.3,7,.6v9c-1.7-.2-3.1-.3-3.6-.2-3.8,0-5.8,1.4-5.8,5.1v2.6h8.6v8.8h0Z"/>
</svg>