<?xml version="1.0" encoding="UTF-8"?>
<svg xmlns="http://www.w3.org/2000/svg" xmlns:xlink="http://www.w3.org/1999/xlink" version="1.1" viewBox="0 0 6738.1 2584">
  <defs>
    <style>
      .cls-1 {
        stroke-width: 163.2px;
      }

      .cls-1, .cls-2, .cls-3, .cls-4, .cls-5, .cls-6, .cls-7, .cls-8, .cls-9, .cls-10, .cls-11, .cls-12, .cls-13, .cls-14, .cls-15, .cls-16, .cls-17, .cls-18, .cls-19 {
        stroke-linejoin: round;
      }

      .cls-1, .cls-2, .cls-3, .cls-4, .cls-5, .cls-6, .cls-7, .cls-8, .cls-9, .cls-10, .cls-11, .cls-12, .cls-13, .cls-14, .cls-15, .cls-16, .cls-17, .cls-18, .cls-19, .cls-20, .cls-21 {
        stroke-linecap: round;
      }

      .cls-1, .cls-2, .cls-3, .cls-4, .cls-5, .cls-6, .cls-7, .cls-10, .cls-11, .cls-12, .cls-20, .cls-21, .cls-22 {
        fill: none;
      }

      .cls-1, .cls-2, .cls-13, .cls-14, .cls-15, .cls-16, .cls-17, .cls-18, .cls-19 {
        stroke: #343e49;
      }

      .cls-23, .cls-8, .cls-9 {
        fill: #434c54;
      }

      .cls-2, .cls-13 {
        stroke-width: 182.1px;
      }

      .cls-3 {
        stroke-width: 100.6px;
      }

      .cls-3, .cls-4 {
        stroke: #181b1e;
      }

      .cls-24 {
        fill: #2f3942;
      }

      .cls-4 {
        stroke-width: 103.7px;
      }

      .cls-25 {
        fill: #466077;
      }

      .cls-26 {
        fill: #7999b5;
      }

      .cls-27 {
        fill: url(#_무제_그라디언트);
      }

      .cls-5 {
        stroke-width: 190.9px;
      }

      .cls-5, .cls-6, .cls-7, .cls-8, .cls-9 {
        stroke: #434c54;
      }

      .cls-6 {
        stroke-width: 199.5px;
      }

      .cls-7 {
        stroke-width: 82.1px;
      }

      .cls-8 {
        stroke-width: 716.6px;
      }

      .cls-9 {
        stroke-width: 60.7px;
      }

      .cls-28 {
        fill: #303942;
      }

      .cls-29 {
        fill: url(#_무제_그라디언트_6);
      }

      .cls-30 {
        fill: url(#_무제_그라디언트_4);
      }

      .cls-31 {
        fill: url(#_무제_그라디언트_7);
      }

      .cls-32 {
        fill: url(#_무제_그라디언트_5);
      }

      .cls-33 {
        fill: url(#_무제_그라디언트_8);
      }

      .cls-34 {
        fill: url(#_무제_그라디언트_2);
      }

      .cls-35 {
        fill: url(#_무제_그라디언트_3);
      }

      .cls-36 {
        fill: #3a4249;
      }

      .cls-10 {
        stroke-width: 109.6px;
      }

      .cls-10, .cls-11, .cls-22 {
        stroke: #222930;
      }

      .cls-11 {
        stroke-width: 117.8px;
      }

      .cls-12 {
        stroke: #2f3942;
        stroke-width: 425px;
      }

      .cls-13, .cls-14, .cls-15, .cls-16, .cls-17, .cls-18, .cls-19, .cls-37 {
        fill: #343e49;
      }

      .cls-14 {
        stroke-width: 182.2px;
      }

      .cls-15 {
        stroke-width: 258.1px;
      }

      .cls-16 {
        stroke-width: 235.2px;
      }

      .cls-17 {
        stroke-width: 178.1px;
      }

      .cls-18 {
        stroke-width: 121.4px;
      }

      .cls-19 {
        stroke-width: 112.1px;
      }

      .cls-38 {
        fill: #55616b;
      }

      .cls-20 {
        stroke-width: 196.8px;
      }

      .cls-20, .cls-21 {
        stroke: #7999b5;
      }

      .cls-20, .cls-21, .cls-22 {
        stroke-miterlimit: 7.3;
      }

      .cls-21 {
        stroke-width: 237.8px;
      }

      .cls-39 {
        fill: #304760;
      }

      .cls-22 {
        stroke-width: 118.8px;
      }
    </style>
    <linearGradient id="_무제_그라디언트" data-name="무제 그라디언트" x1="2053.6" y1="2353.6" x2="3122.6" y2="2353.6" gradientTransform="translate(460.4 3226.2) scale(.7 -.7)" gradientUnits="userSpaceOnUse">
      <stop offset="0" stop-color="#f2f2f2"/>
      <stop offset=".4" stop-color="#dadada"/>
      <stop offset=".7" stop-color="#c7c7c7"/>
      <stop offset="1" stop-color="#c1c1c1"/>
    </linearGradient>
    <linearGradient id="_무제_그라디언트_2" data-name="무제 그라디언트 2" x1="2930.1" y1="2673.2" x2="3718.9" y2="2673.2" gradientTransform="translate(460.4 3226.2) scale(.7 -.7)" gradientUnits="userSpaceOnUse">
      <stop offset="0" stop-color="#f2f2f2"/>
      <stop offset=".4" stop-color="#dadada"/>
      <stop offset=".7" stop-color="#c7c7c7"/>
      <stop offset="1" stop-color="#c1c1c1"/>
    </linearGradient>
    <linearGradient id="_무제_그라디언트_3" data-name="무제 그라디언트 3" x1="3522.3" y1="2943.4" x2="5147.9" y2="2943.4" gradientTransform="translate(460.4 3226.2) scale(.7 -.7)" gradientUnits="userSpaceOnUse">
      <stop offset="0" stop-color="#f2f2f2"/>
      <stop offset=".4" stop-color="#dadada"/>
      <stop offset=".7" stop-color="#c7c7c7"/>
      <stop offset="1" stop-color="#c1c1c1"/>
    </linearGradient>
    <linearGradient id="_무제_그라디언트_4" data-name="무제 그라디언트 4" x1="1554.4" y1="1345.9" x2="1554.8" y2="1345.9" gradientTransform="translate(460.4 3226.2) scale(.7 -.7)" gradientUnits="userSpaceOnUse">
      <stop offset="0" stop-color="#628499"/>
      <stop offset="0" stop-color="#5a798f"/>
      <stop offset="0" stop-color="#4b667d"/>
      <stop offset="0" stop-color="#466077"/>
      <stop offset=".2" stop-color="#435d73"/>
      <stop offset=".2" stop-color="#3d5569"/>
      <stop offset=".3" stop-color="#344a5b"/>
    </linearGradient>
    <linearGradient id="_무제_그라디언트_5" data-name="무제 그라디언트 5" x1="4776.1" y1="2353.6" x2="5845.1" y2="2353.6" gradientTransform="translate(460.4 3226.2) scale(.7 -.7)" gradientUnits="userSpaceOnUse">
      <stop offset="0" stop-color="#f2f2f2"/>
      <stop offset=".4" stop-color="#dadada"/>
      <stop offset=".7" stop-color="#c7c7c7"/>
      <stop offset="1" stop-color="#c1c1c1"/>
    </linearGradient>
    <linearGradient id="_무제_그라디언트_6" data-name="무제 그라디언트 6" x1="5652.4" y1="2673.2" x2="6441.2" y2="2673.2" gradientTransform="translate(460.4 3226.2) scale(.7 -.7)" gradientUnits="userSpaceOnUse">
      <stop offset="0" stop-color="#f2f2f2"/>
      <stop offset=".4" stop-color="#dadada"/>
      <stop offset=".7" stop-color="#c7c7c7"/>
      <stop offset="1" stop-color="#c1c1c1"/>
    </linearGradient>
    <linearGradient id="_무제_그라디언트_7" data-name="무제 그라디언트 7" x1="6244.6" y1="2943.4" x2="7870.2" y2="2943.4" gradientTransform="translate(460.4 3226.2) scale(.7 -.7)" gradientUnits="userSpaceOnUse">
      <stop offset="0" stop-color="#f2f2f2"/>
      <stop offset=".4" stop-color="#dadada"/>
      <stop offset=".7" stop-color="#c7c7c7"/>
      <stop offset="1" stop-color="#c1c1c1"/>
    </linearGradient>
    <linearGradient id="_무제_그라디언트_8" data-name="무제 그라디언트 8" x1="4276.7" y1="1345.9" x2="4277.1" y2="1345.9" gradientTransform="translate(460.4 3226.2) scale(.7 -.7)" gradientUnits="userSpaceOnUse">
      <stop offset="0" stop-color="#628499"/>
      <stop offset="0" stop-color="#5a798f"/>
      <stop offset="0" stop-color="#4b667d"/>
      <stop offset="0" stop-color="#466077"/>
      <stop offset=".2" stop-color="#435d73"/>
      <stop offset=".2" stop-color="#3d5569"/>
      <stop offset=".3" stop-color="#344a5b"/>
    </linearGradient>
  </defs>
  <!-- Generator: Adobe Illustrator 28.7.1, SVG Export Plug-In . SVG Version: 1.2.0 Build 142)  -->
  <g>
    <g id="_레이어_1" data-name="레이어_1">
      <g id="_레이어_1-2" data-name="_레이어_1">
        <g>
          <path class="cls-23" d="M3498.3,987.9h358.7c118.6,0,214.9,96.3,214.9,214.9v275.4c0,44-35.8,79.8-79.8,79.8h-493.9v-570h0Z"/>
          <path class="cls-4" d="M3106.1,865.5c71.5-278.8,295.1-504.9,499.5-504.9s312.3,226.1,240.8,504.9"/>
          <g>
            <path class="cls-24" d="M3804,798c-28.4,219.8-216.6,398.1-420.4,398.1s-345.8-178.2-317.4-398.1c28.4-219.8,216.6-398.1,420.4-398.1s345.8,178.2,317.4,398.1Z"/>
            <path class="cls-24" d="M3531.6,1207.7h-299c-121.2,0-206.8-97.6-191.2-218.1l24.8-191.6h737.8l-24.8,191.6c-15.6,120.4-126.5,218.1-247.6,218.1h0Z"/>
          </g>
          <path class="cls-5" d="M3705.1,684.4l235.1,318.5s59.5,79.3,17.8,158.6c0,0,53.1,15.7,78.6,94.1,25.5,78.4,106.9,335.2,106.9,335.2l74.4,342.9"/>
          <g>
            <path class="cls-24" d="M3177.5,570.5c-28.4,219.8-216.6,398.1-420.4,398.1s-345.8-178.2-317.4-398.1c28.4-219.8,216.6-398.1,420.4-398.1s345.8,178.2,317.4,398.1h0Z"/>
            <path class="cls-24" d="M2905.1,980.1h-299c-121.2,0-206.8-97.6-191.2-218.1l24.8-191.6h737.8l-24.8,191.6c-15.6,120.4-126.5,218.1-247.6,218.1h0Z"/>
          </g>
          <path class="cls-3" d="M2431.5,648.3c24.4-330,185.6-597.4,360.1-597.4s296.3,267.5,271.9,597.4"/>
          <polygon class="cls-8" points="855.3 1687.7 2430.5 923.1 2822.1 2011.2 925 2011.2 855.3 1687.7"/>
          <path class="cls-28" d="M2082.1,952s199.7-162.7,239.5-359h152.7v250l-392.3,109h0Z"/>
          <path class="cls-36" d="M2934.7,790.7h-669.2c-45.8,0-72.1-36-58.7-80.6l23.6-78.2c13.4-44.5,61.4-80.6,107.2-80.6h669.2c45.8,0,72.1,36,58.7,80.6l-23.6,78.2c-13.4,44.5-61.4,80.6-107.2,80.6Z"/>
          <line class="cls-12" x1="1279.5" y1="1438.4" x2="2343.7" y2="916.3"/>
          <rect class="cls-23" x="3589.8" y="1448.8" width="472.3" height="657.5"/>
          <rect class="cls-23" x="3066.5" y="521.8" width="560.7" height="693.6"/>
          <path class="cls-23" d="M3342.2,856.4l394.9-184.2c74.2-34.6,162.5-2.4,197.1,71.7l312.6,670.3c31.8,68.2,2.3,149.5-66,181.3l-405.7,189.2-432.9-928.3h0Z"/>
          <polygon class="cls-8" points="1585.3 1782.8 3160.5 1018.2 3552 2106.3 1655 2106.3 1585.3 1782.8"/>
          <rect class="cls-26" x="2102.2" y="2279.4" width="1880.9" height="196.2" rx="78.3" ry="78.3"/>
          <rect class="cls-37" x="4003.6" y="1548.8" width="122.5" height="475.4"/>
          <ellipse class="cls-37" cx="4064.9" cy="1902.9" rx="61.3" ry="60.9"/>
          <ellipse class="cls-37" cx="4064.9" cy="1665.4" rx="61.3" ry="60.9"/>
          <ellipse class="cls-37" cx="4064.9" cy="1548.8" rx="61.3" ry="60.9"/>
          <polygon class="cls-13" points="1348.1 2062.9 1916.2 2062.9 1916.2 2240.3 1517.1 2240.3 1348.1 2062.9"/>
          <polygon class="cls-37" points="4210.4 2441.1 1674 2441.1 1651.8 2046.4 4188.3 2046.4 4210.4 2441.1"/>
          <path class="cls-16" d="M3409.8,1852.1c-1.3-38.8-26.1-70-57-70s-9.6,2.2-14.2,3.7l-.3-1.3-186,70.7h4.5c-30,7.5-53,39.4-53,79.6v405.7c0,45.7,29.1,82.5,65,82.5h176.2c35.9,0,65-37,65-82.5v-488.4h-.5.2Z"/>
          <path class="cls-17" d="M2821.7,1954.2c-.9-31.9-18.2-57.5-39.8-57.5s-6.7,1.8-9.9,3l-.2-1-129.8,58h3.2c-20.9,6.1-37,32.4-37,65.3v333.1c0,37.4,20.3,67.8,45.4,67.8h122.9c25.1,0,45.4-30.4,45.4-67.8v-401h-.3Z"/>
          <path class="cls-18" d="M2360.9,2049.4c-.7-17.8-15.2-32-33.2-32s-5.6,1-8.3,1.7l-.2-.6-108.5,32.3h2.6c-17.4,3.4-30.9,18-30.9,36.3v185.3c0,20.8,17,37.7,37.9,37.7h102.8c21,0,37.9-16.9,37.9-37.7v-223h-.2,0Z"/>
          <ellipse class="cls-23" cx="3622.4" cy="865.5" rx="331" ry="343.7"/>
          <path class="cls-25" d="M1170.2,1896.1c17,147.8-89.8,281.4-238.5,298.2-148.7,16.9-283-89.2-300.1-237-17-147.8,89.8-281.4,238.5-298.2,148.7-16.9,283,89.2,300.1,237Z"/>
          <polygon class="cls-37" points="4112.3 1499.2 4241.9 1980.6 4159.2 1980.6 4126.3 1980.6 4112.3 1499.2"/>
          <rect class="cls-37" x="1462.6" y="1883.8" width="229.2" height="169.2"/>
          <rect class="cls-37" x="3202.9" y="1879.4" width="321.8" height="138.1"/>
          <rect class="cls-37" x="3813.5" y="1769.7" width="321.8" height="198.8"/>
          <polygon class="cls-9" points="3714.9 1590.8 3605.7 1350.1 3704.2 1306.8 3876.6 1612.6 3714.9 1590.8"/>
          <path class="cls-10" d="M1462.6,1060.6l74.7-34.1c44.9-20.5,123.3-37.1,175.3-37.1h469.4c52,0,57.8,16.6,12.9,37.1l-149.4,68.1"/>
          <path class="cls-10" d="M969.1,1311.5l149.4-68.1c44.9-8.1,123.3-24.7,175.3-24.7h469.4c52,0,57.8,16.6,12.9,37.1l-149.4,68.1"/>
          <path class="cls-10" d="M2100.2,730.2l49.4-22.5c44.9-20.5,123.3-37.1,175.3-37.1h469.4c52,0,57.8,16.6,12.9,37.1l-95,43.3"/>
          <path class="cls-22" d="M2277,603.3l96.9-128c29.1-38.4,95.5-69.6,148.4-69.6h477.3c52.8,0,72.1,31.2,43.1,69.6l-96.9,128c-8.1,10.8-19.2,21-32.1,30"/>
          <line class="cls-6" x1="4135.3" y1="1579.7" x2="3952" y2="1662.7"/>
          <polyline class="cls-19" points="4069.7 1665.4 4097.7 1703.4 4097.3 1912"/>
          <polygon class="cls-7" points="2147.7 1293.6 2213.9 1261.4 2297.8 1433.4 2208.1 1464.1 2147.7 1293.6"/>
          <polygon class="cls-2" points="3010.6 623.5 3127.5 562.6 2989.5 562.6 2963.7 623.5 3010.6 623.5"/>
          <polygon class="cls-1" points="2253.4 619.6 2267.2 562.7 2328 562.7 2291 619.6 2253.4 619.6"/>
          <line class="cls-2" x1="2006.8" y1="788.7" x2="2092.4" y2="747.6"/>
          <line class="cls-2" x1="1481.5" y1="1055.9" x2="1567.2" y2="1014.7"/>
          <line class="cls-2" x1="1524.3" y1="1390.8" x2="1610" y2="1349.6"/>
          <polygon class="cls-37" points="4152.5 1643.3 4171.4 1718.5 4088.5 1721.6 4082 1658.6 4152.5 1643.3"/>
          <polygon class="cls-14" points="3987.1 1524 4171.6 1444.7 4305.4 1890.3 3991.7 1890.3 3987.1 1524"/>
          <path class="cls-10" d="M1463,1401.4c-44.9,20.5-123.3,37.1-175.3,37.1h-469.4c-52,0-57.8-16.6-12.9-37.1"/>
          <line class="cls-2" x1="890.1" y1="1438.4" x2="1118.9" y2="1438.4"/>
          <g>
            <rect class="cls-37" x="530.4" y="1438.4" width="594.3" height="590.7"/>
            <polygon class="cls-37" points="1311 1504.3 1639.6 1770.2 1552.6 2029.1 1167.3 2029.1 1311 1504.3"/>
            <ellipse class="cls-37" cx="530.1" cy="1733.9" rx="297.3" ry="295.5"/>
            <ellipse class="cls-37" cx="1124.7" cy="1733.9" rx="297.3" ry="295.5"/>
            <ellipse class="cls-37" cx="1543.1" cy="1881.6" rx="148.7" ry="147.7"/>
          </g>
          <path class="cls-11" d="M2905.7,633.3c-23.1,22.3-60.9,37.7-98.3,37.7h-469.4c-52,0-83.5-29.7-70.5-66.4"/>
          <line class="cls-2" x1="2609.9" y1="793.2" x2="2695.4" y2="752"/>
          <path class="cls-10" d="M2548.5,817.5l-54.4,24.9c-44.9,20.5-123.3,37.1-175.3,37.1h-469.4c-52,0-57.8-16.6-12.9-37.1l100-45.6"/>
          <path class="cls-15" d="M4097.1,1628c-1.4-41.7-29.2-75.1-63.9-75.1s-10.8,2.3-15.9,4l-.3-1.4-208.7,75.8h5.1c-33.5,8-59.4,42.2-59.4,85.3v435.1c0,48.9,32.7,88.5,73,88.5h197.7c40.3,0,73-39.6,73-88.5v-523.7h-.5Z"/>
          <g>
            <path class="cls-27" d="M2356.4,1104.4c-16.2-23-41.6-32.7-61.5-23.3l-94.7,44.8-128.7,60.8-95.2,45c-19.7,9.3-28.8,34.8-22.2,62l149.3,608.9c9.4,38.4,45.6,62.9,73.5,49.7l153-72.3c23.4-11.1,31.3-44.6,17.6-75.3l-25.7-57.7c-13.7-30.7-5.9-64.2,17.6-75.3l48.8-23.1c23.7-11.2,54.4,4.7,68.5,35.5l25.7,55.9c14.2,30.8,44.9,46.8,68.5,35.5l153.1-72.3c27.6-13.1,32.7-56.3,10.2-88.4l-357.8-510.4h0Z"/>
            <path class="cls-34" d="M2842.3,882.2c-13.3-29.2-42.5-44.1-65.3-33.2l-164.9,78.5c-22.8,10.8-30.4,43.3-17.1,72.5l312.6,687.1c13.3,29.2,42.5,44.1,65.3,33.2l164.9-78.5c22.8-10.8,30.4-43.3,17.1-72.5l-312.6-687.1Z"/>
            <path class="cls-35" d="M4195,1244.5l-38.2-89.9-45.5-107c-7.3-17.1-22.1-28.4-38.4-29.3,0,0-235.2-13.5-235.3-13.5-18.7-1-31.1-14.3-39-31.7-32-70.7-63.7-141.9-110.9-202.2-21.8-27.8-46.9-52.4-74.7-72.8-25.3-18.5-52.7-33.5-81.2-44.8-26.5-10.5-53.9-18-81.8-22.8-25.3-4.3-50.8-6.5-76.3-6.7-21.7-.2-43.3,1-64.9,3.5-15.9,1.8-31.8,4.4-47.6,7.6-8.1,1.8-16.3,3.6-24.2,5.9-.6.2-1.3.4-1.9.6l-15.9,8.1-99.6,51-77.1,39.4c-21.3,10.9-30,39.8-19.4,64.6l38.2,89.9,57.3,134.8,210,494.3c10.5,24.8,36.3,36.1,57.6,25.3l154.1-78.9c21.3-10.9,30-39.8,19.4-64.6l-19.1-44.9c-10.5-24.8-1.8-53.8,19.4-64.6l61.1-31.2c10.2-5.3,22.1-5.5,32.8-.8l156,68.3,156,68.3c10.8,4.7,22.6,4.5,32.8-.8l99.6-51,77.1-39.4c21.3-10.9,30-39.8,19.4-64.6h.2Z"/>
          </g>
          <g>
            <path class="cls-30" d="M1589.6,2249v-.6l-.3.3c0,0,.2.2.3.3h0Z"/>
            <path class="cls-39" d="M4483,2017.4c-16.2-91.1-97.1-159.3-194.2-159.3s-18.6.8-26,1.9c-8,.8-15.9,2.2-23.8,4.3l-123.7,32.3c-8,2.1-15.6,4.7-22.9,7.9-76.3,29.1-128.3,100.6-128.3,182.5v37h-25.2c-30.8,0-55.8,24.9-55.8,55.7v272.7h-318.5v-200.4c0-26.4-21.4-47.7-47.7-47.7h-186.5c-26.4,0-47.7,21.4-47.7,47.7v200.4h-178.5v-200.4c0-26.4-21.4-47.7-47.7-47.7h-186.5c-26.4,0-47.7,21.4-47.7,47.7v200.4h-179v-200.4c0-26.4-21.4-47.7-47.7-47.7h-186.5c-26.4,0-47.7,21.4-47.7,47.7v200.4h-179.2c-3-65.8-57.5-118.3-124.5-118.3h-306.4c-76.7,0-161.6-85.9-161.6-85.9v.6c0,0-.2-.2-.3-.3l.3-.3-5.7-5.9h0l-97.6-100.9.2-.2-12.4-12.7h0l-374.3-386.8c-54.1-55.9-126.7-83.2-199-82.1v-2.5H358.9c-145.1,0-263.3,113.5-270.4,255.9-.2,3.7-.6,7.5-.6,11.2s0,1.3,0,1.9h0v378h.5c-2.7,70.3,22,141.5,74.9,196.3,53,54.8,123.7,82.2,194.7,82.2v1.2h893.9v-2.5c20,2.1,40.2,1.8,60.2-.6,6.2,1,12.6,1.6,19.1,1.6v.6h726.6v-.3h1869.4c3.8.8,7.8,1.4,11.9,1.4h435.5c37,0,66.9-30,66.9-66.9v-121.4c28-33.8,44.9-76.7,44.9-123.3v-223.1c0-10.9-1.1-21.6-3.2-31.9Z"/>
          </g>
          <line class="cls-21" x1="3575.8" y1="2361.1" x2="3983.1" y2="2361.1"/>
          <line class="cls-20" x1="2656.2" y1="2369.9" x2="2809.5" y2="2369.9"/>
          <line class="cls-20" x1="2235.9" y1="2369.9" x2="2327.6" y2="2369.9"/>
          <line class="cls-20" x1="3124.5" y1="2369.9" x2="3277.8" y2="2369.9"/>
          <line class="cls-2" x1="1982.6" y1="1094.7" x2="2174.3" y2="1002.6"/>
          <path class="cls-10" d="M1920.9,1125.4c-40.5,18.5-111.4,33.5-158.3,33.5h-423.9c-46.9,0-52.2-15-11.6-33.5l67.5-30.8"/>
          <line class="cls-2" x1="889.8" y1="1364.9" x2="975.5" y2="1323.8"/>
          <path class="cls-38" d="M3350.6,855.9h0c61.7-28.8,135.1-2,163.8,59.6h0c10.2,21.9.8,48-21.2,58.2l-72,33.6c-21.9,10.2-48,.8-58.2-21.2l-33.6-72c-10.2-21.9-.8-48,21.2-58.2Z"/>
          <rect class="cls-38" x="2189.9" y="1333.4" width="152.2" height="152.2" rx="54.7" ry="54.7" transform="translate(-371.3 1002) rotate(-23.1)"/>
        </g>
        <g>
          <path class="cls-23" d="M5475.6,987.9h358.7c118.6,0,214.9,96.3,214.9,214.9v275.4c0,44-35.8,79.8-79.8,79.8h-493.9v-570h0Z"/>
          <path class="cls-4" d="M5083.4,865.5c71.5-278.8,295.1-504.9,499.5-504.9s312.3,226.1,240.8,504.9"/>
          <g>
            <path class="cls-24" d="M5781.3,798c-28.4,219.8-216.7,398.1-420.4,398.1s-345.8-178.2-317.4-398.1c28.4-219.8,216.7-398.1,420.4-398.1s345.8,178.2,317.4,398.1Z"/>
            <path class="cls-24" d="M5508.9,1207.7h-299c-121.2,0-206.8-97.6-191.2-218.1l24.8-191.6h737.8l-24.8,191.6c-15.6,120.4-126.5,218.1-247.6,218.1h0Z"/>
          </g>
          <path class="cls-5" d="M5682.3,684.4l235.1,318.5s59.5,79.3,17.8,158.6c0,0,53.1,15.7,78.6,94.1,25.5,78.4,106.9,335.2,106.9,335.2l74.4,342.9"/>
          <g>
            <path class="cls-24" d="M5154.8,570.5c-28.4,219.8-216.7,398.1-420.4,398.1s-345.8-178.2-317.4-398.1c28.4-219.8,216.6-398.1,420.4-398.1s345.8,178.2,317.4,398.1h0Z"/>
            <path class="cls-24" d="M4882.3,980.1h-299c-121.2,0-206.8-97.6-191.2-218.1l24.8-191.6h737.8l-24.8,191.6c-15.6,120.4-126.5,218.1-247.6,218.1h0Z"/>
          </g>
          <path class="cls-3" d="M4408.8,648.3c24.4-330,185.6-597.4,360.1-597.4s296.3,267.5,271.9,597.4"/>
          <polygon class="cls-8" points="2832.6 1687.7 4407.9 923.1 4799.3 2011.2 2902.3 2011.2 2832.6 1687.7"/>
          <path class="cls-28" d="M4059.4,952s199.7-162.7,239.5-359h152.7v250l-392.3,109h0Z"/>
          <path class="cls-36" d="M4912,790.7h-669.2c-45.8,0-72.1-36-58.7-80.6l23.6-78.2c13.4-44.5,61.4-80.6,107.2-80.6h669.2c45.8,0,72.1,36,58.7,80.6l-23.6,78.2c-13.4,44.5-61.4,80.6-107.2,80.6h0Z"/>
          <line class="cls-12" x1="3256.8" y1="1438.4" x2="4320.9" y2="916.3"/>
          <rect class="cls-23" x="5567.1" y="1448.8" width="472.3" height="657.5"/>
          <rect class="cls-23" x="5043.9" y="521.8" width="560.7" height="693.6"/>
          <path class="cls-23" d="M5319.4,856.5l394.9-184.2c74.2-34.6,162.5-2.4,197.1,71.7l312.6,670.3c31.8,68.2,2.3,149.5-66,181.3l-405.7,189.2-432.9-928.3h0Z"/>
          <polygon class="cls-8" points="3562.6 1782.8 5137.8 1018.2 5529.3 2106.3 3632.2 2106.3 3562.6 1782.8"/>
          <rect class="cls-26" x="4079.4" y="2279.4" width="1880.9" height="196.2" rx="78.3" ry="78.3"/>
          <rect class="cls-37" x="5980.9" y="1548.8" width="122.5" height="475.4"/>
          <ellipse class="cls-37" cx="6042.2" cy="1902.9" rx="61.3" ry="60.9"/>
          <ellipse class="cls-37" cx="6042.2" cy="1665.4" rx="61.3" ry="60.9"/>
          <ellipse class="cls-37" cx="6042.2" cy="1548.8" rx="61.3" ry="60.9"/>
          <polygon class="cls-13" points="3325.3 2062.9 3893.4 2062.9 3893.4 2240.3 3494.3 2240.3 3325.3 2062.9"/>
          <polygon class="cls-37" points="6187.7 2441.1 3651.2 2441.1 3629.1 2046.4 6165.5 2046.4 6187.7 2441.1"/>
          <path class="cls-16" d="M5387,1852.1c-1.3-38.8-26.1-70-57-70s-9.6,2.2-14.2,3.7l-.3-1.3-186,70.7h4.5c-30,7.5-53,39.4-53,79.6v405.7c0,45.7,29.1,82.5,65,82.5h176.2c35.9,0,65-37,65-82.5v-488.4h-.5.2Z"/>
          <path class="cls-17" d="M4799,1954.2c-.9-31.9-18.2-57.5-39.8-57.5s-6.7,1.8-9.9,3l-.2-1-129.8,58h3.2c-20.9,6.1-37,32.4-37,65.3v333.1c0,37.4,20.3,67.8,45.4,67.8h122.9c25.1,0,45.4-30.4,45.4-67.8v-401h-.3Z"/>
          <path class="cls-18" d="M4338.2,2049.4c-.7-17.8-15.2-32-33.2-32s-5.6,1-8.3,1.7l-.2-.6-108.5,32.3h2.6c-17.4,3.4-30.9,18-30.9,36.3v185.3c0,20.8,17,37.7,37.9,37.7h102.8c21,0,37.9-16.9,37.9-37.7v-223h-.2,0Z"/>
          <ellipse class="cls-23" cx="5599.6" cy="865.5" rx="331" ry="343.7"/>
          <path class="cls-25" d="M3147.5,1896.1c17,147.8-89.8,281.4-238.5,298.2-148.7,16.9-283-89.2-300.1-237-17-147.8,89.8-281.4,238.5-298.2,148.7-16.9,283,89.2,300.1,237Z"/>
          <polygon class="cls-37" points="6089.6 1499.2 6219.1 1980.6 6136.5 1980.6 6103.5 1980.6 6089.6 1499.2"/>
          <rect class="cls-37" x="3439.9" y="1883.8" width="229.2" height="169.2"/>
          <rect class="cls-37" x="5180.3" y="1879.4" width="321.8" height="138.1"/>
          <rect class="cls-37" x="5790.8" y="1769.7" width="321.8" height="198.8"/>
          <polygon class="cls-9" points="5692.1 1590.8 5583 1350.1 5681.5 1306.8 5853.9 1612.6 5692.1 1590.8"/>
          <path class="cls-10" d="M3439.9,1060.6l74.7-34.1c44.9-20.5,123.3-37.1,175.3-37.1h469.4c52,0,57.8,16.6,12.9,37.1l-149.4,68.1"/>
          <path class="cls-10" d="M2946.4,1311.5l149.4-68.1c44.9-8.1,123.3-24.7,175.3-24.7h469.4c52,0,57.8,16.6,12.9,37.1l-149.4,68.1"/>
          <path class="cls-10" d="M4077.5,730.2l49.4-22.5c44.9-20.5,123.3-37.1,175.3-37.1h469.4c52,0,57.8,16.6,12.9,37.1l-95,43.3"/>
          <path class="cls-22" d="M4254.2,603.3l96.9-128c29.1-38.4,95.5-69.6,148.4-69.6h477.3c52.8,0,72.1,31.2,43.1,69.6l-96.9,128c-8.1,10.8-19.2,21-32.1,30"/>
          <line class="cls-6" x1="6112.6" y1="1579.7" x2="5929.3" y2="1662.7"/>
          <polyline class="cls-19" points="6046.9 1665.4 6074.9 1703.4 6074.5 1912"/>
          <polygon class="cls-7" points="4125 1293.6 4191.1 1261.4 4275 1433.4 4185.4 1464.1 4125 1293.6"/>
          <polygon class="cls-2" points="4987.8 623.5 5104.7 562.6 4966.8 562.6 4940.9 623.5 4987.8 623.5"/>
          <polygon class="cls-1" points="4230.6 619.6 4244.5 562.7 4305.2 562.7 4268.3 619.6 4230.6 619.6"/>
          <line class="cls-2" x1="3984" y1="788.7" x2="4069.7" y2="747.6"/>
          <line class="cls-2" x1="3458.8" y1="1055.9" x2="3544.4" y2="1014.7"/>
          <line class="cls-2" x1="3501.7" y1="1390.8" x2="3587.3" y2="1349.6"/>
          <polygon class="cls-37" points="6129.8 1643.3 6148.6 1718.5 6065.8 1721.6 6059.2 1658.6 6129.8 1643.3"/>
          <polygon class="cls-14" points="5964.5 1524 6148.9 1444.7 6282.7 1890.3 5969 1890.3 5964.5 1524"/>
          <path class="cls-10" d="M3440.3,1401.4c-44.9,20.5-123.3,37.1-175.3,37.1h-469.4c-52,0-57.8-16.6-12.9-37.1"/>
          <line class="cls-2" x1="2867.4" y1="1438.4" x2="3096.2" y2="1438.4"/>
          <g>
            <rect class="cls-37" x="2507.6" y="1438.4" width="594.3" height="590.7"/>
            <polygon class="cls-37" points="3288.3 1504.3 3616.9 1770.2 3529.9 2029.1 3144.5 2029.1 3288.3 1504.3"/>
            <ellipse class="cls-37" cx="2507.4" cy="1733.9" rx="297.3" ry="295.5"/>
            <ellipse class="cls-37" cx="3102.1" cy="1733.9" rx="297.3" ry="295.5"/>
            <ellipse class="cls-37" cx="3520.4" cy="1881.6" rx="148.7" ry="147.7"/>
          </g>
          <path class="cls-11" d="M4883,633.3c-23.1,22.3-60.9,37.7-98.3,37.7h-469.4c-52,0-83.5-29.7-70.5-66.4"/>
          <line class="cls-2" x1="4587.1" y1="793.2" x2="4672.8" y2="752"/>
          <path class="cls-10" d="M4525.8,817.5l-54.4,24.9c-44.9,20.5-123.3,37.1-175.3,37.1h-469.4c-52,0-57.8-16.6-12.9-37.1l100-45.6"/>
          <path class="cls-15" d="M6074.4,1628c-1.4-41.7-29.2-75.1-63.9-75.1s-10.8,2.3-15.9,4l-.3-1.4-208.7,75.8h5.1c-33.5,8-59.4,42.2-59.4,85.3v435.1c0,48.9,32.7,88.5,73,88.5h197.7c40.3,0,73-39.6,73-88.5v-523.7h-.5,0Z"/>
          <g>
            <path class="cls-32" d="M4333.7,1104.4c-16.2-23-41.6-32.7-61.5-23.3l-94.7,44.8-128.7,60.8-95.2,45c-19.7,9.3-28.8,34.8-22.2,62l149.3,608.9c9.4,38.4,45.6,62.9,73.5,49.7l153-72.3c23.4-11.1,31.3-44.6,17.6-75.3l-25.7-57.7c-13.7-30.7-5.9-64.2,17.6-75.3l48.8-23.1c23.7-11.2,54.4,4.7,68.5,35.5l25.7,55.9c14.2,30.8,44.9,46.8,68.5,35.5l153.1-72.3c27.6-13.1,32.7-56.3,10.2-88.4l-357.8-510.4h0Z"/>
            <path class="cls-29" d="M4819.6,882.2c-13.3-29.2-42.5-44.1-65.3-33.2l-164.9,78.5c-22.8,10.8-30.4,43.3-17.1,72.5l312.6,687.1c13.3,29.2,42.5,44.1,65.3,33.2l164.9-78.5c22.8-10.8,30.4-43.3,17.1-72.5l-312.6-687.1h0Z"/>
            <path class="cls-31" d="M6172.3,1244.5l-38.2-89.9-45.5-107c-7.3-17.1-22.1-28.4-38.4-29.3,0,0-235.2-13.5-235.3-13.5-18.7-1-31.1-14.3-39-31.7-32-70.7-63.7-141.9-110.9-202.2-21.8-27.8-46.9-52.4-74.7-72.8-25.3-18.5-52.7-33.5-81.2-44.8-26.5-10.5-53.9-18-81.8-22.8-25.3-4.3-50.8-6.5-76.3-6.7-21.7-.2-43.3,1-64.9,3.5-15.9,1.8-31.8,4.4-47.6,7.6-8.1,1.8-16.3,3.6-24.2,5.9-.6.2-1.3.4-1.9.6l-15.9,8.1-99.6,51-77.1,39.4c-21.3,10.9-30,39.8-19.4,64.6l38.2,89.9,57.3,134.8,210,494.3c10.5,24.8,36.3,36.1,57.6,25.3l154.1-78.9c21.3-10.9,30-39.8,19.4-64.6l-19.1-44.9c-10.5-24.8-1.8-53.8,19.4-64.6l61.1-31.2c10.2-5.3,22.1-5.5,32.8-.8l156,68.3,156,68.3c10.8,4.7,22.6,4.5,32.8-.8l99.6-51,77.1-39.4c21.3-10.9,30-39.8,19.4-64.6h.2Z"/>
          </g>
          <g>
            <path class="cls-33" d="M3566.9,2249v-.6l-.3.3c0,0,.2.2.3.3h0Z"/>
            <path class="cls-39" d="M6460.2,2017.4c-16.2-91.1-97.1-159.3-194.2-159.3s-18.6.8-26,1.9c-8,.8-15.9,2.2-23.8,4.3l-123.7,32.3c-8,2.1-15.6,4.7-22.9,7.9-76.3,29.1-128.3,100.6-128.3,182.5v37h-25.2c-30.8,0-55.8,24.9-55.8,55.7v272.7h-318.5v-200.4c0-26.4-21.4-47.7-47.7-47.7h-186.5c-26.4,0-47.7,21.4-47.7,47.7v200.4h-178.5v-200.4c0-26.4-21.4-47.7-47.7-47.7h-186.5c-26.4,0-47.7,21.4-47.7,47.7v200.4h-179v-200.4c0-26.4-21.4-47.7-47.7-47.7h-186.5c-26.4,0-47.7,21.4-47.7,47.7v200.4h-179.2c-3-65.8-57.5-118.3-124.5-118.3h-306.4c-76.7,0-161.6-85.9-161.6-85.9v.6c0,0-.2-.2-.3-.3l.3-.3-5.7-5.9h0l-97.6-100.9.2-.2-12.4-12.7h0l-374.3-386.8c-54.1-55.9-126.7-83.2-199-82.1v-2.5h-542.1c-145.1,0-263.3,113.5-270.4,255.9-.2,3.7-.6,7.5-.6,11.2s0,1.3,0,1.9h0v378h.5c-2.7,70.3,22,141.5,74.9,196.3,53,54.8,123.7,82.2,194.7,82.2v1.2h893.8v-2.5c20,2.1,40.2,1.8,60.2-.6,6.2,1,12.6,1.6,19.1,1.6v.6h726.6v-.3h1869.4c3.8.8,7.8,1.4,11.9,1.4h435.5c37,0,66.9-30,66.9-66.9v-121.4c28-33.8,44.9-76.7,44.9-123.3v-223.1c0-10.9-1.1-21.6-3.2-31.9h0Z"/>
          </g>
          <line class="cls-21" x1="5553" y1="2361.1" x2="5960.3" y2="2361.1"/>
          <line class="cls-20" x1="4633.4" y1="2369.9" x2="4786.7" y2="2369.9"/>
          <line class="cls-20" x1="4213.2" y1="2369.9" x2="4304.9" y2="2369.9"/>
          <line class="cls-20" x1="5101.8" y1="2369.9" x2="5255.1" y2="2369.9"/>
          <line class="cls-2" x1="3959.8" y1="1094.7" x2="4151.6" y2="1002.6"/>
          <path class="cls-10" d="M3898.1,1125.4c-40.5,18.5-111.4,33.5-158.3,33.5h-423.9c-46.9,0-52.2-15-11.6-33.5l67.5-30.8"/>
          <line class="cls-2" x1="2867.1" y1="1364.9" x2="2952.7" y2="1323.8"/>
          <path class="cls-38" d="M5327.8,855.9h0c61.7-28.8,135.1-2,163.8,59.6h0c10.2,21.9.8,48-21.2,58.2l-72,33.6c-21.9,10.2-48,.8-58.2-21.2l-33.6-72c-10.2-21.9-.8-48,21.2-58.2Z"/>
          <rect class="cls-38" x="4167.5" y="1333.9" width="152.2" height="152.2" rx="54.7" ry="54.7" transform="translate(-213 1778) rotate(-23.1)"/>
        </g>
      </g>
    </g>
  </g>
</svg>