<?xml version="1.0" encoding="UTF-8"?>
<svg xmlns="http://www.w3.org/2000/svg" version="1.1" viewBox="0 0 512 439.2">
  <defs>
    <style>
      .cls-1 {
        fill: #1d40b2;
      }
    </style>
  </defs>
  <!-- Generator: Adobe Illustrator 28.6.0, SVG Export Plug-In . SVG Version: 1.2.0 Build 709)  -->
  <g>
    <g id="_레이어_1" data-name="레이어_1">
      <g id="_레이어_1-2" data-name="_레이어_1">
        <path class="cls-1" d="M440.6,17.2c-13.6,2.1-15.3,3.8-17.4,17.4-2.1-13.6-3.8-15.3-17.4-17.4,13.6-2.1,15.3-3.8,17.4-17.4,2.1,13.6,3.8,15.3,17.4,17.4Z"/>
        <path class="cls-1" d="M114.5,253.6c-17,2.6-19.1,4.8-21.7,21.7-2.6-17-4.8-19.1-21.7-21.7,17-2.6,19.1-4.8,21.7-21.7,2.6,17,4.8,19.1,21.7,21.7h0Z"/>
        <path class="cls-1" d="M156,63.9c-11.5,1.8-12.9,3.2-14.7,14.7-1.8-11.5-3.2-12.9-14.7-14.7,11.5-1.8,12.9-3.2,14.7-14.7,1.8,11.5,3.2,12.9,14.7,14.7Z"/>
        <path class="cls-1" d="M464.8,206.6c-23,3.6-25.8,6.4-29.4,29.4-3.6-23-6.4-25.8-29.4-29.4,23-3.6,25.8-6.4,29.4-29.5,3.6,23,6.4,25.8,29.4,29.5Z"/>
      </g>
    </g>
  </g>
</svg>