<?xml version="1.0" encoding="UTF-8"?>
<svg xmlns="http://www.w3.org/2000/svg" xmlns:xlink="http://www.w3.org/1999/xlink" version="1.1" viewBox="0 0 2662.6 1080">
  <defs>
    <style>
      .cls-1 {
        fill: none;
      }

      .cls-2, .cls-3, .cls-4, .cls-5, .cls-6, .cls-7, .cls-8 {
        isolation: isolate;
      }

      .cls-2, .cls-4, .cls-5, .cls-6, .cls-7, .cls-8 {
        opacity: .7;
      }

      .cls-3 {
        fill: #004a99;
        fill-rule: evenodd;
        opacity: .5;
      }

      .cls-9 {
        fill: #e2e2e2;
      }

      .cls-10 {
        fill: url(#_무제_그라디언트_6);
      }

      .cls-11 {
        fill: url(#_무제_그라디언트_7);
      }

      .cls-12 {
        fill: url(#_무제_그라디언트_5);
      }

      .cls-13 {
        fill: url(#_무제_그라디언트_2);
      }

      .cls-14 {
        fill: url(#_무제_그라디언트_3);
      }

      .cls-4 {
        fill: #000233;
      }

      .cls-15 {
        fill: #fff;
      }

      .cls-16 {
        fill: #94bbeb;
      }

      .cls-17 {
        fill: url(#_무제_그라디언트_2-2);
      }

      .cls-18 {
        fill: #20155e;
      }

      .cls-19 {
        fill: #699bc9;
      }

      .cls-5 {
        stroke-width: 41.8px;
      }

      .cls-5, .cls-7, .cls-8 {
        fill: #300f73;
        stroke: #20155e;
        stroke-linecap: round;
        stroke-linejoin: round;
      }

      .cls-20 {
        fill: #009f79;
      }

      .cls-6 {
        fill: url(#_무제_그라디언트);
      }

      .cls-7 {
        stroke-width: 29.9px;
      }

      .cls-21 {
        fill: #1d64a3;
      }

      .cls-22 {
        fill: #003d9e;
      }

      .cls-23 {
        opacity: .4;
      }

      .cls-24 {
        opacity: .6;
      }

      .cls-25 {
        opacity: .2;
      }

      .cls-8 {
        stroke-width: 35.5px;
      }

      .cls-26 {
        clip-path: url(#clippath);
      }
    </style>
    <radialGradient id="_무제_그라디언트_2" data-name="무제 그라디언트 2" cx="-8449" cy="-616" fx="-8449" fy="-616" r="240" gradientTransform="translate(-6025.7 -115.4) rotate(-180)" gradientUnits="userSpaceOnUse">
      <stop offset=".2" stop-color="#0019ff"/>
      <stop offset=".4" stop-color="#0019ff"/>
      <stop offset=".5" stop-color="#0019ff" stop-opacity=".9"/>
      <stop offset=".6" stop-color="#001aff" stop-opacity=".9"/>
      <stop offset=".6" stop-color="#001bff" stop-opacity=".8"/>
      <stop offset=".7" stop-color="#001dff" stop-opacity=".7"/>
      <stop offset=".8" stop-color="#001fff" stop-opacity=".5"/>
      <stop offset=".9" stop-color="#0021ff" stop-opacity=".3"/>
      <stop offset=".9" stop-color="#0023ff" stop-opacity=".2"/>
      <stop offset="1" stop-color="#0026ff" stop-opacity="0"/>
    </radialGradient>
    <radialGradient id="_무제_그라디언트" data-name="무제 그라디언트" cx="1841.2" cy="945" fx="1841.2" fy="945" r=".9" gradientTransform="translate(-1607699.6 -74672) rotate(-24.5) scale(778.2)" gradientUnits="userSpaceOnUse">
      <stop offset=".4" stop-color="#0019ff"/>
      <stop offset=".4" stop-color="#0019ff"/>
      <stop offset=".5" stop-color="#0019ff" stop-opacity=".9"/>
      <stop offset=".6" stop-color="#001aff" stop-opacity=".9"/>
      <stop offset=".6" stop-color="#001bff" stop-opacity=".8"/>
      <stop offset=".7" stop-color="#001dff" stop-opacity=".7"/>
      <stop offset=".8" stop-color="#001fff" stop-opacity=".5"/>
      <stop offset=".9" stop-color="#0021ff" stop-opacity=".3"/>
      <stop offset=".9" stop-color="#0023ff" stop-opacity=".2"/>
      <stop offset="1" stop-color="#0026ff" stop-opacity="0"/>
    </radialGradient>
    <clipPath id="clippath">
      <circle class="cls-1" cx="2100.1" cy="31.8" r="504.3"/>
    </clipPath>
    <radialGradient id="_무제_그라디언트_2-2" data-name="무제 그라디언트 2" cx="-7597.5" cy="-147" fx="-7597.5" fy="-147" r="94.2" xlink:href="#_무제_그라디언트_2"/>
    <radialGradient id="_무제_그라디언트_3" data-name="무제 그라디언트 3" cx="-8089.4" cy="-821.9" fx="-8089.4" fy="-821.9" r="47.1" gradientTransform="translate(-6025.7 -115.4) rotate(-180)" gradientUnits="userSpaceOnUse">
      <stop offset=".2" stop-color="#0019ff"/>
      <stop offset=".4" stop-color="#0019ff"/>
      <stop offset=".5" stop-color="#0019ff" stop-opacity=".9"/>
      <stop offset=".6" stop-color="#001aff" stop-opacity=".9"/>
      <stop offset=".6" stop-color="#001bff" stop-opacity=".8"/>
      <stop offset=".7" stop-color="#001dff" stop-opacity=".7"/>
      <stop offset=".8" stop-color="#001fff" stop-opacity=".5"/>
      <stop offset=".9" stop-color="#0021ff" stop-opacity=".3"/>
      <stop offset=".9" stop-color="#0023ff" stop-opacity=".2"/>
      <stop offset="1" stop-color="#0026ff" stop-opacity="0"/>
    </radialGradient>
    <radialGradient id="_무제_그라디언트_5" data-name="무제 그라디언트 5" cx="-16105.7" cy="-1622.9" fx="-16105.7" fy="-1622.9" r="128.6" gradientTransform="translate(3563.4 1106) rotate(-180)" gradientUnits="userSpaceOnUse">
      <stop offset="0" stop-color="#d42900"/>
      <stop offset=".4" stop-color="#d45800"/>
      <stop offset=".5" stop-color="#d05703"/>
      <stop offset=".6" stop-color="#c6540f" stop-opacity=".9"/>
      <stop offset=".7" stop-color="#b55024" stop-opacity=".8"/>
      <stop offset=".7" stop-color="#9e4b40" stop-opacity=".7"/>
      <stop offset=".8" stop-color="#7f4465" stop-opacity=".6"/>
      <stop offset=".9" stop-color="#593b92" stop-opacity=".4"/>
      <stop offset=".9" stop-color="#2e30c7" stop-opacity=".2"/>
      <stop offset="1" stop-color="#0026ff" stop-opacity="0"/>
    </radialGradient>
    <radialGradient id="_무제_그라디언트_6" data-name="무제 그라디언트 6" cx="-9863.8" cy="3977.4" fx="-9863.8" fy="3977.4" r="74.8" gradientTransform="translate(-8066 -3915.4) rotate(-133.9)" gradientUnits="userSpaceOnUse">
      <stop offset=".2" stop-color="#0019ff"/>
      <stop offset=".4" stop-color="#0019ff"/>
      <stop offset=".5" stop-color="#0019ff" stop-opacity=".9"/>
      <stop offset=".6" stop-color="#001aff" stop-opacity=".9"/>
      <stop offset=".6" stop-color="#001bff" stop-opacity=".8"/>
      <stop offset=".7" stop-color="#001dff" stop-opacity=".7"/>
      <stop offset=".8" stop-color="#001fff" stop-opacity=".5"/>
      <stop offset=".9" stop-color="#0021ff" stop-opacity=".3"/>
      <stop offset=".9" stop-color="#0023ff" stop-opacity=".2"/>
      <stop offset="1" stop-color="#0026ff" stop-opacity="0"/>
    </radialGradient>
    <radialGradient id="_무제_그라디언트_7" data-name="무제 그라디언트 7" cx="-7419.9" cy="-496.9" fx="-7419.9" fy="-496.9" r="83.5" gradientTransform="translate(-6025.7 -115.4) rotate(-180)" gradientUnits="userSpaceOnUse">
      <stop offset="0" stop-color="#d42900"/>
      <stop offset=".4" stop-color="#d45800"/>
      <stop offset=".5" stop-color="#d05703"/>
      <stop offset=".6" stop-color="#c6540f" stop-opacity=".9"/>
      <stop offset=".7" stop-color="#b55024" stop-opacity=".8"/>
      <stop offset=".7" stop-color="#9e4b40" stop-opacity=".7"/>
      <stop offset=".8" stop-color="#7f4465" stop-opacity=".6"/>
      <stop offset=".9" stop-color="#593b92" stop-opacity=".4"/>
      <stop offset=".9" stop-color="#2e30c7" stop-opacity=".2"/>
      <stop offset="1" stop-color="#0026ff" stop-opacity="0"/>
    </radialGradient>
  </defs>
  <!-- Generator: Adobe Illustrator 28.6.0, SVG Export Plug-In . SVG Version: 1.2.0 Build 709)  -->
  <g>
    <g id="_레이어_1" data-name="레이어_1">
      <path class="cls-13" d="M2223,460.7h-.8c-21.7,0-39.2,17.8-39.2,39.2s17.3,39.2,39.2,39.2h92c12,31.9,37.5,57.8,69.3,69.1v92.8c0,21.7,17.8,39.2,39.2,39.2s39.2-17.3,39.2-39.2v-92.8c31.9-11.5,57.3-37,69.3-69.1h92c21.7,0,39.2-17.8,39.2-39.2s-17.3-39.2-39.2-39.2h-91c-11.2-32.4-37.5-58.1-69.6-70.1v-90.5c0-21.7-17.8-39.2-39.2-39.2s-39.2,17.3-39.2,39.2v90.5c-32.4,11.5-58.6,37.7-69.6,70.1h-91.7Z"/>
      <g id="_레이어_1-2" data-name="_레이어_1">
        <g id="_레이어_1-2">
          <g id="_레이어_1-2-2" data-name="_레이어_1-2">
            <g id="_레이어_1-2-2">
              <g id="_레이어_1-2-2-2" data-name="_레이어_1-2-2">
                <g id="_레이어_1-2-2-2">
                  <path class="cls-6" d="M1864.1,777.8h0c416,136.4,863.8-90.9,999.8-506.7,136.1-415.9-90.9-863.5-506.9-999.6-416-136.2-863.5,90.7-999.6,506.7-136.4,416,90.9,863.8,506.7,999.8h0v-.2h0Z"/>
                  <g id="_레이어_1-2-2-2-2" data-name="_레이어_1-2-2-2">
                    <g>
                      <g>
                        <g class="cls-24">
                          <path class="cls-18" d="M1168.4,274.5h0c10.7,0,20.1-7.2,22.3-18.3,16-79.2,75.3-72.9,82.3-72,12.4,1.8,24-6.7,26.2-18.8,1.9-12.4-6.5-24-18.8-26.2-1.2-.3-109.1-16.6-134.4,108-2.3,12.4,5.6,24.5,17.9,26.8,1.4.5,2.8.5,4.4.5h0Z"/>
                        </g>
                        <g class="cls-24">
                          <path class="cls-18" d="M883.3,119.9h0c-8.3,6.5-11,18.3-6.2,28.1,36.5,72.4-14.1,104-20.1,107.5-11,6.1-15,19.7-8.9,30.8,6.2,11.2,19.7,15.1,31,9,.9-.6,96-54.6,38.7-167.9-5.6-11.3-19.3-15.7-30.7-10.1-1.4.8-2.6,1.5-3.7,2.4h0v.2h0Z"/>
                        </g>
                        <path class="cls-7" d="M1282.5,472h0c33.9,0,50.4-26.8,49.5-53.3v-149.6c0-66.2-102.7-65.8-102.7,0v100.6h-104.2c-66.2,0-65.8,102.7,0,102.7h157.4v-.3h0Z"/>
                        <path class="cls-5" d="M1581.2,800.2h0c47.6,0,70.6-37.8,69.1-74.6v-209.1c0-92.2-143.3-92.2-143.3,0v140.5h-145.4c-92.4,0-92.2,143.3,0,143.3h219.7,0,0Z"/>
                        <path class="cls-8" d="M1848.7,1070.7h0c40.4,0,60-32,58.7-63.2v-177.9c0-78.6-121.9-78.6-121.9,0v119.6h-123.8c-78.6,0-78.6,121.9,0,121.9h186.9v-.3h.1Z"/>
                      </g>
                      <g>
                        <g>
                          <path class="cls-2" d="M1934.2,551.8c285.1,93.3,591.9-62.1,685-347.3,93.1-285.2-62.2-591.9-347.3-685-285.2-93.3-592,62.1-685,347.3-93.3,285.1,62.1,591.9,347.3,685h0Z"/>
                          <g>
                            <circle class="cls-19" cx="2103" cy="35.5" r="507.9"/>
                            <g class="cls-26">
                              <g>
                                <g>
                                  <path class="cls-22" d="M1507.1-356.1l-.3-.3v-.8h0c-24.6,12.7-43.5,35.5-52,62.2-8.3,26.4-5.7,54.3,7,78.7,12.5,23.7,33.4,41.4,58.7,49.7,20.1,6.8,41.7,6.8,61.4.8l-15.2,46.7c-20.7,63,13.6,131.3,76.4,151.7l13.4,4.4c5.4,45,36.2,85.3,81.5,100.1l54.6,17.9c2.1,11.6,6.3,22.8,11.9,33.5l80.6,149.6c14.7,27.1,38.8,47.2,68,56.9,1.4.5,2.4.8,3.7,1.2,30.8,8.9,63.6,5.4,91.6-10.4l148.6-82.7c57.4-32,78.8-104.9,47.6-162.9l-11.9-22.5c4.1-7,7.2-14.2,9.7-21.8l11.3-34.6c8.5,6.8,17.9,11.9,28.5,15.4l102.2,33.5c48.6,16,101-10.7,117-59.5l14.1-42.7c15.4-47.2-9.4-98.3-55.5-115.7-.1-44.4-28.6-85.8-72.9-100.2l-186.8-61c-26.6-8.6-54.3-6.5-78.2,4.8,0-50.6-32-97.7-82.4-114.3l-160.3-52.4c-58.8-19.3-122.4,10.1-147.1,66.3-9,.1-18.1,1.4-27.2,3.6l-74.9-24.6c-25.9-8.5-54.7-6.2-79,6.3l-44.2,23h0ZM1494.1-238.9l.5-.3v.8h0c-7.2-13.4-8.5-29.3-3.7-44.2,4.8-15.4,15.9-28.4,29.9-35.6l44.2-23c13.4-7.1,29.8-8.3,44.2-3.6l7.2,2.4,81.7,26.7c16.6-7,34.8-7.9,52.2-2.3l5.3,1.7,8.3-25.4c13-39.7,55.5-61.4,94.7-48.8l7.2,2.4,153.1,49.9c39.2,13,60.6,55.6,47.7,95.3-3.7,11.3,1.9,23.2,13,26.8l7.2,2.4,23.7,7.7c15.1-21.2,42.7-31.1,68.7-22.7l7.2,2.4,179.2,58.6c32,10.6,49.5,45.3,39,77.6l-3.5,10.6,7.2,2.4,26.4,8.6c24.9,8,38.7,35.2,30.3,60.4l-14.1,42.7c-8.3,25.3-35.2,39.1-60.2,30.8l-95-31-7.2-2.4c-17-5.4-28.6-19.7-32-36.4l-15.9-5.3-7.2-2.4c-5.6-1.9-11.7,1.5-13.8,7.2l-27.7,84.7c-3.9,12.2-10.8,23.1-20.1,31.7l25.8,47.9c19.7,36.2,6.2,82.3-29.9,102.4l-148.6,82.7c-17.7,9.9-38.1,12.1-57.4,6.5-.8-.1-1.5-.8-2.3-.8-18.3-5.9-33.4-18.4-42.6-35.5l-80.6-149.6c-7.6-14.1-10.4-29.9-8.5-45.3l-76.2-25-7.2-2.4c-37.4-12.1-58.6-51.6-49.3-89.5l-38.6-12.5-7.2-2.4c-39.2-13-60.6-55.6-47.7-95.3l31.6-96.5c1.7-5.4-.9-11.3-6.2-13l-24.6-8.1-7.2-2.4-24,12.4c-13.9,7.2-29.4,8.5-44.2,3.6h0c-14.2-4.5-26.2-14.5-33-27.7h.2Z"/>
                                  <path class="cls-21" d="M1564.5-341.7l-.5.3v-.8h0l-44.2,23c-14.1,7.2-25,20.2-29.9,35.6-4.7,15-3.3,30.8,3.7,44.2,7.1,13.2,18.8,23.1,33,27.7h0c14.7,4.8,30.3,3.5,44.2-3.6l24-12.4,7.2,2.4,24.6,8.1c5.3,1.7,8.1,7.6,6.2,13l-31.6,96.5c-13,39.7,8.5,82.6,47.7,95.3l7.2,2.4,38.6,12.5c-9.4,37.9,11.9,77.4,49.3,89.5l7.2,2.4,76.2,25c-1.9,15.4.8,31.2,8.5,45.3l80.6,149.6c9.2,16.8,24.3,29.4,42.6,35.5.8.3,1.5.8,2.3.8,19.5,5.6,39.7,3.3,57.4-6.5l148.6-82.7c36.1-20.1,49.4-66.2,29.9-102.4l-25.8-47.9c9-8.6,16.1-19.6,20.1-31.7l27.7-84.7c2.1-5.7,8.1-9.2,13.8-7.2l7.2,2.4,15.9,5.3c3.3,16.6,15,30.8,32,36.4l7.2,2.4,95,31c25,8.3,52-5.6,60.2-30.8l14.1-42.7c8.3-25.3-5.3-52.1-30.3-60.4l-26.4-8.6-7.2-2.4,3.5-10.6c10.7-32.4-6.8-67.1-39-77.6l-179.2-58.6-7.2-2.4c-25.9-8.6-53.4,1.5-68.7,22.7l-23.7-7.7-7.2-2.4c-10.7-3.6-16.8-15.6-13-26.8,13-39.7-8.5-82.6-47.7-95.3l-153.1-49.9-7.2-2.4c-39.2-12.7-81.7,9-94.7,48.8l-8.3,25.4-5.3-1.7c-17.4-5.6-35.6-4.7-52.2,2.3l-81.7-26.7-7.2-2.4c-14.3-4.8-30.5-3.5-44.2,3.6h-.2ZM1594.6-261.2h.3v-.5l-34.4,17.9c-7.4,3.9-15.7,4.4-23,1.9-7.1-2.4-13.3-7.4-17-14.5-8-15.1-1-34.4,14.2-42.3l44.2-23c7.1-3.9,15.4-4.4,23-1.9l100.2,32.9c11.7-7.9,26.8-10.4,41-5.7l31.7,10.4,16.9-51.7c8.1-25.3,34.8-39,59.6-30.8l160.3,52.4c24.6,8.1,38.3,34.2,29.9,60.1-8.5,25.9,5.2,53.8,30.8,62.1l46.2,15c4.8,1.5,9.8-1,11.3-5.7,5.9-17.8,24.8-27.3,42.3-21.8l186.8,61c17.4,5.7,26.8,24.6,21.2,42.6l-11.9,36.9,60,19.5c10.4,3.7,16.3,15,12.7,25.7l-14.1,42.7c-3.6,10.7-14.8,16.6-25.4,13.2l-102.2-33.5c-10.4-3.7-16.3-15-12.7-25.7l1.4-4.3-43.7-14.2c-20.2-6.5-41.9,4.8-48.8,25.3l-27.7,84.7c-5,15-16.5,26.2-30.3,30.8l37.9,70.6c12.4,23.1,3.9,52.4-19.1,65l-148.6,82.7c-23,12.7-51.7,4.4-64.1-18.7l-80.6-149.6c-8.6-16.1-7-35.3,2.7-49.8l-110.5-36.1c-24.6-8.1-38.2-34.8-29.9-60.1l6.8-21-72.1-23.6c-24.6-8.1-38.2-34.8-29.9-60.1l31.6-96.5c6.5-20.2-4.3-41.8-23.9-48.1l-42.8-14.1h-.3Z"/>
                                  <path class="cls-20" d="M1520.3-255.9h-.3v.5c3.7,7.2,9.9,12.2,17,14.5,7.4,2.3,15.4,1.8,23-1.9l34.4-17.9,42.8,14.1c19.7,6.3,30.3,28.1,23.9,48.1l-31.6,96.5c-8.1,25.3,5.2,52,29.9,60.1l72.1,23.6-6.8,21c-8.1,25.3,5.2,52,29.9,60.1l110.5,36.1c-9.8,14.7-11.3,33.7-2.7,49.8l80.6,149.6c12.5,23.1,41.3,31.5,64.1,18.7l148.6-82.7c23-12.9,31.5-41.9,19.1-65l-37.9-70.6c13.8-4.7,25.5-15.9,30.3-30.8l27.7-84.7c6.8-20.5,28.6-31.7,48.8-25.3l43.7,14.2-1.4,4.3c-3.5,10.8,2.1,22.2,12.7,25.7l102.2,33.5c10.6,3.5,21.8-2.4,25.4-13.2l14.1-42.7c3.5-10.8-2.1-22.2-12.7-25.7l-60-19.5,11.9-36.9c5.9-17.8-3.6-37-21.2-42.6l-186.8-61c-17.5-5.6-36.5,3.7-42.3,21.8-1.5,4.5-6.7,7.2-11.3,5.7l-46.2-15c-25.5-8.5-39.1-36.9-30.8-62.1,8.1-25.3-5.2-52-29.9-60.1l-160.3-52.4c-24.8-8.1-51.3,5.6-59.6,30.8l-16.9,51.7-31.7-10.4c-14.3-4.8-29.4-2.1-41,5.7l-100.2-32.9c-7.6-2.3-15.9-1.8-23,1.9l-44.2,23c-15.1,7.9-22.1,27.3-14.2,42.3h.3Z"/>
                                </g>
                                <path class="cls-15" d="M2284.5-327h.3c-24.5-8-52,.8-65,23-18.7,31.5-2.8,69.8,29.6,80.5l182.7,59.6c28.9,9.4,59.6-6.2,69-34.8l61.5,20.1c32.6,10.6,68-11,71.6-47.5,2.4-25.5-14.5-49-39-56.9l-181.5-59.3c-28.9-9.4-59.6,6.2-69,34.8l-60.2-19.6h-.1,0Z"/>
                                <path class="cls-9" d="M1527.5,154.3h0c-18.7,31.5-2.8,69.8,29.6,80.5l100.6,32.9c-17.9,31.5-2.1,69.1,30.2,79.7l182.7,59.6c28.9,9.4,59.6-6.2,69-34.8l61.5,20.1c32.6,10.6,68-11,71.6-47.5,2.4-25.5-14.5-49-39-56.9l-99.2-32.5c3.9-6.8,6.8-14.5,7.6-23.1,2.4-25.5-14.5-49-39-56.9l-181.5-59.3c-28.9-9.4-59.6,6.2-69,34.8l-60.2-19.6c-24.5-8-52,1-65,23h0Z"/>
                                <path class="cls-15" d="M2469.2,285h0c-35.5-11.6-54.8-49.7-43.2-85.1,11.6-35.5,49.7-54.8,85.1-43.2l112.2,36.5c35.5,11.6,54.8,49.7,43.2,85.1-11.6,35.5-49.7,54.8-85.1,43.2l-112.2-36.5h0Z"/>
                                <path class="cls-15" d="M1876.5-205.5h0c-35.3-11.6-73.5,7.7-85.1,43.2-11.6,35.3,7.7,73.5,43.2,85.1l112.2,36.5c35.3,11.6,73.5-7.7,85.1-43.2.1-.8.6-1.7.6-2.4l56.1,18.4c35.3,11.6,73.5-7.7,85.1-43.2,11.6-35.3-7.7-73.5-43.2-85.1l-112.2-36.5c-35.3-11.6-73.5,7.7-85.1,43.2,0,.8-.6,1.7-.6,2.4l-56.1-18.4h0Z"/>
                              </g>
                            </g>
                            <path class="cls-3" d="M2581.3-136.1h0c-94.7-264.3-385.6-401.6-649.8-307-264.3,94.8-401.6,385.8-307,649.9,94.8,264.3,385.8,401.6,649.9,307,264.1-94.8,401.4-385.8,306.7-649.9h.2Z"/>
                            <path class="cls-4" d="M2258-451.2c269.9,88.5,416.6,378.7,328.3,648.5-73,223.3-285.1,362.4-508.9,353.3,183.9-29.2,345.5-157.8,407.7-347.3,88.4-269.6-58.4-560-328.3-648.5-46.6-15.2-93.5-23.2-139.8-25.3,78.2-12.5,160.3-7.2,240.8,19.2h.2Z"/>
                            <g class="cls-25">
                              <path class="cls-16" d="M1654.4,18c-4.4,160.2,113.5,296.1,263.3,303.7,149.8,7.4,274.8-116.1,279-276.2,4.4-160.2-113.5-296.1-263.3-303.7-149.8-7.4-274.8,116.1-279,276.2h0Z"/>
                            </g>
                            <g class="cls-23">
                              <path class="cls-16" d="M1847.2,134.1c57.5,3,105.5-43.5,107.1-103.9,1.5-60.4-44.2-111.9-101.9-114.9-57.5-3-105.5,43.5-107.1,103.9-1.5,60.4,44.2,111.7,101.9,114.9h0Z"/>
                            </g>
                          </g>
                        </g>
                        <path class="cls-17" d="M1493.2,15.9h-.3c-8.5,0-15.4,7-15.4,15.4s6.8,15.4,15.4,15.4h36.1c4.7,12.5,14.7,22.7,27.2,27.1v36.4c0,8.5,7,15.4,15.4,15.4s15.4-6.8,15.4-15.4v-36.4c12.5-4.5,22.5-14.5,27.2-27.1h36.1c8.5,0,15.4-7,15.4-15.4s-6.8-15.4-15.4-15.4h-35.7c-4.4-12.7-14.7-22.8-27.3-27.5v-35.5c0-8.5-7-15.4-15.4-15.4s-15.4,6.8-15.4,15.4V-11.6c-12.7,4.5-23,14.8-27.3,27.5h-36Z"/>
                        <path class="cls-14" d="M2024.3,698.7c-4.3,0-7.7,3.5-7.7,7.7s3.5,7.7,7.7,7.7h18.1c2.1,6.2,7.1,11.2,13.4,13.4v18.3c0,4.3,3.5,7.7,7.7,7.7s7.7-3.5,7.7-7.7v-18.3c6.5-2.1,11.5-7.2,13.8-13.4h18.1c4.3,0,7.7-3.5,7.7-7.7s-3.5-7.7-7.7-7.7h-17.9c-2.3-6.7-7.4-11.6-13.8-13.9v-17.7c0-4.3-3.5-7.7-7.7-7.7s-7.7,3.5-7.7,7.7v17.7c-6.5,2.4-11.5,7.6-13.8,13.9h-18,0Z"/>
                        <path class="cls-12" d="M1546.6,413.5h0c-11.7,0-21.2,9.4-21.2,21.2s9.5,21.2,21.2,21.2h49.3c6.3,17.4,19.7,30.8,37.2,37v49.8c0,11.7,9.4,21.2,21.2,21.2s21.2-9.5,21.2-21.2v-49.8c17.4-6.2,30.8-20,37.2-37h49.3c11.7,0,21.2-9.4,21.2-21.2s-9.5-21.2-21.2-21.2h-48.9c-6.2-17.5-20.1-31.5-37.7-37.8v-48.4c0-11.7-9.4-21.2-21.2-21.2s-21.2,9.5-21.2,21.2v48.4c-17.5,6.3-31.1,20.2-37.3,37.8h-49.2Z"/>
                        <path class="cls-10" d="M1604.4,381.4h0c-4.8-4.8-12.5-5.2-17.4-.5-4.8,4.8-5.2,12.5-.5,17.4l19.7,20.7c-4.7,9.5-4.8,20.5-.6,30.3l-20.9,20.1c-4.8,4.8-5.3,12.5-.5,17.4,4.8,4.8,12.5,5.2,17.4.5l20.9-20.1c9.5,4.7,20.5,5,30.3.8l19.7,20.7c4.8,4.8,12.5,5.3,17.4.5s5.2-12.5.5-17.4l-19.6-20.4c4.8-9.8,5-21,.8-31l20.2-19.5c4.8-4.8,5.3-12.5.5-17.4-4.8-4.8-12.5-5.2-17.4-.5l-20.2,19.5c-9.7-4.8-21-5-30.8-.6l-19.6-20.4h0v-.2h0Z"/>
                      </g>
                    </g>
                  </g>
                </g>
                <path class="cls-11" d="M1324,368h0c-7.7,0-13.8,6.1-13.8,13.8s6.2,13.8,13.8,13.8h32c4.3,11.2,13,20.1,24.1,24v32.4c0,7.7,6.1,13.8,13.8,13.8s13.8-6.2,13.8-13.8v-32.4c11.2-4.1,20.1-12.9,24.1-24h32c7.7,0,13.8-6.1,13.8-13.8s-6.2-13.8-13.8-13.8h-31.7c-4.1-11.3-12.9-20.4-24.3-24.5v-31.5c0-7.7-6.1-13.8-13.8-13.8s-13.8,6.2-13.8,13.8v31.5c-11.3,4.1-20.4,13-24.3,24.5h-31.9.1Z"/>
              </g>
            </g>
          </g>
        </g>
      </g>
    </g>
  </g>
</svg>