<?xml version="1.0" encoding="UTF-8"?>
<svg id="_레이어_1" data-name="레이어_1" xmlns="http://www.w3.org/2000/svg" version="1.1" viewBox="0 0 792.5 377.6">
  <!-- Generator: Adobe Illustrator 29.0.1, SVG Export Plug-In . SVG Version: 2.1.0 Build 192)  -->
  <defs>
    <style>
      .st0 {
        fill: #fff;
      }
    </style>
  </defs>
  <path class="st0" d="M59.3,77.6c-16.1-.2-25.2,12.2-25.2,32.8s9.4,32.9,25,33.1c11.8-.2,19.4-6.4,21-16.7l30.9.3c-1.6,19.9-19,43.1-52.5,43.1S2.8,149,3,110.5c-.2-38.5,24.4-59.6,55.4-59.4,29.1-.2,50.1,16.1,52.5,44.6h-30.9c-1.1-11-8.3-18.2-20.6-18h-.2,0Z"/>
  <path class="st0" d="M128.2,81.6h29.2v16.4h.9c3.1-12.2,10.4-17.5,20.1-17.7,2.6.2,5.3.5,7.9,1.3v25.9c-3.1-.9-8.3-1.6-11.5-1.6-9.4,0-16.4,6.8-16.4,16.7v45.9h-30.2v-87h0Z"/>
  <path class="st0" d="M193.5,125.2c0-26.9,17.1-44.8,44-44.9,25.7.2,42.9,16.7,43,44.6v7.2h-57.1v1.3c0,8.8,5.7,15.3,15.5,15.5,6.6-.2,11.8-2.9,13.8-7.9h27.6c-2.9,17.7-18.2,29.2-42.1,29.2s-44.6-16.9-44.6-44.9h0ZM252.2,115.4c0-8-6.1-13.6-14.1-13.5-8.3-.2-14.6,5.6-14.8,13.5h28.9Z"/>
  <path class="st0" d="M321.4,116.7c6.4-.3,16.7-.5,20.4-.7v-6.9c-.2-5.2-4.1-7.7-9.9-7.9-6.4.2-10.4,2.8-11.1,8.3h-28.2c1.3-15.8,14.1-29.1,39.7-29.2,24.1.2,39.7,12.2,39.7,28.9v59.4h-28.2v-12.2h-.7c-5.3,9.5-13.8,13.6-25.2,13.5-16.7.2-28.4-8-28.6-25.2.2-19.2,14.4-26.7,32.2-28h0ZM327.7,150.6c7.3.2,14.3-4.8,14.1-12.8v-4.8c-3.1.2-11,.5-15.1.8-5.3.7-8.7,4.3-8.8,9.2.2,4.9,4.1,7.7,9.9,7.6h-.2,0Z"/>
  <path class="st0" d="M441.6,106.3h-15.1v37c.2,4.1,2.2,5.7,6.3,6,2.3.2,6.8-.2,10.1-.3v22.7c-2.8.3-7.6.9-14.4.9-21,0-32.3-8-32.2-26.4v-40h-11.1v-22h11.1v-21h30.2v21h15.1v22.1h0Z"/>
  <path class="st0" d="M454.7,84.3h30.2v87h-30.2v-87h0ZM469.8,46.9c8.4,0,15.1,6.3,15.1,14.1s-6.8,14-15.1,13.8c-8.4.2-15.1-6.3-15.1-13.8s6.8-14.1,15.1-14.1Z"/>
  <path class="st0" d="M558.7,171.3h-35.2l-29.5-87h31.8l14.8,58.1h.9l14.4-58.1h31.8l-29.2,87h.2Z"/>
  <path class="st0" d="M586.5,127.9c0-26.9,17.1-44.8,44-44.9,25.7.2,42.9,16.7,43,44.6v7.2h-57.1v1.3c0,8.8,5.7,15.3,15.5,15.5,6.6-.2,11.8-2.9,13.8-7.9h27.6c-2.9,17.7-18.2,29.2-42.1,29.2s-44.6-16.9-44.6-44.9h0ZM645.3,118.1c0-8-6.1-13.6-14.1-13.5-8.3-.2-14.6,5.6-14.8,13.5h28.9,0Z"/>
  <path class="st0" d="M234.2,204.9h30.2v44.4h.3c3.6-8.7,11.5-16.2,24.7-16.4,17.5.2,34.3,13.5,34.2,44.6.2,30.2-15.6,44.8-34.2,44.9-12.7-.2-20.9-6.9-24.7-15.5h-.7v14.1h-29.8v-116.3h0ZM278.2,298.7c9,.2,14.3-8,14.1-21.3.2-13.1-5.2-21.2-14.1-21-9-.2-14.4,7.9-14.4,21s5.4,21.6,14.4,21.3Z"/>
  <path class="st0" d="M367.5,321.7h-30.2v-116.3h30.2v116.3Z"/>
  <path class="st0" d="M383.9,234.8h30.2v87h-30.2v-87h0ZM399,197.3c8.3,0,15.1,6.3,15.1,14.1s-6.8,14-15.1,13.8c-8.3.2-15.1-6.3-15.1-13.8s6.8-14.1,15.1-14.1h0Z"/>
  <path class="st0" d="M474.5,256.8c-5.7.2-10.3,2.3-10.1,6.3-.2,2.6,1.8,5.2,8.8,6.6l17.3,2.9c17.5,3.2,26.1,10.8,26.4,23.6-.2,18.4-17.5,30.2-41.7,30.2s-41.4-11.7-43-29.5h30.2c.9,5.7,6,8.8,13.1,8.8s10.4-2.2,10.4-6-3.1-5.6-10.1-6.9l-15.5-2.6c-17.3-3.1-26.4-12-26.4-25.6s15.3-28.1,39.7-28.2c24.8.2,39.9,11.1,40.7,29.2h-28c-.5-5.4-5.7-8.7-12.2-8.8v-.2h.2,0Z"/>
  <path class="st0" d="M559.1,326.9h-30.2v-116.3h29.2v45.6h.9c3.8-11.1,13.1-17.5,26.4-17.7,18.2.2,30.2,13.6,30.2,32.8v55.4h-30.2v-49.2c0-8.8-4.8-14.2-13.1-14.4-7.9.2-13.1,5.6-13.1,14.4v49.3h0Z"/>
  <path class="st0" d="M632.1,282.1c0-26.9,17.1-44.8,44-44.9,25.7.2,42.9,16.7,43,44.6v7.2h-57.1v1.3c0,8.8,5.7,15.3,15.5,15.5,6.6-.2,11.8-2.9,13.8-7.9h27.6c-2.9,17.7-18.2,29.2-42.1,29.2s-44.6-16.9-44.6-44.9h0ZM690.9,272.3c0-8-6.1-13.6-14.1-13.5-8.3-.2-14.6,5.6-14.8,13.5h28.9,0Z"/>
  <path class="st0" d="M731.4,238.9h29.2v16.4h.9c3.1-12.2,10.4-17.5,20.1-17.7,2.6.2,5.3.5,7.9,1.3v25.9c-3.1-.9-8.3-1.6-11.5-1.6-9.4,0-16.4,6.8-16.4,16.7v45.9h-30.2v-87h0Z"/>
  <g>
    <path class="st0" d="M5.7,189.4h53.4c29.7.2,47.9,18.6,47.9,45.2s-18.6,45.1-48.5,44.8h-21.9v41.1H5.7v-131.3h0ZM52.8,255c14.5.2,22.3-8,22.3-20.4s-7.8-20-22.3-20h-16.3v40.4h16.3Z"/>
    <path class="st0" d="M185.5,222.4h30.4v98.3h-28.9v-18.2h-1.1c-4.3,11.8-15.2,19.5-30,19.2-20,.2-33.6-14.5-33.7-36.7v-62.7h30.8v56.7c0,10.7,6,17.4,15.9,17.4s16.9-6.5,16.7-18.2v-56h0Z"/>
  </g>
</svg>