<?xml version="1.0" encoding="UTF-8"?>
<svg xmlns="http://www.w3.org/2000/svg" xmlns:xlink="http://www.w3.org/1999/xlink" version="1.1" viewBox="0 0 2402 551.5">
  <defs>
    <style>
      .cls-1, .cls-2, .cls-3 {
        fill: none;
      }

      .cls-4 {
        fill: url(#_무제_그라디언트);
      }

      .cls-5 {
        fill: #f4f4f4;
      }

      .cls-6 {
        fill: url(#_무제_그라디언트_6);
      }

      .cls-7 {
        fill: url(#_무제_그라디언트_4);
      }

      .cls-8 {
        fill: url(#_무제_그라디언트_7);
      }

      .cls-9 {
        fill: url(#_무제_그라디언트_5);
      }

      .cls-10 {
        fill: url(#_무제_그라디언트_8);
      }

      .cls-11 {
        fill: url(#_무제_그라디언트_9);
      }

      .cls-12 {
        fill: url(#_무제_그라디언트_2);
      }

      .cls-13 {
        fill: url(#_무제_그라디언트_3);
      }

      .cls-14 {
        fill: #fff;
      }

      .cls-15 {
        fill: #dd0716;
      }

      .cls-16 {
        fill: #ed0017;
      }

      .cls-17 {
        fill: url(#_무제_그라디언트_11);
      }

      .cls-18 {
        fill: url(#_무제_그라디언트_12);
      }

      .cls-19 {
        fill: url(#_무제_그라디언트_10);
      }

      .cls-20 {
        fill: #383838;
      }

      .cls-2 {
        stroke: #e2e2e2;
        stroke-linejoin: round;
      }

      .cls-2, .cls-3 {
        stroke-linecap: round;
        stroke-width: 4.6px;
      }

      .cls-3 {
        stroke: #4c4c4c;
        stroke-miterlimit: 10;
      }

      .cls-21 {
        fill: #ededed;
      }

      .cls-22 {
        fill: #4c4c4c;
      }
    </style>
    <linearGradient id="_무제_그라디언트" data-name="무제 그라디언트" x1="1138.5" y1="299.8" x2="1190.9" y2="299.8" gradientTransform="translate(0 554) scale(1 -1)" gradientUnits="userSpaceOnUse">
      <stop offset="0" stop-color="#fff"/>
      <stop offset=".3" stop-color="#f4f4f4"/>
      <stop offset=".7" stop-color="#d8d8d8"/>
      <stop offset="1" stop-color="#c6c6c6"/>
    </linearGradient>
    <linearGradient id="_무제_그라디언트_2" data-name="무제 그라디언트 2" x1="1318.5" y1="498.4" x2="1318.5" y2="144.7" gradientTransform="translate(0 554) scale(1 -1)" gradientUnits="userSpaceOnUse">
      <stop offset="0" stop-color="#fff"/>
      <stop offset="0" stop-color="#fefefe"/>
      <stop offset=".7" stop-color="#f8f8f8"/>
      <stop offset=".8" stop-color="#f1f1f1"/>
      <stop offset=".9" stop-color="#e4e4e4"/>
      <stop offset="1" stop-color="#e0e0e0"/>
    </linearGradient>
    <linearGradient id="_무제_그라디언트_3" data-name="무제 그라디언트 3" x1="1025.9" y1="310" x2="1025.9" y2="114.1" gradientTransform="translate(0 554) scale(1 -1)" gradientUnits="userSpaceOnUse">
      <stop offset=".6" stop-color="#dd0716"/>
      <stop offset=".6" stop-color="#da0616"/>
      <stop offset=".7" stop-color="#c60416"/>
      <stop offset=".7" stop-color="#bf0416"/>
    </linearGradient>
    <linearGradient id="_무제_그라디언트_4" data-name="무제 그라디언트 4" x1="981.9" y1="229" x2="981.9" y2="91.4" gradientTransform="translate(0 554) scale(1 -1)" gradientUnits="userSpaceOnUse">
      <stop offset=".5" stop-color="#f9f9f9"/>
      <stop offset=".6" stop-color="#e9e9e9"/>
      <stop offset=".6" stop-color="#e2e2e2"/>
    </linearGradient>
    <linearGradient id="_무제_그라디언트_5" data-name="무제 그라디언트 5" x1="1293.5" y1="570.9" x2="1293.5" y2="432.6" gradientTransform="translate(0 554) scale(1 -1)" gradientUnits="userSpaceOnUse">
      <stop offset=".6" stop-color="#727272"/>
      <stop offset=".6" stop-color="#616161"/>
      <stop offset=".7" stop-color="#565656"/>
      <stop offset=".8" stop-color="#424242"/>
      <stop offset=".9" stop-color="#343434"/>
      <stop offset="1" stop-color="#303030"/>
    </linearGradient>
    <linearGradient id="_무제_그라디언트_6" data-name="무제 그라디언트 6" x1="1217.9" y1="280.2" x2="1217.9" y2="123.7" gradientTransform="translate(0 554) scale(1 -1)" gradientUnits="userSpaceOnUse">
      <stop offset=".6" stop-color="#dd0716"/>
      <stop offset=".6" stop-color="#da0616"/>
      <stop offset=".7" stop-color="#c60416"/>
      <stop offset=".7" stop-color="#bf0416"/>
    </linearGradient>
    <linearGradient id="_무제_그라디언트_7" data-name="무제 그라디언트 7" x1="1248.6" y1="327.1" x2="1248.6" y2="-44.6" gradientTransform="translate(0 554) scale(1 -1)" gradientUnits="userSpaceOnUse">
      <stop offset="0" stop-color="#fff"/>
      <stop offset=".3" stop-color="#f4f4f4"/>
      <stop offset=".7" stop-color="#d8d8d8"/>
      <stop offset="1" stop-color="#c6c6c6"/>
    </linearGradient>
    <linearGradient id="_무제_그라디언트_8" data-name="무제 그라디언트 8" x1="1133.7" y1="204.9" x2="1133.7" y2="119" gradientTransform="translate(0 554) scale(1 -1)" gradientUnits="userSpaceOnUse">
      <stop offset="0" stop-color="#fff"/>
      <stop offset="0" stop-color="#f4f4f4"/>
      <stop offset=".3" stop-color="#dbdbdb"/>
      <stop offset=".4" stop-color="#cbcbcb"/>
      <stop offset=".6" stop-color="#c6c6c6"/>
    </linearGradient>
    <linearGradient id="_무제_그라디언트_9" data-name="무제 그라디언트 9" x1="1206.3" y1="191.4" x2="1206.3" y2="75" gradientTransform="translate(0 554) scale(1 -1)" gradientUnits="userSpaceOnUse">
      <stop offset=".6" stop-color="#f9f9f9"/>
      <stop offset=".6" stop-color="#f6f6f6"/>
      <stop offset=".6" stop-color="#eaeaea"/>
      <stop offset=".6" stop-color="#e3e3e3"/>
      <stop offset=".7" stop-color="#e2e2e2"/>
    </linearGradient>
    <linearGradient id="_무제_그라디언트_10" data-name="무제 그라디언트 10" x1="1449.2" y1="179" x2="1449.2" y2="94.1" gradientTransform="translate(0 554) scale(1 -1)" gradientUnits="userSpaceOnUse">
      <stop offset=".5" stop-color="#f9f9f9"/>
      <stop offset=".6" stop-color="#e9e9e9"/>
      <stop offset=".6" stop-color="#e2e2e2"/>
    </linearGradient>
    <linearGradient id="_무제_그라디언트_11" data-name="무제 그라디언트 11" x1="1341.4" y1="266.4" x2="1341.4" y2="143.4" gradientTransform="translate(0 554) scale(1 -1)" gradientUnits="userSpaceOnUse">
      <stop offset=".5" stop-color="#dd0716"/>
      <stop offset=".5" stop-color="#da0616"/>
      <stop offset=".6" stop-color="#c60416"/>
      <stop offset=".7" stop-color="#bf0416"/>
    </linearGradient>
    <linearGradient id="_무제_그라디언트_12" data-name="무제 그라디언트 12" x1="1402.5" y1="435.6" x2="1370.1" y2="372.2" gradientTransform="translate(0 554) scale(1 -1)" gradientUnits="userSpaceOnUse">
      <stop offset="0" stop-color="#f9f9f9"/>
      <stop offset=".3" stop-color="#ededed"/>
      <stop offset=".6" stop-color="#e4e4e4"/>
      <stop offset="1" stop-color="#e2e2e2"/>
    </linearGradient>
  </defs>
  <!-- Generator: Adobe Illustrator 28.7.1, SVG Export Plug-In . SVG Version: 1.2.0 Build 142)  -->
  <g>
    <g id="_레이어_1" data-name="레이어_1">
      <g id="_레이어_1-2" data-name="_레이어_1">
        <g>
          <g>
            <g>
              <polygon class="cls-1" points="1477.5 156.4 1451 156.4 1451 160.9 1464.3 177.9 1477.5 164.7 1477.5 156.4"/>
              <path class="cls-22" d="M1224.2,103.3c-1.9,0-3.5,1.2-4.1,3.1l-16.2,49.8,20.5-4.1v-48.7h-.2Z"/>
              <path class="cls-22" d="M1194.3,189.9l6.1,12.6,4.1-5.8-10.4-10.4h0c-.4,1.3-.3,2.5.2,3.6h0Z"/>
              <path class="cls-2" d="M1200.4,202.5l-6.1-12.6c-.5-1.1-.6-2.3-.2-3.5h0c0-.1-3.1-3.3-3.1-3.3l-.7,2c-.7,2.1-.5,4.4.4,6.4l7.1,14.5,2.6-3.6h0Z"/>
              <path class="cls-3" d="M1203.9,156.1l16.2-49.8c.6-1.8,2.2-3.1,4.1-3.1h.2v-3.9h-.2c-3.6,0-6.7,2.3-7.8,5.8l-16.9,51.9,4.4-.9h0Z"/>
              <path class="cls-15" d="M1138.5,270.3c0-3.5.6-7,2-10.2l-12.3,11.1h8.5l1.8-.8h0Z"/>
              <path class="cls-4" d="M1138.5,270.3l52.4-24.2v-.2l-26.2-6.5c-1.1-.3-2.2-.8-3.1-1.3l-14,12.1c-3.2,2.8-5.6,6.2-7.2,9.9-1.4,3.3-2,6.7-2,10.2h0Z"/>
              <path class="cls-14" d="M1189.2,255.9c.8-2.2,1.4-4.3,1.5-6.3l.2-3.5-52.4,24.2-1.8.8h47.1c.2-1.5.6-3,1.2-4.6l4.2-10.7h0Z"/>
              <path class="cls-14" d="M1126.8,317.1l-24.5-24.5c-1.2-1.2-2.2-2.7-2.8-4.3l-10.4,4.8c-5.1,2.3-8.2,7.1-8.2,12.4h0l45.9,11.6Z"/>
              <path class="cls-15" d="M1020.9,391c6.6,0,12.8,2.2,17.7,5.9h.2v.2c7.2,5.4,11.8,14,11.8,23.7v4.5h44.8l28.5-5.1-24.1-19.8c-5.8-5-9.1-12.3-9.1-19.8s3.3-14.8,9.1-19.8l21.7-18.9-70.1-17.5c-4.8-1.2-8.2-5-9.2-9.6l-85.8,34.3c-17.2,6.9-28.5,23.5-28.5,42h93Z"/>
              <path class="cls-5" d="M1038.6,396.9s.2.1.2.2v-.2h-.2Z"/>
              <path class="cls-20" d="M1278.8,222.4l16.3,4.7h15.6l-11.3-28.8c-1.3-3.4-1.5-7.2-.6-10.7l6.8-26.2-31.1,6.2-.8,2.1c-.8,2.2-1.4,4.3-1.5,6.3l-2,30.5c-.3,4-2.1,8.6-4.9,12.6l-1.2,1.7,1.1,1.1c4.4-.9,9.1-.8,13.6.5h0Z"/>
              <path class="cls-20" d="M1224.4,103.3v48.7l7.6-1.5c.4-.5.8-1,1.3-1.4l12-11.6c2.7-2.6,5.1-6.2,6.5-9.9,3-7.8,9.5-14,14.5-14h7.5c5,0,6.6,6.3,3.6,14-1.4,3.7-1.9,7.3-1.2,9.9l1,4,35.5-7.1,6.5-24.8c1.8-7,7.7-11.7,14.5-11.7h18.6c.5,0,3.4,0,8.3.5l1.7-5.2c.4-1.3.5-2.6.3-3.9,0-.2,0-.4,0-.6,0-17.3-14-31.3-31.3-31.3h-75.8c-17.3,0-31.3,14-31.3,31.3v14.7h.1Z"/>
              <path class="cls-16" d="M1240,232.2l-35.5-35.5-4.1,5.8-2.6,3.6-.3.4c-2.8,4-4.6,8.6-4.9,12.6v1.3l47.3,11.8h0Z"/>
              <path class="cls-16" d="M1184.6,301.3l5.1-5h-3.5c-.2.6-.3,1.2-.6,1.8-.4,1.1-.8,2.2-1,3.3h0Z"/>
              <path class="cls-16" d="M1217.9,268.5c.3-5.2,2.2-10.3,5.5-14.5l-32.5-8.1v.2l-.2,3.5c0,2-.6,4.1-1.5,6.3l-4.2,10.7c-.6,1.6-1,3.1-1.2,4.6h31.5l2.7-2.6h-.1Z"/>
              <path class="cls-16" d="M1270.3,206.5l2-30.5c0-1.9.6-4.1,1.5-6.3l.8-2.1-53,10.6,42.6,42.6,1.2-1.7c2.8-4,4.6-8.6,4.9-12.6h0Z"/>
              <path class="cls-16" d="M1277.4,127.6c3-7.8,1.4-14-3.6-14h-7.5c-5,0-11.5,6.3-14.5,14-1.4,3.7-3.8,7.3-6.5,9.9l-12,11.6c-.4.4-.8.9-1.3,1.4l45.2-9-1-4c-.7-2.6-.2-6.2,1.2-9.9h0Z"/>
              <path class="cls-22" d="M1451,139.9v16.5h26.6v8.3l-13.3,13.3,6.2,7.9c1,1.3,1.8,2.8,2.4,4.4h0c1.5,4,2.7,11.1,4.6,24.2v-9.8l22.3-22.3c3.9-3.9,6-9,6-14.5v-19.4c0-11.3-9.2-20.4-20.4-20.4h-39.2c3,3,4.8,7.3,4.8,11.8Z"/>
              <path class="cls-15" d="M1325,380.8h44.4l33.5-42.8-52.7-22.5c-3.8-1.6-6.7-4.7-8.2-8.7l-1.7-4.3h-60.4l29.3,51c5.7,9.9,4.4,21.8-3.2,30.4-.6.7-1.2,1.3-1.9,1.9,6.3-3.2,13.4-5.1,20.9-5.1h0Z"/>
              <path class="cls-15" d="M1296.2,391c-7,3-15.1,3.1-22.5-.1l-96.8-42c-1.4,1.5-3.1,2.6-5.1,3.3l-32.2,28,37,30.4,64.3-11.6c7.8-1.4,15.7-2.1,23.6-2.1s15.9.8,23.8,2.2c2.3-3,4.9-5.8,7.9-8.2h0Z"/>
              <path class="cls-15" d="M1179.7,306.2c1.9.4,3.8.9,5.6,1.7l67.3,29.2-23.5-40.8h-39.4l-5.1,5-4.9,4.8h0Z"/>
              <path class="cls-15" d="M1217.9,268.5l-2.7,2.6h2.6v-2.6h0Z"/>
              <path class="cls-14" d="M1139.7,380.2l32.2-28c-1.3.5-2.7.7-4.2.7s-2-.1-3.1-.4l-43.1-10.8-21.7,18.9c-5.8,5-9.1,12.3-9.1,19.8s3.3,14.8,9.1,19.8l24.1,19.8,52.8-9.5-37-30.4h0Z"/>
              <path class="cls-12" d="M1333.7,97.8c-6.9,0-12.7,4.7-14.5,11.7l-6.5,24.8,22.4-4.5c.9-.2,1.8-.2,2.7-.2l-.3-5c-.4-6.1,5.2-11.1,10.2-9.2l74,26.8c5.9,2.1,9.9,8,10.4,15.1l3.6,59.9c.4,6.1-5.2,11.1-10.2,9.2l-74-26.8c-5.9-2.1-9.9-8-10.4-15.1l-1.8-29.8-33.6,6.7-6.8,26.2c-.9,3.5-.7,7.3.6,10.7l11.3,28.8h-15.6l-16.3-4.7c-4.5-1.3-9.1-1.4-13.6-.5l24.3,24.3c3.6,3.6,5,9.1,3.1,13.9-1.9,4.8-6.7,7.9-11.7,7.9s-2-.1-3.1-.4l-54.5-13.6c-3.3,4.3-5.2,9.3-5.5,14.5v2.6h34.3c6.9,0,12.9,5.3,13.1,12.2.2,7.1-5.5,13-12.6,13h-23.6l23.5,40.8-67.3-29.2c-1.8-.8-3.7-1.3-5.6-1.7l4.9-4.8c.2-1.1.6-2.1,1-3.3.2-.6.4-1.2.6-1.8h-44.6l33.2,33.2c2.6,2.6,4.4,5.9,5.1,9.5s-.7,7.6-2.8,9.8l96.8,42c7.4,3.2,15.5,3.1,22.5.1-3,2.4-5.6,5.1-7.9,8.2,4.8.9,9.6,1.9,14.3,3.3l75.8,22.7v1.3c0-10.2,5.6-19.4,14.2-23.2l74.1-33.6c5.1-2.3,10.8-.5,14.7,4.7l9.4,12.8c4.3-14,4.4-24,4.4-24.8h0c0-18.8-1.5-37.5-4.3-56.1-4.9-32-8.3-55.9-10.7-72.9-1-7.4-1.9-13.6-2.7-18.9-1.9-13.1-3.2-20.2-4.6-24.2h0c-.6-1.6-1.4-3.1-2.4-4.4l-6.2-7.9-13.3-17v-21.1c0-4.5-1.8-8.8-4.8-11.8-.8-.8-1.7-1.6-2.7-2.2-34.2-21-67.7-26.3-82.8-27.6-4.9-.4-7.9-.5-8.3-.5h-18.9ZM1306,384c7.6-8.5,8.9-20.5,3.2-30.4l-29.3-51h60.4l1.7,4.3c1.6,4,4.5,7.1,8.2,8.7l52.7,22.5-33.5,42.8h-44.4c-7.5,0-14.6,1.9-20.9,5.1.7-.6,1.3-1.2,1.9-1.9h0Z"/>
              <path class="cls-21" d="M1341.1,184.5c.4,7.1,4.4,13,10.4,15.1l74,26.8c5.1,1.8,10.6-3.2,10.2-9.2l-3.6-59.9c-.4-7.1-4.4-13-10.4-15.1l-74-26.8c-5.1-1.8-10.6,3.2-10.2,9.2l.3,5c5.8,0,10.9,4.2,12.1,10.1,1.4,6.8-3.1,13.4-9.9,14.8l-.8.2,1.8,29.8h0Z"/>
              <path class="cls-22" d="M1505.3,406.8l-14.5-19.7-9.4-12.8c-3.8-5.2-9.5-7-14.7-4.7l-74.1,33.6c-8.6,3.9-14.2,13.1-14.2,23.2v-1.3l-75.8-22.7c-4.7-1.4-9.5-2.5-14.3-3.3-7.8-1.4-15.8-2.2-23.8-2.2s-15.8.7-23.6,2.1l-64.3,11.6-52.8,9.5-28.5,5.1h-44.8v28.3h98.3c0-15.6,12.7-28.3,28.3-28.3h59.7c15.6,0,28.3,12.7,28.3,28.3h141.5v-13.9c0-8.6,5.5-16.2,13.7-19l17.5-5.8c26.4-8.8,53.7,10.9,53.7,38.7h8.6c4,0,7.2-4.4,7.2-9.7v-30.1c0-2.6-.8-5.1-2.1-6.9h.1Z"/>
              <path class="cls-22" d="M1051.5,324.2l70.1,17.5,43.1,10.8c1,.3,2,.4,3.1.4s2.8-.3,4.2-.7c1.9-.7,3.6-1.8,5.1-3.3.6-.7,1.2-1.5,1.7-2.3,2.8-4.9,1.9-11.1-2.1-15.1l-35.1-35.1h111.1c6.9,0,12.6-5.6,12.6-12.6s-5.6-12.6-12.6-12.6h-141.5c-5.1,0-9.7,3.1-11.6,7.8-1.3,3.1-1.2,6.4,0,9.4.6,1.6,1.5,3,2.8,4.3l24.5,24.5-45.9-11.5-23.2-5.8c-6.7-1.7-13.6,2.4-15.3,9.2-.5,1.9-.4,3.9,0,5.7,1,4.5,4.4,8.4,9.2,9.6l-.2-.2Z"/>
              <path class="cls-13" d="M1020.9,391c6.6,0,12.8,2.2,17.7,5.9h.2v.2c7.2,5.4,11.8,14,11.8,23.7v4.5h44.8l28.5-5.1-24.1-19.8c-5.8-5-9.1-12.3-9.1-19.8s3.3-14.8,9.1-19.8l21.7-18.9-70.1-17.5c-4.8-1.2-8.2-5-9.2-9.6l-85.8,34.3c-17.2,6.9-28.5,23.5-28.5,42h93Z"/>
              <path class="cls-7" d="M1050.6,425.2v-4.5c0-9.7-4.6-18.2-11.8-23.7,0,0-.2-.1-.2-.2-5-3.7-11.1-5.9-17.7-5.9h-91.5c-.5,0-.9,0-1.4.1-8.4.7-14.9,7.6-14.9,16.2v37.3c0,4.9,4,8.9,8.9,8.9h128.7v-28.3h0Z"/>
              <path class="cls-20" d="M1278.8,222.4l16.3,4.7h15.6l-11.3-28.8c-1.3-3.4-1.5-7.2-.6-10.7l6.8-26.2-31.1,6.2-.8,2.1c-.8,2.2-1.4,4.3-1.5,6.3l-2,30.5c-.3,4-2.1,8.6-4.9,12.6l-1.2,1.7,1.1,1.1c4.4-.9,9.1-.8,13.6.5h0Z"/>
              <path class="cls-9" d="M1224.4,103.3v48.7l7.6-1.5c.4-.5.8-1,1.3-1.4l12-11.6c2.7-2.6,5.1-6.2,6.5-9.9,3-7.8,9.5-14,14.5-14h7.5c5,0,6.6,6.3,3.6,14-1.4,3.7-1.9,7.3-1.2,9.9l1,4,35.5-7.1,6.5-24.8c1.8-7,7.7-11.7,14.5-11.7h18.6c.5,0,3.4,0,8.3.5l1.7-5.2c.4-1.3.5-2.6.3-3.9,0-.2,0-.4,0-.6,0-17.3-14-31.3-31.3-31.3h-75.8c-17.3,0-31.3,14-31.3,31.3v14.7h.1Z"/>
              <path class="cls-6" d="M1296.2,391c-7,3-15.1,3.1-22.5,0l-96.8-42c-1.4,1.5-3.1,2.6-5.1,3.3l-32.2,28,37,30.4,64.3-11.6c7.8-1.4,15.7-2.1,23.6-2.1s15.9.8,23.8,2.2c2.3-3,4.9-5.8,7.9-8.2h0Z"/>
              <path class="cls-8" d="M1273.8,390.9c7.4,3.2,15.5,3.1,22.5,0,2.4-2,5.1-3.7,7.9-5.1.7-.6,1.3-1.2,1.9-1.9,7.6-8.5,8.9-20.5,3.2-30.4l-29.3-51h60.4l-27.5-70.4-17.6-5.1-16.3-4.7c-4.5-1.3-9.1-1.4-13.6-.5l24.6,24.6c4,4,4.8,10.2,2.1,15.1-2.3,4-6.5,6.4-10.9,6.4s-2-.1-3.1-.4l-54.5-13.6c-3.3,4.3-5.2,9.3-5.5,14.5v2.6h34.8c6.9,0,12.6,5.6,12.6,12.6s-5.6,12.6-12.6,12.6h-23.6l23.5,40.8-67.3-29.2c-1.8-.8-3.7-1.3-5.6-1.7-8-1.7-16.5.2-23,5.3l20,20c4,4,4.8,10.2,2.1,15.1-.5.9-1.1,1.6-1.7,2.3l96.8,42h-.3Z"/>
              <path class="cls-10" d="M1139.7,380.2l32.2-28c-1.3.5-2.7.7-4.2.7s-2-.1-3.1-.4l-43.1-10.8-21.7,18.9c-5.8,5-9.1,12.3-9.1,19.8s3.3,14.8,9.1,19.8l24.1,19.8,52.8-9.5-37-30.4h0Z"/>
              <path class="cls-14" d="M1179.9,306.2l4.9-4.8c.2-1.1.6-2.1,1-3.3.2-.6.4-1.2.6-1.8h-44.6l15.1,15.1c6.5-5.1,15-6.9,23-5.3h0Z"/>
              <polygon class="cls-20" points="1294.9 227 1312.7 232.2 1303.7 209.2 1294.9 227"/>
              <path class="cls-11" d="M1236.2,425.2h-59.7c-15.6,0-28.3,12.7-28.3,28.3h116.3c0-15.6-12.7-28.3-28.3-28.3Z"/>
              <path class="cls-19" d="M1438,414.8l-17.5,5.8c-8.2,2.7-13.7,10.4-13.7,19v13.9h84.9c0-27.8-27.3-47.5-53.7-38.7h0Z"/>
              <path class="cls-17" d="M1279.9,302.7l29.3,51c5.7,9.9,4.4,21.8-3.2,30.4-.6.7-1.2,1.3-1.9,1.9,6.3-3.2,13.4-5.1,20.9-5.1h44.4l33.5-42.8-52.7-22.5c-3.8-1.6-6.7-4.7-8.2-8.7l-1.7-4.3h-60.4Z"/>
              <path class="cls-18" d="M1352.5,132.1l5.8,29.4c1.4,7.2,5.7,13.9,11.9,18.6h0c6.2,4.7,13.8,7.1,21.1,6.5l9.5-.7c7.3-.5,13.8-3.9,17.9-9.4h0c4.2-5.5,5.7-12.6,4.3-19.8h0c-2.5-12.6-12-23.6-24.6-28.4l-27.5-10.5c-10.5-4-20.5,3.7-18.4,14.3h0Z"/>
              <path class="cls-22" d="M1164.7,239.3l26.2,6.5,32.5,8.1,54.5,13.6c1,.3,2,.4,3.1.4,4.5,0,8.7-2.4,10.9-6.4,2.8-4.9,1.9-11.1-2.1-15.1l-24.6-24.6-1.1-1.1-42.6-42.6,53-10.6,31.1-6.2,33.6-6.7.8-.2c6.8-1.4,11.2-8,9.9-14.8-1.2-5.9-6.3-10-12.1-10.1-.9,0-1.8,0-2.7.2l-22.4,4.5-35.5,7.1-45.2,9-7.6,1.5-20.5,4.1-4.4.9-5.9,1.2c-4.6.9-8.2,4.2-9.6,8.7-1.3,4.4,0,9.3,3.1,12.5l3.8,3.8,3.1,3.1,10.4,10.4,35.5,35.5-47.4-11.8-21.8-5.4c-6.7-1.7-13.6,2.4-15.3,9.2-1.4,5.6,1.2,11.2,6,13.9,1,.5,2,1,3.1,1.3h.2Z"/>
            </g>
            <path class="cls-3" d="M1298.8,187.7l20.8-80.2s2.3-9.1,14.8-9.7c0,0,33-1.6,55.7,5.2,22.8,6.8,49.3,19.6,54.3,23.5"/>
            <path class="cls-3" d="M1443.5,125.9s6.8,3.3,7.5,12.9v22.1l20.3,26.1s4.9,7,6.3,27.4"/>
          </g>
          <path class="cls-2" d="M1299,187.6s-3.1,5.9.5,14.1c3.6,8.2,42.1,108,42.1,108,0,0,1.7,4.4,5.6,6.9l55.2,23.7"/>
        </g>
      </g>
    </g>
  </g>
</svg>