<?xml version="1.0" encoding="UTF-8"?>
<svg id="_레이어_1" data-name="레이어_1" xmlns="http://www.w3.org/2000/svg" version="1.1" viewBox="0 0 134.1 106">
  <!-- Generator: Adobe Illustrator 29.0.1, SVG Export Plug-In . SVG Version: 2.1.0 Build 192)  -->
  <defs>
    <style>
      .st0, .st1, .st2, .st3 {
        fill: none;
      }

      .st4 {
        fill: #333d49;
      }

      .st5 {
        fill: #2b3138;
      }

      .st6 {
        fill: #242428;
      }

      .st7 {
        fill: #b1bece;
      }

      .st8 {
        fill: #eaebef;
      }

      .st9 {
        fill: #313c49;
      }

      .st10 {
        fill: #546070;
      }

      .st1 {
        stroke-width: 2px;
      }

      .st1, .st11, .st12 {
        stroke: #fdcc4d;
      }

      .st1, .st11, .st12, .st3 {
        stroke-linecap: round;
        stroke-linejoin: round;
      }

      .st13 {
        fill: #313a4b;
      }

      .st14 {
        fill: #272629;
      }

      .st15 {
        fill: #333f45;
      }

      .st2 {
        stroke: #afbbce;
        stroke-miterlimit: 10;
        stroke-width: .3px;
      }

      .st16 {
        fill: #b0bcd0;
      }

      .st17 {
        fill: #b4bcd1;
      }

      .st18 {
        fill: #353e4b;
      }

      .st19 {
        fill: #b1bccf;
      }

      .st20 {
        fill: #ebecf1;
      }

      .st21 {
        fill: #525f70;
      }

      .st22 {
        fill: #5e6c8a;
      }

      .st23 {
        fill: #b0bbcf;
      }

      .st24 {
        fill: #343d4c;
      }

      .st25 {
        fill: #29303a;
      }

      .st11 {
        stroke-width: 1.6px;
      }

      .st11, .st12, .st26 {
        fill: #fdcc4d;
      }

      .st12 {
        stroke-width: 1.2px;
      }

      .st27 {
        fill: #5f6f8c;
      }

      .st28 {
        fill: #afbbce;
      }

      .st29 {
        fill: #343c4b;
      }

      .st30 {
        fill: #5d6c8a;
      }

      .st31 {
        fill: #8f9cac;
      }

      .st32 {
        fill: #fff;
      }

      .st33 {
        fill: #333c4b;
      }

      .st34 {
        fill: #454f5b;
      }

      .st35 {
        fill: #262729;
      }

      .st36 {
        fill: #b2bed4;
      }

      .st37 {
        fill: #363f4e;
      }

      .st38 {
        fill: #343e49;
      }

      .st39 {
        fill: #262828;
      }

      .st40 {
        fill: #242527;
      }

      .st41 {
        fill: #b0bccf;
      }

      .st42 {
        fill: #222126;
      }

      .st43 {
        fill: #b4bece;
      }

      .st44 {
        fill: #ebecf0;
      }

      .st45 {
        fill: #33424f;
      }

      .st46 {
        fill: #61728b;
      }

      .st47 {
        fill: #252527;
      }

      .st48 {
        fill: #b1bed1;
      }

      .st3 {
        stroke: #5e6c8a;
      }

      .st49 {
        fill: #b1bed0;
      }

      .st50 {
        fill: #242426;
      }

      .st51 {
        fill: #4f5e6e;
      }

      .st52 {
        fill: #b0bdd0;
      }

      .st53 {
        fill: #b1bcd0;
      }

      .st54 {
        fill: #252628;
      }
    </style>
  </defs>
  <g id="_레이어_11" data-name="_레이어_1">
    <g>
      <path class="st42" d="M15.4,79.3c0-.6-.5-1.2-1.2-1.2h-7.6v2h8.7v-.8h.1Z"/>
      <path class="st42" d="M115.3,78.7v.8h8.7v-2h-7.6c-.6,0-1.2.5-1.2,1.2h0Z"/>
      <path class="st42" d="M133.7,90.2h-22.6v-9.2l1.4-2.3.3-.4h0l.3-.4h0c0,0,1.1-1.8,1.1-1.8h0l-.9-.7h0l3,2.3h7.7l3-2.3v-2.3h-2.4v-1.8h-1.3v-7.4h-6.8v6.2l-3.6-3.2v-.4c0-.4,0-.7.2-1.1,0-.3,0-.7,0-1v-.9c.2-.3.2-.5.2-.8s0-.8.2-1.2v-11.4h-4.3l-.2,1.2h-.5l-.2.9-1.1,5.4h-.8l1.3-6.6v-1.6h1.6v-2.5l-2.5-5h0v-2.5h-1.6v-4h.8v-2h-5.1v2h.8v4h-19.1v2.5l-2.5,5v2.5h1.7v3.3h-1.7v4.8h-1.1v-6.3l-3.5-2.8h.4v-1.4h.8v-1.9h.6v-10.2h-10.2v10.2h.9v1.9h.5v1.1l-9.2,3.8c-1-1.2-2.2-2.1-3.6-2.6h.2l-2.1-4.9c.8,0,1.3-.2,1.7-.6.4-.4.4-1,.4-1v-14.4h-.9v14.4c0,0,0,.7-1.2.7v.9h0v-16h4.3v-3.3h-4.3v-7.3h1.6v1.9h0v.7h-.8v1.5h0v1.5h.8v.6h7v-4.4h-5.9v-.9h5.4v-5.5h3.1v-3.3h-1.7V1.7h0c0-.4-.2-.8-.4-1.1h0c-.3-.3-.6-.4-1.1-.4h-21.8c-.9,0-1.6.7-1.6,1.6v8.3h-1.7v3.3h4.6v5.6h4.8v4s0,.5.4.9,1,.6,1.8.6v.8h-4.3v3.3h4.3v4.9h-2.8v1.6h2.8v9.5l-2.1,4.9h.2c-2.7,1-4.8,3.3-5.4,6.2h0c-.6.5-1,1.2-1.2,1.9h-7.7c0-2.2-1.8-4-4-4h-4c-2.2,0-4,1.8-4,4h4-1.2c0,.8.5,1.4,1.2,1.7-.2.4-.4.9-.4,1.5s0,.3,0,.5l.3,2.4h-5.6l-4.3,3.9h0v-3.1h-6.8v7.4h-1.3v1.8h-2.4v2.3l3,2.3h7.7l2-1.6h0l1,1.7h0c0,0,.3.5.3.5h0l.3.4,1.5,2.5h0v8.3H1.3c-.7,0-1.3.6-1.3,1.3v13.4c0,.7.6,1.3,1.3,1.3h31.9c.7,0,1.3-.6,1.3-1.3v-5.6h2.8l.6-1.1c.7-1.2,1.3-2.3,2-3.5l.3-.6,1.3-2.3s0,0,0-.2l.3-.4s0,0,0-.2h0l.4-.7v-.2c0,0,.9-1.4.9-1.4,0,0,0,0,0-.2l.3-.4c.2-.3.4-.6.5-1,0-.3.2-.6.2-.9s0-.6-.2-.9c0-.3-.3-.5-.4-.8h48.9c0,.4-.2.7-.2,1s0,.6.2.9c.2.4.4.7.5,1l.3.4v.2c0,0,.9,1.4.9,1.4v.2c0,0,.5.7.5.7h0s0,0,0,.2l.3.4v.2c0,0,1.4,2.3,1.4,2.3l.3.6c.7,1.2,1.3,2.3,2,3.5l.6,1v6.3c0,.7.6,1.3,1.3,1.3h32.9c.1,0,.2,0,.2-.2v-15.5c0,0,0-.2-.2-.2h-.1Z"/>
    </g>
    <g>
      <path class="st6" d="M33.1,90.2h-2.8c.3,0,.5,0,.7.2.3.2.5.5.5.8v13.7c0,.7-.6,1.3-1.3,1.3h2.8c.7,0,1.3-.6,1.3-1.3v-13.4c0-.7-.6-1.3-1.3-1.3h0Z"/>
      <path class="st10" d="M25.9,91.5v1.5h5.6v-1.8c0-.3-.3-.6-.5-.8-.2,0-.4-.2-.7-.2h-4.9v.2c.3.2.5.6.5,1.1Z"/>
      <path class="st6" d="M25.9,104.8v-13.4c0-.5-.2-.8-.6-1.1l-.4.7h0s0,0-.1.2l-.3.4v.2c-.1,0-1.4,2.3-1.4,2.3v10.7c0,.7-.6,1.3-1.3,1.3h2.8c.7,0,1.3-.6,1.3-1.3Z"/>
      <path class="st38" d="M20.2,94.6h0c-.3.5-.5.9-.8,1.4h0l.8-1.3h0Z"/>
      <path class="st38" d="M17.4,94.9c.4-.7.8-1.3,1.2-2h-1.3v2.1h.2-.1Z"/>
      <path class="st38" d="M23.1,104.8v-10.7l-.3.6c-.7,1.2-1.3,2.3-2,3.5l-.6,1.1h-3v5.6c0,.7-.6,1.3-1.3,1.3h5.9c.7,0,1.3-.6,1.3-1.3h0Z"/>
      <path class="st10" d="M17.2,91.5v1.5h1.3c.3-.5.6-1,.9-1.5l.7-1.2h-4.2c.7,0,1.3.6,1.3,1.3h0Z"/>
      <path class="st6" d="M17.2,104.8v-5.6h-2.8v5.6c0,.7-.6,1.3-1.3,1.3h2.8c.7,0,1.3-.6,1.3-1.3Z"/>
      <path class="st6" d="M14.4,91.5v3.6h2.8v-3.6c0-.7-.6-1.3-1.3-1.3h-2.8c.7,0,1.3.6,1.3,1.3Z"/>
      <path class="st10" d="M8.7,92.9h5.6v-1.5c0-.7-.6-1.3-1.3-1.3H1.3c-.7,0-1.3.6-1.3,1.3v1.5h8.7Z"/>
      <polygon class="st22" points="19.4 65.8 14.3 70.4 14.3 71.7 15.9 71.7 15.9 71.8 20.3 67.9 26.2 67.9 26.2 65.7 25.4 65.7 25.4 65.8 19.4 65.8"/>
      <polygon class="st23" points="14.3 70.4 19.4 65.8 25.4 65.8 25.4 65.7 25.4 63.5 18.6 63.5 14.3 67.4 14.3 70.4"/>
      <line class="st3" x1="17.2" y1="73.5" x2="17.2" y2="73.5"/>
      <path class="st22" d="M25.1,86.4s0,0-.1.2l-.3.4v.2c-.1,0-1.2,1.8-1.2,1.8h0s0,0-.1.2h0c0,0-.5.9-.5.9-.7,1.2-1.4,2.3-2.1,3.5l-.6,1.1h0l-.8,1.3h0c0,0-.5,1-.5,1h-4.4v2.3h5.8l.6-1.1c.7-1.2,1.3-2.3,2-3.5l.3-.6,1.3-2.3s0,0,.1-.2l.3-.4s0,0,.1-.2h0l.4-.7v-.2c.1,0,.9-1.4.9-1.4,0,0,0,0,.1-.2l.3-.4c.2-.3.4-.6.5-1,.1-.3.2-.6.2-.9s0-.6-.2-.9c-.2-.4-.4-.7-.5-1l-.3-.4v-.2c-.1,0-1.8-2.9-1.8-2.9-.7-1.2-1.4-2.3-2.1-3.5l-1.1-1.9c-.2-.3-.4-.7-.8-1.1-.5-.5-1-.8-1.6-1s-1.2-.2-1.7-.2h-6.6v2.3h6.8l-.9.7h0l1.1,1.7h0c0,0,.3.5.3.5h0l.3.4,1.5,2.5c.7,1.2,1.4,2.3,2.1,3.5l.6,1.1h2.7v.6Z"/>
      <path class="st19" d="M18.5,92.9c-.4.7-.8,1.3-1.2,2h0c0,0-2.8,0-2.8,0v1.9h4.4l.5-.9h0c.3-.6.5-1,.8-1.5h0l.6-1.1c.7-1.2,1.4-2.3,2.1-3.5l.5-.8h0q0-.2.1-.3h0l1.1-1.8s0,0,.1-.2l.3-.4s0,0,.1-.2h-2.7l-1.5,2.5h0l-.7,1.2-.7,1.2c-.3.5-.6,1-.9,1.5v.3Z"/>
      <path class="st22" d="M42.1,86.4s0,0,0,.2l-.3.4v.2c0,0-1.2,1.8-1.2,1.8h0s0,0,0,.2h0c0,0-.5.9-.5.9-.7,1.2-1.4,2.3-2.1,3.5l-.6,1.1h0l-.8,1.3h0c0,0-.5,1-.5,1h-4.5v2.3h5.8l.6-1.1c.7-1.2,1.3-2.3,2-3.5l.3-.6,1.3-2.3s0,0,0-.2l.3-.4s0,0,0-.2h0l.4-.7v-.2c0,0,.9-1.4.9-1.4,0,0,0,0,0-.2l.3-.4c.2-.3.4-.6.5-1,0-.3.2-.6.2-.9s0-.6-.2-.9c-.2-.4-.4-.7-.5-1l-.3-.4v-.2c0,0-1.8-2.9-1.8-2.9-.7-1.2-1.4-2.3-2.1-3.5l-1.1-1.9c-.2-.3-.4-.7-.8-1.1-.5-.5-1-.8-1.6-1s-1.2-.2-1.7-.2h-6.6v2.3h6.8l-.9.7h0l1.1,1.7h0c0,0,.3.5.3.5h0l.3.4,1.5,2.5c.7,1.2,1.4,2.3,2.1,3.5l.6,1.1h2.7v.6Z"/>
      <path class="st19" d="M35.5,92.9c-.4.7-.8,1.3-1.2,2h0c0,0-2.8,0-2.8,0v1.9h4.4l.5-.9h0c.3-.6.5-1,.8-1.5h0l.6-1.1c.7-1.2,1.4-2.3,2.1-3.5l.5-.8h0q0-.2,0-.3h0l1.1-1.8s0,0,0-.2l.3-.4s0,0,0-.2h-2.7l-1.5,2.5h0l-.7,1.2-.7,1.2c-.3.5-.6,1-.9,1.5v.3Z"/>
      <path class="st22" d="M94.6,85.7s0,0,0,.2l.3.4v.2c0,0,1.2,1.8,1.2,1.8h0s0,0,0,.2h0c0,0,.5.9.5.9.7,1.2,1.4,2.3,2.1,3.5l.6,1.1h0l.8,1.3h0c0,0,.5,1,.5,1h4.5v2.3h-5.8l-.6-1.1c-.7-1.2-1.3-2.3-2-3.5l-.3-.6-1.3-2.3s0,0,0-.2l-.3-.4s0,0,0-.2h0l-.4-.7v-.2c0,0-.9-1.4-.9-1.4,0,0,0,0,0-.2l-.3-.4c-.2-.3-.4-.6-.5-1,0-.3-.2-.6-.2-.9s0-.6.2-.9c.2-.4.4-.7.5-1l.3-.4v-.2c0,0,1.8-2.9,1.8-2.9.7-1.2,1.4-2.3,2.1-3.5l1.1-1.9c.2-.3.4-.7.8-1.1s1-.8,1.6-1,1.2-.2,1.7-.2h6.6v2.3h-6.8l.9.7h0l-1.1,1.7h0c0,0-.3.5-.3.5h0l-.3.4-1.5,2.5c-.7,1.2-1.4,2.3-2.1,3.5l-.6,1.1h-2.6v.6Z"/>
      <path class="st4" d="M101.2,92.3c.4.7.8,1.3,1.2,2h0c0,0,2.8,0,2.8,0v1.9h-4.4l-.5-.9h0c-.3-.6-.5-1-.8-1.5h0l-.6-1.1c-.7-1.2-1.4-2.3-2.1-3.5l-.5-.8h0q0-.2,0-.3h0l-1.1-1.8s0,0,0-.2l-.3-.4s0,0,0-.2h2.7l1.5,2.5h0l.7,1.2.7,1.2c.3.5.6,1,.9,1.5v.3Z"/>
      <polygon class="st28" points="10.6 73.5 6.2 73.5 3.8 73.5 3.8 75.8 10.6 75.8 10.6 73.5"/>
      <polygon class="st29" points="15.9 73.5 15.9 71.8 15.9 71.7 14.3 71.7 14.3 70.4 14.3 67.4 14.3 67.4 10.6 67.4 7.5 67.4 7.5 71.7 6.2 71.7 6.2 73.5 10.6 73.5 15.9 73.5"/>
      <path class="st44" d="M10.6,64.3h-3v3h3v-3ZM9.1,66.7c-.5,0-.9-.4-.9-.9s.4-.9.9-.9.9.4.9.9-.4.9-.9.9Z"/>
      <rect class="st52" x="10.6" y="64.3" width="3.7" height="3"/>
      <polygon class="st46" points="17.4 75.8 10.6 75.8 3.8 75.8 6.7 78.1 10.6 78.1 14.4 78.1 16.5 76.5 17.4 75.8"/>
      <path class="st50" d="M9.1,64.9c-.5,0-.9.4-.9.9s.4.9.9.9.9-.4.9-.9-.4-.9-.9-.9Z"/>
      <path class="st50" d="M15.4,79.3c0-.6-.5-1.2-1.2-1.2h-7.6v2h8.7v-.8h.1Z"/>
      <path class="st0" d="M26.6,57.5h.2-.2Z"/>
      <rect class="st0" x="69.7" y="45.2" width="1.5" height="1.9"/>
      <path class="st0" d="M48.5,17.7h-2.1.8v5.2c0,.2.3.6,1.3.6v-5.7h0Z"/>
      <polygon class="st0" points="56.8 13.2 57.8 13.2 60.2 13.2 60.2 13.2 59.2 13.2 54.1 13.2 54.1 13.2 56.8 13.2"/>
      <rect class="st0" x="73.8" y="45.2" width="1.8" height="1.9"/>
      <polygon class="st0" points="70.5 49.2 68 51.2 70.5 51.2 70.5 49.2"/>
      <polygon class="st0" points="72.6 51.2 73 51.2 73 48.4 72.5 48.4 72.5 48.4 71.9 48.4 71.9 51.2 72.3 51.2 72.6 51.2"/>
      <polygon class="st0" points="74.4 49.2 74.4 51.2 77 51.2 74.4 49.2"/>
      <polygon class="st13" points="99.9 46.8 97.4 46.8 82.8 46.8 80.3 46.8 80.3 49.3 82 49.3 99.9 49.3 99.9 46.8"/>
      <rect class="st13" x="82.8" y="39.4" width="14.5" height="2.5"/>
      <rect class="st8" x="102" y="37.4" width="1.7" height="2"/>
      <polygon class="st8" points="103.7 33.3 101.2 33.3 101.2 35.3 102 35.3 103.7 35.3 103.7 33.3"/>
      <polygon class="st7" points="105.4 35.3 106.2 35.3 106.2 33.3 103.7 33.3 103.7 35.3 105.4 35.3"/>
      <rect class="st16" x="103.7" y="37.4" width="1.7" height="2"/>
      <rect class="st19" x="102" y="35.3" width="1.7" height="2"/>
      <rect class="st27" x="103.7" y="35.3" width="1.7" height="2"/>
      <polygon class="st42" points="107 41.9 107 41.9 107 39.4 105.7 39.4 103.7 39.4 101.7 39.4 97.4 39.4 97.4 41.9 107 41.9"/>
      <polygon class="st51" points="97.4 46.8 99.9 46.8 97.4 41.9 82.8 41.9 80.3 46.8 80.3 46.8 82.8 46.8 97.4 46.8"/>
      <polygon class="st9" points="99.9 46.8 109.6 46.8 107 41.9 97.4 41.9 99.9 46.8"/>
      <path class="st13" d="M87,57.5h4.9c0-2.2,1.8-3.9,4-3.9h4v-.9h-19.6v4.8h6.7Z"/>
      <path class="st42" d="M99.9,53.6c2.1,0,3.9,1.7,3.9,3.9h2.9l1.3-6.6v-1.6h1.6v-2.5h-9.6v2.5h-17.9v3.3h17.9v.9h-.1Z"/>
      <path class="st4" d="M44.7,55c.8-2.6,2.8-4.7,5.3-5.7h-3.4c-2.7,1-4.8,3.4-5.5,6.3.6-.5,1.4-.8,2.3-.8s.9,0,1.3.2Z"/>
      <path class="st50" d="M51.3,49.3h-1.3c-2.5.9-4.5,3.1-5.3,5.7.8.3,1.4.9,1.8,1.6h1.1c0-.2,0-.4,0-.6h0c.7-2.3,2.8-4,5.3-4s5,2,5.4,4.7h3.2c-.3-3.4-2.6-6.2-5.6-7.3h-4.7Z"/>
      <path class="st4" d="M47.7,56.6v-.6c0,.2,0,.4,0,.6h0Z"/>
      <path class="st4" d="M56.6,56.6v-.7h1.4v.7h.3c-.4-2.6-2.7-4.7-5.4-4.7s-4.6,1.7-5.3,4h1.2v.7h7.8Z"/>
      <polygon class="st5" points="46.5 17.7 46.5 17.7 45 17.7 45 18.8 46.4 18.8 46.4 17.7 46.5 17.7"/>
      <polygon class="st48" points="48.5 16.6 47.3 16.6 45 16.6 45 17.7 46.5 17.7 48.5 17.7 48.5 16.6"/>
      <polygon class="st5" points="48.5 14.8 47.7 14.8 47.7 16.1 47.3 16.1 47.3 16.6 48.5 16.6 48.5 14.8"/>
      <polygon class="st5" points="47.3 13.2 48.5 13.2 48.5 13.2 47.3 13.2"/>
      <polygon class="st18" points="41.6 13.2 47.3 13.2 47.3 13.2 41.6 13.2"/>
      <path class="st20" d="M47.5,4.8c0-1.9,1.5-3.5,3.5-3.5h.3c1.9,0,3.5,1.5,3.5,3.5v4.1h4.4V1.7c0-.9-.7-1.6-1.6-1.6h-17.4c-.9,0-1.6.7-1.6,1.6v7.2h8.9s0-4.1,0-4.1Z"/>
      <path class="st20" d="M63.1.5h0Z"/>
      <path class="st20" d="M63.6,1.7c0-.4-.2-.8-.4-1.1.3.3.4.6.4,1.1h0Z"/>
      <polygon class="st20" points="48.5 13.2 51.3 13.2 51.3 13.2 51.3 13.2 51.3 13.2 54.1 13.2 59.2 13.2 59.2 9.9 59.2 9.9 38.7 9.9 37 9.9 37 13.2 41.6 13.2 47.3 13.2 48.5 13.2"/>
      <polygon class="st20" points="51.3 30 48.5 30 48.5 33.3 49 33.3 49 34.9 48.5 34.9 48.5 42.8 51.3 42.8 51.3 30"/>
      <polygon class="st20" points="48.5 17.7 48.5 18.8 51.3 18.8 51.3 17.8 51.3 17.8 51.3 14.8 48.5 14.8 48.5 14.8 48.5 16.6 48.5 17.7"/>
      <polygon class="st20" points="51.3 25.1 51.3 19.4 48.5 19.4 48.5 23.4 48.5 24.3 48.5 25.1 44.2 25.1 44.2 28.4 48.5 28.4 51.3 28.4 51.3 25.1"/>
      <path class="st17" d="M59.2,8.9h-4.4v-4.1c0-1.9-1.5-3.5-3.5-3.5h-.3c-1.9,0-3.5,1.5-3.5,3.5v4.1h-8.9v1.1h20.5v-1.1h.1ZM51.2,2.5c1.4,0,2.5,1.1,2.5,2.5s-1.1,2.5-2.5,2.5-2.5-1.1-2.5-2.5,1.1-2.5,2.5-2.5Z"/>
      <polygon class="st20" points="50 49.3 51.3 49.3 51.3 44.4 48.5 44.4 46.4 49.3 46.6 49.3 50 49.3"/>
      <polygon class="st48" points="51.3 49.3 56 49.3 56.2 49.3 54.1 44.4 54.1 44.4 54.1 44.4 54.1 44.4 51.3 44.4 51.3 49.3"/>
      <path class="st48" d="M59.2,1.7v8.3h0v-1.1h4.4V1.7c0-.4-.2-.8-.4-1.1h0c-.3-.3-.6-.4-1.1-.4h-4.5c.9,0,1.6.7,1.6,1.6h0Z"/>
      <polygon class="st48" points="59.2 13.2 60.2 13.2 60.2 13.2 62.2 13.2 62.2 13.2 65.3 13.2 65.3 9.9 63.6 9.9 59.2 9.9 59.2 13.2"/>
      <rect class="st48" x="51.3" y="17.8" width="2.8" height="1"/>
      <polygon class="st48" points="51.3 42.8 54.1 42.8 54.1 34.9 52.3 34.9 52.3 33.3 54.1 33.3 54.1 30 51.3 30 51.3 42.8"/>
      <polygon class="st48" points="51.3 25.1 51.3 28.4 54.1 28.4 58.4 28.4 58.4 25.1 54.1 25.1 54.1 19.4 51.3 19.4 51.3 25.1"/>
      <polygon class="st48" points="51.3 13.2 54.1 13.2 54.1 13.2 51.3 13.2"/>
      <path class="st47" d="M60.2,13.2h-8.9v1.6h1v2h3.8v-2h1.8c0,.5.4.9.9.9s.9-.4.9-.9h.6v4h2v-5.5h-2.1Z"/>
      <path class="st18" d="M59.6,14.8c0,.5-.4.9-.9.9s-.9-.4-.9-.9h-1.8v2h-3.8v-2h-1v3h5.6v1h3.4v-4s-.6,0-.6,0ZM58.7,18.2c-.5,0-.9-.4-.9-.9s.4-.9.9-.9.9.4.9.9-.4.9-.9.9Z"/>
      <path class="st18" d="M45,16.6h2.3v-.5h-2.3v-1.3h-.8c0,.5-.4.9-.9.9s-.9-.4-.9-.9h-.8v4h3.4s0-2.2,0-2.2ZM43.3,18.2c-.5,0-.9-.4-.9-.9s.4-.9.9-.9.9.4.9.9-.4.9-.9.9Z"/>
      <polygon class="st5" points="55.6 17.8 55.6 19.6 56.8 19.6 56.8 18.8 56.8 17.8 55.6 17.8"/>
      <path class="st47" d="M43.3,16.4c-.5,0-.9.4-.9.9s.4.9.9.9.9-.4.9-.9-.4-.9-.9-.9Z"/>
      <path class="st47" d="M43.3,15.7c.5,0,.9-.4.9-.9h.8v1.3h2.6v-1.3h.9v-1.6h-6.9v1.6h.8c0,.5.4.9.9.9Z"/>
      <path class="st47" d="M58.7,16.3c-.5,0-.9.4-.9.9s.4.9.9.9.9-.4.9-.9-.4-.9-.9-.9Z"/>
      <path class="st40" d="M51.2,7.6c1.4,0,2.5-1.1,2.5-2.5s-1.1-2.5-2.5-2.5-2.5,1.1-2.5,2.5,1.1,2.5,2.5,2.5ZM51.6,5.4c.2,0,.4.2.4.4s-.2.4-.4.4-.4-.2-.4-.4.2-.4.4-.4ZM50.3,3.3c.5,0,.9.4.9.9s-.4.9-.9.9-.9-.4-.9-.9.4-.9.9-.9Z"/>
      <path class="st32" d="M50.3,5.2c.5,0,.9-.4.9-.9s-.4-.9-.9-.9-.9.4-.9.9.4.9.9.9Z"/>
      <path class="st32" d="M51.6,6.2c.2,0,.4-.2.4-.4s-.2-.4-.4-.4-.4.2-.4.4.2.4.4.4Z"/>
      <polygon class="st48" points="51.3 13.2 51.3 13.2 48.5 13.2 48.5 13.3 48.5 14.8 51.3 14.8 51.3 13.2"/>
      <rect class="st48" x="48.5" y="28.4" width="2.8" height="1.6"/>
      <polygon class="st48" points="49 33.3 48.5 33.3 45.7 33.3 45.7 34.9 48.5 34.9 49 34.9 49 33.3"/>
      <rect class="st31" x="52.3" y="33.3" width="1.8" height="1.6"/>
      <rect class="st48" x="48.5" y="18.8" width="2.8" height=".7"/>
      <path class="st18" d="M55.6,19.6v.7h-.8v1.5h.8v1.4h1.7v-.2h4.5v.2h.8v-3.6h-.8v1h-4.5v-1h-1.7ZM57.4,22h0v-.6h4.5v.4h0v.6h-4.5v-.4Z"/>
      <polygon class="st5" points="57.4 20.2 57.4 20.7 61.9 20.7 61.9 20.2 61.9 20.1 61.9 19.6 61.9 19.6 57.4 19.6 57.4 19.6 57.4 20.1 57.4 20.2"/>
      <polygon class="st5" points="61.9 23 57.4 23 57.4 23.3 55.6 23.3 55.6 21.9 55.6 21.9 54.8 21.9 54.8 21.9 54.8 23.4 55.6 23.4 55.6 24 57.4 24 61.9 24 62.7 24 62.7 23.3 61.9 23.3 61.9 23"/>
      <polygon class="st5" points="61.9 22 61.9 21.8 61.9 21.4 57.4 21.4 57.4 21.8 57.4 22 57.4 22.4 61.9 22.4 61.9 22"/>
      <path class="st12" d="M47.3,22.8v-5.2h-.9v5.1s0,.5.4.9,1,.6,1.8.6v-.9c-1,0-1.3-.4-1.3-.6h0Z"/>
      <path class="st12" d="M54.1,44.4c.8,0,1.3-.2,1.7-.6.4-.4.4-1,.4-1v-14.4h-.9v14.4c0,0,0,.7-1.2.7v.9h0Z"/>
      <rect class="st31" x="51.3" y="18.8" width="2.8" height=".7"/>
      <rect class="st31" x="59.2" y="8.9" width="4.4" height="1.1"/>
      <rect class="st31" x="51.3" y="28.4" width="2.8" height="1.6"/>
      <rect class="st48" x="48.5" y="42.8" width="2.8" height="1.6"/>
      <rect class="st31" x="51.3" y="42.8" width="2.8" height="1.6"/>
      <path class="st20" d="M40,82.8h57.6v-.2l3.1-21.5v-.5c0-1.5-1-2.7-2.4-3.1h0c0,1-.8,1.8-1.8,1.8s-1.8-.8-1.8-1.8h1.2v-4c-2.2,0-3.9,1.7-4,3.9h-16.9v.8c0,1.9-1.6,3.5-3.5,3.5s-2.3-.6-2.9-1.6h-22.2c-.6.9-1.7,1.6-2.9,1.6-1.9,0-3.5-1.6-3.5-3.5s0-.5,0-.8h-13.4c0,1-.8,1.8-1.8,1.8s-.4,0-.6,0c-.2.4-.4.9-.4,1.5s0,.3,0,.5l3.1,21.5v.2h13.2ZM91.5,81h-5.2v-3.5h5.2v3.5ZM91.5,76.6h-5.2v-3.5h5.2v3.5ZM91.5,72.3h-5.2v-3.5h5.2v3.5ZM91.5,67.9h-5.2v-3.5h5.2v3.5ZM91.5,63.5h-5.2v-3.5h5.2v3.5ZM94.8,81h-2.3v-3.5h2.9l-.5,3.5h0ZM95.4,76.6h-3v-3.5h3.5l-.5,3.5ZM96,72.3h-3.6v-3.5h4.1l-.5,3.5ZM96.7,67.9h-4.2v-3.5h4.8l-.5,3.5h-.1ZM97.3,60c.2,0,.4.2.4.4v.6l-.4,2.5h-4.9v-3.5h4.9ZM32.4,60h5.2v3.5h-5.2v-3.5ZM32.4,64.4h5.2v3.5h-5.2v-3.5ZM32.4,68.8h5.2v3.5h-5.2v-3.5ZM32.4,73.1h5.2v3.5h-5.2v-3.5ZM32.4,77.5h5.2v3.5h-5.2v-3.5ZM26.2,61v-.6c0-.2.2-.4.4-.4h4.8v3.5h-4.9l-.4-2.5h0ZM26.7,64.4h4.8v3.5h-4.2l-.5-3.5h0ZM27.3,68.8h4.1v3.5h-3.6l-.5-3.5ZM28,73.1h3.5v3.5h-3l-.5-3.5ZM28.6,77.5h2.9v3.5h-2.3l-.5-3.5h-.1Z"/>
      <polygon class="st20" points="47.7 58.3 47.8 58.3 48.9 58.3 48.9 58.3 47.8 58.3 47.7 58.3 46.9 58.3 46.9 58.3 47.7 58.3"/>
      <path class="st54" d="M72.5,39.9v7.2h0v1.4h.6v2.8h1.4v-2.1l2.5,2.1h2.2l-3.5-2.8h.4v-1.4h.8v-1.9h.6v-10.2h-5.1v5h0ZM75.6,47h-1.8v-1.9h1.8v1.9Z"/>
      <path class="st33" d="M68,51.2l2.5-2.1v2.1h1.4v-2.8h.6v-1.4h0v-7.2h0v-5h-5.1v10.2h.9v1.9h.5v1.4h.4l-3.5,2.8h2.3ZM69.7,45.2h1.5v1.9h-1.5v-1.9Z"/>
      <polygon class="st20" points="67.4 51.2 65.8 51.2 63.8 56.6 65.4 56.6 67.4 51.2"/>
      <path class="st48" d="M67,56v.6h1.4c.3-.5.7-1,1.1-1.3l1.5-4.1h-3.7l-2,5.4h.4v-.7h1.3Z"/>
      <path class="st20" d="M71.3,54.8l1.3-3.5h-1.6l-1.5,4.1c.5-.3,1.1-.5,1.8-.6Z"/>
      <path class="st48" d="M77,51.2h-4.3l-1.3,3.5h.2c1.7,0,3.1,1.2,3.4,2.8h4.2v-6.3s-2.2,0-2.2,0Z"/>
      <rect class="st48" x="32.4" y="60" width="5.2" height="3.5"/>
      <rect class="st48" x="32.4" y="64.4" width="5.2" height="3.5"/>
      <rect class="st48" x="32.4" y="68.8" width="5.2" height="3.5"/>
      <rect class="st48" x="32.4" y="73.1" width="5.2" height="3.5"/>
      <rect class="st48" x="32.4" y="77.5" width="5.2" height="3.5"/>
      <path class="st48" d="M31.5,60h-4.8c-.2,0-.4.2-.4.4v.6l.4,2.5h4.9v-3.5h-.1Z"/>
      <polygon class="st48" points="31.5 64.4 26.7 64.4 27.2 67.9 31.5 67.9 31.5 64.4"/>
      <polygon class="st48" points="31.5 68.8 27.3 68.8 27.8 72.3 31.5 72.3 31.5 68.8"/>
      <polygon class="st48" points="31.5 73.1 28 73.1 28.5 76.6 31.5 76.6 31.5 73.1"/>
      <polygon class="st48" points="31.5 77.5 28.6 77.5 29.1 81 31.5 81 31.5 77.5"/>
      <rect class="st48" x="86.2" y="60" width="5.2" height="3.5"/>
      <rect class="st48" x="86.2" y="64.4" width="5.2" height="3.5"/>
      <rect class="st48" x="86.2" y="68.8" width="5.2" height="3.5"/>
      <rect class="st48" x="86.2" y="73.1" width="5.2" height="3.5"/>
      <rect class="st48" x="86.2" y="77.5" width="5.2" height="3.5"/>
      <path class="st48" d="M92.4,63.5h4.9l.4-2.5v-.6c0-.2-.2-.4-.4-.4h-4.8v3.5h0Z"/>
      <polygon class="st48" points="92.4 67.9 96.7 67.9 97.2 64.4 92.4 64.4 92.4 67.9"/>
      <polygon class="st48" points="92.4 72.3 96 72.3 96.5 68.8 92.4 68.8 92.4 72.3"/>
      <polygon class="st48" points="92.4 76.6 95.4 76.6 95.9 73.1 92.4 73.1 92.4 76.6"/>
      <polygon class="st48" points="92.4 81 94.8 81 95.3 77.5 92.4 77.5 92.4 81"/>
      <path class="st20" d="M20.2,57.5h4v-4c-2.2,0-4,1.8-4,4Z"/>
      <path class="st48" d="M26.8,57.5h5.4c0-2.2-1.8-4-4-4h-4v4h2.6Z"/>
      <path class="st4" d="M26.6,57.5h-3.6c0,.8.5,1.4,1.2,1.7.2,0,.4,0,.6,0,1,0,1.8-.8,1.8-1.8Z"/>
      <polygon class="st20" points="107.2 58.7 107.2 58.7 108.4 58.7 110 51.2 108.7 51.2 108.5 52.1 107.2 58.7"/>
      <path class="st48" d="M112.5,50h-3l-1.5,7.5h-4.2c0-2.2-1.8-3.9-3.9-3.9h-4v4h2.5c1.4.3,2.4,1.6,2.4,3.1s0,.3,0,.5l-3.1,21.5v.2H26.9s.5,1.9,2.4,1.9h78.9c1.9,0,2.4-1.9,2.4-1.9v-.2h0v-.4c0-.2,0-.3,0-.5v-.6c0-.3.2-.5.2-.8v-.9c.2-.3.2-.7.3-1l.2-1.1.2-1.2.2-1.2.2-1.3.2-1.3.2-1.3.2-1.3.2-1.3.2-1.2.2-1.2.2-1.1v-1c.2-.3.2-.6.3-.9v-.8c.2-.4.2-.8.3-1.2s0-.8,0-1.2v-10.2h-1.3l-.2.3Z"/>
      <path class="st4" d="M96.4,59.4c1,0,1.8-.8,1.8-1.8h-3.6c0,1,.8,1.8,1.8,1.8Z"/>
      <rect class="st37" x="56.6" y="56" width="1.4" height=".7"/>
      <circle class="st24" cx="71.5" cy="58.3" r="1.1"/>
      <g>
        <path class="st21" d="M85.4,66.6v-8.1h0v-.9c0-2,1.8-3.7,4.1-3.7h-3.2c-2.5,0-4.6,1.9-4.6,4.1v.5h0v5.5h-2v2.6h2.7v6.1h3v-6.1Z"/>
        <polygon class="st21" points="85.4 79.2 85.4 74.1 83.1 74.1 83.1 74.1 83.1 79.3 83.9 79.3 83.9 81 85.4 81 85.4 79.3 85.4 79.2"/>
        <polygon class="st13" points="85.4 74.1 85.4 79.2 85.4 79.3 85.4 81 86.9 81 86.9 79.3 87.7 79.3 87.7 74.1 87.7 74.1 85.4 74.1"/>
        <path class="st13" d="M91.5,64h-1.9v-10.1h0c-2.2,0-4.1,1.7-4.1,3.7v.9h0v14.2h3v-6.1h3.1v-2.6h0Z"/>
        <polygon class="st34" points="85.4 74.1 85.4 74 85.4 72.7 82.4 72.7 83.1 74.1 83.1 74.1 85.4 74.1"/>
        <polygon class="st25" points="85.4 74 85.4 74.1 87.7 74.1 87.7 74.1 88.4 72.7 85.4 72.7 85.4 74"/>
      </g>
      <rect class="st2" x="63.2" y="78.1" width="16.9" height="2.6" rx=".2" ry=".2"/>
      <polygon class="st30" points="100.6 61.2 100.5 62 113.6 62 113.7 61.2 100.6 61.2"/>
      <polygon class="st30" points="98.7 75.2 98.6 75.9 111.6 75.9 111.7 75.2 98.7 75.2"/>
      <rect class="st26" x="52.4" y="75.2" width="5.9" height=".6"/>
      <rect class="st11" x="56.9" y="55.7" width=".7" height="15.3" transform="translate(-25.4 84.5) rotate(-62.2)"/>
      <rect class="st43" x="58.3" y="75.2" width="1.6" height=".6"/>
      <g>
        <path class="st28" d="M50.1,78c-1.4,0-2.5-1.1-2.5-2.5s1.1-2.5,2.5-2.5,2.5,1.1,2.5,2.5-1.1,2.5-2.5,2.5ZM50.1,73.6c-1,0-1.9.8-1.9,1.9s.8,1.9,1.9,1.9,1.9-.8,1.9-1.9-.8-1.9-1.9-1.9Z"/>
        <rect class="st28" x="49.8" y="77.6" width=".6" height="5.8"/>
        <rect class="st28" x="49.8" y="60.3" width=".6" height="13.1"/>
        <circle class="st41" cx="52.7" cy="78.4" r=".7"/>
        <circle class="st41" cx="52.8" cy="73" r=".7"/>
        <circle class="st41" cx="47.4" cy="73" r=".7"/>
        <circle class="st41" cx="47.4" cy="78.4" r=".7"/>
      </g>
      <g>
        <g>
          <polygon class="st53" points="57.1 63.6 55.8 63 49 59.4 48.3 60.8 48.3 60.8 48.3 60.8 47.4 62.5 62.3 70.4 63.1 68.8 63.9 67.2 63.6 67.1 62.2 66.3 60.3 65.3 57.4 63.8 57.1 63.6"/>
          <path class="st35" d="M47.3,60.3h0l-.7-.4h0l-1-.5h-.2c-.6,1-1.9,1.4-3,.8s-1.5-1.9-.9-3l-1.2-.6c-.9,1.7-.2,3.9,1.5,4.8,1.1.6,2.3.5,3.3,0l1.2.6h0l1,.6.9-1.7-1-.5h.1Z"/>
          <path class="st37" d="M40.3,56.6l1.2.6c.6-1.1,1.9-1.5,3-.9s1.5,1.9.9,3h.2l1,.6.7.4h0l1,.6h0l.8-1.4.3-.6-1.1-.6h0l-.3.5h0l-1-.6c0-.8-.3-1.6-.9-2.2s-.6-.6-1-.8c-.8-.4-1.6-.5-2.4-.3-.7.2-1.4.6-1.9,1.2-.2.2-.3.4-.4.6h0Z"/>
          <path class="st36" d="M42.4,60.2c1.1.6,2.4.2,3-.9s.2-2.4-.9-3-2.4-.2-3,.9-.2,2.4.9,3ZM43.9,57.3c.5.3.8,1,.5,1.5s-1,.8-1.5.5-.8-1-.5-1.5,1-.8,1.5-.5Z"/>
          <circle class="st24" cx="43.4" cy="58.3" r="1.1"/>
          <path class="st35" d="M67.2,73.3c-1.1-.6-1.5-1.9-.9-3l-1.2-.6h0c0,0-.9-.4-.9-.4h0l-1-.6-.8,1.6,1,.5h0l1.4.8c0,1.1.8,2.2,1.9,2.7,1.7.9,3.9.2,4.8-1.5l-1.2-.6c-.6,1.1-1.9,1.5-3,.9v.2Z"/>
          <path class="st37" d="M69.9,68.2h0c-.6-.3-1.2-.4-1.9-.3-.6,0-1.1.3-1.6.6l-1.3-.7.3-.6-1.1-.6-.3.6-.8,1.6,1,.5h0l.9.5h0c0,0,1.2.5,1.2.5.6-1.1,1.9-1.5,3-.9s1.5,1.9.9,3l1.2.6c0-.2.2-.5.3-.7.4-1.6-.3-3.3-1.8-4.1h0Z"/>
          <path class="st36" d="M67.2,73.3c1.1.6,2.4.2,3-.9s.2-2.4-.9-3-2.4-.2-3,.9-.2,2.4.9,3ZM68.8,70.4c.5.3.8,1,.5,1.5s-1,.8-1.5.5-.8-1-.5-1.5,1-.8,1.5-.5Z"/>
        </g>
        <circle class="st24" cx="68.3" cy="71.3" r="1.1"/>
      </g>
      <path class="st1" d="M48.9,56.3h24.9s1.1.2,1.1-1.2v-8s0-.9-1.1-.9"/>
      <g>
        <polygon class="st53" points="58.1 56.6 56.6 56.6 48.9 56.6 48.9 58.2 48.9 58.2 48.9 58.3 48.9 60.2 65.8 60.2 65.8 58.4 65.8 56.6 65.4 56.6 63.8 56.6 61.6 56.6 58.4 56.6 58.1 56.6"/>
        <path class="st35" d="M47.7,58.3h-2.1c0,1.2-1,2.2-2.2,2.2s-2.2-1-2.2-2.2h-1.3c0,2,1.6,3.5,3.5,3.5s2.3-.6,2.9-1.6h2.6v-2h-1.2Z"/>
        <path class="st37" d="M39.8,58.2h1.3c0-1.2,1-2.2,2.2-2.2s2.2,1,2.2,2.2h3.3v-2.3h-1.2v.6h-1.2c-.4-.7-1-1.3-1.8-1.6-.4-.2-.8-.2-1.3-.2-.9,0-1.7.3-2.3.8s-1,1.2-1.2,1.9v.8Z"/>
        <path class="st36" d="M43.4,60.5c1.2,0,2.2-1,2.2-2.2s-1-2.2-2.2-2.2-2.2,1-2.2,2.2,1,2.2,2.2,2.2ZM43.4,57.1c.6,0,1.1.5,1.1,1.1s-.5,1.1-1.1,1.1-1.1-.5-1.1-1.1.5-1.1,1.1-1.1Z"/>
        <path class="st24" d="M43.4,59.4c.6,0,1.1-.5,1.1-1.1s-.5-1.1-1.1-1.1-1.1.5-1.1,1.1.5,1.1,1.1,1.1Z"/>
        <path class="st35" d="M71.5,60.5c-1.2,0-2.2-1-2.2-2.2h-1.3v.2h-2.2v1.8h2.8c.6.9,1.7,1.6,2.9,1.6,2,0,3.5-1.6,3.5-3.5h-1.3c0,1.2-1,2.2-2.2,2.2h0Z"/>
        <path class="st37" d="M71.5,54.7h-.2c-.7,0-1.3.2-1.8.6-.5.3-.9.8-1.1,1.3h-1.4v-.6h-1.2v2.4h2.2v-.2h1.3c0-1.2,1-2.2,2.2-2.2s2.2,1,2.2,2.2h1.3v-.8c-.3-1.6-1.8-2.8-3.5-2.8h0Z"/>
        <path class="st36" d="M71.5,60.5c1.2,0,2.2-1,2.2-2.2s-1-2.2-2.2-2.2-2.2,1-2.2,2.2,1,2.2,2.2,2.2ZM71.5,57.1c.6,0,1.1.5,1.1,1.1s-.5,1.1-1.1,1.1-1.1-.5-1.1-1.1.5-1.1,1.1-1.1Z"/>
      </g>
      <rect class="st37" x="56.7" y="55.9" width="1.2" height=".7"/>
      <path class="st12" d="M106.3,45.9c0-.2-.4-.3-.9-.3h-1.8c-.5,0-.7.2-.9.3-.3.3-.3.8-.3.8v1.5h.7v-1.8s.2,0,.4,0h1.8c.2,0,.3,0,.4,0v1.9h.7v-1.5s0-.5-.3-.8h.2Z"/>
      <rect class="st45" x="102.5" y="48.2" width=".7" height=".8"/>
      <rect class="st45" x="105.9" y="48.2" width=".7" height=".8"/>
      <path class="st38" d="M31.6,104.8v-11.9h-5.6v11.9c0,.7-.6,1.3-1.3,1.3h5.6c.7,0,1.3-.6,1.3-1.3Z"/>
      <path class="st38" d="M8.7,92.9H0v11.9c0,.7.6,1.3,1.3,1.3h11.9c.7,0,1.3-.6,1.3-1.3v-11.9h-5.8Z"/>
      <g>
        <path class="st12" d="M20,76.3c-.6-.6-1.5-.6-1.5-.6h-7v.8h7s.6,0,1,.3c.2.2.3.5.3.9v17.8c0,.4-.1.7-.3.9-.4.4-.9.3-1,.3h-4.1v.8h4.1c.2,0,.9,0,1.5-.6.4-.4.6-.9.6-1.5v-17.8c0-.6-.2-1.1-.6-1.5v.2Z"/>
        <rect class="st15" x="10.7" y="75.8" width=".8" height=".8"/>
      </g>
      <polygon class="st14" points="107.5 74.1 109.1 63 102.7 63 101.2 74.1 107.5 74.1"/>
      <polygon class="st22" points="115.3 74.7 116.8 73.1 110.1 67 103.3 67 103.3 69.2 109.2 69.2 115.3 74.7"/>
      <polygon class="st48" points="116.2 72.6 117.6 71 110.9 64.9 104.1 64.9 104.1 67.1 110.1 67.1 116.2 72.6"/>
      <polygon class="st28" points="113.3 72.9 117.7 72.9 120.2 72.9 120.2 75.2 113.3 75.2 113.3 72.9"/>
      <polygon class="st4" points="121.6 72.9 127 72.9 127 75.2 120.2 75.2 120.2 72.9 121.6 72.9"/>
      <polygon class="st29" points="114.8 72.9 114.8 71.1 116.4 71.1 116.4 66.7 120.2 66.7 123.2 66.7 123.2 71.1 124.5 71.1 124.5 72.9 120.2 72.9 114.8 72.9"/>
      <rect class="st44" x="116.4" y="63.7" width="3.7" height="3"/>
      <polygon class="st4" points="127 75.2 124 77.5 120.2 77.5 116.3 77.5 113.3 75.2 120.2 75.2 127 75.2"/>
      <path class="st50" d="M116.5,77.5h7.6v2h-8.7v-.8c0-.6.5-1.2,1.2-1.2h0Z"/>
      <rect class="st39" x="120.2" y="66.7" width="3" height="6.2"/>
      <rect class="st39" x="123.2" y="71.1" width="1.3" height="1.8"/>
      <rect class="st28" x="120.2" y="63.7" width="3" height="3"/>
      <path class="st50" d="M121.7,64.3c.5,0,.9.4.9.9s-.4.9-.9.9-.9-.4-.9-.9.4-.9.9-.9Z"/>
      <path class="st22" d="M105.6,85.7s0,0,0,.2l.3.4v.2c0,0,1.2,1.8,1.2,1.8h0s0,0,0,.2h0c0,0,.5.9.5.9.7,1.2,1.4,2.3,2.1,3.5l.6,1.1h0l.8,1.3h0c0,0,.5,1,.5,1h4.5v2.3h-5.8l-.6-1.1c-.7-1.2-1.3-2.3-2-3.5l-.3-.6-1.3-2.3s0,0,0-.2l-.3-.4s0,0,0-.2h0l-.4-.7v-.2c0,0-.9-1.4-.9-1.4,0,0,0,0,0-.2l-.3-.4c-.2-.3-.4-.6-.5-1,0-.3-.2-.6-.2-.9s0-.6.2-.9c.2-.4.4-.7.5-1l.3-.4v-.2c0,0,1.8-2.9,1.8-2.9.7-1.2,1.4-2.3,2.1-3.5l1.1-1.9c.2-.3.4-.7.8-1.1s1-.8,1.6-1,1.2-.2,1.7-.2h6.6v2.3h-6.8l.9.7h0l-1.1,1.7h0c0,0-.3.5-.3.5h0l-.3.4-1.5,2.5c-.7,1.2-1.4,2.3-2.1,3.5l-.6,1.1h-2.6v.6Z"/>
      <path class="st19" d="M112.2,92.3c.4.7.8,1.3,1.2,2h0c0,0,2.8,0,2.8,0v1.9h-4.4l-.5-.9h0c-.3-.6-.5-1-.8-1.5h0l-.6-1.1c-.7-1.2-1.4-2.3-2.1-3.5l-.5-.8h0q0-.2,0-.3h0l-1.1-1.8s0,0,0-.2l-.3-.4s0,0,0-.2h2.7l1.5,2.5h0l.7,1.2.7,1.2c.3.5.6,1,.9,1.5v.3Z"/>
      <g>
        <path class="st12" d="M110.9,74.9c.6-.6,1.5-.6,1.5-.6h7v.8h-7s-.6,0-1,.3c-.2.2-.3.5-.3.9v17.8c0,.4,0,.7.3.9.4.4.9.3,1,.3h4.1v.8h-4.1c-.2,0-.9,0-1.5-.6s-.6-.9-.6-1.5v-17.8c0-.6.2-1.1.6-1.5v.2Z"/>
        <rect class="st15" x="119.3" y="74.3" width=".8" height=".8"/>
      </g>
      <polygon class="st22" points="103.3 69.2 101.9 69.2 102.2 67 103.3 67 103.3 69.2"/>
      <polygon class="st48" points="104.1 67.1 102 67.1 102.3 64.9 104.1 64.9 104.1 67.1"/>
      <rect class="st6" x="119.5" y="90.2" width="14.4" height="15.9" rx=".2" ry=".2"/>
      <rect class="st38" x="116.7" y="90.2" width="14.4" height="15.9" rx=".2" ry=".2"/>
      <path class="st38" d="M129.9,90.2h-11.9c-.7,0-1.3.6-1.3,1.3v1.5h14.4v-1.5c0-.7-.6-1.3-1.3-1.3h.1Z"/>
      <rect class="st6" x="111.1" y="90.2" width="14.4" height="15.9" rx=".2" ry=".2"/>
      <rect class="st38" x="108.3" y="90.2" width="14.4" height="15.9" rx=".2" ry=".2"/>
      <path class="st38" d="M121.4,90.2h-11.9c-.7,0-1.3.6-1.3,1.3v1.5h14.4v-1.5c0-.7-.6-1.3-1.3-1.3h.1Z"/>
      <rect class="st6" x="102.4" y="90.2" width="14.4" height="15.9" rx=".2" ry=".2"/>
      <path class="st38" d="M99.5,104.8c0,.7.6,1.3,1.3,1.3h11.9c.7,0,1.3-.6,1.3-1.3v-11.9h-14.4v11.9h-.1Z"/>
      <path class="st38" d="M112.7,90.2h-11.9c-.7,0-1.3.6-1.3,1.3v1.5h14.4v-1.5c0-.7-.6-1.3-1.3-1.3h.1Z"/>
      <path class="st49" d="M113.9,92.5v2.5c.7,0,1.2-.6,1.2-1.2s-.6-1.2-1.2-1.2h0Z"/>
      <path class="st49" d="M113.9,96.9v2.5c.7,0,1.2-.6,1.2-1.2s-.6-1.2-1.2-1.2h0Z"/>
      <path class="st49" d="M113.9,101.3v2.5c.7,0,1.2-.6,1.2-1.2s-.6-1.2-1.2-1.2h0Z"/>
      <path class="st49" d="M122.7,92.5v2.5c.7,0,1.2-.6,1.2-1.2s-.6-1.2-1.2-1.2h0Z"/>
      <path class="st49" d="M122.7,96.9v2.5c.7,0,1.2-.6,1.2-1.2s-.6-1.2-1.2-1.2h0Z"/>
      <path class="st49" d="M122.7,101.3v2.5c.7,0,1.2-.6,1.2-1.2s-.6-1.2-1.2-1.2h0Z"/>
      <path class="st49" d="M131.1,92.5v2.5c.7,0,1.2-.6,1.2-1.2s-.6-1.2-1.2-1.2h0Z"/>
      <path class="st49" d="M131.1,96.9v2.5c.7,0,1.2-.6,1.2-1.2s-.6-1.2-1.2-1.2h0Z"/>
      <path class="st49" d="M131.1,101.3v2.5c.7,0,1.2-.6,1.2-1.2s-.6-1.2-1.2-1.2h0Z"/>
    </g>
  </g>
</svg>