<?xml version="1.0" encoding="UTF-8"?>
<svg id="_레이어_1" xmlns="http://www.w3.org/2000/svg" version="1.1" viewBox="0 0 1295.2 1241.8">
  <!-- Generator: Adobe Illustrator 29.0.1, SVG Export Plug-In . SVG Version: 2.1.0 Build 192)  -->
  <defs>
    <style>
      .st0 {
        fill: #fff;
      }
    </style>
  </defs>
  <path class="st0" d="M.4,516l63.3-191.4h68.7l63.3,191.4h-54l-11.3-37.4h-64.2l-11.3,37.4H.4ZM118.6,440.9l-19.7-64.7h-1.6l-19.7,64.7h41.1-.2Z"/>
  <path class="st0" d="M255,372.7h47v27h1.6c5.9-17.9,21.1-28.8,41.1-29.2,20,.2,35.9,11.6,38.8,29.2h1.6c5-17.5,22.2-28.8,43.5-29.2,27.2.2,46.1,19.1,46,48.6v96.8h-49.7v-84.2c0-13.1-7-20.6-17.9-20.6s-18.1,7.9-18.2,20.6v84.2h-47.6v-84.2c0-12.7-7.3-20.6-18.2-20.6s-17.9,7.9-17.9,21.1v83.7h-49.7v-143.3h.2-.5Z"/>
  <path class="st0" d="M542.3,430.7c10.6-.5,27.5-.9,33.6-1.1v-11.3c-.2-8.6-6.8-12.7-16.3-13.1-10.6.2-17.2,4.6-18.2,13.6h-46.5c2.1-25.9,23.2-47.9,65.5-48.1,39.7.2,65.5,20,65.5,47.6v97.8h-46.5v-20h-1.1c-8.6,15.7-22.7,22.4-41.5,22.2-27.5.2-46.7-13.2-47-41.5.2-31.7,23.6-44,52.9-46.1h-.4ZM552.6,486.1c12.2.2,23.6-7.9,23.2-21.1v-7.9c-5,.2-18.1.9-24.9,1.3-8.6,1.1-14.3,7-14.5,15.2.2,8.2,6.8,12.7,16.3,12.5h-.2Z"/>
  <path class="st0" d="M700.5,516h-49.7v-143.3h47v27h1.6c6.4-18.1,23.1-28.8,43.8-29.2,30.6.2,50.3,22.4,50.3,54v91.2h-49.7v-81c-.2-14.5-8.2-23.4-21.6-23.6-13.1.2-21.6,9.1-21.6,23.6v81.2h0Z"/>
  <path class="st0" d="M0,598.4h50.3l17.2,88.5h1.1l19-88.5h48.6l19.5,87.6h1.1l16.6-87.6h49.7l-36.1,143.3h-53.5l-21.1-78.9h-1.6l-20.6,78.9h-54L.2,598.4H0Z"/>
  <path class="st0" d="M290.4,741.7h-49.7v-191.4h48.1v75.1h1.6c6.4-18.2,21.6-28.8,43.5-29.2,29.9.2,49.7,22.4,49.7,54v91.2h-49.7v-81c0-14.5-7.9-23.4-21.6-23.6-13.1.2-21.6,9.1-21.6,23.6v81.2h-.2Z"/>
  <path class="st0" d="M403.8,670.3c0-44,27.5-73.7,73.5-74,46.5.2,74,29.9,74,74s-27.5,74-74,74-73.5-29.9-73.5-74h0ZM477.9,707.2c13.9.2,22.4-14.3,22.7-37.4-.2-22.7-8.6-37-22.7-36.8-14.5-.2-23.2,13.9-23.2,36.8s8.6,37.6,23.2,37.4Z"/>
  <path class="st0" d="M92.6,829.7c-26.5-.2-41.5,20-41.5,54s15.4,54.2,41.1,54.5c19.5-.2,32-10.6,34.7-27.5l51,.5c-2.7,32.7-31.3,70.8-86.4,70.8S-.2,947.2,0,883.7c-.2-63.3,40.2-98.2,91.2-97.8,47.9-.2,82.4,26.5,86.4,73.5h-51c-1.8-18.1-13.8-29.9-34-29.7h-.2.2Z"/>
  <path class="st0" d="M206,836.3h48.1v27h1.6c5-20,17.2-28.8,33.1-29.2,4.1.2,8.6.9,13.1,2.1v42.6c-5-1.6-13.6-2.7-19-2.7-15.4,0-27,11.3-27,27.5v75.7h-49.7v-143.3h0l-.2.2Z"/>
  <path class="st0" d="M313.7,908c0-44.4,28.1-73.7,72.4-74,42.4.2,70.6,27.5,70.8,73.5v11.8h-94.1v2.1c0,14.5,9.5,25.2,25.4,25.4,10.7-.2,19.5-4.8,22.7-13.1h45.4c-4.8,29.2-29.9,48.1-69.2,48.1s-73.5-27.9-73.5-74h0v.2ZM410.4,891.9c0-13.2-10-22.4-23.2-22.2-13.6-.2-24.1,9.1-24.3,22.2h47.6Z"/>
  <path class="st0" d="M524.4,893.9c10.6-.5,27.5-.9,33.6-1.1v-11.3c-.2-8.6-6.8-12.7-16.3-13.1-10.6.2-17.2,4.6-18.2,13.6h-46.5c2.1-25.9,23.2-47.9,65.5-48.1,39.7.2,65.5,20,65.5,47.6v97.8h-46.5v-20h-1.1c-8.6,15.7-22.7,22.4-41.5,22.2-27.5.2-46.7-13.2-47-41.5.2-31.7,23.6-44,52.9-46.1h-.4ZM534.6,949.9c12.2.2,23.6-7.9,23.2-21.1v-7.9c-5,.2-18.1.9-24.9,1.3-8.6,1.1-14.3,7-14.5,15.2.2,8.2,6.8,12.7,16.3,12.5h-.2Z"/>
  <path class="st0" d="M722.2,876.9h-24.9v61c.2,6.8,3.6,9.5,10.4,9.8,3.8.2,11.3-.2,16.6-.5v37.4c-4.6.5-12.5,1.6-23.6,1.6-34.7,0-53.3-13.2-52.9-43.5v-66h-18.2v-36.1h18.2v-34.7h49.7v34.7h24.9v36.5h0l-.2-.2Z"/>
  <path class="st0" d="M743.8,840.6h49.7v143.3h-49.7v-143.3h0ZM768.7,779.1c13.9,0,24.9,10.4,24.9,23.2s-11.3,23.1-24.9,22.7c-13.9.2-24.9-10.4-24.9-22.7s11.3-23.2,24.9-23.2Z"/>
  <path class="st0" d="M915.1,983.8h-57.9l-48.6-143.3h52.4l24.3,95.7h1.6l23.6-95.7h52.4l-48.1,143.3h.4Z"/>
  <path class="st0" d="M960.7,912.5c0-44.4,28.1-73.7,72.4-74,42.4.2,70.6,27.5,70.8,73.5v11.8h-94.1v2.1c0,14.5,9.5,25.2,25.4,25.4,10.7-.2,19.5-4.8,22.7-13.1h45.4c-4.8,29.2-29.9,48.1-69.2,48.1s-73.5-27.9-73.5-74h0v.2ZM1057.7,896.4c0-13.2-10-22.4-23.2-22.2-13.6-.2-24.1,9.1-24.3,22.2h47.6Z"/>
  <path class="st0" d="M19.3,1233.3v-191.4h71.9c59,.2,95.7,35.9,95.7,95.7s-36.8,95.7-95.1,95.7H19.3ZM90.1,1190.6c29.3,0,46.1-12.7,46-52.9.2-40.2-16.5-52.8-47-52.9h-19.5v105.9h20.6,0Z"/>
  <path class="st0" d="M209.1,1161.8c0-44.4,28.1-73.7,72.4-74,42.4.2,70.6,27.5,70.8,73.5v11.8h-94.1v2.1c0,14.5,9.5,25.2,25.4,25.4,10.7-.2,19.5-4.8,22.7-13.1h45.4c-4.8,29.2-29.9,48.1-69.2,48.1s-73.5-27.9-73.5-74h-.2l.2.2ZM305.8,1145.5c0-13.2-10-22.4-23.2-22.2-13.6-.2-24.1,9.1-24.3,22.2h47.6Z"/>
  <path class="st0" d="M380.8,1039.1h49.7v73.1h.5c5.9-14.3,19-26.6,40.6-27,28.8.2,56.5,22.2,56.3,73.5.2,49.7-25.8,73.7-56.3,74-20.9-.2-34.3-11.3-40.6-25.4h-1.1v23.2h-49.2v-191.4h0v-.2ZM453.2,1193.6c14.8.2,23.6-13.2,23.2-35.1.2-21.6-8.6-34.9-23.2-34.7-14.8-.2-23.6,13.1-23.6,34.7s8.9,35.6,23.6,35.1Z"/>
  <path class="st0" d="M600.2,1231.5h-49.7v-191.4h49.7v191.4Z"/>
  <path class="st0" d="M627.2,1088.5h49.7v143.3h-49.7v-143.3h0ZM652.1,1026.6c13.8,0,24.9,10.4,24.9,23.2s-11.3,23.1-24.9,22.7c-13.8.2-24.9-10.4-24.9-22.7s11.3-23.2,24.9-23.2h0Z"/>
  <path class="st0" d="M776.4,1124.8c-9.5.2-17,3.8-16.6,10.4-.2,4.1,2.9,8.6,14.5,10.7l28.4,4.8c28.8,5.4,42.9,17.9,43.5,38.8-.2,30.2-28.8,49.7-68.7,49.7s-68.1-19.1-70.8-48.6h49.7c1.4,9.5,9.8,14.5,21.6,14.5s17.2-3.6,17.2-9.8-5-9.1-16.6-11.3l-25.4-4.1c-28.4-5-43.5-19.7-43.5-42.2s25.2-46.1,65.5-46.5c40.8.2,65.6,18.2,66.9,48.1h-46.1c-.9-8.9-9.5-14.3-20-14.5h0c0-.2.4-.2.4-.2h0l.2.2Z"/>
  <path class="st0" d="M915.7,1240.1h-49.7v-191.4h48.1v75.1h1.6c6.3-18.2,21.6-28.8,43.5-29.2,29.9.2,49.7,22.4,49.7,54v91.2h-49.7v-81c0-14.5-7.9-23.4-21.6-23.6-13.1.2-21.6,9.1-21.6,23.6v81.2h-.2Z"/>
  <path class="st0" d="M1035.9,1166.3c0-44.4,28.1-73.7,72.4-74,42.4.2,70.6,27.5,70.8,73.5v11.8h-94.1v2.1c0,14.5,9.5,25.2,25.4,25.4,10.7-.2,19.5-4.8,22.7-13.1h45.4c-4.8,29.2-29.9,48.1-69.2,48.1s-73.5-27.9-73.5-74h0v.2ZM1132.6,1150.2c0-13.2-10-22.4-23.2-22.2-13.6-.2-24.1,9.1-24.3,22.2h47.6Z"/>
  <path class="st0" d="M1199.3,1095.1h48.1v27h1.6c5-20,17.2-28.8,33.1-29.2,4.1.2,8.6.9,13.1,2.1v42.6c-5-1.6-13.6-2.7-19-2.7-15.4,0-27,11.3-27,27.5v75.7h-49.7v-143.3h0l-.2.2Z"/>
  <path class="st0" d="M11.6,54.4l16.8-15.7c4.5-4.1,6.8-6.8,6.8-10.6s-3-6.8-7.5-6.8-7.3,2.9-7.3,7.3h-9.1c0-9.1,7-15.2,16.8-15,10,0,16.8,5.7,16.8,13.8s-2.5,9.8-12.5,18.6l-7,7v.4h20.2v8H11.6v-7h0Z"/>
  <path class="st0" d="M51.9,37.9c0-15.4,7.2-24.1,19-24.1s19,8.8,19,24.1-7.2,24.3-19,24.3-19-8.8-19-24.3ZM70.8,54c5.5,0,8.9-5.2,8.9-16.1s-3.6-16.1-8.9-16.1-8.9,5.4-8.9,16.1,3.6,16.1,8.9,16.1Z"/>
  <path class="st0" d="M96.6,54.4l16.8-15.7c4.5-4.1,6.8-6.8,6.8-10.6s-3-6.8-7.5-6.8-7.3,2.9-7.3,7.3h-9.3c0-9.1,7-15.2,16.8-15,10,0,16.8,5.7,16.8,13.8s-2.5,9.8-12.5,18.6l-7,7v.4h20.2v8h-33.8v-7h0Z"/>
  <path class="st0" d="M135.4,45.4l20-31.1h12.3v30.9h5.9v7.9h-5.9v8.4h-9.3v-8.4h-22.9v-7.7h-.2ZM158.6,45.3v-20.2h-.5l-12.7,19.9v.4s13.2,0,13.2,0Z"/>
  <path class="st0" d="M195.7,14.1h18.4c10.9,0,17,6.6,17,15.9s-6.3,15.7-17,15.7h-8.6v15.4h-9.7V14h0l-.2.2ZM212.3,38.3c5.9,0,8.8-3.4,8.6-8,0-4.6-2.7-7.9-8.6-7.9h-7v15.7h7v.2Z"/>
  <path class="st0" d="M258.4,62.3c-12.5,0-22-8.9-22-24.3s9.5-24.1,22-24.1,22,8.8,22,24.1-9.5,24.3-22,24.3ZM258.4,53.5c7.3,0,12.2-5.5,12.2-15.7s-4.8-15.6-12.2-15.6-12,5.4-12,15.6,4.6,15.6,12,15.7Z"/>
  <path class="st0" d="M287.8,14.1h18.4c10.9,0,17,6.1,17,15.6s-3,11.1-8.4,13.4l10,18.4h-10.9l-8.9-16.8h-7.5v16.8h-9.7V14.1h0ZM304.4,36.9c5.9,0,8.8-2.5,8.6-7,0-4.8-2.7-7.5-8.6-7.3h-7v14.5h7v-.2Z"/>
  <path class="st0" d="M328,14.1h38.6v8h-14.5v39.2h-9.7V22.4h-14.5v-8h0v-.2Z"/>
  <path class="st0" d="M372.7,14.1h31.1v8h-21.5v11.4h19.1v8h-19.1v19.7h-9.7V14.1Z"/>
  <path class="st0" d="M431.5,62.3c-12.5,0-22-8.9-22-24.3s9.5-24.1,22-24.1,22,8.8,22,24.1-9.5,24.3-22,24.3ZM431.5,53.5c7.3,0,12.2-5.5,12.2-15.7s-4.8-15.6-12.2-15.6-12,5.4-12,15.6,4.6,15.6,12,15.7Z"/>
  <path class="st0" d="M460.7,14.1h9.7v39.2h20.4v8h-30V14.1h0Z"/>
  <path class="st0" d="M506.8,61.5h-9.7V14.1h9.7v47.4Z"/>
  <path class="st0" d="M536,62.3c-12.5,0-22-8.9-22-24.3s9.5-24.1,22-24.1,22,8.8,22,24.1-9.5,24.3-22,24.3ZM536,53.5c7.3,0,12.2-5.5,12.2-15.7s-4.8-15.6-12.2-15.6-12,5.4-12,15.6,4.6,15.6,12,15.7Z"/>
  <path class="st0" d="M10.6,80h9.7v39.2h20.4v8H10.6v-47.4h0v.2Z"/>
  <path class="st0" d="M45.2,109.8c0-10.9,6.8-18.4,17.2-18.4s16.6,5.9,16.6,18.1v2.7h-24.1c0,5.4,3,8.8,8,8.8s5.5-1.4,6.6-3.6h9.1c-1.4,6.4-7.2,10.7-15.7,10.7s-17.5-7-17.7-18.1h0v-.2ZM70.1,106.1c0-4.3-3-7.5-7.3-7.5s-7.7,3.4-7.7,7.5c0,0,15,0,15,0Z"/>
  <path class="st0" d="M103.9,99.1h-6.6v17.3c0,2.7,1.4,3.6,3.4,3.6h3.9v7.7c-1.1,0-2.9.4-5,.4-7,0-11.8-3.2-11.8-10.2v-18.6h-5v-7.2h5v-8.6h9.7v8.6h6.6v7.2h0l-.2-.2Z"/>
  <path class="st0" d="M137.5,80l13.2,32h.5l13.1-32h12.2v47.4h-9.7v-30.9h-.4l-12.3,30.8h-6.6l-12.3-30.8h-.4v30.9h-9.5v-47.4h12.3-.2Z"/>
  <path class="st0" d="M182.6,109.8c0-10.9,6.8-18.4,17.2-18.4s16.6,5.9,16.6,18.1v2.7h-24.1c0,5.4,3,8.8,8,8.8s5.5-1.4,6.6-3.6h9.1c-1.4,6.4-7.2,10.7-15.7,10.7s-17.5-7-17.7-18.1h0v-.2ZM207.3,106.1c0-4.3-3-7.5-7.3-7.5s-7.7,3.4-7.7,7.5h15Z"/>
  <path class="st0" d="M247.9,127.2h-9.7v-47.4h9.7v47.4Z"/>
  <path class="st0" d="M265.2,127.2h-9.7v-35.4h9.1v6.1h.4c1.6-4.1,5.4-6.6,10.7-6.6s12.2,5,12.2,13.4v22.5h-9.7v-20.9c0-4.5-2.3-7-6.4-7s-6.8,2.7-6.8,7.3v20.6h.2Z"/>
  <path class="st0" d="M314.2,99.1h-6.6v17.3c0,2.7,1.4,3.6,3.4,3.6h3.9v7.7c-1.1,0-2.9.4-5,.4-7,0-11.8-3.2-11.8-10.2v-18.6h-5v-7.2h5v-8.6h9.7v8.6h6.6v7.2h0l-.2-.2Z"/>
  <path class="st0" d="M320.3,91.9h9.3v6.1h.4c1.3-4.5,4.6-6.6,8.6-6.6s2.1,0,3,.4v8.8c-.9-.4-2.7-.5-4.1-.5-4.3,0-7.5,3-7.7,7.3v20.2h-9.7v-35.4h0l.2-.2Z"/>
  <path class="st0" d="M343.7,109.6c0-10.9,6.8-18.2,17.5-18.2s17.3,7.5,17.3,18.2-6.6,18.2-17.3,18.2-17.5-7.3-17.5-18.2h0ZM361.1,120.4c5,0,7.5-4.6,7.5-10.9s-2.5-10.9-7.5-10.9-7.7,4.6-7.7,10.9,2.5,10.9,7.7,10.9Z"/>
  <path class="st0" d="M383.3,109.6c0-12.2,6.6-18.2,14.5-18.2s8.8,3.6,10,6.4h.4v-17.7h9.7v47.4h-9.5v-5.5h-.5c-1.4,2.9-4.3,6.3-10,6.1-8,0-14.5-6.4-14.5-18.1h0v-.4ZM400.6,120.2c4.6,0,7.5-4.3,7.5-10.7s-2.7-10.4-7.5-10.4-7.7,4.3-7.7,10.4,2.7,10.7,7.7,10.7Z"/>
  <path class="st0" d="M448,91.9h9.7v35.4h-9.1v-6.4h-.4c-1.6,4.1-5.4,7-10.7,6.8-7.2,0-12-5-12-13.2v-22.5h9.7v20.9c0,4.1,2.5,6.8,6.3,6.8s7-2.5,6.8-7.3v-20.4h-.2Z"/>
  <path class="st0" d="M463.9,109.6c0-10.9,6.6-18.2,17.3-18.2s15.4,5.4,15.7,13.6h-9.1c-.5-3.6-2.9-5.9-6.6-5.9s-7.7,3.9-7.7,10.6,3,10.9,7.7,10.9,5.9-2.1,6.6-5.9h9.1c-.4,8-6.4,13.6-15.7,13.6s-17.5-7.5-17.5-18.2h0l.2-.4Z"/>
  <path class="st0" d="M501.5,109.8c0-10.9,6.8-18.4,17.2-18.4s16.6,5.9,16.6,18.1v2.7h-24.1c0,5.4,3,8.8,8,8.8s5.5-1.4,6.6-3.6h9.1c-1.4,6.4-7.2,10.7-15.7,10.7s-17.5-7-17.7-18.1h0v-.2ZM526.3,106.1c0-4.3-3-7.5-7.3-7.5s-7.7,3.4-7.7,7.5h15Z"/>
  <path class="st0" d="M4.8,190.7l16.3-47.4h12.7l16.3,47.4h-10.6l-3.6-10.9h-17l-3.6,10.9H4.8ZM33.6,172.1l-5.9-18.1h-.4l-5.9,18.1h12.2Z"/>
  <path class="st0" d="M55.4,143.5h9.7v17.7h.4c1.4-2.9,4.1-6.4,10.2-6.4s14.3,6.1,14.3,18.2-6.3,18.2-14.3,18.1c-5.9,0-8.8-3.2-10.2-6.1h-.4v5.5h-9.5v-47.4h0l-.2.4ZM72.6,183.7c4.8,0,7.5-4.5,7.7-10.7,0-6.1-2.7-10.4-7.7-10.4s-7.5,4.1-7.7,10.4c0,6.4,2.9,10.7,7.7,10.7Z"/>
  <path class="st0" d="M94.6,173.1c0-10.9,6.8-18.2,17.5-18.2s17.3,7.5,17.3,18.2-6.6,18.2-17.3,18.2-17.5-7.3-17.5-18.2ZM112.1,183.9c5,0,7.5-4.6,7.5-10.9s-2.5-10.9-7.5-10.9-7.7,4.6-7.7,10.9,2.5,10.9,7.7,10.9Z"/>
  <path class="st0" d="M158.3,155.4h9.7v35.4h-9.1v-6.4h-.4c-1.6,4.1-5.4,7-10.7,6.8-7.2,0-12-5-12-13.2v-22.5h9.7v20.9c0,4.1,2.5,6.8,6.3,6.8s7-2.5,6.8-7.3v-20.4h-.2Z"/>
  <path class="st0" d="M194,162.6h-6.6v17.3c0,2.7,1.4,3.6,3.4,3.6h3.9v7.7c-1.1,0-2.9.4-5,.4-7,0-11.8-3.2-11.8-10.2v-18.6h-5v-7.2h5v-8.6h9.7v8.6h6.6v7.2h0l-.2-.2Z"/>
  <path class="st0" d="M227.8,143.5l13.2,32h.5l13.1-32h12.2v47.4h-9.7v-30.9h-.4l-12.3,30.8h-6.6l-12.3-30.8h-.4v30.9h-9.5v-47.4h12.3-.2Z"/>
  <path class="st0" d="M275.2,203.9v-7.5h3.9c2,0,3.6-.2,4.6-3.2l.5-1.6-12.7-36.3h10.2l7.5,25.9h.4l7.5-25.9h10.2l-13.8,39.3c-2,5.7-5.9,9.5-13.4,9.3h-5,0Z"/>
  <path class="st0" d="M345,151c-5,0-7.7,2.3-7.7,5.4s3.4,5,7.5,5.9l4.3,1.1c8,1.8,14.1,5.9,14.1,13.8s-6.8,14.1-18.2,14.1-18.8-5.4-19-15.4h9.5c.4,4.6,4.1,7,9.3,7s8.6-2.3,8.6-5.9-3-4.6-8-5.9l-5-1.3c-8-2-12.9-5.9-12.9-12.9s7.7-14.1,17.9-14.1,17.3,5.7,17.5,14.1h-9.5c-.4-3.8-3.2-5.9-8-5.9h-.4Z"/>
  <path class="st0" d="M367.9,173.3c0-10.9,6.8-18.4,17.2-18.4s16.6,5.9,16.6,18.1v2.7h-24.1c0,5.4,3,8.8,8,8.8s5.5-1.4,6.6-3.6h9.1c-1.4,6.4-7.2,10.7-15.7,10.7s-17.5-7-17.7-18.1h0v-.2ZM392.6,169.6c0-4.3-3-7.5-7.3-7.5s-7.7,3.4-7.7,7.5h15Z"/>
  <path class="st0" d="M417.2,190.7h-9.7v-47.4h9.7v47.4Z"/>
  <path class="st0" d="M443.9,162.6h-7v28.1h-9.7v-28.1h-5v-7.2h5v-2.7c0-7.5,4.5-11.4,11.6-11.4s3.9.2,5.7.5v7.3c-1.4,0-2.5-.2-3,0-3,0-4.8,1.1-4.8,4.1v2.1h7v7.2h.2Z"/>
</svg>