<?xml version="1.0" encoding="UTF-8"?>
<svg xmlns="http://www.w3.org/2000/svg" version="1.1" viewBox="0 0 318 175.7">
  <defs>
    <style>
      .cls-1 {
        fill: #c6c7c8;
      }

      .cls-2 {
        fill: #e30038;
      }

      .cls-3 {
        fill: #fff;
      }

      .cls-4 {
        fill: #f09400;
      }

      .cls-5 {
        fill: #e1007f;
      }

      .cls-6 {
        fill: #222;
      }
    </style>
  </defs>
  <!-- Generator: Adobe Illustrator 28.6.0, SVG Export Plug-In . SVG Version: 1.2.0 Build 709)  -->
  <g>
    <g id="_레이어_1" data-name="레이어_1">
      <rect class="cls-6" width="318" height="175.7" rx="4.2" ry="4.2"/>
      <g id="_레이어_1-2" data-name="_레이어_1">
        <g id="_레이어_1-2">
          <g id="_레이어_1-2-2" data-name="_레이어_1-2">
            <g id="_레이어_1-2-2">
              <g>
                <g>
                  <path class="cls-2" d="M229,77.9c2.1,14.3,10.2,20.8,12.6,22.3s.6,0,.6-.3c0-2.7-1.2-12.6-12.5-22.3-11.2-9.8-.6,0-.6.3h-.1Z"/>
                  <path class="cls-2" d="M230.9,76.6c8.9,11.7,19.3,13.9,22,14.2s.5-.3.4-.5c-1.3-2.3-7.2-10.7-22-14.3-.3,0-.6.3-.4.6Z"/>
                  <path class="cls-2" d="M231.9,74.5c13.7,6.4,23.8,3.7,26.5,2.9s.3-.5,0-.6c-2.3-1.5-11.6-6.2-26.5-2.9s-.4.5,0,.7h0Z"/>
                  <path class="cls-2" d="M231.8,72.3c15.3-.4,22.9-7.3,24.8-9.2s0-.6-.2-.6c-2.8-.2-13.3-.3-24.9,9.1-.2.2,0,.6.2.6h.1Z"/>
                  <path class="cls-2" d="M229.6,71.3c13.3-7.2,16.7-16.6,17.4-19.2s-.2-.5-.5-.4c-2.6,1-11.9,5.6-17.5,19.1-.1.3.2.6.5.4h.1,0Z"/>
                  <path class="cls-2" d="M227.6,70.2c8.3-12.1,6.6-22,6-24.6s-.4-.4-.6,0c-1.8,2.1-7.8,10.3-6,24.6s.5.4.6.2h0v-.2Z"/>
                  <path class="cls-2" d="M225.3,70.1c1.3-14.4-5-22.4-6.7-24.5s-.5,0-.6.2c-.5,2.6-1.9,12.6,6.7,24.5.2.3.6.2.6-.2Z"/>
                  <path class="cls-5" d="M223.1,70.9c-6-13.4-15.5-17.6-18.1-18.6s-.5,0-.5.4c.7,2.6,4.6,11.9,18.1,18.6,13.5,6.6.6,0,.5-.5h0Z"/>
                  <path class="cls-4" d="M221.7,72.6c-11.8-9.2-22.4-8.8-25.1-8.4s-.4.4-.2.6c2,1.9,9.9,8.5,25.1,8.5s.5-.4.2-.6h0Z"/>
                </g>
                <path class="cls-3" d="M155.9,90.6c0-2,.4-3.7,1.3-5.4s2.1-3.1,3.8-4.4c1.3-.9,2.6-1.6,4-2.1s2.9-.7,4.5-.7,3.6.4,5.4,1.1,3.3,1.9,4.7,3.3c2.1,2.3,3.2,5,3.2,7.9s-.2,2.9-.9,4.3c-.5,1.3-1.3,2.6-2.4,3.7-1.3,1.5-2.9,2.5-4.7,3.3-1.8.7-3.6,1.1-5.6,1.1s-3.7-.4-5.5-1.1-3.3-1.8-4.6-3.2c-1-1-1.8-2.3-2.3-3.6s-.7-2.8-.7-4.3h-.3ZM160.1,90.9c0,3.3,1,6.2,2.9,8.5.9,1,1.8,1.8,2.8,2.3s2.1.7,3.3.7,2.4-.2,3.3-.7c1-.5,1.9-1.2,2.8-2.3,1.9-2.3,2.9-5.2,2.9-8.5s-.2-3.6-.7-5.3-1.3-3.1-2.2-4.3c-.7-.9-1.7-1.7-2.6-2.1-1-.4-2.1-.6-3.4-.6s-2.4.2-3.3.6c-1,.4-1.8,1.1-2.7,2.1-1,1.1-1.8,2.6-2.2,4.3-.5,1.7-.7,3.4-.7,5.4h-.2Z"/>
                <path class="cls-3" d="M196.2,78.8h0s0,.2-.2.2c-.6,0-1.2,0-1.7.2s-.9.4-1.2.7c-.5.5-.7,1.1-1,2,0,.6-.1,1.3-.1,2.1v12.8c0,.9,0,1.8.1,2.3,0,.5.2,1,.5,1.3.3.5.7.8,1.3,1s1.1.3,2,.4.2,0,.2.2h0s0,.2-.2.2h-11.9c-.1,0-.2,0-.2-.2h0s0-.2.2-.2c.6,0,1.2,0,1.7-.3s.9-.4,1.2-.7.6-.8.7-1.3.2-1.5.2-2.6v-12.8c0-1.2,0-2.1-.2-2.6-.1-.5-.4-1-.7-1.5-.3-.3-.7-.5-1.2-.7s0,0,0,0c-.4,0-.9-.2-1.6-.2s-.2,0-.2-.2h0s0-.2.2-.2h12c.1,0,.2,0,.2.2h-.2.1Z"/>
                <path class="cls-3" d="M208.7,79.1c-.7,0-3.7,0-5.4.7-1,.4-1.8,1-2.4,1.9-.5.8-1,1.9-1.3,3.1s0,0-.2,0h0c-.1,0-.2,0-.2-.2l.3-5.8c0-.2.2-.3.3-.3h22.4c.2,0,.3,0,.3.3l.3,5.8s0,.2-.2.2h-.2c-.3-1.6-.9-2.7-1.6-3.5s-1.8-1.5-3.3-1.8c-1.1-.3-1.8-.4-4.3-.5s-.4.2-.4.4v17.4c0,1.1,0,2.1.2,2.6s.4,1,.7,1.5c.3.3.7.5,1.2.7s.9.2,1.6.2.2,0,.2.2h0s0,.2-.2.2h-11.9c-.1,0-.2,0-.2-.2h0s0-.2.2-.2c.6,0,1.2,0,1.7-.2s.9-.4,1.2-.7c.4-.4.6-.8.7-1.5.1-.5.2-1.5.2-2.6v-17.7h.2,0Z"/>
                <path class="cls-3" d="M101.7,78.6h0c0,.2.1.4.3.4.5,0,1,0,1.3.2.4,0,.7.4,1.2.7s0,0,0,0c.3.4.6.8.7,1.5.1.5.2,1.5.2,2.6v11.5c0,.3-.4.5-.6.2l-12.5-14.7c-1.9-2.2-3.9-2.4-4.6-2.5s0,0,0,0h-5.1c-.1,0-.2,0-.2.2h0s0,.2.2.2c.7,0,1.7,0,2.1.2s.7.4,1.2.7c.4.4.6.8.7,1.5.1.5.2,1.5.2,2.6v12.8c0,1.1,0,2.1-.2,2.6-.1.5-.4,1-.7,1.5s0,0,0,0c-.3.3-.6.5-1.2.7s-1.5.2-2.1.2-.2,0-.2.2h0s0,.2.2.2h8.7c.1,0,.2,0,.2-.2h0s0-.2-.2-.2c-.5,0-1.1,0-1.6-.2s-.7-.4-1.2-.7,0,0,0,0c-.3-.4-.6-.8-.7-1.3s-.2-1.5-.2-2.6v-14c0-.3.4-.5.6-.2l16.7,19.6h.5c.2,0,.3-.2.3-.4v-17.8c0-1.1,0-2.1.2-2.6s.4-1,.7-1.5,0,0,0,0c.6-.6,1.6-.9,2.7-.9s.2,0,.2-.2h0s0-.2-.2-.2h-8.4.5Z"/>
                <path class="cls-3" d="M147.8,78.6h0c0,.2.1.4.3.4.5,0,1,0,1.3.2.4,0,.7.4,1.2.7s0,0,0,0c.3.4.6.8.7,1.5.1.5.2,1.5.2,2.6v11.5c0,.3-.4.5-.6.2l-12.5-14.7c-1.9-2.2-3.9-2.4-4.6-2.5s0,0,0,0h-5.1c-.1,0-.2,0-.2.2h0s0,.2.2.2c.7,0,1.7,0,2.1.2s.7.4,1.2.7,0,0,0,0c.3.4.6.8.7,1.5s.2,1.5.2,2.6v16.1h0c.1.4.7.3.7,0v-17.3c0-.3.4-.5.6-.2l16.7,19.6h.5c.2,0,.3-.2.3-.4v-17.8c0-1.1,0-2.1.2-2.6s.4-1,.7-1.5,0,0,0,0c.6-.6,1.6-.9,2.7-.9s.2,0,.2-.2h0s0-.2-.2-.2h-8.4.2l.3.2Z"/>
                <path class="cls-3" d="M130.7,97.6s0-.2-.1-.3c-.1-.2-.2-.4-.2-.4h0c-.3-.6-7.5-17.7-8.3-19.9s-.2-.2-.3-.2h-.2c-.1,0-.3,0-.3.2l-7,17.7c-.6,1.6-1.1,2.7-1.6,3.4s-.7,1.3-1.2,1.9,0,0,0,0c-.4.6-1,1-1.5,1.3s0,0,0,0c-.4.2-1,.4-1.6.4s-.2,0-.2.2h0c0,.1,0,.2.2.2h8.2c.1,0,.2,0,.2-.2h0c0-.1,0-.2-.2-.2-.6,0-1.2-.3-1.7-.5s0,0,0,0c-.3-.2-.6-.5-.9-.9s-.3-.7-.3-1.2.2-1.8.9-3.1l.5-1.1,1.1-2.8,3.6-8.7c.1-.3.5-.3.6,0l3.7,8.7,1.7,3.5h0c3.1,8.1,9.2,10.6,13.9,11.1,4.8.5.5-.6.1-.7-5.9-1.2-7.8-5.1-9.4-8.4h.1Z"/>
                <path class="cls-1" d="M121.2,76.6l8.9,21.8c4.7,10.3,16.9,7.9,16.9,7.9-11.5.8-13.7-4.4-16-8.7s0,0,0,0c-.2-.5-7.8-18.5-8.7-20.7s-.2-.2-.3-.2h-.9"/>
              </g>
            </g>
          </g>
        </g>
      </g>
    </g>
  </g>
</svg>