<?xml version="1.0" encoding="UTF-8"?>
<svg xmlns="http://www.w3.org/2000/svg" version="1.1" viewBox="0 0 140.2 142.4">
  <defs>
    <style>
      .cls-1 {
        fill: none;
      }

      .cls-2 {
        fill: #f9f1e4;
      }

      .cls-3 {
        fill: #0f456d;
      }

      .cls-4 {
        fill: #e86969;
      }

      .cls-5 {
        fill: #b1bbce;
      }

      .cls-6 {
        fill: #16538a;
      }

      .cls-7 {
        fill: #2170a5;
      }

      .cls-8 {
        fill: #7e8a9c;
      }

      .cls-9 {
        fill: #5d6e88;
      }

      .cls-10 {
        fill: #fff0da;
      }

      .cls-11 {
        fill: #175189;
      }

      .cls-12, .cls-13 {
        fill: #353e4b;
      }

      .cls-14 {
        fill: #4f5c6d;
      }

      .cls-15 {
        fill: #697895;
      }

      .cls-16 {
        fill: #757575;
      }

      .cls-17 {
        fill: #d8d8d8;
      }

      .cls-18 {
        fill: #12518a;
      }

      .cls-19 {
        fill: #afbcd0;
      }

      .cls-20 {
        fill: #262623;
      }

      .cls-21 {
        fill: #fffefd;
      }

      .cls-22 {
        fill: #525456;
      }

      .cls-23 {
        fill: #c9c9c9;
      }

      .cls-24 {
        fill: #114f84;
      }

      .cls-25 {
        fill: #fff;
      }

      .cls-26 {
        fill: #3487c7;
      }

      .cls-27 {
        fill: #6c6e70;
      }

      .cls-28 {
        fill: #afbed5;
      }

      .cls-29 {
        fill: #1c608e;
      }

      .cls-30 {
        fill: #0a3d63;
      }

      .cls-31 {
        fill: #878787;
      }

      .cls-32 {
        fill: #5f6e8c;
      }

      .cls-33 {
        fill: #536070;
      }

      .cls-34 {
        fill: #2d7cbc;
      }

      .cls-35 {
        fill: #8e9eb2;
      }

      .cls-36 {
        fill: #3784c5;
      }

      .cls-37 {
        fill: #3f444a;
      }

      .cls-38 {
        fill: #323435;
      }

      .cls-39 {
        fill: #808b9c;
      }

      .cls-40 {
        fill: #abbbd3;
      }

      .cls-41 {
        fill: #707d91;
      }

      .cls-42 {
        fill: #b1bdd2;
      }

      .cls-43 {
        fill: #10518e;
      }

      .cls-44 {
        fill: #161616;
      }

      .cls-45 {
        fill: #3285ca;
      }

      .cls-46 {
        fill: #b0bdd0;
      }

      .cls-47 {
        fill: #232524;
      }

      .cls-13 {
        stroke: #184f80;
        stroke-linecap: round;
        stroke-linejoin: round;
        stroke-width: 1.3px;
      }
    </style>
  </defs>
  <!-- Generator: Adobe Illustrator 28.6.0, SVG Export Plug-In . SVG Version: 1.2.0 Build 709)  -->
  <g>
    <g id="_레이어_1" data-name="레이어_1">
      <g>
        <path class="cls-15" d="M38.5,95.4s-1.5-.5-1.5-2v2h1.5Z"/>
        <g>
          <rect class="cls-2" x="33.8" y="118.5" width="19.2" height="13.7"/>
          <rect class="cls-5" x="27.4" y="118.5" width="6.3" height="12.2"/>
          <rect class="cls-2" x="37.4" y="90.9" width="10.4" height="27.6"/>
          <rect class="cls-2" x="101.8" y="90.9" width="10.4" height="27.6"/>
          <polygon class="cls-15" points="37.5 92 31.1 92 27.4 83.8 33.8 83.8 37.5 92"/>
          <polygon class="cls-2" points="37.5 92 49.8 92 53.4 83.8 53.4 75.5 33.8 75.5 33.8 83.8 37.5 92"/>
          <g>
            <path class="cls-35" d="M76.8,15.6c-.6,0-1.1.5-1.1,1.1v1.8h2.3v-2.9h-1.2Z"/>
            <path class="cls-46" d="M80.3,16.7c0-.6-.5-1.1-1.1-1.1h-1.2v2.9h2.3v-1.8h0Z"/>
          </g>
          <rect class="cls-2" x="97.8" y="35.1" width="2.4" height="9.8"/>
          <rect class="cls-2" x="62" y="35.1" width="2.8" height="2"/>
          <rect class="cls-46" x="62.7" y="25.5" width="2.8" height="7.2"/>
          <rect class="cls-2" x="72.5" y="25.8" width="2.1" height="11.1"/>
          <g>
            <path class="cls-2" d="M43.6,51.6c-5.4,0-9.8,4.5-9.8,10v22.3h19.7v-22.3c0-5.5-4.4-10-9.8-10h0Z"/>
            <path class="cls-5" d="M33.8,61.6c0-5.5,4.4-10,9.8-10h-6.3c-5.4,0-9.8,4.5-9.8,10v22.3h6.3v-22.3h0Z"/>
          </g>
          <polygon class="cls-2" points="101.3 118.5 91.6 130.7 83.2 130.7 83.2 118.5 101.3 118.5"/>
          <polygon class="cls-42" points="40.4 51.6 40.4 118.5 59.2 118.5 59.2 115.7 59.2 103.2 59.2 96.4 59.2 92.7 59.2 91.7 59.2 51.6 40.4 51.6"/>
          <polygon class="cls-2" points="103.4 118.5 59.2 118.5 59.2 104 59.2 97.6 59.2 51.6 103.4 51.6 103.4 118.5"/>
          <rect class="cls-26" x="59.2" y="72.8" width="7.2" height="23.2"/>
          <g>
            <path class="cls-28" d="M71.9,73.6h6.3c.7,0,1.2.5,1.2,1.2v19.3c0,.7-.5,1.2-1.2,1.2h-6.3c-.7,0-1.2-.5-1.2-1.2v-19.3c0-.7.5-1.2,1.2-1.2h0Z"/>
            <path class="cls-28" d="M78.2,74.4c.3,0,.4.2.4.4v19.3c0,.3-.2.4-.4.4h-6.3c-.3,0-.4-.2-.4-.4v-19.3c0-.3.2-.4.4-.4h6.3M78.2,72.8h-6.3c-1.1,0-2,.9-2,2v19.3c0,1.1.9,2,2,2h6.3c1.1,0,2-.9,2-2v-19.3c0-1.1-.9-2-2-2h0Z"/>
          </g>
          <g>
            <polygon class="cls-28" points="70.7 102.2 70.7 99.5 79.4 99.5 79.5 102.2 79.4 102.2 70.7 102.2"/>
            <path class="cls-28" d="M78.7,100.2v1.2h-7.2v-1.2h7.2M79.4,98.7h-8.7c-.4,0-.8.4-.8.8v2.7c0,.4.4.8.8.8h8.7c.4,0,.8-.4.8-.8v-2.7c0-.4-.4-.8-.8-.8h0Z"/>
          </g>
          <g>
            <rect class="cls-28" x="70.9" y="106.3" width="2.5" height="8.7"/>
            <path class="cls-28" d="M72.6,107.1v7.2h-1v-7.2h1M73.6,105.6h-2.8c-.4,0-.6.3-.6.6v9c0,.4.3.6.6.6h2.8c.4,0,.6-.3.6-.6v-9c0-.4-.3-.6-.6-.6h0Z"/>
          </g>
          <g>
            <rect class="cls-28" x="76.9" y="106.3" width="2.5" height="8.7"/>
            <path class="cls-28" d="M78.7,107.1v7.2h-1v-7.2h1M79.6,105.6h-2.8c-.4,0-.6.3-.6.6v9c0,.4.3.6.6.6h2.8c.4,0,.6-.3.6-.6v-9c0-.4-.3-.6-.6-.6h0Z"/>
          </g>
          <rect class="cls-1" x="59.2" y="99.6" width="6.2" height="2.4"/>
          <rect class="cls-42" x="57" y="99.6" width="2.2" height="2.4"/>
          <g>
            <rect class="cls-28" x="82.9" y="99.5" width="4.8" height="2.7"/>
            <path class="cls-28" d="M86.9,100.2v1.2h-3.2v-1.2h3.2M87.6,98.7h-4.8c-.4,0-.8.4-.8.8v2.7c0,.4.4.8.8.8h4.8c.4,0,.8-.4.8-.8v-2.7c0-.4-.4-.8-.8-.8h0Z"/>
          </g>
          <g>
            <path class="cls-28" d="M83.9,57.7h2.7c.6,0,1.1.5,1.1,1.1v35.5c0,.6-.5,1.1-1.1,1.1h-2.7c-.6,0-1.1-.5-1.1-1.1v-35.5c0-.6.5-1.1,1.1-1.1h0Z"/>
            <path class="cls-28" d="M86.6,58.5c.2,0,.3.1.3.3v35.5c0,.2-.1.3-.3.3h-2.7c-.2,0-.3-.1-.3-.3v-35.5c0-.2.1-.3.3-.3h2.7M86.6,57h-2.7c-1,0-1.8.8-1.8,1.8v35.5c0,1,.8,1.8,1.8,1.8h2.7c1,0,1.8-.8,1.8-1.8v-35.5c0-1-.8-1.8-1.8-1.8h0Z"/>
          </g>
          <rect class="cls-15" x="44.2" y="72.8" width="9.2" height="8.9" rx="1.3" ry="1.3"/>
          <g>
            <rect class="cls-15" x="49.9" y="84" width="3.4" height="11.9"/>
            <path class="cls-15" d="M53.1,84.1v11.6h-3v-11.6h3M53.4,83.8h-3.8v12.3h3.8v-12.3h0Z"/>
          </g>
          <rect class="cls-14" x="44.2" y="83.8" width="3" height="1.8"/>
          <rect class="cls-8" x="47.2" y="83.8" width="1.5" height="1.8"/>
          <rect class="cls-14" x="44.2" y="86.4" width="3" height="1.8"/>
          <rect class="cls-8" x="47.2" y="86.4" width="1.5" height="1.8"/>
          <rect class="cls-14" x="44.2" y="89" width="3" height="1.8"/>
          <rect class="cls-8" x="47.2" y="89" width="1.5" height="1.8"/>
          <rect class="cls-14" x="44.2" y="91.6" width="3" height="1.8"/>
          <rect class="cls-8" x="47.2" y="91.6" width="1.5" height="1.8"/>
          <rect class="cls-14" x="44.2" y="94.3" width="3" height="1.8"/>
          <rect class="cls-8" x="47.2" y="94.3" width="1.5" height="1.8"/>
          <path class="cls-1" d="M59.5,83.2h3.5c.9,0,1.6-.7,1.6-1.6v-5.5c0-.8-.7-1.6-1.6-1.6h-3.7v8.6h.2Z"/>
          <path class="cls-43" d="M57.8,76.1v5.5c0,.8.6,1.4,1.4,1.6v-8.6c-.8.1-1.4.8-1.4,1.6h0Z"/>
          <path class="cls-43" d="M57.3,81.6v-5.5c0-1,.8-1.9,1.9-2v-1.2h-3.1v23.2h3.1v-12.5c-1.1-.1-1.9-1-1.9-2Z"/>
          <path class="cls-25" d="M63,74h-3.7v.5h3.7c.9,0,1.6.7,1.6,1.6v5.5c0,.8-.7,1.6-1.6,1.6h-3.7v.5h3.7c1.2,0,2.1-.9,2.1-2v-5.5c0-1.1-.9-2-2.1-2Z"/>
          <path class="cls-40" d="M57.8,81.6v-5.5c0-.8.6-1.4,1.4-1.6v-.5c-1.1.1-1.9,1-1.9,2v5.5c0,1,.8,1.9,1.9,2v-.5c-.8-.1-1.4-.8-1.4-1.6h0Z"/>
          <path class="cls-25" d="M63,85.2h-3.7v.5h3.7c.9,0,1.6.7,1.6,1.6v5.5c0,.8-.7,1.6-1.6,1.6h-3.7v.5h3.7c1.2,0,2.1-.9,2.1-2v-5.5c0-1.1-.9-2-2.1-2Z"/>
          <path class="cls-40" d="M57.8,92.7v-5.5c0-.8.6-1.4,1.4-1.6v-.5c-1.1.1-1.9,1-1.9,2v5.5c0,1,.8,1.9,1.9,2v-.5c-.8-.1-1.4-.8-1.4-1.6h0Z"/>
          <g>
            <rect class="cls-15" x="47.4" y="98.9" width="5.9" height="3.9"/>
            <path class="cls-15" d="M53.1,99v3.6h-5.6v-3.6h5.6M53.4,98.7h-6.2v4.2h6.2v-4.2h0Z"/>
          </g>
          <rect class="cls-33" x="44.3" y="105.6" width="8.9" height="10.2"/>
          <rect class="cls-39" x="45.2" y="108.3" width="3.8" height="7.5"/>
          <rect class="cls-43" x="56.1" y="105.6" width="3.1" height="10.2"/>
          <rect class="cls-26" x="59.2" y="105.6" width="7.1" height="10.2"/>
          <rect class="cls-1" x="59.2" y="63.1" width="20.6" height="6.3"/>
          <rect class="cls-1" x="44.7" y="63.1" width="14.5" height="6.3"/>
          <polygon class="cls-28" points="80.7 51.6 79.7 51.6 79.7 62.2 59.2 62.2 59.2 63.1 79.7 63.1 79.7 69.4 59.2 69.4 59.2 70.3 80.7 70.3 80.7 51.6"/>
          <polygon class="cls-32" points="44.7 69.4 44.7 63.1 59.2 63.1 59.2 62.2 44.7 62.2 44.7 51.6 43.8 51.6 43.8 62.2 43.8 63.1 43.8 70.3 59.2 70.3 59.2 69.4 44.7 69.4"/>
          <polygon class="cls-42" points="83.2 118.5 80.9 118.5 80.9 121.5 44.6 121.5 51.8 130.7 70.1 130.7 73.3 130.7 83.2 130.7 83.2 124.6 96.4 124.6 101.3 118.5 83.2 118.5"/>
          <polygon class="cls-9" points="80.9 118.5 73.3 118.5 70.1 118.5 42.2 118.5 44.6 121.5 80.9 121.5 80.9 118.5"/>
          <path class="cls-1" d="M71.2,23.9s0,0,.1,0c0,0,0,0-.1,0Z"/>
          <path class="cls-1" d="M69.8,25.1s0,0,0,0c0,0,0,0,0,0Z"/>
          <path class="cls-1" d="M72.8,22.8s.1,0,.2-.1c0,0-.1,0-.2.1Z"/>
          <path class="cls-1" d="M74.5,21.8s0,0-.1,0c0,0,0,0,.1,0h0Z"/>
          <path class="cls-1" d="M59.6,43.5v-.2.2Z"/>
          <polygon class="cls-1" points="59.4 45.2 59.4 45.2 59.4 45.2 59.4 45.2"/>
          <path class="cls-1" d="M59.8,42v-.2.2Z"/>
          <path class="cls-1" d="M60.7,38.6h0c0,0,0,0,0,0Z"/>
          <path class="cls-1" d="M68.6,26.2h0,0Z"/>
          <polygon class="cls-19" points="40.5 48.5 40.5 48.5 40.5 51.8 59.3 51.8 59.3 51.7 40.5 51.7 40.5 48.5"/>
          <rect class="cls-46" x="40.5" y="48.5" width="18.8" height="3.2"/>
          <rect class="cls-2" x="59.3" y="48.5" width="44.2" height="3.3"/>
          <path class="cls-36" d="M59.4,45.2h0Z"/>
          <path class="cls-36" d="M59.3,46.3v1.2-1.2Z"/>
          <path class="cls-36" d="M103.4,45.2h-44c0,.4,0,.8,0,1.2v2.1h44.2v-3.3h0Z"/>
          <path class="cls-11" d="M59.3,47.5v-1.2c0-.4,0-.8,0-1.2h-18.8c0,.8,0,1.6,0,2.4v.9h18.8v-.9h0Z"/>
          <path class="cls-11" d="M59.4,45.2c0,.4,0,.8,0,1.2,0-.4,0-.8,0-1.2Z"/>
          <path class="cls-46" d="M59.4,45.2h0c0-.5,0-1.1.2-1.6v-.2c0-.5.1-.9.2-1.4v-.2c.2-1.1.5-2.1.8-3.1h0c.7-2.2,1.6-4.1,2.6-5.9s0,0,0,0l.9-6.1c0-.1.1-.2.3-.2h4c.4-.4.8-.8,1.3-1.2,0,0,0,0,0,0,.4-.4.9-.7,1.3-1.1,0,0,0,0,.1,0,.4-.4.9-.7,1.4-1,0,0,.1,0,.2-.1.4-.3.9-.6,1.4-.8,0,0,0,0,.1,0h-1c-.2,0-.3-.1-.3-.3v-3.8c0-.2-.1-.3-.3-.3h-2.1c-.2,0-.3.1-.3.3v3.7c0,.2-.1.3-.3.3h-14.4c0,0-.1,0-.1,0-8.3,4.8-14.1,13.2-15,23s.1.3.3.3h18.5Z"/>
          <path class="cls-46" d="M59.9,41.7c.2-1.1.5-2.1.8-3.1-.3,1-.6,2-.8,3.1Z"/>
          <path class="cls-46" d="M69.9,25c.4-.4.9-.7,1.3-1.1-.4.4-.9.7-1.3,1.1Z"/>
          <path class="cls-46" d="M71.4,23.8c.4-.4.9-.7,1.4-1-.5.3-.9.7-1.4,1Z"/>
          <path class="cls-46" d="M73,22.7c.4-.3.9-.6,1.4-.8-.4.3-.9.6-1.4.8Z"/>
          <path class="cls-46" d="M68.6,26.2c.4-.4.8-.8,1.3-1.2-.4.4-.9.8-1.3,1.2Z"/>
          <path class="cls-46" d="M63.4,32.7c-1.1,1.9-2,3.8-2.7,5.9.7-2.1,1.6-4,2.7-5.9h0Z"/>
          <path class="cls-46" d="M59.6,43.3c0-.5.1-.9.2-1.4,0,.4-.2.9-.2,1.4Z"/>
          <path class="cls-46" d="M59.4,45.2c0-.5,0-1.1.2-1.6,0,.5-.1,1.1-.2,1.6Z"/>
          <path class="cls-45" d="M68.5,26.3h0s0,0,0,0Z"/>
          <path class="cls-11" d="M68.4,26.3c-2,1.9-3.7,4-5.1,6.3h0c1.4-2.3,3.1-4.4,5.1-6.3Z"/>
          <path class="cls-45" d="M76,21.4c0,0,.2,0,.3-.1,0,0-.2,0-.3.1Z"/>
          <path class="cls-45" d="M79.4,19.9c.1,0,.3,0,.4-.1-.1,0-.3,0-.4.1Z"/>
          <path class="cls-45" d="M77.7,20.6s0,0,.1,0c0,0,0,0-.1,0Z"/>
          <path class="cls-45" d="M74.5,21.8h0Z"/>
          <path class="cls-45" d="M79.8,19.3c-.1,0-.3,0-.4.1-.5.2-1.1.4-1.6.6,0,0,0,0-.1,0-.5.2-1,.4-1.5.7,0,0-.2,0-.3.1-.5.3-1,.5-1.5.8h13.9c-2.2-1.2-4.5-2.3-7-3-.5.2-1.1.4-1.6.5h0Z"/>
          <path class="cls-24" d="M74.5,21.8h0c.5-.3,1-.5,1.5-.8,0,0,.2,0,.3-.1.5-.2,1-.4,1.5-.7,0,0,0,0,.1,0,.5-.2,1.1-.4,1.6-.6.1,0,.3,0,.4-.1.5-.2,1.1-.4,1.6-.5-2.6-.8-5.4-1.2-8.3-1.3v4.3h1.3,0Z"/>
          <path class="cls-45" d="M79.8,19.7c.5-.2,1.1-.4,1.6-.5-.5.2-1.1.4-1.6.5Z"/>
          <path class="cls-45" d="M74.5,21.8c.5-.3,1-.5,1.5-.8-.5.3-1,.5-1.5.8Z"/>
          <path class="cls-45" d="M76.3,21.2c.5-.2,1-.4,1.5-.7-.5.2-1,.4-1.5.7Z"/>
          <path class="cls-45" d="M77.9,20.5c.5-.2,1.1-.4,1.6-.6-.5.2-1.1.4-1.6.6Z"/>
          <path class="cls-24" d="M70.5,17.5c-5.4.3-10.4,1.8-14.8,4.3h14.8v-4.3Z"/>
          <path class="cls-2" d="M103.4,44.1h0c0,0-5.1,0-5.1,0v-8.6h2.8c-2.6-5.8-7.1-10.6-12.6-13.8h-14s0,0-.1,0c-.4.3-.9.6-1.4.8,0,0-.1,0-.2.1-.5.3-.9.7-1.4,1,0,0,0,0-.1,0-.4.4-.9.7-1.3,1.1,0,0,0,0,0,0-.4.4-.9.8-1.3,1.2h5.3v10h-11l.5-3.6c-1.1,1.9-2,3.8-2.7,5.9h0c-.3,1.1-.6,2.1-.8,3.2v.2c0,.4-.2.9-.2,1.4v.2c0,.5-.1,1.1-.2,1.6h44.2c0-.4,0-.7-.1-1h-.1Z"/>
          <path class="cls-36" d="M98.2,43.6c0,.4.3.7.7.7h4.5c-.4-3.1-1.2-5.9-2.4-8.6h-2.1c-.4,0-.7.3-.7.7v7.3h0Z"/>
          <path class="cls-3" d="M47,43.6c0,.4-.3.7-.7.7h-4.5c.4-3.1,1.2-5.9,2.4-8.6h2.1c.4,0,.7.3.7.7v7.3h0Z"/>
          <rect class="cls-7" x="66.2" y="37.7" width="9.1" height="6.1" rx=".4" ry=".4"/>
          <g>
            <path class="cls-2" d="M106.1,51.6c-5.4,0-9.8,4.5-9.8,10v22.3h19.7v-22.3c0-5.5-4.4-10-9.8-10h0Z"/>
            <path class="cls-5" d="M96.2,61.6c0-5.5,4.4-10,9.8-10h-6.3c-5.4,0-9.8,4.5-9.8,10v22.3h6.3v-22.3Z"/>
          </g>
          <circle class="cls-25" cx="61.1" cy="110.7" r="4"/>
          <circle class="cls-37" cx="61.1" cy="110.7" r="3.2"/>
          <rect class="cls-9" x="79.9" y="118.5" width="3.4" height="12.2"/>
          <rect class="cls-9" x="51.9" y="118.5" width="3.4" height="12.2"/>
          <rect class="cls-9" x="59.2" y="118.5" width="3.4" height="12.2"/>
          <rect class="cls-9" x="66.2" y="118.5" width="3.4" height="12.2"/>
          <rect class="cls-9" x="73.1" y="118.5" width="3.4" height="12.2"/>
          <g>
            <polygon class="cls-18" points="55.7 64.3 52.6 65.3 49.3 65.3 49.3 65.3 49.3 66.3 49.3 67.2 49.3 67.2 52.6 67.2 55.7 68.2 59.2 68.2 59.2 64.3 55.7 64.3"/>
            <polygon class="cls-45" points="63.4 65.3 63.4 64.3 62.5 64.3 59.2 64.3 59.2 68.2 62.5 68.2 63.4 68.2 63.4 67.2 63.4 66.3 63.4 65.3"/>
            <polygon class="cls-45" points="69.7 64.3 69.7 66.3 69.7 68.2 76.6 68.2 76.6 64.3 69.7 64.3"/>
            <rect class="cls-20" x="76.6" y="64.3" width=".8" height="3.9"/>
            <polygon class="cls-45" points="69.7 64.3 66.7 65.3 64.8 65.3 64.8 67.2 66.7 67.2 69.7 68.2 69.7 66.3 69.7 64.3"/>
            <polygon class="cls-12" points="49.3 65.3 48.3 65.3 48.3 67.2 49.3 67.2 49.3 66.3 49.3 65.3"/>
            <polygon class="cls-6" points="63.4 65.3 63.4 66.3 63.4 67.2 64.8 67.2 64.8 65.3 63.4 65.3"/>
          </g>
          <g>
            <polygon class="cls-18" points="56 57.3 49.1 57.3 49.1 61.2 56 61.2 56 59.3 56 57.3"/>
            <rect class="cls-20" x="48.3" y="57.3" width=".8" height="3.9"/>
            <rect class="cls-45" x="59.2" y="58.3" width="1.8" height="2"/>
            <polygon class="cls-30" points="59.2 58.3 56 57.3 56 59.3 56 61.2 59.2 60.2 59.2 60.2 59.2 58.3 59.2 58.3"/>
            <polygon class="cls-45" points="76.4 58.3 73.1 58.3 70.1 57.3 63.2 57.3 62.4 57.3 62.4 58.3 62.4 59.3 62.4 60.2 62.4 61.2 63.2 61.2 70.1 61.2 73.1 60.2 76.4 60.2 76.4 60.2 76.4 59.3 76.4 58.3"/>
            <polygon class="cls-12" points="76.4 58.3 76.4 59.3 76.4 60.2 77.5 60.2 77.5 58.3 76.4 58.3"/>
            <polygon class="cls-6" points="62.4 58.3 61 58.3 61 60.2 62.4 60.2 62.4 59.3 62.4 58.3"/>
          </g>
          <polygon class="cls-30" points="52.6 67.2 55.7 68.2 55.7 66.3 55.7 64.3 52.6 65.3 52.6 65.3 52.6 67.2 52.6 67.2"/>
          <g>
            <rect class="cls-22" x="58.2" y="79.1" width="1.2" height="1.3"/>
            <rect class="cls-22" x="58.2" y="77.4" width="1.2" height="1.2"/>
            <path class="cls-22" d="M63.3,81.8h-2.9c-.5,0-.8-.4-.8-.8h0c0,0-1.2,0-1.2,0v.6c0,.6.4,1.1,1.1,1.2h3.5c.7,0,1.3-.5,1.3-1.2v-.5c0,.5-.4.8-.8.8h0Z"/>
            <path class="cls-22" d="M62.8,75h-3.5c-.6,0-1.1.6-1.1,1.2v.7h1.2v-.3c0-.5.4-.8.8-.8h2.9c.5,0,.8.4.8.8v-.4c0-.7-.6-1.2-1.3-1.2h0Z"/>
            <path class="cls-25" d="M62.8,74h-3.6c-1.2.1-2,1.1-2,2.2v5.3c0,1.1.9,2,2.1,2.2h3.6c1.2,0,2.3-1,2.3-2.2v-5.3c0-1.2-1-2.2-2.3-2.2h0ZM64.1,76.6v4.9c0,.7-.6,1.2-1.3,1.2h-3.5c-.6,0-1.1-.6-1.1-1.2v-5.3c0-.6.4-1.1,1.1-1.2h3.5c.7,0,1.3.5,1.3,1.2v.4h0Z"/>
            <path class="cls-38" d="M59.5,81c0,.5.4.8.8.8h2.9c.5,0,.8-.4.8-.8h0c0,0-4.7,0-4.7,0h0c0,0,0,0,0,0Z"/>
            <path class="cls-38" d="M63.3,75.7h-2.9c-.5,0-.8.4-.8.8v.3h4.7v-.3c0-.5-.4-.8-.8-.8h0Z"/>
            <rect class="cls-38" x="59.5" y="79.1" width="4.7" height="1.3"/>
            <rect class="cls-38" x="59.5" y="77.4" width="4.7" height="1.2"/>
            <polygon class="cls-27" points="58.2 76.9 58.2 77.4 59.5 77.4 64.1 77.4 64.1 76.9 59.5 76.9 58.2 76.9"/>
            <polygon class="cls-27" points="58.2 78.6 58.2 79.1 59.5 79.1 64.1 79.1 64.1 78.6 59.5 78.6 58.2 78.6"/>
            <polygon class="cls-27" points="58.2 80.4 58.2 80.9 59.5 80.9 64.1 80.9 64.1 80.4 59.5 80.4 58.2 80.4"/>
          </g>
          <g>
            <path class="cls-1" d="M67.5,102.4c.1,0,.2,0,.2-.2v-2.6c0-.1,0-.2-.2-.2h-8.3v3.1h8.3Z"/>
            <path class="cls-1" d="M55.7,99.5v2.6c0,.1,0,.2.2.2h3.3v-3.1h-3.3c-.1,0-.2,0-.2.2h0Z"/>
            <path class="cls-28" d="M67.5,98.5h-8.3v.8h8.3c.1,0,.2,0,.2.2v2.6c0,.1,0,.2-.2.2h-8.3v.8h8.3c.6,0,1-.4,1-1v-2.6c0-.6-.4-1-1-1Z"/>
            <path class="cls-15" d="M55.9,102.4c-.1,0-.2,0-.2-.2v-2.6c0-.1,0-.2.2-.2h3.3v-.8h-3.3c-.6,0-1,.4-1,1v2.6c0,.6.4,1,1,1h3.3v-.8h-3.3Z"/>
          </g>
          <g>
            <rect class="cls-22" x="59.2" y="90.2" width=".3" height="1.3"/>
            <rect class="cls-22" x="59.2" y="88.5" width=".3" height="1.2"/>
            <path class="cls-22" d="M63.5,92.9h-3.1c-.5,0-.8-.4-.8-.8h0c0,0-.3,0-.3,0v1.7h3.7c.2,0,.4,0,.6-.2v-.7h0Z"/>
            <path class="cls-22" d="M59.5,88v-.3c0-.5.4-.8.8-.8h3.1v-.6c-.2,0-.4-.2-.6-.2h-3.7v1.8h.3Z"/>
            <path class="cls-38" d="M60,92h-.5c0,.6.4.9.8.9h3.1v-.9h-3.5Z"/>
            <path class="cls-38" d="M63.5,88v-1.1h-3.1c-.5,0-.8.4-.8.8v.3h4Z"/>
            <polygon class="cls-38" points="59.5 90.2 59.5 91.5 60 91.5 63.5 91.5 63.5 90.2 60 90.2 59.5 90.2"/>
            <polygon class="cls-38" points="59.5 88.5 59.5 89.7 60 89.7 63.5 89.7 63.5 88.5 60 88.5 59.5 88.5"/>
            <rect class="cls-16" x="59" y="90.2" width=".1" height="1.3"/>
            <rect class="cls-16" x="59" y="88.5" width=".1" height="1.2"/>
            <path class="cls-16" d="M59,92v1.6s0,0,.1,0v-1.7h-.1Z"/>
            <path class="cls-16" d="M59.2,88v-1.8s0,0-.1,0v1.8h.1Z"/>
            <path class="cls-31" d="M63.5,88v5.6c.4-.2.6-.6.6-1v-5.3c0-.4-.3-.8-.6-1v1.7h0Z"/>
            <path class="cls-31" d="M59,91.5v-5.3c-.5.2-.8.6-.8,1.1v5.3c0,.5.3.9.8,1.1v-2.2h0Z"/>
            <path class="cls-25" d="M62.8,85.1h-3.6c-1.2.1-2,1.1-2,2.2v5.3c0,1.1.9,2,2.1,2.2h3.6c1.2,0,2.3-1,2.3-2.2v-5.3c0-1.2-1-2.2-2.3-2.2h0ZM59.5,93.8h-.3s0,0-.1,0c-.5-.2-.8-.6-.8-1.1v-5.3c0-.5.3-.9.8-1.1,0,0,0,0,.1,0h3.7c.2,0,.4,0,.6.2.4.2.6.6.6,1v5.3c0,.4-.3.8-.6,1-.2,0-.4.2-.6.2h-3.4Z"/>
            <polygon class="cls-27" points="59.5 88.5 60 88.5 63.5 88.5 63.5 88 60 88 59.5 88 59.2 88 59 88 59 88.5 59.2 88.5 59.5 88.5"/>
            <polygon class="cls-27" points="59.5 90.2 60 90.2 63.5 90.2 63.5 89.7 60 89.7 59.5 89.7 59.2 89.7 59 89.7 59 90.2 59.2 90.2 59.5 90.2"/>
            <polygon class="cls-27" points="63.5 92 63.5 91.5 60 91.5 59.5 91.5 59.2 91.5 59 91.5 59 92 59.2 92 59.5 92 60 92 63.5 92"/>
          </g>
          <rect class="cls-47" x="52.6" y="53" width="23.7" height="1.2" rx=".3" ry=".3"/>
          <rect class="cls-7" x="63.3" y="37.7" width="1.2" height="6.1" rx=".4" ry=".4"/>
          <rect class="cls-7" x="63.5" y="37.7" width="1.2" height="6.1" rx=".4" ry=".4"/>
          <g>
            <rect class="cls-7" x="85.1" y="35.6" width="5.1" height="8.6" rx=".4" ry=".4"/>
            <rect class="cls-36" x="84.2" y="35.6" width="5.1" height="8.6" rx=".4" ry=".4"/>
          </g>
          <g>
            <rect class="cls-7" x="92.2" y="35.6" width="5.1" height="8.6" rx=".4" ry=".4"/>
            <rect class="cls-36" x="91.3" y="35.6" width="5.1" height="8.6" rx=".4" ry=".4"/>
          </g>
          <path class="cls-7" d="M64.8,32.7l-.4,2.4c0,.6.4,1.2,1,1.2h8.7c.6,0,1.1-.5,1.1-1.1v-7.8c0-.7-.5-1.2-1.2-1.2h-4.2c-2,2-3.7,4.1-5.1,6.4h0Z"/>
          <path class="cls-45" d="M63.4,32.7l-.4,2.4c0,.6.4,1.2,1,1.2h8.7c.6,0,1.1-.5,1.1-1.1v-7.8c0-.7-.5-1.2-1.2-1.2h-4.2c-2,2-3.7,4.1-5.1,6.4h0Z"/>
          <path class="cls-11" d="M68.5,26.3h-3.1c-.6,0-1.1.4-1.2,1l-.8,5.4c1.4-2.4,3.1-4.5,5.1-6.4h0Z"/>
          <g>
            <ellipse class="cls-44" cx="68.1" cy="30.7" rx="3.6" ry="3.5"/>
            <ellipse class="cls-25" cx="69.5" cy="31.8" rx=".6" ry=".5"/>
            <ellipse class="cls-25" cx="67.5" cy="29.9" rx="1.7" ry="1.6"/>
          </g>
          <rect class="cls-36" x="64.7" y="37.7" width="9.1" height="6.1" rx=".5" ry=".5"/>
          <circle class="cls-4" cx="70.7" cy="40.7" r="2.1"/>
          <rect class="cls-36" x="62.8" y="37.7" width="1.2" height="6.1" rx=".4" ry=".4"/>
          <g>
            <path class="cls-23" d="M79.5,38.3c-.3,0-.6,0-.8.1h-.2s-.5.3-.5.3h0c.2,0,.4,0,.5,0,1.2,0,2.2,1,2.2,2.2s-1,2.2-2.2,2.2-.4,0-.5,0h0l.7.3h0c.3,0,.5.1.8.1,1.4,0,2.5-1.2,2.5-2.5s-1.2-2.5-2.5-2.5h0Z"/>
            <path class="cls-17" d="M78.5,43.1c1.2,0,2.2-1,2.2-2.2s-1-2.2-2.2-2.2-.4,0-.5,0c-.9.2-1.6,1.1-1.6,2.1s.7,1.9,1.6,2.1c.2,0,.4,0,.5,0Z"/>
          </g>
          <circle class="cls-23" cx="78.2" cy="40.8" r="1.8"/>
          <rect class="cls-23" x="77.5" y="39" width=".8" height="3.6"/>
          <circle class="cls-17" cx="77.5" cy="40.8" r="1.8"/>
          <circle class="cls-23" cx="77.5" cy="40.8" r="1.4"/>
          <path class="cls-24" d="M45.8,43.6c0,.4-.3.7-.7.7h-4.5c.4-3.1,1.2-5.9,2.4-8.6h2.1c.4,0,.7.3.7.7v7.3h0Z"/>
          <polygon class="cls-15" points="99.9 92 93.6 92 89.9 83.8 96.2 83.8 99.9 92"/>
          <polygon class="cls-2" points="105.9 92 112.3 92 115.9 83.8 109.6 83.8 105.9 92"/>
          <polygon class="cls-2" points="99.9 92 112.3 92 115.9 83.8 115.9 75.5 96.2 75.5 96.2 83.8 99.9 92"/>
          <circle class="cls-44" cx="77.8" cy="40.8" r="1.1"/>
          <rect class="cls-29" x="102.6" y="65.6" width="5.5" height="52.8"/>
          <circle class="cls-17" cx="107.3" cy="62" r="6"/>
          <circle class="cls-5" cx="105.9" cy="62" r="4.7"/>
          <rect class="cls-5" x="93.6" y="92" width="6.3" height="26.4"/>
          <rect class="cls-5" x="31.1" y="92" width="6.3" height="26.4"/>
          <rect class="cls-2" x="96.7" y="118.5" width="19.2" height="12.2"/>
          <rect class="cls-5" x="90.4" y="118.5" width="6.3" height="12.2"/>
          <path class="cls-5" d="M105.6,121.2h1.3c4.9,0,8.9,4,8.9,8.9v.6h-19.2v-.6c0-4.9,4-8.9,8.9-8.9Z"/>
          <rect class="cls-45" x="104.5" y="65.6" width="5.5" height="52.8"/>
          <rect class="cls-45" x="106.6" y="65.6" width="5.5" height="8.4"/>
          <polygon class="cls-29" points="110.1 76.8 104.5 76.8 106.6 74 112.1 74 110.1 76.8"/>
          <polygon class="cls-29" points="102.6 65.6 106.6 65.6 106.6 74 104.5 76.8 102.6 76.8 102.6 65.6"/>
          <path class="cls-46" d="M59.7,42.9s0,2.2,2.3,2.2h-3.7l.6-3.1.8.8Z"/>
          <path class="cls-46" d="M59.3,50.7s0-2.2,2.3-2.2h-3.7l.6,3.1.8-.8Z"/>
          <rect class="cls-13" x="48.2" y="51.6" width="29.3" height="3.9" rx=".8" ry=".8"/>
          <path class="cls-2" d="M77.3,20.3"/>
          <path class="cls-15" d="M94.3,83.8s1.9-.6,1.9-2.5v2.5h-1.9Z"/>
          <path class="cls-15" d="M91.8,83.8s-1.9-.6-1.9-2.5v2.5h1.9Z"/>
          <path class="cls-15" d="M31.9,83.9s1.9-.6,1.9-2.5v2.5h-1.9Z"/>
          <polygon class="cls-15" points="100 130.7 100 142.4 81.6 142.4 90.4 130.7 100 130.7"/>
          <polygon class="cls-2" points="115.9 130.7 106.4 130.7 96.7 130.7 87.9 142.4 106.4 142.4 124.8 142.4 115.9 130.7"/>
          <g>
            <polygon class="cls-15" points="37 130.7 37 130.7 27.4 130.7 18.6 142.4 25 142.4 33.8 130.7 37 130.7"/>
            <polygon class="cls-2" points="53 130.7 43.4 130.7 37 130.7 33.8 130.7 25 142.4 37 142.4 43.4 142.4 61.8 142.4 53 130.7"/>
          </g>
          <rect class="cls-25" x="61.7" y="110.4" width="2.7" height=".7"/>
          <rect class="cls-25" x="59.8" y="107.2" width=".7" height="6.8"/>
          <circle class="cls-34" cx="60.2" cy="110.7" r="1.8"/>
          <circle class="cls-10" cx="60.2" cy="110.7" r="1.2"/>
          <path class="cls-2" d="M115.2,129.1h-17.8c-.7,0-1.2-.6-1.2-1.2s.6-1.2,1.2-1.2h17.8c.7,0,1.2.6,1.2,1.2s-.6,1.2-1.2,1.2Z"/>
          <rect class="cls-45" x="102.1" y="125.4" width="8.8" height="4.9"/>
          <path class="cls-29" d="M102.1,125.4v4.9l1.6-1.7c.4-.4.4-1.1,0-1.6l-1.6-1.7h0Z"/>
          <path class="cls-45" d="M110.9,125.4v4.9l1.6-1.7c.4-.4.4-1.1,0-1.6l-1.6-1.7h0Z"/>
          <circle class="cls-2" cx="102.1" cy="127.8" r="1.2"/>
          <circle class="cls-45" cx="107" cy="125.7" r="2.3"/>
          <polygon class="cls-15" points="96.7 130.7 94.2 142.4 86.6 142.4 94.5 130.7 96.7 130.7"/>
        </g>
        <rect class="cls-11" x="58" y="45.2" width="3.9" height="3.3"/>
        <path class="cls-42" d="M59.2,115.8s0,2.7,2.8,2.7h-5.5l2.8-2.7Z"/>
        <path class="cls-21" d="M89.4,24.5c-1.5.6-3.6,1.8-5.8,4-1.2,1.2-.1,3.1,1.5,2.9,2.9-.4,7.2-1.4,11.3,0,3.6,1.1,1.3-.7,1-1.8-1-1.3-2.4-2.9-4-4.3s-2.7-1.3-4-.8h0Z"/>
        <circle class="cls-41" cx="104" cy="62" r="2.3"/>
        <rect class="cls-15" x="82.1" y="106" width="9.2" height="8.9" rx="1.3" ry="1.3"/>
        <circle class="cls-11" cx="62" cy="46.8" r="1.6"/>
        <rect class="cls-2" x="33.8" y="128" width="6.9" height="6.3"/>
        <polygon class="cls-15" points="33.8 130.7 37 142.4 18.7 142.4 27.4 130.7 33.8 130.7"/>
      </g>
    </g>
  </g>
</svg>