<?xml version="1.0" encoding="UTF-8"?>
<svg xmlns="http://www.w3.org/2000/svg" version="1.1" viewBox="0 0 1602.1 911.7">
  <defs>
    <style>
      .cls-1, .cls-2 {
        fill: none;
      }

      .cls-3 {
        fill: #f2846e;
      }

      .cls-4 {
        fill: #feddc6;
      }

      .cls-5 {
        fill: #fddfc9;
      }

      .cls-6 {
        fill: #ffddcb;
      }

      .cls-7 {
        fill: #f1b4a8;
      }

      .cls-8 {
        fill: #ffdec9;
      }

      .cls-9 {
        fill: #f49d78;
      }

      .cls-10 {
        fill: #6bafff;
      }

      .cls-11 {
        fill: #fff;
      }

      .cls-12 {
        fill: #262626;
      }

      .cls-13 {
        fill: #776bf8;
      }

      .cls-14 {
        fill: #b6bfff;
      }

      .cls-2 {
        stroke: #fff;
        stroke-linecap: round;
        stroke-linejoin: round;
        stroke-width: 8.3px;
      }

      .cls-15 {
        fill: #ffda00;
      }

      .cls-16 {
        fill: #fcd6ca;
      }

      .cls-17 {
        fill: #ffac33;
      }

      .cls-18 {
        fill: #fcdec8;
      }

      .cls-19 {
        fill: #93c2ff;
      }
    </style>
  </defs>
  <!-- Generator: Adobe Illustrator 28.7.1, SVG Export Plug-In . SVG Version: 1.2.0 Build 142)  -->
  <g>
    <g id="_레이어_1" data-name="레이어_1">
      <g>
        <path class="cls-2" d="M385.1,364.3c0-1.2,47.8-94.1-26.5-140.4,0,0-34.4-14.6-34.4,31.2,0,0,45.1,14.2,35.6-41.1,0,0-18.2-86.2-135.6-71.6"/>
        <path class="cls-15" d="M199.9,63.1l14.7,34.2,37.1,3.4c7.5.7,10.5,10,4.9,14.9l-28,24.5,8.3,36.3c1.7,7.3-6.3,13.1-12.7,9.2l-32-19.1-32,19.1c-6.5,3.8-14.4-1.9-12.7-9.2l8.3-36.3-28-24.5c-5.7-4.9-2.6-14.3,4.9-14.9l37.1-3.4,14.7-34.2c3-6.9,12.7-6.9,15.7,0Z"/>
        <g>
          <path class="cls-1" d="M587.5,481.9c8.6,4.8,18.4,6.7,27.6,10.2,10.1,3.8,17.6,9.4,23,18.9,4.1,7.2,6.8,15.2,8.3,23.4,2.5-7.5,3.6-15.6.7-23.6-3.5-9.7-11.6-18-21.7-22.2-5.2-2.1-10.6-2.9-16.4-3.7-4.4-.6-8.9-1.3-13.3-2.6-8.5-2.5-15.4-5.8-21.3-10,4,3.7,8.5,7,13.3,9.6Z"/>
          <path class="cls-12" d="M382.8,401.5c0-1.8,1.5-3.3,3.3-3.3h11.5c1.8-4.4,4.2-8.4,7-12.1,2.3.3,4.7.9,6.4,2.4.4.4,1,.5,1.5.5s1.3-.3,1.8-.8c.8-1,.7-2.4-.3-3.2-1.7-1.5-3.8-2.3-5.9-2.9,11.6-12.4,29.3-19.7,48.6-18.5,1.1,0,2.2.2,3.3.4-3.5,5.8-7.9,14.8-10.3,26.8-12.1,2.2-19.7-1-19.8-1.1-1.2-.5-2.5,0-3,1.1-.5,1.2,0,2.5,1.1,3.1.3.1,5.2,2.3,13.5,2.3s4.7-.2,7.4-.6c-1.4,9.5-1.7,20.6.5,33.3,0,0,3.9,30.6,28.4,52.9,4.8,4.3,10.3,8.4,16.8,11.8h.4c0-.1,5.9,29,5.9,29l70.2,22.6,3.7.6c0,.2,0,.3,0,.4,1,.2,10.5,2.6,22.3,6.7l.2.2s.2,0,.2,0c12.3,4.3,26.9,10.6,36.2,18.3h0c14.4,9.8,26.9,33.3,37.3,62.3,6.1-9.1,11-21.7,10.4-38.9-.4-11.5-7.3-20.8-15.5-28.2-1.6-1.4-3.1-2.8-4.7-4.2-1.6-1.4-3.1-2.9-4.6-4.4-1.5-1.5-2.9-3.1-4.1-4.8-1.2-1.7-2.3-3.5-3.2-5.4-.7-1.5-1.1-3-1.5-4.5,4.5-10,7.9-21.9,3.6-33.8-3.9-10.9-13-20.3-24.3-24.9-5.7-2.4-11.7-3.2-17.5-4-4.4-.6-8.6-1.2-12.7-2.4-9.7-2.9-17.3-6.8-23.4-11.9-4.1-3.5-7.8-7.4-11-11.5-1.1-2.8-2.3-5.9-3.6-9.2h0c0-.1,0-.1,0-.1-6.7-16.4-16.4-37.3-26.2-47.3-1.5-2.1-2.9-4.1-4.4-6,3.7-2.3,8.1-5.8,6.4-8.8-1.9-3.3-7.2-.2-10.7,2.2.7-2.7,1.5-6.9-.9-7.5-1.9-.5-2.9,1.9-3.4,4.2-22.4-22.8-44.8-25.3-51.3-25.6-9-1.5-18-2.6-27.1-2.6-10.2,0-20.2,2-29.8,5-11.1,3.6-22.5,8.2-31.4,16.1-7.2,6.3-11.6,14.6-12.1,24.2-.6,11.5,3.3,22.8,8.6,33,1.4-5.3,3.5-10.2,6.4-14.7v-16ZM484.5,408.7c0-.4,2.5-.5,2.8-.5,1.3,0,2.6-.2,4,0,2.2.1,4.3,1,6.2,2,11.8,6.7,12.3,21.8,2.5,30.6-.4.3-7.8,5-8,4.4,0,0-7.5-36.4-7.5-36.4ZM608.8,484.9c5.8.8,11.2,1.6,16.4,3.7,10.1,4.2,18.3,12.5,21.7,22.2,2.9,8,1.8,16-.7,23.6-1.5-8.2-4.2-16.2-8.3-23.4-5.4-9.5-12.9-15.1-23-18.9-9.2-3.4-19-5.4-27.6-10.2-4.8-2.6-9.3-5.9-13.3-9.6,5.9,4.2,12.9,7.5,21.3,10,4.4,1.3,8.9,1.9,13.3,2.6Z"/>
          <path class="cls-12" d="M607.2,865.4c-26.8-9.4-82.3-51.7-86.7-55.1-48.7-1.5-80.3-20.8-93.3-30.7h-26.9c-.8,0-1.6-.2-2.3-.4-17.6,19-51.1,132.2-51.1,132.2h355c-4.7-18.7-10.8-36.8-17.2-53.3-8.8,7.4-17,10.6-17,10.6-23.7,7.8-45,3.4-60.7-3.3Z"/>
          <path class="cls-13" d="M705.9,814.8c.6-27.5-12-117.5-34.9-181.2-10.4-28.9-23-52.5-37.3-62.3h0c-9.3-7.7-23.8-13.9-36.2-18.3,0,0-.2,0-.2,0l-.2-.2c-11.8-4.1-21.3-6.5-22.3-6.7,0,0,0,0,0,.1h0s-.1,0-.1,0c-4.1,20.9-52.8,29.9-109.8,21.3-57.6-8.7-101.7-33-98.5-54.3h.6c-4.4-1.2-9.1-1.4-13.7-1.1-6.8.4-13.6,1.8-20.1,3.7-3.2.9-6.3,2.1-9.4,3.4-30.6,10.2-67,24.4-98.1,37.2l-1.5,53.5c-41.8,10.3-94.7-2.9-98.4-3.9-.1,0-.2,0-.2,0-4.7,12.1-6.8,21.8-7.6,29.2,0,.6-.1,1.2-.2,1.8-.1,1.7-.2,3.3-.2,4.7,0,0,0,.2,0,.3s0,.2,0,.3c0,4.4.4,7.5.8,9.2,4.5,28.4,29.1,50.2,58.8,50.2s6.1-.3,9-.8h0c52.4-7.6,101.9-17.5,130.3-23.5-.7-8.4-.5-30.8,16.6-54.2l-4.9-19.3c-.3-1.2.4-2.4,1.6-2.8,1.2-.3,2.4.4,2.8,1.6l5.2,20.3c.2.7,0,1.4-.4,1.9-20.8,27.9-16,55-16,55.3.2,2.2,5.2,49.6,63.4,52.4,1.3,0,2.2,1.1,2.2,2.4,0,1.2-1.1,2.2-2.3,2.2s0,0-.1,0c-2.3-.1-4.6-.3-6.8-.6l14.3,37.3c1,2.7,3.3,4.6,6,5.4.7.2,1.5.4,2.3.4h26.9c-4.5-3.4-6.8-5.7-6.8-5.7-6-6.2-9.8-12.1-12.2-17.7-.5-.7-.9-1.5-1.2-2.4l-8.4-25.5c-.7-2.1-.7-4.3-.1-6.3,1-3.2,3.4-5.9,6.8-7,1.2-.4,2.4-.5,3.6-.5.8-6,4.2-7.7,4.8-8,.7-.3,1.5-.2,2.1.2.6-.3,1.2-.7,1.9-.9,3.3-1.1,6.7-.4,9.3,1.4.1-2.3.7-4,1.3-5.3l-.3-.3c-6.9-6.9-6.9-18.2,0-25.1l46.5-46.5c6.9-6.9,18.2-6.9,25.1,0l46.5,46.5c6.9,6.9,6.9,18.2,0,25.1l-26.6,26.6c.2.2.4.3.6.5l34.2,25.8c.5-.8,1.4-1.3,2.4-1.1l53.9,10.5-28-92.7c-.4-1.2.3-2.5,1.5-2.8,1.2-.4,2.5.3,2.8,1.5l28.7,95,25.8,5c1.2.2,2.1,1.5,1.8,2.7-.2,1.1-1.2,1.9-2.3,1.9s-.3,0-.4,0l-2-.4-28.1,92.4c-1-.3-2.2-.6-3.3-1.1,15.7,6.7,37,11.1,60.7,3.3,0,0,8.2-3.1,17-10.6,9.9-8.4,20.5-22.2,21-43.4Z"/>
          <path class="cls-18" d="M464.9,567.6c57,8.6,105.7-.4,109.8-21.3h.1s0,0,0,0c0,0,0,0,0-.1,0-.2,0-.3,0-.4l-3.7-.6-70.2-22.6-5.9-29.1h-.4c-6.5-3.3-12-7.3-16.8-11.6-4.8,4.8-10.6,8.8-17.1,11.7-3.2,5.1-11.8,16.1-28.2,19.9l.3,1.5c.1.5,0,.9-.1,1.4l-5.4,13.5c-.4.9-1.2,1.4-2.1,1.4s-.6,0-.9-.2c-1.2-.5-1.8-1.8-1.3-3l5.1-12.8-61.2-2h-.6c-3.2,21.3,40.9,45.7,98.5,54.3Z"/>
          <path class="cls-8" d="M224.2,609.9l1.5-53.5,1.1-39.7c1-.8,2.4-2.5,2.7-2.9,2.7-3,4.8-6.5,6.2-10.3,4.2-10.5,2.8-21.8-.2-32.5-1.5-5.3-3.4-10.4-5.1-15.7-.8-2.3-1.5-4.6-2.2-7-.1-.5-.4-2-.8-3.6-.2,0-.5.2-.7.2s-.6,0-.8-.2l-1.3-.5-22.1,15.4c-2.8,2-6,2.9-9.2,2.9-5.1,0-10.1-2.4-13.2-6.9-2.6-3.8-3.4-8.3-2.5-12.5-1.2.3-2.5.5-3.7.5-5.1,0-10.1-2.4-13.2-6.9-1.4-2-2.3-4.3-2.6-6.6-1,.3-2.1.5-3.1.5-4.8,0-9.3-3-10.9-7.9,0-.2-.1-.4-.2-.6.4,1.5.9,3.1,1.7,4.6,4.6,9.6,22,52.8,22,52.8h0c-7.2,21.4-29.3,87.4-41.8,126.4,3.7,1,56.7,14.2,98.4,3.9Z"/>
          <path class="cls-11" d="M384.7,737.1c1.2,0,2.2-.9,2.3-2.2,0-1.2-.9-2.3-2.2-2.4-58.2-2.8-63.2-50.2-63.4-52.4,0-.3-4.9-27.3,16-55.3.4-.5.5-1.3.4-1.9l-5.2-20.3c-.3-1.2-1.6-2-2.8-1.6-1.2.3-1.9,1.5-1.6,2.8l4.9,19.3c-17.1,23.4-17.3,45.8-16.6,54.2.2,2.1.4,3.3.4,3.5,0,.5,1.3,13.6,10.3,27.1,7.7,11.6,22.6,25.5,50.6,28.7,2.2.2,4.4.4,6.8.6,0,0,0,0,.1,0Z"/>
          <path class="cls-4" d="M426.3,496.4c.6-.1,1.3,0,1.8.3,3.6,0,20.8,0,34.1-5.8,0,0-.5,1-1.5,2.6,6.5-2.9,12.3-6.9,17.1-11.7-24.6-22.2-28.4-52.9-28.4-52.9-2.1-12.7-1.9-23.8-.5-33.3-2.7.4-5.2.6-7.4.6-8.3,0-13.2-2.2-13.5-2.3-1.2-.5-1.7-1.9-1.1-3.1.5-1.2,1.9-1.7,3-1.1.1,0,7.8,3.3,19.8,1.1,2.5-12,6.8-21.1,10.3-26.8-1.1-.1-2.2-.3-3.3-.4-19.3-1.3-36.9,6.1-48.6,18.5,2.1.5,4.2,1.4,5.9,2.9,1,.8,1.1,2.3.3,3.2-.5.5-1.1.8-1.8.8s-1.1-.2-1.5-.5c-1.7-1.4-4.1-2.1-6.4-2.4-2.9,3.7-5.3,7.8-7,12.1h-11.5c-1.8,0-3.3,1.5-3.3,3.3v16c-2.9,4.5-5.1,9.4-6.4,14.7-.8,3-1.3,6-1.5,9.2-1.8,27.9,20,52.4,49.7,57,.1-.9.8-1.7,1.8-1.9ZM432.1,401.4c.1.4,0,.9,0,1.3-.2.9-.5,1.8-.8,2.7-.4,1-1,2-1.6,2.9-.6.9-1.3,1.7-2.2,2.4-.8.5-1.9.5-2.7,0-1-.8-1.4-1.8-1.1-3,.2-.9.7-1.6,1.2-2.3.4-.5.8-1.1,1.1-1.7.7-1,1.4-2,2.1-3,.3-.5,1-.7,1.6-.8.6,0,1.2.2,1.6.5.4.3.6.7.7,1.1ZM402.4,397.1c.6-.9,1.2-1.7,1.8-2.6.3-.4.9-.6,1.3-.7.5,0,1,.2,1.4.5.3.2.5.6.6.9.1.4,0,.7,0,1.1-.1.6-.3,1.2-.6,1.8h-5.3c.2-.4.5-.7.7-1.1ZM388.9,433c-1.2-.4-1.9-1.7-1.5-2.9.4-1.2,1.7-1.9,2.9-1.5.5.2,13.2,4.2,18.3-4.7.6-1.1,2-1.5,3.1-.9,1.1.6,1.5,2,.9,3.1-3.6,6.2-9.9,8.1-15.6,8.1s-6.1-.6-8.2-1.3Z"/>
          <path class="cls-7" d="M423.1,528.1c-.5,1.2.1,2.5,1.3,3s.6.2.9.2c.9,0,1.8-.5,2.1-1.4l5.4-13.5c.2-.4.2-.9.1-1.4l-.3-1.5c16.4-3.8,25-14.9,28.2-19.9,1-1.6,1.5-2.6,1.5-2.6-13.3,5.8-30.5,5.9-34.1,5.8-.5-.3-1.1-.5-1.8-.3-1,.2-1.6,1-1.8,1.9,0,.3,0,.5,0,.8l3.7,16.2h0s-5.1,12.8-5.1,12.8Z"/>
          <path class="cls-6" d="M499.9,440.7c9.8-8.8,9.3-23.9-2.5-30.6-1.9-1.1-4-1.9-6.2-2-1.3,0-2.6,0-4,0-.2,0-2.8,0-2.8.5,0,0,7.4,36.4,7.5,36.4.1.6,7.6-4.1,8-4.4ZM489.8,412.9c.3,0,8-1,11.9,5.4.5.9.3,2.1-.7,2.6-.3.2-.7.3-1,.3-.7,0-1.3-.3-1.6-.9-2.6-4.3-8-3.6-8.1-3.6-1,.1-2-.6-2.2-1.6-.1-1.1.6-2,1.6-2.2Z"/>
          <path class="cls-12" d="M428.1,400.6c-.7,1-1.4,2-2.1,3-.4.6-.8,1.1-1.1,1.7-.5.7-1,1.5-1.2,2.3-.3,1.2.2,2.3,1.1,3,.7.6,1.9.6,2.7,0,.9-.6,1.6-1.5,2.2-2.4.6-.9,1.2-1.9,1.6-2.9.4-.9.7-1.8.8-2.7,0-.4.1-.9,0-1.3-.1-.4-.4-.8-.7-1.1-.5-.4-1.1-.6-1.6-.5-.6,0-1.2.3-1.6.8Z"/>
          <path class="cls-12" d="M406.9,398.1c.2-.6.5-1.2.6-1.8,0-.4.1-.7,0-1.1-.1-.4-.3-.7-.6-.9-.4-.3-.9-.5-1.4-.5-.5,0-1,.3-1.3.7-.6.9-1.2,1.7-1.8,2.6-.2.4-.5.7-.7,1.1h5.3Z"/>
          <path class="cls-7" d="M412.7,426.2c.6-1.1.2-2.5-.9-3.1-1.1-.6-2.5-.2-3.1.9-5.1,8.9-17.8,4.9-18.3,4.7-1.2-.4-2.5.3-2.9,1.5-.4,1.2.3,2.5,1.5,2.9,2.1.7,5,1.3,8.2,1.3,5.6,0,12-1.8,15.6-8.1Z"/>
          <path class="cls-7" d="M490.3,416.7c0,0,5.5-.7,8.1,3.6.4.6,1,.9,1.6.9s.7,0,1-.3c.9-.5,1.2-1.7.7-2.6-3.9-6.5-11.6-5.5-11.9-5.4-1.1.1-1.8,1.1-1.6,2.2.2,1.1,1.2,1.8,2.2,1.6Z"/>
          <path class="cls-5" d="M155,430.7c1,0,2.1-.2,3.1-.5.4,2.3,1.2,4.6,2.6,6.6,3.1,4.5,8.1,6.9,13.2,6.9s2.5-.2,3.7-.5c-.9,4.2-.1,8.7,2.5,12.5,3.1,4.5,8.1,6.9,13.2,6.9s6.4-.9,9.2-2.9l22.1-15.4-5.3-2.1c-1.2-.5-1.8-1.8-1.3-3,.5-1.2,1.8-1.8,3-1.3l6.5,2.6c.5.2.8.5,1.1,1l7.4-5.2c7.3-5.1,9.1-15.1,4-22.4-.2-.3-.4-.5-.6-.7.1.8-.1,1.7-.8,2.2-1,.8-2.5.6-3.2-.4-6.8-8.9-16-3.2-16.4-2.9l-16.4,11.4c-.4.3-.9.4-1.3.4-.7,0-1.4-.3-1.9-1-.7-1-.5-2.5.6-3.2l16.5-11.5c1.7-1.1,4.1-2.1,6.9-2.6.3-3.2-.4-6.4-2-9.3-.2.3-.4.6-.6.8-1,.8-2.5.6-3.2-.4-6.8-8.9-16-3.2-16.4-2.9l-16.4,11.4c-.4.3-.9.4-1.3.4-.7,0-1.4-.3-1.9-1-.7-1-.5-2.5.6-3.2l16.5-11.5c.2-.1.5-.3.7-.4-.2-1.3-.6-2.6-1.2-3.9-1,.5-2.2.3-2.9-.6-6.8-8.9-16-3.2-16.4-2.9l-16.4,11.4c-.4.3-.9.4-1.3.4-.7,0-1.4-.3-1.9-1-.7-1-.5-2.5.6-3.2l6-4.2c4.7-15.3,14.9-25.7,15.6-26.4,4.5-4.5,4.6-11.7.1-16.3-4.5-4.5-11.7-4.6-16.3-.1-1.5,1.4-35.6,35.7-21.4,79.4,0,.2.1.4.2.6,1.6,4.8,6.1,7.9,10.9,7.9Z"/>
          <circle class="cls-9" cx="236.8" cy="290.9" r="51.2"/>
          <path class="cls-7" d="M159.2,393.1c.4.6,1.2,1,1.9,1s.9-.1,1.3-.4l16.4-11.4c.4-.2,9.6-6,16.4,2.9.7.9,2,1.1,2.9.6,0,0,.2,0,.3-.1,1-.8,1.2-2.2.4-3.2-7.5-9.8-18-6.9-22.6-4l-10.5,7.3-6,4.2c-1,.7-1.3,2.2-.6,3.2Z"/>
          <path class="cls-7" d="M182.2,401.5c-1,.7-1.3,2.2-.6,3.2.4.6,1.2,1,1.9,1s.9-.1,1.3-.4l16.4-11.4c.4-.2,9.6-6,16.4,2.9.8,1,2.2,1.2,3.2.4.3-.2.5-.5.6-.8.4-.8.3-1.7-.2-2.4-7.1-9.3-17-7.2-21.9-4.4-.2.1-.5.3-.7.4l-16.5,11.5Z"/>
          <path class="cls-7" d="M200.1,419.7c-1,.7-1.3,2.2-.6,3.2.4.6,1.2,1,1.9,1s.9-.1,1.3-.4l16.4-11.4c.4-.2,9.6-6,16.4,2.9.8,1,2.2,1.2,3.2.4.7-.5,1-1.4.8-2.2,0-.4-.2-.7-.4-1-4.8-6.3-10.8-7.3-15.7-6.5-2.8.5-5.2,1.5-6.9,2.6l-16.5,11.5Z"/>
          <path class="cls-7" d="M227.7,440.6l-6.5-2.6c-1.2-.5-2.5.1-3,1.3-.5,1.2.1,2.5,1.3,3l5.3,2.1,1.3.5c.3.1.6.2.8.2s.5-.1.7-.2c.6-.2,1.2-.6,1.4-1.2.3-.7.2-1.4-.2-2-.3-.4-.6-.8-1.1-1Z"/>
          <path class="cls-17" d="M432.1,697.9c1.1-.5,2.3,0,2.9,1,.3-.1.6-.3.9-.4,4.4-1.4,9,.2,11.6,3.6h0s7.5,10.5,7.5,10.5h0c1.5,2,2.4,3.6,2.4,3.6,3.1,4.3,8.7,8.7,15.4,13,.1,0,13.1,3,14.7-6.9l-1.7-10.5c-.4-2.5,0-4.9,1-7.1,1.6-3.4,4.8-6,8.8-6.6,6.5-1.1,12.6,3.3,13.7,9.8l1.2,7.4s2.9,7.5,9.2,12.6l26.6-26.6c6.9-6.9,6.9-18.2,0-25.1l-46.5-46.5c-6.9-6.9-18.2-6.9-25.1,0l-46.5,46.5c-6.9,6.9-6.9,18.2,0,25.1l.3.3c1.3-2.7,3.2-3.7,3.6-3.9Z"/>
          <path class="cls-8" d="M607.2,865.4c1.2.4,2.3.8,3.3,1.1l28.1-92.4-82.7-16.2c-1.2-.2-2.1-1.5-1.8-2.7,0-.3.2-.5.3-.7l-34.2-25.8.9,13.1h-7c-.8,5-4.6,9.1-9.8,10-3.6.6-7.1-.5-9.6-2.7l-7.3,5.8-18.4-15.3,3.8-10.1s0,0,0,0c-6.7-4.3-12.3-8.8-15.4-13,0,0-.9-1.6-2.4-3.6l-3.3.2,5.8,17.7c1.8,5.5-1.2,11.5-6.7,13.3-3.9,1.3-8,.1-10.7-2.6,0,4.5-2.8,8.6-7.2,10.1-1.8.6-3.5.6-5.2.3-.4,4-3.1,7.5-7.2,8.9-4.7,1.5-9.6-.4-12.2-4.3,2.3,5.5,6.1,11.5,12.2,17.7,0,0,2.3,2.3,6.8,5.7,13,9.9,44.5,29.2,93.3,30.7,4.3,3.3,59.9,45.6,86.7,55.1Z"/>
          <path class="cls-5" d="M420.5,760.6c4.1-1.3,6.7-4.9,7.2-8.9,1.7.3,3.5.3,5.2-.3,4.5-1.5,7.2-5.6,7.2-10.1,2.7,2.7,6.8,3.8,10.7,2.6,5.5-1.8,8.5-7.8,6.7-13.3l-5.8-17.7,3.3-.2h0s-7.5-10.6-7.5-10.6h0c-2.6-3.4-7.3-5-11.6-3.6-.3.1-.6.3-.9.4,0,0,0,.1.1.2.5,1.1,0,2.5-1.1,3-.2.1-5.5,3.5.8,19.4.5,1.2-.1,2.5-1.3,3-.3.1-.6.2-.9.2-.9,0-1.8-.5-2.1-1.5-2.9-7.2-3.6-12.4-3.4-16.1-2.6-1.8-6-2.4-9.3-1.4-.7.2-1.3.6-1.9.9.4.2.7.6.9,1,.5,1.1,0,2.5-1.1,3-.2.1-5.5,3.5.8,19.4.5,1.2-.1,2.5-1.3,3-.3.1-.6.2-.9.2-.9,0-1.8-.5-2.1-1.5-3.2-8-3.8-13.5-3.3-17.3-1.2,0-2.4,0-3.6.5-3.4,1.1-5.9,3.8-6.8,7-.6,2-.6,4.2.1,6.3l8.4,25.5c.3.9.7,1.7,1.2,2.4,2.6,3.9,7.5,5.8,12.2,4.3Z"/>
          <path class="cls-5" d="M510.5,715.5l-1.2-7.4c-1.1-6.5-7.2-10.9-13.7-9.8-4,.7-7.2,3.2-8.8,6.6-1,2.1-1.4,4.6-1,7.1l1.7,10.5c-1.6,9.9-14.6,6.9-14.7,6.9,0,0,0,0,0,0l-3.8,10.1,18.4,15.3,7.3-5.8c2.6,2.2,6,3.3,9.6,2.7,5.2-.9,9.1-5,9.8-10h7l-.9-13.1c-.2-.2-.4-.3-.6-.5-6.3-5.1-9.2-12.6-9.2-12.6Z"/>
          <path class="cls-7" d="M430.5,723.2c.4.9,1.2,1.5,2.1,1.5s.6,0,.9-.2c1.2-.5,1.8-1.8,1.3-3-6.3-15.9-1.1-19.3-.8-19.4,1.1-.5,1.6-1.8,1.1-3,0,0,0-.1-.1-.2-.6-1-1.8-1.5-2.9-1-.4.2-2.3,1.2-3.6,3.9-.6,1.3-1.2,3-1.3,5.3-.2,3.8.5,8.9,3.4,16.1Z"/>
          <path class="cls-7" d="M412.3,731.8c.4.9,1.2,1.5,2.1,1.5s.6,0,.9-.2c1.2-.5,1.8-1.8,1.3-3-6.3-15.9-1.1-19.3-.8-19.4,1.1-.5,1.6-1.8,1.1-3-.2-.5-.5-.8-.9-1-.6-.4-1.4-.5-2.1-.2-.6.3-4.1,2-4.8,8-.5,3.8.1,9.3,3.3,17.3Z"/>
          <path class="cls-11" d="M556,757.8l82.7,16.2,2,.4c.2,0,.3,0,.4,0,1.1,0,2-.8,2.3-1.9.2-1.2-.6-2.5-1.8-2.7l-25.8-5-28.7-95c-.4-1.2-1.6-1.9-2.8-1.5-1.2.4-1.9,1.6-1.5,2.8l28,92.7-53.9-10.5c-1-.2-1.9.3-2.4,1.1-.1.2-.2.5-.3.7-.2,1.2.6,2.5,1.8,2.7Z"/>
        </g>
        <g>
          <path class="cls-1" d="M1279.2,461.2l-.4,2.4h.2c.2-.3.4-.6.6-.9-.1-.5-.3-1-.4-1.5Z"/>
          <path class="cls-1" d="M952.9,253.7c3.3-1.4,6.9-2.1,10.7-2.3,0,0,0,0,0-.1-4.2.2-7.8,1.2-10.7,2.4Z"/>
          <path class="cls-1" d="M1100.6,168.5c1.5,1.3,3,2.5,4.4,3.9-1.2-2.7-3.2-5.1-5.5-7.1.5,1,.9,2.1,1.1,3.3Z"/>
          <path class="cls-12" d="M1093.1,339.2c.5,8,.8,16.5.9,24.9l-12.4,7.2c-8.7,5.1-19.3,6.2-28.9,3.1l-56.7-18.3,4.1-47.8c-39.2,7.9-48.4,25.3-50.6,32.7l-6.4-2.1c-2.1-.7-4.4.5-5.1,2.6-.7,2.1.5,4.4,2.6,5.1l109.6,35.5c4.4,1.4,8.9,2.1,13.4,2.1,7.6,0,15.2-2,22-5.9l2.5-1.5,5.9-3.4,37.2-21.7c1.9-1.1,2.6-3.6,1.5-5.5-1.1-1.9-3.5-2.5-5.4-1.5-7.1-15.3-21.1-24.8-35.7-30.7.7,7.9,1.5,25.2,1.5,25.2,0,0,0,0-.1,0Z"/>
          <path class="cls-12" d="M1100.6,168.5c-.2-1.1-.6-2.2-1.1-3.3-.7-.6-1.4-1.2-2.2-1.7h0c-2.6-1.7-5.5-2.8-8.5-3.3,4.2,2.5,8.1,5.2,11.8,8.3Z"/>
          <path class="cls-10" d="M1460.8,476.8h0s-11-23.8-11-23.8h0s-29.7-64.4-29.7-64.4h-.3c0,.1-136.8,52.5-136.8,52.5,1.9,7,4,14.6,6.4,22.5,12.5.8,21.9,13.1,20.4,27.1l-2.6,24c2.8,6.7,5.7,12.9,8.7,18.5,1.2,2.2.4,5-1.9,6.2-.7.4-1.4.5-2.2.5-1.6,0-3.2-.9-4-2.4-.9-1.6-1.7-3.3-2.5-5l-11.5,108.9h71.9c59.4,0,107.6-50.2,107.6-112.1s-4.6-37-12.7-52.7Z"/>
          <path class="cls-10" d="M1279,463.6h.9c0-.3-.2-.6-.2-.9-.2.3-.4.6-.6.9Z"/>
          <polygon class="cls-16" points="1449.9 453 1449.8 453 1449.9 453 1449.9 453"/>
          <path class="cls-16" d="M1274.6,407.6c0,.3,3.2,14.3,8.4,33.5l136.8-52.4-65.5-140c16.2-15.7,15.6-43.9,12.2-67.3-.3.5-.6.8-.7.9-4.8,4.8-9.6,6.5-13.8,6.5-2.3,0-4.4-.5-6.2-1.3-.5,1.4-1.1,2.8-1.7,4.2-4,7.8-10.4,12.6-17.7,13.5,6.6,14,6.6,31.4,2.3,43.8-.5,1.4-1.8,2.3-3.3,2.3s-.8,0-1.1-.2c-1.8-.6-2.8-2.6-2.2-4.4,5.4-15.6,2.4-35.6-7-46.6-.5-.5-1-1.1-1.5-1.6-3-3.2-8.7-9.2-3.2-16.1,1.9-2.4,5-4.3,9.1-5.8,1.8-.6,3.8.3,4.4,2.1.6,1.8-.3,3.8-2.1,4.4-3.6,1.3-5.3,2.7-6,3.6-1.4,1.7-1.2,2.7,2.8,7,.6.6,1.2,1.3,1.7,1.9.9,1.1,1.6,2.3,2.4,3.4.5-.3,1.1-.6,1.7-.6,5.4-.3,10.3-3.9,13.3-9.9,3.7-7.4,3.8-16.3.2-21.8-6.9-10.5-22.8-13.7-34.3-13.2-15.7.6-30.1,8-38.5,19.6-1.1,1.6-3.3,1.9-4.9.8-1.6-1.1-1.9-3.3-.8-4.9,4.9-6.8,11.7-12.3,19.5-16.2-1.5-2.8-5.5-6.4-8.5-8.5-1.6-1.1-2-3.3-.9-4.8,1.1-1.6,3.3-2,4.8-.9,1.6,1.1,8.1,6,10.9,11.6,5.7-2,11.7-3.3,18-3.5.8,0,1.6,0,2.4,0-3.3-15.8-13.4-24.6-13.5-24.7-.7-.6-1.1-1.5-1.2-2.3-8.9.8-16.3,2.9-21.8,5.2.6-5.4,1.6-10.8,2.8-16.1h-33.7c-3.4,16.6-4.7,33.6-1.6,50.4,0,0,0,0,0,0,.8,43.3,8.4,79.5,12.8,96.7.2,44.6,10,102.8,19.4,148.5,0,0,0,0,.1,0,2.5-.6,4.9,1,5.4,3.5Z"/>
          <path class="cls-10" d="M1108.5,748.7c-5.9,0-11.2-2.7-15.1-6.9-.7.2-1.3.4-2,.6-7.7,1.6-14.5.1-19.3-1.7-5.8-2.2-12.1-1.2-17.3,2.2l-84.8,55c2,20.7-17,30.4-27.3,35.7l-140.5,72c-.5.3-1.1.4-1.6.4-1.3,0-2.5-.7-3.1-1.9-.9-1.7-.2-3.8,1.5-4.7l140.6-72c13-6.7,25.6-14.5,23.5-29.8-.2-1.4.5-2.6,1.5-3.3-18.1-38-18.7-95.3-18.4-113-22.8-22.7-69.8,4.2-70.2,4.5l-127.8,61c-.7.8-1.6,1.2-2.6,1.2l-29.3,14c-.5.2-1,.3-1.5.3-1.3,0-2.6-.7-3.1-2-.8-1.7,0-3.8,1.6-4.6l24.6-11.7c-14.1-6.8-31.6-3.8-31.8-3.8-1.9.4-3.7-.9-4-2.8-.3-1.9.9-3.7,2.8-4,1-.2,23.8-4.1,40.6,7l70.6-33.7c0-.4.1-.9.3-1.3,25.7-58.4,29.3-127.1,29.1-137.2-.3-.6-.4-1.3-.2-2,.2-1.3,1.3-2.7,2.6-3.1,1.3-.3,2.7,0,3.6,1.1,3.1,3.6-1.5,77.9-26.2,138.2l47.4-22.6c1.8-1.1,49.3-28.2,76.3-5l102-49.2s11.7-10.4,27.6-20.5c0-.2.1-.4.2-.6,5.4-9.9,13.5-18.1,22.9-24.3l10.1-94.7c1.3-12.3,10.6-21.5,21.7-21.5h145.3l.4-2.4c-5.4-18.3-9.4-34.4-11.6-43.6-27.3-7.6-68.1-12.1-112.3-14.6l7-39.4h-.2c.6-2.5,1-4.9,1-7.5,0-22-23.1-41.4-58.3-52.9-4.3,2.7-8.9,5.1-13.5,7.2.1.6.3,1.9.4,3.5,14.6,5.9,28.6,15.5,35.7,30.7,1.9-1,4.3-.4,5.4,1.5,1.1,1.9.5,4.4-1.5,5.5l-37.2,21.7h0c-1.9,1.3-3.9,2.4-5.9,3.4l-2.5,1.5c-6.7,3.9-14.3,5.9-22,5.9-4.5,0-9-.7-13.4-2.1l-109.6-35.5c-2.1-.7-3.3-2.9-2.6-5.1.7-2.1,2.9-3.3,5.1-2.6l6.4,2.1c2.2-7.4,11.4-24.7,50.6-32.7l.2-2.5c-3.6-1.1-6.8-2.6-9.6-4.1-5.8,8-15.2,13.3-25.8,13.3-7.8,0-14.9-2.9-20.4-7.6-23,9.4-39.3,22.5-44.8,37.4v-.7c0,0-.6,2.4-.6,2.4h-.1s-.5,2.2-.5,2.2c-.1.4-.2.9-.3,1.3l-6.5,28.1-4.3,18.5c-19.1,3.1-38.2,6.6-57.1,10.7-31.9,6.8-61.1,14.9-87.4,35-19.8,15.2-29.6,40.9-37.8,63.5-29.6,81.3-49.3,165.8-82.9,245.7-10.8,25.6-14.9,56-8.6,83.3,13.4,57.8,77.8,82.6,132,73.5v2.9h392.6s19.4-27.6,38.7-162.8h-68.5Z"/>
          <path class="cls-12" d="M1279.6,462.7c0,.3.2.6.2.9h8.3c.4,0,.8.1,1.3.2-2.4-7.9-4.5-15.6-6.4-22.5-5.2-19.3-8.4-33.2-8.4-33.5-.6-2.5-3-4-5.4-3.5,0,0,0,0-.1,0-2.4.6-3.9,3-3.3,5.4.1.6.8,3.5,1.9,8,2.2,9.2,6.2,25.3,11.6,43.6.1.5.3,1,.4,1.5Z"/>
          <path class="cls-12" d="M1305.5,532.7c.8,1.7,1.7,3.4,2.5,5,.8,1.5,2.4,2.4,4,2.4s1.5-.2,2.2-.5c2.2-1.2,3.1-4,1.9-6.2-3-5.6-5.9-11.8-8.7-18.5l-1.9,17.8Z"/>
          <path class="cls-11" d="M1305.5,532.7l1.9-17.8,2.6-24c1.5-14-8-26.3-20.4-27.1-.4,0-.8-.2-1.3-.2h-154.7c-11.1,0-20.4,9.2-21.7,21.5l-10.1,94.7c5.4-3.6,11.3-6.6,17.2-9,15.3-5.7,31.1-7.1,47.1-6.1,9,.3,16,7.8,15.7,16.8-.1,4.4-2,8.4-5,11.2,3.2,1.1,8.5,2.9,8.5,2.9,9,3.1,13.7,12.8,10.6,21.8-.8,2.5-2.2,4.6-3.9,6.3.5.8.7,1.8.4,2.8-.2.6-.6,1.1-1.1,1.5,6,4.1,9.2,11.5,7.3,18.9-2.3,8.9-11,14.6-19.9,13.1-.8-.1-9.3-1.5-10.4-1.7-8.6-1.3-19-.5-27.9,2.3l.7,3.9c9.2-.8,18.5,0,27.2,2.4,0,0,10.5,3.2,10.5,3.2,8.9,2.7,14,12.1,11.3,21.1-2.5,8.4-11,13.4-19.5,11.7-5-1-11.6-2.5-16.6-2.5-9.5-.8-20.6,3.3-26.3,9.7-.5.7-.8,1.3-.8,1.3,0,0-.7,1-2,2.6-1.2,2.1-2.7,3.7-4.2,5.1-6.7,7.9-17.8,19.4-27.4,22.5,3.9,4.2,9.2,6.9,15.1,6.9h68.5s86.2,0,86.2,0c11.1,0,20.4-9.2,21.7-21.5l9.1-85.6,11.5-108.9Z"/>
          <path class="cls-16" d="M1078.9,604.1c0,.2-.1.4-.2.6-16,10.1-27.6,20.5-27.6,20.5l-102,49.2c.8.7,1.7,1.3,2.4,2,1.3,1.4,1.3,3.6,0,4.9-1.4,1.3-3.6,1.3-4.9,0,0,0-.2-.1-.2-.2-.3,17.8.3,75,18.4,113,.4-.3.9-.5,1.5-.6,1.9-.3,3.7,1.1,3.9,3,0,.4,0,.8,0,1.2l84.8-55c5.3-3.4,11.6-4.4,17.3-2.2,4.8,1.8,11.6,3.3,19.3,1.7.6-.1,1.3-.4,2-.6,9.7-3.1,20.7-14.6,27.4-22.5,1.5-1.4,3-3.1,4.2-5.1,1.3-1.6,2-2.6,2-2.6,0,0,.3-.6.8-1.3,5.7-6.4,16.8-10.5,26.3-9.7,5,0,11.6,1.5,16.6,2.5,8.4,1.7,17-3.3,19.5-11.7,2.7-8.9-2.4-18.4-11.3-21.1,0,0-10.5-3.2-10.5-3.2-8.7-2.4-18-3.2-27.2-2.4l-.7-3.9c8.9-2.8,19.3-3.6,27.9-2.3,1.1.2,9.6,1.6,10.4,1.7,8.9,1.4,17.6-4.2,19.9-13.1,1.9-7.4-1.3-14.9-7.3-18.9-.8.6-1.9.9-3,.6-40.3-13.3-73.5,1.5-73.9,1.7-.4.2-.9.3-1.4.3-1.2,0-2.4-.7-3-1.9-.7-1.6,0-3.6,1.6-4.3,1.4-.7,35.9-16.1,78.6-2,.7.2,1.3.8,1.7,1.4,1.7-1.8,3.1-3.9,3.9-6.3,3.1-9-1.7-18.7-10.6-21.8,0,0-5.3-1.8-8.5-2.9,3-2.8,4.9-6.8,5-11.2.3-9-6.8-16.5-15.7-16.8-16-.9-31.8.4-47.1,6.1-6,2.3-11.8,5.3-17.2,9-9.4,6.2-17.5,14.4-22.9,24.3Z"/>
          <path class="cls-16" d="M990.8,301.8c2.8,1.5,6,2.9,9.6,4.1l-.2,2.5-4.1,47.8,56.7,18.3c9.6,3.1,20.1,2,28.9-3.1l12.4-7.2c-.1-8.4-.5-16.8-.9-24.9-36.9-2.1-54.3-24.2-54.3-24.2,26.4,7.1,52.5-4.6,52.5-4.6,0,0,0,0,0,0,4.6-2.1,9.2-4.5,13.5-7.2,14.4-9,26.2-21.6,28.5-38.9,4.6-33.7-3.6-54.4-9.7-64.1-3-7.4-7-14.2-12-20.4.1,4.7-1.1,9.3-3.7,13.2-2.9,4.4-7.1,7.3-11.9,8.9.2.3.3.6.4,1,.2,1.8-1,3.4-2.8,3.7-2,.3-4,.4-5.8.4-23.7,0-30.8-21.7-30.8-22-.3-1,0-2,.5-2.8-1.4-.6-2.3-2-2.1-3.5,0-.8,2.4-19.1,19.9-25.1-9.4-3.5-19.5-5.5-30.2-5.5-9.4,0-18.4,1.5-26.9,4.3l-29.3,24.8s-3.6,29.3-16.5,38.4l18.5,35.7s6.9,10,5.2,13.2c-1.7,3.2-3.8,1.9-3.8,1.9-6.7-11-17.8-14-17.8-14-3.9-1.2-7.5-1.5-10.8-1.4,0,0,0,0,0,.1-3.8.2-7.4.9-10.7,2.3-.3.1-.5.2-.7.3-11.2,4.9-19.1,16.1-19.1,29.2s4.5,18.5,11.5,24.3c5.5,4.7,12.6,7.6,20.4,7.6,10.6,0,20-5.3,25.8-13.3ZM1057.6,225.8c1.1-1.4,3.2-1.6,4.6-.5.4.3,10,7.7,18.9,0,1.3-1.2,3.4-1,4.6.3,1.2,1.4,1,3.4-.3,4.6-4.3,3.7-8.9,5-13.1,5-6,0-11.3-2.7-14.1-4.9-1.4-1.1-1.6-3.2-.5-4.6ZM1047.8,224.4c-5,7.6-13.1,11.7-21.2,11.7-4.4,0-8.7-1.2-12.5-3.7-5.3-3.5-8.9-9-10-15.5-.8-4.4-.2-8.9,1.3-13.1-.5,0-.9,0-1.4-.3-1.8-.8-2.7-2.9-1.9-4.7.3-.8,8.7-19.3,35.6-19,2,0,3.6,1.7,3.6,3.7,0,2-1.7,3.9-3.7,3.6-1.1,0-1.9.2-2.9.2,2.5.6,5,1.5,7.2,3,11,7.2,13.6,22.5,6,34.2ZM952,267.5c.2-.2,5.6-6,13.5-5.3,5.8.4,11.3,4,16.1,10.8,1,1.4.7,3.3-.7,4.3-.5.4-1.2.6-1.8.6-1,0-1.9-.4-2.5-1.3-3.7-5.2-7.6-8-11.6-8.3-4.9-.3-8.7,3.4-8.7,3.5-1.2,1.2-3.1,1.3-4.3.1-1.2-1.2-1.3-3.1-.1-4.3Z"/>
          <path class="cls-16" d="M1094.1,373.4h0s-5.9,3.4-5.9,3.4c2-1,3.9-2.1,5.9-3.4Z"/>
          <path class="cls-16" d="M1313,146.9c7.4.8,14.9,3,21.2,6.9-2-17-7.3-23.9-7.3-24-1.1-1.4-.9-3.4.4-4.6-9.9-4-19.3-5.7-27.6-6,4,4.3,10.9,13.7,13.4,27.7Z"/>
          <path class="cls-16" d="M1100.6,168.5c-3.7-3.1-7.6-5.9-11.8-8.3-1-.2-2.1-.3-3.2-.3s-2.3,0-3.4.3c-5.1.9-9.5,3.7-12.2,7.8-2.8,4.2-3.6,9.3-2.4,14.3,1.2,5.1,4.4,9.6,8.9,12.6,9.3,6.1,21.6,4.1,27.3-4.6,2.7-4.2,3.6-9.3,2.4-14.3-.3-1.3-.7-2.5-1.3-3.7-1.4-1.4-2.9-2.6-4.4-3.9ZM1078.2,183.9c0-2.2,1.8-4,3.9-4s3.9,1.8,3.9,4-1.8,3.9-3.9,3.9c-2.2,0-3.9-1.8-3.9-3.9Z"/>
          <path class="cls-16" d="M1062.2,179.7c0,.6-.4,1.1-.7,1.6.4.2.7.4,1,.8-.1-.8-.3-1.6-.3-2.4Z"/>
          <path class="cls-16" d="M1039.1,194.3c-2.9-1.9-6.3-2.9-9.8-2.9s-3,.2-4.5.5c-5.1,1.2-9.6,4.4-12.6,8.9-3,4.5-4.2,9.9-3.3,15.1.9,5.1,3.7,9.5,7.8,12.2,8.7,5.7,20.7,2.8,26.9-6.6,6.1-9.3,4.1-21.6-4.6-27.3ZM1030.9,205.9c0-2.2,1.8-3.9,3.9-3.9s4,1.8,4,3.9-1.8,4-4,4-3.9-1.8-3.9-4Z"/>
          <path class="cls-19" d="M1272.2,108.6h40c6.7,0,10.8-7.5,7.2-13.1l-54-84.2c-3.4-5.2-11-5.2-14.4,0l-54,84.2c-3.6,5.7.4,13.1,7.2,13.1h34.3s19.7,0,19.7,0h14Z"/>
          <path class="cls-16" d="M1341.7,160.3c.7.8,1.5,1.6,2.1,2.5,3.2,4.8,4.4,11.2,3.6,17.7,2.4,1.4,7.4,2.9,13.4-3.1,0,0,4.2-5.1,5-18.2,0-1.7,1.4-2.9,3-3.2-1.8-13.3-10.5-24.9-26-30.5-3.8-1.1-7.1-.8-9.9.5,1.7,2.4,7.8,12.6,9,34.3Z"/>
          <path class="cls-12" d="M1034.9,209.8c2.2,0,4-1.8,4-4s-1.8-3.9-4-3.9-3.9,1.8-3.9,3.9,1.8,4,3.9,4Z"/>
          <path class="cls-12" d="M1086.1,183.9c0-2.2-1.8-4-3.9-4s-3.9,1.8-3.9,4,1.8,3.9,3.9,3.9c2.2,0,3.9-1.8,3.9-3.9Z"/>
          <path class="cls-12" d="M963.5,251.3c3.3-.1,6.9.2,10.8,1.4,0,0,11.1,3,17.8,14,0,0,2.1,1.3,3.8-1.9,1.7-3.2-5.2-13.2-5.2-13.2l-18.5-35.7c13-9.1,16.5-38.4,16.5-38.4l29.3-24.8c8.5-2.7,17.5-4.3,26.9-4.3,10.6,0,20.8,2,30.2,5.5-17.5,6-19.8,24.3-19.9,25.1-.2,1.6.7,3,2.1,3.5.3.1.6.3.9.3.1,0,.3,0,.4,0,1.1,0,2.1-.6,2.7-1.4.3-.5.6-1,.7-1.6,0,0,0,0,0,0,0-.6,2-15.2,15.9-19.5,1.8-.6,2.9-2.5,2.3-4.4,0,0,0,0,0-.1.3,0,.6-.2,1-.3,3.2-.5,6.4-.5,9.5.2,1.2-5.3-1.1-11-6.1-13.8-2.2-1.2-4.6-1.7-6.9-1.5,2.4-5.8.1-12.5-5.5-15.6-3.5-1.9-7.4-2-10.8-.6,1.2-5.8-1.4-12-6.8-15-6.7-3.7-15.2-1.3-18.9,5.5-.5.9-1.2,1.8-1.8,2.8-.3-4.9-3.1-9.5-7.8-11.8-6.9-3.4-15.3-.5-18.6,6.5-2.4,4.9-6.5,10.3-11.2,15.6-.2-4.7-3.2-9.1-7.9-11-6.4-2.5-13.7.6-16.2,7-5.7,14.6-17.8,31.3-22.7,37.9-11.6,12.8-16.7,26.1-16.7,26.1,0,0-16.7,39.8,13,69.9,0,0,2.3-1.8,6.1-3.5.2-.1.5-.2.7-.3,2.8-1.2,6.4-2.2,10.7-2.4Z"/>
          <path class="cls-10" d="M1041.8,190.2c-2.2-1.5-4.6-2.4-7.2-3-19.6,1-25.6,13.8-25.9,14.4-.6,1.4-1.9,2.2-3.3,2.2s0,0,0,0c-1.5,4.2-2.1,8.7-1.3,13.1,1.1,6.5,4.7,12,10,15.5,3.8,2.5,8.2,3.7,12.5,3.7,8.1,0,16.2-4.2,21.2-11.7,7.7-11.6,5-26.9-6-34.2ZM1043.7,221.6c-6.1,9.3-18.2,12.3-26.9,6.6-4.2-2.7-7-7.1-7.8-12.2-.9-5.2.3-10.5,3.3-15.1,3-4.5,7.5-7.7,12.6-8.9,1.5-.4,3-.5,4.5-.5,3.5,0,6.9,1,9.8,2.9,8.7,5.7,10.7,18,4.6,27.3Z"/>
          <path class="cls-10" d="M1081.3,155.3c-.3,0-.6.2-1,.3,0,0,0,0,0,.1.6,1.8-.5,3.8-2.3,4.4-13.9,4.3-15.8,18.9-15.9,19.5,0,0,0,0,0,0,0,.8.2,1.6.3,2.4.3.3.5.7.7,1.2.3.8,6.7,20.2,29.6,17,1.4-.2,2.7.6,3.3,1.8,4.7-1.6,9-4.5,11.9-8.9,2.6-3.9,3.9-8.5,3.7-13.2,0-1.7-.2-3.3-.6-5-1.5-6.3-5.4-11.9-11.1-15.6-2.8-1.9-5.9-3.1-9.1-3.8-3.1-.7-6.4-.7-9.5-.2ZM1104.9,172.4c.5,1.2,1,2.4,1.3,3.7,1.2,5,.4,10.1-2.4,14.3-5.7,8.7-18,10.7-27.3,4.6-4.5-3-7.7-7.5-8.9-12.6-1.2-5.1-.4-10.1,2.4-14.3,2.7-4.2,7.1-7,12.2-7.8,1.1-.2,2.3-.3,3.4-.3s2.1,0,3.2.3c3,.5,5.9,1.6,8.5,3.3h0c.8.5,1.5,1.1,2.2,1.8,2.3,2,4.2,4.4,5.5,7.1Z"/>
          <path class="cls-7" d="M1092.8,200.3c-22.9,3.2-29.3-16.2-29.6-17-.1-.4-.4-.8-.7-1.2-.3-.3-.6-.6-1-.8-.6.9-1.6,1.4-2.7,1.4s-.3,0-.4,0c-.3,0-.6-.2-.9-.3-.5.8-.8,1.8-.5,2.8,0,.2,7.1,22,30.8,22,1.8,0,3.8-.1,5.8-.4,1.8-.2,3-1.9,2.8-3.7,0-.4-.2-.7-.4-1-.6-1.2-1.9-1.9-3.3-1.8Z"/>
          <path class="cls-7" d="M1190.4,622.4c-42.8-14.2-77.2,1.3-78.6,2-1.6.8-2.3,2.7-1.6,4.3.5,1.2,1.7,1.9,3,1.9.5,0,.9,0,1.4-.3.3-.1,33.6-15,73.9-1.7,1.1.4,2.2,0,3-.6.5-.4.9-.9,1.1-1.5.3-1,.1-2-.4-2.8-.4-.6-.9-1.1-1.7-1.4Z"/>
          <path class="cls-7" d="M1072.2,235.4c4.2,0,8.8-1.3,13.1-5,1.4-1.2,1.5-3.2.3-4.6-1.2-1.4-3.2-1.5-4.6-.3-8.9,7.6-18.5.2-18.9,0-1.4-1.1-3.5-.9-4.6.5-1.1,1.4-.9,3.4.5,4.6,2.9,2.3,8.1,4.9,14.1,4.9Z"/>
          <path class="cls-7" d="M956.4,271.7s3.8-3.8,8.7-3.5c3.9.3,7.8,3.1,11.6,8.3.6.8,1.5,1.3,2.5,1.3s1.2-.2,1.8-.6c1.4-1,1.7-2.9.7-4.3-4.8-6.8-10.2-10.4-16.1-10.8-7.9-.6-13.3,5.1-13.5,5.3-1.2,1.2-1.1,3.1.1,4.3,1.2,1.2,3.1,1.1,4.3-.1Z"/>
          <path class="cls-3" d="M1038.9,315.1s17.4,22.1,54.3,24.2c0,0,0,0,.1,0,0,0-.8-17.3-1.5-25.2-.1-1.7-.3-2.9-.4-3.5,0,0,0,0,0,0,0,0-26.1,11.6-52.5,4.6Z"/>
          <path class="cls-12" d="M1008.7,201.6c.3-.6,6.3-13.4,25.9-14.4,1,0,1.9-.2,2.9-.2,2,.3,3.7-1.6,3.7-3.6,0-2-1.6-3.6-3.6-3.7-26.9-.3-35.3,18.2-35.6,19-.8,1.8,0,3.9,1.9,4.7.4.2.9.3,1.4.3,0,0,0,0,0,0,1.4,0,2.7-.8,3.3-2.2Z"/>
          <path class="cls-12" d="M951.4,681.4c1.4-1.3,1.4-3.6,0-4.9-.8-.8-1.6-1.4-2.4-2-27-23.1-74.5,4-76.3,5l-47.4,22.6c24.7-60.2,29.3-134.5,26.2-138.2-.9-1-2.3-1.4-3.6-1.1-1.3.4-2.4,1.8-2.6,3.1-.1.7,0,1.4.2,2,.2,10.1-3.4,78.7-29.1,137.2-.2.4-.3.9-.3,1.3l-70.6,33.7c-16.8-11.1-39.6-7.2-40.6-7-1.9.3-3.1,2.1-2.8,4,.3,1.9,2.1,3.2,4,2.8.2,0,17.7-3,31.8,3.8l-24.6,11.7c-1.7.8-2.5,2.9-1.6,4.6.6,1.3,1.8,2,3.1,2s1-.1,1.5-.3l29.3-14c1,0,1.9-.5,2.6-1.2l127.8-61c.5-.3,47.5-27.2,70.2-4.5,0,0,.2.1.2.2,1.3,1.4,3.6,1.4,4.9,0Z"/>
          <path class="cls-12" d="M966.1,793.6c-.6,0-1,.3-1.5.6-1.1.7-1.7,2-1.5,3.3,2.1,15.3-10.5,23.1-23.5,29.8l-140.6,72c-1.7.9-2.4,3-1.5,4.7.6,1.2,1.8,1.9,3.1,1.9s1.1-.1,1.6-.4l140.5-72c10.3-5.3,29.3-15.1,27.3-35.7,0-.4,0-.8,0-1.2-.3-1.9-2-3.3-3.9-3Z"/>
          <path class="cls-7" d="M1305.9,146.6c-.8,0-1.6,0-2.4,0-6.2.3-12.3,1.5-18,3.5-2.7-5.6-9.3-10.4-10.9-11.6-1.6-1.1-3.7-.7-4.8.9-1.1,1.6-.7,3.7.9,4.8,3,2.1,7,5.8,8.5,8.5-7.8,3.9-14.5,9.4-19.5,16.2-1.1,1.6-.8,3.7.8,4.9,1.6,1.1,3.7.8,4.9-.8,8.4-11.6,22.8-18.9,38.5-19.6,11.4-.5,27.3,2.7,34.3,13.2,3.6,5.5,3.6,14.5-.2,21.8-3.1,6-7.9,9.6-13.3,9.9-.7,0-1.2.3-1.7.6-.8-1.2-1.5-2.4-2.4-3.4-.5-.6-1.1-1.2-1.7-1.9-4-4.2-4.2-5.3-2.8-7,.8-.9,2.4-2.3,6-3.6,1.8-.6,2.8-2.6,2.1-4.4-.6-1.8-2.6-2.8-4.4-2.1-4.2,1.5-7.2,3.4-9.1,5.8-5.5,6.9.1,12.9,3.2,16.1.5.6,1,1.1,1.5,1.6,9.4,11,12.4,31,7,46.6-.6,1.8.3,3.8,2.2,4.4.4.1.8.2,1.1.2,1.4,0,2.8-.9,3.3-2.3,4.3-12.4,4.3-29.8-2.3-43.8,7.4-.9,13.8-5.7,17.7-13.5.7-1.3,1.2-2.7,1.7-4.2,1.8.7,3.9,1.3,6.2,1.3,4.2,0,9-1.6,13.8-6.5.1-.1.4-.5.7-.9,1.6-2.2,5.4-8.7,6.2-21.7.1-1.9-1.4-3.6-3.3-3.7-.2,0-.5,0-.7.1-1.6.3-2.9,1.5-3,3.2-.8,13.2-5,18.2-5,18.2-6,6-11,4.5-13.4,3.1.8-6.5-.4-12.9-3.6-17.7-.6-.9-1.4-1.7-2.1-2.5-1.2-21.7-7.3-31.9-9-34.3-.2-.3-.4-.5-.4-.6-1.2-1.5-3.4-1.7-4.9-.5,0,0-.1.2-.2.2-1.3,1.2-1.5,3.2-.4,4.6,0,0,5.3,7,7.3,24-6.3-4-13.9-6.1-21.2-6.9-2.5-14-9.4-23.4-13.4-27.7-1.5-1.6-2.6-2.6-2.8-2.7-1.5-1.2-3.7-1-4.9.4-.6.7-.9,1.7-.8,2.6,0,.9.5,1.7,1.2,2.3.1,0,10.1,8.9,13.5,24.7Z"/>
        </g>
        <circle class="cls-14" cx="629.2" cy="224.3" r="70.1"/>
      </g>
    </g>
  </g>
</svg>