<?xml version="1.0" encoding="UTF-8"?>
<svg xmlns="http://www.w3.org/2000/svg" version="1.1" viewBox="0 0 1920 1183.3">
  <defs>
    <style>
      .cls-1, .cls-2 {
        isolation: isolate;
      }

      .cls-2 {
        font-family: Pretendard-Medium-KSCpc-EUC-H, Pretendard;
        font-size: 18px;
        font-weight: 500;
      }

      .cls-2, .cls-3 {
        fill: #fff;
      }
    </style>
  </defs>
  <!-- Generator: Adobe Illustrator 28.6.0, SVG Export Plug-In . SVG Version: 1.2.0 Build 709)  -->
  <g>
    <g id="_레이어_1" data-name="레이어_1">
      <rect class="cls-3" x="1091.9" y="70.7" width="146.2" height="2.1"/>
      <rect class="cls-3" x="1091.9" y="104.8" width="179.9" height="2.1"/>
      <rect class="cls-3" x="1091.9" y="141.1" width="168.1" height="2.1"/>
      <path class="cls-3" d="M.6,150.4L50.3,0h53.9l49.7,150.4h-42.4l-8.9-29.3h-50.5l-8.9,29.3H.6ZM93.5,91.4l-15.5-50.9h-1.2l-15.5,50.9h32.3-.2,0Z"/>
      <path class="cls-3" d="M200.7,37.9h37v21.2h1.2c4.7-14,16.6-22.6,32.3-22.9,15.8.2,28.2,9.1,30.5,22.9h1.2c4-13.8,17.4-22.6,34.1-22.9,21.4.2,36.3,15.1,36.1,38.2v76h-39.1v-66.2c0-10.2-5.5-16.2-14-16.2s-14.2,6.2-14.4,16.2v66.2h-37.4v-66.2c0-10-5.8-16.2-14.4-16.2s-14,6.2-14,16.6v65.8h-39.1V37.9h.2-.2Z"/>
      <path class="cls-3" d="M426.3,83.4c8.3-.4,21.6-.7,26.4-.9v-8.9c-.2-6.7-5.3-10-12.8-10.2-8.3.2-13.5,3.6-14.4,10.7h-36.5c1.7-20.4,18.3-37.6,51.4-37.8,31.2.2,51.4,15.8,51.4,37.4v76.9h-36.5v-15.8h-.9c-6.8,12.3-17.9,17.6-32.6,17.4-21.6.2-36.7-10.4-37-32.6.2-24.9,18.6-34.6,41.6-36.2,0,0-.1,0-.1,0ZM434.4,127c9.5.2,18.5-6.2,18.3-16.6v-6.2c-4,.2-14.2.7-19.5,1-6.8.9-11.2,5.5-11.4,11.9.2,6.4,5.3,10,12.8,9.8h-.2,0Z"/>
      <path class="cls-3" d="M550.7,150.4h-39.1V37.9h37v21.2h1.2c5.1-14.2,18.1-22.6,34.4-22.9,24,.2,39.5,17.6,39.5,42.4v71.7h-39.1v-63.7c-.2-11.4-6.4-18.4-17-18.6-10.2.2-17,7.2-17,18.6v63.8h0Z"/>
      <path class="cls-3" d="M.3,235.2h39.5l13.5,69.6h.9l14.9-69.6h38.2l15.3,68.8h.9l13.1-68.8h39.1l-28.4,112.5h-42l-16.6-61.9h-1.2l-16.2,61.9H28.9L.5,235.2h-.2Z"/>
      <path class="cls-3" d="M228.4,347.7h-39.1v-150.4h37.8v59h1.2c5-14.4,17-22.6,34.1-22.9,23.5.2,39.1,17.6,39.1,42.4v71.7h-39.1v-63.7c0-11.4-6.2-18.4-17-18.6-10.2.2-17,7.2-17,18.6v63.8h0Z"/>
      <path class="cls-3" d="M317.6,291.7c0-34.6,21.6-57.9,57.7-58.1,36.5.2,58.1,23.5,58.1,58.1s-21.6,58.1-58.1,58.1-57.7-23.5-57.7-58.1ZM375.7,320.6c11,.2,17.6-11.2,17.9-29.3-.2-17.9-6.8-29.1-17.9-28.9-11.4-.2-18.3,11-18.3,28.9s6.8,29.5,18.3,29.3Z"/>
      <path class="cls-3" d="M73.1,436.8c-20.8-.2-32.6,15.8-32.6,42.4s12.1,42.6,32.3,42.8c15.3-.2,25.1-8.3,27.2-21.6l40,.4c-2.1,25.7-24.6,55.7-67.9,55.7S.1,529.2.3,479.3c-.2-49.8,31.6-77.1,71.7-76.9,37.6-.2,64.8,20.8,67.9,57.7h-40c-1.4-14.2-10.8-23.5-26.7-23.3h-.2,0Z"/>
      <path class="cls-3" d="M162.2,442h37.8v21.2h1.2c4-15.8,13.5-22.6,26-22.9,3.3.2,6.8.7,10.2,1.7v33.5c-4-1.2-10.7-2.1-14.9-2.1-12.1,0-21.2,8.8-21.2,21.6v59.4h-39.1v-112.5h0Z"/>
      <path class="cls-3" d="M246.7,498.4c0-34.8,22.1-57.9,56.9-58.1,33.3.2,55.5,21.6,55.6,57.7v9.3h-73.9v1.7c0,11.4,7.4,19.8,20,20,8.5-.2,15.3-3.8,17.9-10.2h35.7c-3.8,22.9-23.5,37.8-54.4,37.8s-57.7-21.9-57.7-58.1h-.1ZM322.7,485.7c0-10.4-7.9-17.6-18.3-17.4-10.7-.2-18.9,7.2-19.1,17.4h37.4Z"/>
      <path class="cls-3" d="M412.2,487.3c8.3-.4,21.6-.7,26.4-.9v-8.9c-.2-6.7-5.3-10-12.8-10.2-8.3.2-13.5,3.6-14.4,10.7h-36.5c1.7-20.4,18.3-37.6,51.4-37.8,31.2.2,51.4,15.8,51.4,37.4v76.9h-36.5v-15.8h-.9c-6.8,12.3-17.9,17.6-32.6,17.4-21.6.2-36.7-10.4-37-32.6.2-24.9,18.6-34.6,41.6-36.2h-.1ZM420.3,531.2c9.5.2,18.5-6.2,18.3-16.6v-6.2c-4,.2-14.2.7-19.5,1-6.8.9-11.2,5.5-11.4,11.9.2,6.4,5.3,10,12.8,9.8h-.2,0Z"/>
      <path class="cls-3" d="M567.7,473.9h-19.5v47.9c.2,5.3,2.8,7.4,8.1,7.7,3,.2,8.8-.2,13.1-.4v29.3c-3.6.4-9.8,1.2-18.6,1.2-27.2,0-41.8-10.4-41.6-34.1v-51.8h-14.4v-28.4h14.4v-27.2h39.1v27.2h19.5v28.6h0Z"/>
      <path class="cls-3" d="M584.6,445.4h39.1v112.5h-39.1v-112.5h0ZM604.1,397.1c10.9,0,19.5,8.1,19.5,18.3s-8.8,18.1-19.5,17.9c-10.9.2-19.5-8.1-19.5-17.9s8.8-18.3,19.5-18.3Z"/>
      <path class="cls-3" d="M719.2,558h-45.5l-38.2-112.5h41.2l19.1,75.1h1.2l18.6-75.1h41.2l-37.8,112.5h.2Z"/>
      <path class="cls-3" d="M755.1,501.9c0-34.8,22.1-57.9,56.9-58.1,33.3.2,55.5,21.6,55.6,57.7v9.3h-73.9v1.7c0,11.4,7.4,19.8,20,20,8.5-.2,15.3-3.8,17.9-10.2h35.7c-3.8,22.9-23.5,37.8-54.4,37.8s-57.7-21.9-57.7-58.1h0ZM831.2,489.2c0-10.4-7.9-17.6-18.3-17.4-10.7-.2-18.9,7.2-19.1,17.4h37.4,0Z"/>
      <path class="cls-3" d="M.5,793.9v-150.4h56.5c46.3.2,75.1,28.3,75.1,75.1s-28.9,75.1-74.8,75.1H.5v.2h0ZM56.1,760.3c23.1,0,36.3-10,36.1-41.6.2-31.6-12.9-41.4-37-41.6h-15.3v83.2h16.2Z"/>
      <path class="cls-3" d="M149.6,737.7c0-34.8,22.1-57.9,56.9-58.1,33.3.2,55.5,21.6,55.7,57.7v9.3h-73.9v1.7c0,11.4,7.4,19.8,20,20,8.5-.2,15.3-3.8,17.9-10.2h35.7c-3.8,22.9-23.5,37.8-54.4,37.8s-57.7-21.9-57.7-58.1h-.2ZM225.5,725c0-10.4-7.9-17.6-18.3-17.4-10.7-.2-18.9,7.2-19.1,17.4h37.4Z"/>
      <path class="cls-3" d="M284.4,641.4h39.1v57.4h.4c4.7-11.2,14.9-21,31.9-21.2,22.6.2,44.4,17.4,44.2,57.7.2,39.1-20.2,57.9-44.2,58.1-16.4-.2-27-8.9-31.9-20h-.9v18.3h-38.6v-150.4h0ZM341.3,762.8c11.7.2,18.5-10.4,18.3-27.6.2-17-6.7-27.4-18.3-27.2-11.7-.2-18.6,10.2-18.6,27.2s7,27.9,18.6,27.6Z"/>
      <path class="cls-3" d="M456.8,792.6h-39.1v-150.4h39.1v150.4Z"/>
      <path class="cls-3" d="M478,680.1h39.1v112.5h-39.1v-112.5h0ZM497.5,631.6c10.8,0,19.5,8.1,19.5,18.3s-8.8,18.1-19.5,17.9c-10.8.2-19.5-8.1-19.5-17.9s8.8-18.3,19.5-18.3h0Z"/>
      <path class="cls-3" d="M595.2,708.6c-7.4.2-13.3,3-13.1,8.1-.2,3.3,2.3,6.7,11.4,8.5l22.4,3.8c22.6,4.2,33.7,14,34.1,30.5-.2,23.8-22.6,39.1-53.9,39.1s-53.6-15.1-55.6-38.2h39.1c1.1,7.4,7.7,11.4,17,11.4s13.5-2.8,13.5-7.7-4-7.2-13.1-8.9l-20-3.3c-22.4-4-34.1-15.5-34.1-33.1s19.8-36.3,51.4-36.5c32.1.2,51.6,14.4,52.6,37.8h-36.2c-.7-7-7.4-11.2-15.8-11.4v-.2h0c0,0,0,0,0,0h.2Z"/>
      <path class="cls-3" d="M704.7,799.3h-39.1v-150.4h37.8v59h1.2c4.9-14.4,17-22.6,34.1-22.9,23.5.2,39.1,17.6,39.1,42.4v71.7h-39.1v-63.7c0-11.4-6.2-18.4-17-18.6-10.2.2-17,7.2-17,18.6v63.8h0Z"/>
      <path class="cls-3" d="M799.1,741.3c0-34.8,22.1-57.9,56.9-58.1,33.3.2,55.5,21.6,55.6,57.7v9.3h-73.9v1.7c0,11.4,7.4,19.8,20,20,8.5-.2,15.3-3.8,17.9-10.2h35.7c-3.8,22.9-23.5,37.8-54.4,37.8s-57.7-21.9-57.7-58.1h0ZM875.1,728.6c0-10.4-7.9-17.6-18.3-17.4-10.7-.2-18.9,7.2-19.1,17.4h37.4,0Z"/>
      <path class="cls-3" d="M927.5,685.4h37.8v21.2h1.2c4-15.8,13.5-22.6,26-22.9,3.3.2,6.8.7,10.2,1.7v33.5c-4-1.2-10.7-2.1-14.9-2.1-12.1,0-21.2,8.8-21.2,21.6v59.4h-39.1v-112.5h0Z"/>
      <g class="cls-1">
        <g class="cls-1">
          <text class="cls-2" transform="translate(1091.9 65.9)"><tspan x="0" y="0">LEE JUNG WOON</tspan></text>
        </g>
      </g>
      <g class="cls-1">
        <g class="cls-1">
          <text class="cls-2" transform="translate(1091.9 98.2)"><tspan x="0" y="0">HTML,CSS,JavaScript</tspan></text>
        </g>
      </g>
      <g class="cls-1">
        <g class="cls-1">
          <text class="cls-2" transform="translate(1091.9 136)"><tspan x="0" y="0">Adobe PS, AI , Figma</tspan></text>
        </g>
      </g>
      <path class="cls-3" d="M2.5,925l22.2-20.6c5.9-5.5,9-9,9-13.9s-4.1-9-9.9-9-9.7,3.7-9.7,9.7H1.8c0-12.1,9.1-20,22.2-19.9,13.3,0,22.2,7.5,22.2,18.3s-3.4,12.9-16.4,24.5l-9.3,9.2v.5h26.6v10.6H2.5v-9.3h0Z"/>
      <path class="cls-3" d="M55.3,903.2c0-20.3,9.5-31.9,25-31.9s25,11.6,25,31.9-9.4,32-25,32-25-11.6-25-32ZM80.3,924.5c7.2,0,11.9-6.9,11.8-21.3,0-14.2-4.6-21.3-11.8-21.3s-11.8,7.1-11.8,21.3,4.6,21.3,11.8,21.3Z"/>
      <path class="cls-3" d="M114.2,925l22.2-20.6c5.9-5.5,9-9,9-13.9s-4.1-9-9.9-9-9.7,3.7-9.7,9.7h-12.3c0-12.1,9.1-20,22.2-19.9,13.3,0,22.2,7.5,22.2,18.3s-3.4,12.9-16.4,24.5l-9.3,9.2v.5h26.6v10.6h-44.5v-9.3h-.1Z"/>
      <path class="cls-3" d="M165.5,913l26.4-41h16.2v40.8h7.7v10.4h-7.7v11.1h-12.3v-11.1h-30.3v-10.2h0ZM196,912.8v-26.6h-.7l-16.7,26.2v.4h17.4Z"/>
      <path class="cls-3" d="M244.9,872h24.3c14.3,0,22.4,8.8,22.4,21.1s-8.3,20.9-22.5,20.9h-11.3v20.2h-12.8v-62.3h0ZM266.9,903.7c7.7,0,11.4-4.4,11.3-10.6,0-6.2-3.6-10.5-11.3-10.4h-9.2v20.9h9.2Z"/>
      <path class="cls-3" d="M327.6,935.2c-16.5,0-29-11.8-29-32s12.5-31.9,29-31.9,29.1,11.6,29,31.9c0,20.3-12.5,32-29,32ZM327.6,923.7c9.7,0,16-7.3,16-20.6s-6.3-20.5-16-20.4c-9.6,0-15.9,7.1-15.8,20.4,0,13.3,6.2,20.5,15.8,20.6Z"/>
      <path class="cls-3" d="M366.2,872h24.3c14.3,0,22.4,8,22.4,20.4s-3.9,14.6-11,17.7l13.3,24.2h-14.4l-11.9-22.2h-9.8v22.2h-12.8v-62.3h-.1ZM388.2,901.8c7.7,0,11.4-3.2,11.3-9.3,0-6.3-3.6-9.8-11.3-9.7h-9.2v19h9.2Z"/>
      <path class="cls-3" d="M419.3,872h50.9v10.7h-19v51.6h-12.8v-51.6h-19v-10.7h-.1Z"/>
      <path class="cls-3" d="M478.3,872h41v10.7h-28.2v15.1h25.3v10.6h-25.3v25.9h-12.8v-62.3Z"/>
      <path class="cls-3" d="M555.6,935.2c-16.5,0-29-11.8-29-32s12.5-31.9,29-31.9,29.1,11.6,29,31.9c0,20.3-12.5,32-29,32ZM555.6,923.7c9.7,0,16-7.3,16-20.6s-6.3-20.5-16-20.4c-9.6,0-15.9,7.1-15.8,20.4,0,13.3,6.2,20.5,15.8,20.6Z"/>
      <path class="cls-3" d="M594.1,872h12.8v51.6h26.8v10.7h-39.6v-62.3Z"/>
      <path class="cls-3" d="M655,934.3h-12.8v-62.3h12.8v62.3Z"/>
      <path class="cls-3" d="M693.4,935.2c-16.5,0-29-11.8-29-32s12.5-31.9,29-31.9,29.1,11.6,29,31.9c0,20.3-12.5,32-29,32ZM693.4,923.7c9.7,0,16-7.3,16-20.6s-6.3-20.5-16-20.4c-9.6,0-15.9,7.1-15.8,20.4,0,13.3,6.2,20.5,15.8,20.6Z"/>
      <path class="cls-3" d="M1,988.7h12.8v51.6h26.8v10.7H1v-62.3h0Z"/>
      <path class="cls-3" d="M46.8,1028c0-14.4,9-24.2,22.7-24.3,12.1,0,21.8,7.8,21.8,23.8v3.5h-31.9c0,7,4.1,11.4,10.7,11.4s7.4-1.9,8.6-4.6h12.1c-1.8,8.5-9.5,14.1-20.9,14.1s-23.1-9.2-23.2-23.9h.1ZM79.4,1023c0-5.7-4-9.8-9.7-9.9-6,0-10,4.5-10.2,9.9h19.9Z"/>
      <path class="cls-3" d="M123.9,1013.9h-8.8v22.9c0,3.6,1.8,4.6,4.4,4.6s3.5,0,5.1-.2v10c-1.4.2-3.7.4-6.7.5-9.3,0-15.6-4.2-15.5-13.4v-24.5h-6.5v-9.5h6.5v-11.3h12.7v11.3h8.8v9.5h0Z"/>
      <path class="cls-3" d="M168.2,988.7l17.4,42.2h.7l17.2-42.2h16v62.3h-12.7v-40.8h-.5l-16.2,40.5h-8.6l-16.2-40.5h-.5v40.8h-12.5v-62.3h15.9Z"/>
      <path class="cls-3" d="M227.7,1028c0-14.4,9-24.2,22.7-24.3,12.1,0,21.8,7.8,21.8,23.8v3.5h-31.9c0,7,4.1,11.4,10.7,11.4s7.4-1.9,8.6-4.6h12.1c-1.8,8.5-9.5,14.1-20.9,14.1s-23.1-9.2-23.2-23.9h0ZM260.3,1023c0-5.7-4-9.8-9.7-9.9-6,0-10,4.5-10.2,9.9h19.9Z"/>
      <path class="cls-3" d="M313.6,1051h-12.8v-62.3h12.8v62.3Z"/>
      <path class="cls-3" d="M336.5,1051h-12.7v-46.6h12.1v8.1h.5c2.1-5.4,7.1-8.7,14.1-8.8,9.7,0,16.1,6.7,16,17.6v29.7h-12.7v-27.5c0-5.8-3.1-9.2-8.4-9.3-5.3,0-8.9,3.6-9,9.7v27.1h.1Z"/>
      <path class="cls-3" d="M401.1,1013.9h-8.8v22.9c0,3.6,1.8,4.6,4.4,4.6s3.5,0,5.1-.2v10c-1.4.2-3.7.4-6.7.5-9.3,0-15.6-4.2-15.5-13.4v-24.5h-6.5v-9.5h6.5v-11.3h12.7v11.3h8.8v9.5h0Z"/>
      <path class="cls-3" d="M409,1004.4h12.3v8.1h.5c1.7-5.8,6-8.8,11.3-8.8s2.9.2,4,.4v11.4c-1.1-.4-3.6-.7-5.5-.7-5.7,0-9.9,4-10,9.7v26.6h-12.7v-46.6h.1Z"/>
      <path class="cls-3" d="M439.9,1027.8c0-14.3,8.9-24,23.1-24.1,14.1,0,22.8,9.8,22.9,24.1,0,14.4-8.8,24.1-22.9,24.1s-23-9.7-23.1-24.1h0ZM462.9,1042c6.5,0,9.9-6.1,9.9-14.3s-3.3-14.3-9.9-14.3-10.1,6.1-10,14.3c0,8.2,3.3,14.3,10,14.3Z"/>
      <path class="cls-3" d="M492,1027.8c0-16,8.7-24,19-24.1,7.8,0,11.5,4.8,13.2,8.4h.5v-23.4h12.7v62.3h-12.5v-7.4h-.7c-1.8,3.8-5.6,8.2-13.2,8.1-10.6,0-19-8.4-19-23.9h0ZM515,1041.7c6.2,0,9.9-5.6,9.9-14.1s-3.5-13.7-9.9-13.7-10,5.6-10,13.7,3.5,14,10,14.1Z"/>
      <path class="cls-3" d="M577.5,1004.4h12.7v46.6h-12.1v-8.4h-.5c-2,5.5-7.1,9.1-14.1,9-9.4,0-15.8-6.5-15.8-17.4v-29.7h12.7v27.5c0,5.5,3.3,9,8.3,9s9.1-3.3,9-9.7v-26.8h-.2Z"/>
      <path class="cls-3" d="M598.3,1027.8c0-14.3,8.8-24,22.9-24.1,12.1,0,20.2,7.1,20.8,17.8h-12c-.7-4.6-3.8-7.7-8.6-7.7s-10.1,5.1-10,13.9c0,9.1,4,14.3,10,14.3s7.8-2.8,8.6-7.7h12c-.5,10.6-8.4,17.8-20.6,17.8s-23-9.9-23.1-24.1v-.2Z"/>
      <path class="cls-3" d="M647.9,1028c0-14.4,9-24.2,22.7-24.3,12.1,0,21.8,7.8,21.8,23.8v3.5h-31.9c0,7,4.1,11.4,10.7,11.4s7.4-1.9,8.6-4.6h12.1c-1.8,8.5-9.5,14.1-20.9,14.1s-23.1-9.2-23.2-23.9h.1ZM680.5,1023c0-5.7-4-9.8-9.7-9.9-6,0-10,4.5-10.2,9.9h19.9Z"/>
      <path class="cls-3" d="M-.5,1164.6l21.5-62.3h16.7l21.5,62.3h-13.9l-4.7-14.3h-22.5l-4.7,14.3H-.5ZM37.4,1140.1l-7.7-23.8h-.5l-7.7,23.8h16,0Z"/>
      <path class="cls-3" d="M66.2,1102.3h12.7v23.4h.4c1.8-3.7,5.5-8.4,13.4-8.4s18.9,8.1,18.8,24.1c0,15.6-8.2,24-18.8,23.9-7.7,0-11.5-4.3-13.4-8.1h-.5v7.4h-12.5v-62.3h0ZM88.6,1155.3c6.4,0,9.9-5.8,10-14.1,0-8.1-3.5-13.7-10-13.7s-9.9,5.4-10,13.7c0,8.4,3.7,14,10,14.1Z"/>
      <path class="cls-3" d="M117.8,1141.4c0-14.3,8.9-24,23.1-24.1,14.1,0,22.8,9.8,22.9,24.1,0,14.4-8.8,24.1-22.9,24.1s-23-9.7-23.1-24.1ZM140.8,1155.6c6.5,0,9.9-6.1,9.9-14.3s-3.3-14.3-9.9-14.3-10.1,6.1-10,14.3c0,8.2,3.3,14.3,10,14.3Z"/>
      <path class="cls-3" d="M201.6,1118h12.7v46.6h-12.1v-8.4h-.5c-2,5.5-7.1,9.1-14.1,9-9.4,0-15.8-6.5-15.8-17.4v-29.7h12.7v27.5c0,5.5,3.3,9,8.3,9s9.1-3.3,9-9.7v-26.8h-.2Z"/>
      <path class="cls-3" d="M248.9,1127.5h-8.8v22.9c0,3.6,1.8,4.6,4.4,4.6s3.5,0,5.1-.2v10c-1.4.2-3.7.4-6.7.5-9.3,0-15.6-4.2-15.5-13.4v-24.5h-6.5v-9.5h6.5v-11.3h12.7v11.3h8.8v9.5h0Z"/>
      <path class="cls-3" d="M293.3,1102.3l17.4,42.2h.7l17.2-42.2h16v62.3h-12.7v-40.8h-.5l-16.2,40.5h-8.6l-16.2-40.5h-.5v40.8h-12.5v-62.3h15.9Z"/>
      <path class="cls-3" d="M355.7,1181.9v-9.9c1.7,0,3.6.2,5.1.2,2.6,0,4.7-.3,6.2-4.2l.7-2.1-16.7-47.9h13.4l9.9,34.3h.5l9.9-34.3h13.4l-18.1,51.7c-2.7,7.6-7.7,12.4-17.6,12.3-2.6,0-4.8,0-6.5-.2h-.2Z"/>
      <path class="cls-3" d="M447.8,1112.3c-6.6,0-10.2,3-10.2,7-.2,4.7,4.5,6.7,9.9,7.9l5.6,1.4c10.6,2.3,18.6,7.7,18.7,18.1,0,11.4-9,18.7-24.1,18.7s-24.6-7-25-20.2h12.5c.5,6.2,5.5,9.3,12.3,9.3s11.2-3.1,11.3-7.7c0-4.2-3.9-6.2-10.7-7.9l-6.7-1.6c-10.6-2.6-17-7.8-17.1-17.1,0-11.2,10-18.7,23.6-18.7s22.9,7.6,23.1,18.7h-12.5c-.4-5-4.3-7.9-10.6-7.9h0Z"/>
      <path class="cls-3" d="M477.9,1141.6c0-14.4,9-24.2,22.7-24.3,12.1,0,21.8,7.8,21.8,23.8v3.5h-31.9c0,7,4.1,11.4,10.7,11.4s7.4-1.9,8.6-4.6h12.1c-1.8,8.5-9.5,14.1-20.9,14.1s-23.1-9.2-23.2-23.9h.1ZM510.4,1136.6c0-5.7-4-9.8-9.7-9.9-6,0-10,4.5-10.2,9.9h19.9Z"/>
      <path class="cls-3" d="M543,1164.6h-12.7v-62.3h12.7v62.3Z"/>
      <path class="cls-3" d="M578,1127.5h-9.3v37.1h-12.7v-37.1h-6.7v-9.5h6.7v-3.5c0-9.9,5.9-15,15.3-15s5.3.3,7.6.7v9.7c-1.8-.2-3.3-.3-3.9-.2-4.1,0-6.3,1.5-6.3,5.5v2.8h9.3v9.5h0Z"/>
    </g>
  </g>
</svg>