<?xml version="1.0" encoding="UTF-8"?>
<svg id="_레이어_1" xmlns="http://www.w3.org/2000/svg" version="1.1" viewBox="0 0 852 483">
  <!-- Generator: Adobe Illustrator 29.0.1, SVG Export Plug-In . SVG Version: 2.1.0 Build 192)  -->
  <defs>
    <style>
      .st0 {
        fill: #1c2f57;
      }

      .st1 {
        fill: #fdfefe;
      }
    </style>
  </defs>
  <rect class="st0" width="852" height="483"/>
  <g>
    <path class="st1" d="M399.7,380.6c-.1-.6.2-.8.5-1.2,5.9-7.3,18.5-10.6,27.5-11.4l-8.1-5.1c-4.7-4-9.5-8.9-11.3-15,10.5,1.2,17.2,10.5,23,18.3v-5h5.5v5.8l6.1-8.2c4.5-5.2,10.1-10.3,17.3-11.1-2.8,9.1-10.8,16-19.1,20,.3.6,1.6.3,2.2.4,6.9,1.1,14.1,2.8,20,6.7,5.9,3.8,5.8,4.2,5.8,5.5h-.5c-1,.1-1.9.1-2.9.1-10.8-.4-21-4.9-28.8-12.3v8.9h-5.5v-8.4c-1,.3-1.7,1.4-2.5,2.1-6.1,5.1-14.9,9.1-22.9,9.7s-.9,0-1.3,0c-.8,0-1.9-.2-2.3.3h-2.6,0Z"/>
    <path class="st1" d="M294.5,234.6c.5,0,.9,0,1.4.3,3.3,1.7,8.4,7.3,10.6,10.4,3.4,4.6,5.7,10.1,6.6,15.8.4,0,.4-.4.5-.7.9-2.3,1.3-4.7,2.3-7.1,2.6-5.9,7.1-12.5,13.4-14.7v4c0,3.2-3.4,10.1-5.1,12.9-2.7,4.5-6.5,8.8-10.4,12.3-7.9-5.2-14.9-13-17.6-22.1-.6-2-1.1-4.3-1.4-6.3s.3-1.6-.3-2.1v-2.6h0Z"/>
    <path class="st1" d="M549.2,278.3c0,.3-.1,1.3.1,1.3.4-.3.3-.9.4-1.3,3.4-10.3,12-18.6,21.7-23,0,.8.1,1.8,0,2.6-1.3,10.5-11.2,21.2-20.2,26-3.1,1.6-2.9,2.3-5.1-.5-5.9-7.7-11.2-19.2-9.2-29.1.6-.4,4.3,3.3,4.9,3.9,4.6,5.4,6.8,13.2,7.5,20.1h0Z"/>
    <path class="st1" d="M468.6,380.3v.3h-2.9v-.3h2.9Z"/>
    <path class="st1" d="M404.8,380.3v.3h-2.3c.5-.5,1.6-.3,2.3-.3Z"/>
    <path class="st1" d="M294.8,239.3h-.3v-2.1c.5.4.2,1.4.3,2.1Z"/>
    <path class="st1" d="M406.1,380.3v.3h-1.3v-.3h1.3Z"/>
    <path class="st1" d="M467.3,135v75.7c-1.6,43-68.3,43.1-69.9,0v-75.7h69.9ZM446.9,145.4h-32.7v10.5h20.7v48.6l-9.8-9.7-18.7,18.9,8,7.7,11.7-11,12.4,12.3h8.8v-35.1h10.7v-11.8h-10.7v-5h10.7v-10.5h-11v-15.2Z"/>
    <path class="st1" d="M495.5,222.1v99.4h-52.2c-.4,0-3.6,1.2-4.3,1.5-1.5.8-2.7,2-4.3,2.7v-80.1c15.4.5,28.4-9.7,33.9-23.6h26.8,0ZM445.5,249.5h-4.5v23.3h9.4v-4.2h-5v-19.1ZM458.6,249.5h-4.5v19.2c0,.1.5,1.5.7,1.7,2,3.8,9.7,3.9,12,.5,2.3-3.3.9-1.7.9-2v-19.5h-4.5v18.2c0,1.4-3.1,2-4,.9s-.7-1.4-.7-1.4v-17.7h0ZM476.8,249.5h-4.9l4.7,11.4-4.7,11.9h4.9l2.6-7.1,2.5,7.1h5.2l-5.2-11.9,5-11.4h-5l-2.5,6.8c-.2-.9-2.2-6.7-2.6-6.8ZM455,285.6l1,16h4.7l-2.3-23.3h-6.3l-2,13.9-2.2-13.9h-6l-2.1,23.3h5c-.1-5.2.4-10.3.5-15.4h.5c.7,5.1,1.5,10.1,2.7,15.2.4.5,2.6.1,3.4.3,1.3-5.2,2.1-10.6,2.8-16h.3ZM473,278.3h-9.4v23.3h9.4v-4.2h-4.7v-5.5h4.2v-4.2h-4.2v-5.2h4.7v-4.2h0ZM475.2,301.6h4.5l.8-3.8h4.7l.8,3.8h5l-5.5-23.3h-4.8l-5.4,23.3h0Z"/>
    <path class="st1" d="M396.1,222.1c2.7,9.4,10.1,17.1,19,20.9,5.3,2.3,10.9,3.1,16.6,3.4v79.6c-1.7-1.2-3.5-2.3-5.4-3.1s-3.4-1.4-3.9-1.4h-51.1v-99.4h24.9,0ZM395.8,249.2c-.9,0-4.3-.2-4.6.3l-3.8,14.9-3.8-15.2h-4.6l6.8,23.4h3.7l6.3-23.2c.3.2.3.5.3.9.4,7.3-.3,15.1,0,22.4h9.4v-4.2h-4.7v-5.5h4.2v-4.2h-4.2v-5.5h4.7v-4.2h-9.7,0ZM419.9,272.8l-3.7-10.4c0-.8,1.2-1.3,1.8-2.1,2.2-2.9,1.9-8.1-1.4-10-3.3-1.9-3.1-1.1-3.6-1.1h-6.4v23.6h4.5v-11l4.2,11h4.7,0ZM425.7,249.2h-4.5v23.6h4.5v-23.6ZM423.1,283v-4c0-.3-1.9-1-2.3-1.1-7.8-1.3-10.5,7.6-5.3,12.4s6.3,3.4,4,6.4-4.2.8-5.9,0v4.2c5.9,3.1,11.6-.8,10.7-7.4-.9-6.7-7.1-5.8-7.1-9.2s3.9-2.8,5.8-1.2h0ZM394.5,278h-12.1v4.2h3.7v19.4h4.5v-19c0-.7,3.3-.3,3.9-.4v-4.2h0ZM395.6,301.6h4.5c0-.7.4-3.5.8-3.8.6-.4,4,0,5-.1.1,1.3.3,2.9.9,3.9h4.6l-5.5-23.6h-4.8l-5.4,23.6h0Z"/>
    <path class="st1" d="M504.2,331.7h-59.8c-.2,0-1.6,1-1.8,1.3-1,1.1-1.6,3.1-2,4.5l-14,.2c-.7-1.5-.5-2.7-1.9-3.9s-3.3-2.1-4.2-2.1h-58.5v-102.2l6.3-6.2v101.3h51.4c.8,0,2.9.5,3.8.7,3.5.9,7.3,3.2,9.4,6.1.8.1,2.4-2.1,3.1-2.6,2-1.6,7-4.5,9.4-4.5h52.7v-102l6,6.2v103.2h0Z"/>
    <path class="st1" d="M529,129.8c1.4-12.3,20.3-11.6,19.1,2.1-.1,1-1.6,4.8.9,3.5,2.2-1.2,1.6-7,.8-9.1-1.4-3.8-5.8-7.3-9.9-7.6-6.9-.6-9.6,5.1-17.9,2-8.3-3.2-10-12.4-9.4-20.1,0-.8,1-6.7,1.3-6.9.4-.4.4.2.6.3,3.2,4,6.1,6.8,10.7,9.2,7.9,3.9,16,3,24,6.1,12.2,4.6,20.7,17.6,16.4,30.7-4.3,13.1-12.8,11.7-21.8,8.8l8.4,8.6h-9.1l-24.6-24.6c-.4-3.2-.7-6.5-.5-9.7l10.9,10.7c.1-1.2-.1-2.6,0-3.8h.1Z"/>
    <path class="st1" d="M469.4,218.7c.7-1.8,1.2-4,1.3-5.9.6-8.5-.5-17.6,0-26.1,4.5-4.9,8.8-10,13.4-14.8,4.6-4.9.9-1.1,1.3-1l20.6,21-26.8,26.8h-9.8.1Z"/>
    <polygon class="st1" points="516.4 136.3 539.5 159.4 518.1 180.7 495.8 158.9 516.4 136.3"/>
    <polygon class="st1" points="567.5 365.9 557.4 365.9 506.3 323.5 506.3 311.8 515.6 311.8 567.1 365.2 567.5 365.9"/>
    <path class="st1" d="M393.5,208.5h-28.4l-18.4-17h32.8l13.7,13.7c.5.9.1,2.2.3,3.3h0Z"/>
    <path class="st1" d="M331.7,147h-30.8c-4.6-8.8-5.7-21,2.4-28.2l28.4,28.2Z"/>
    <path class="st1" d="M338.2,149.1l-32.6-32.7c.8-.6,1.8-.9,2.8-1.1,14-4.1,20.1,5.2,28.5,13.9,2.5,2.6,5.1,5,7.6,7.6-2.9,3.6-5.2,7.8-6.3,12.4h0Z"/>
    <path class="st1" d="M373.8,120.6c-.2,11.1-5.4,21.9-13.9,29,8.1-2,18.5-3.3,26,1.4,2.2,1.4,1.7,1.5-.4,2.6-6.5,3.4-15.7,3.2-22.8,2-1.1-.2-7.5-1.5-8-1.9s-.3-1.3-.3-1.9c.5-9.4,5.3-20.5,12.4-26.8.8-.7,6.4-5,6.9-4.4Z"/>
    <path class="st1" d="M307.6,188.1c.2.1,2.4,3.7,2.7,4.2,4.6,8.1,6.5,17.6,4.9,26.9,5.6-7.7,12.8-15,22.7-16-.2,2.2-1.5,4.5-2.7,6.3-4.9,7.5-13.6,12.5-21.5,16.1-.4,0-1.9-2.2-2.2-2.7-5.2-7.8-8-17.8-6.8-27.2.1-1,1.7-7.5,2.1-7.7s.5,0,.7,0h0Z"/>
    <path class="st1" d="M351.1,334.3c-3.2-8.1-6.3-16.1-3.3-24.9,2.9-8.8.7-3.1,2.3-1.4,6.7,7.3,7,22,6,31.2-13.3,1.9-27.9-2.2-36.1-13.2.3-.4.5-.4.9-.4,10.4-1.1,22,1.8,30,8.7,8,6.9.2.5.5.5.2-.5-.2-.4-.3-.5h0Z"/>
    <path class="st1" d="M312.3,240.4l4.1-7.6c3.8-5.6,8.9-10.9,15.8-12.3-1.3,10.1-9.7,19-17.7,24.5-8.1,5.6-2.3,1.7-2.8,1.6-.9-.2-5.5-5.9-6.3-7.1-6.1-8.6-8.7-18.2-6.8-28.7.4,0,.6,0,.9.3.9.6,3,3.1,3.8,4.1,5.7,7.1,9.1,16.1,8.9,25.2h0Z"/>
    <path class="st1" d="M558.1,184.9c4.9,11.6,2.6,25.2-4.1,35.6-6.7,10.4-1.4,2.3-2,2.3s-3.1-1.3-3.7-1.6c-8.6-3.9-18.2-10.7-21.1-20.1,10,.3,17.7,8,23.3,15.4-2.1-9.8,0-20.6,5.4-29,.2-.4,1.8-3,2.2-2.6h0Z"/>
    <path class="st1" d="M566.7,207.4c2.8,12-1.5,24.9-9.7,33.9-8.2,8.9-2.3,2.6-2.9,2.5s-3.3-2.2-3.9-2.6c-7.6-5.5-15.2-13.4-16.7-23,6.8,1.3,12.1,6.3,15.9,11.7l4.5,7.7c-.5-10.3,3.7-20.8,10.6-28.2s2-2.1,2.2-1.8h0Z"/>
    <path class="st1" d="M375.1,372c-.4-.5,5.7-4,6.3-4.3,7.8-4,16.5-5.5,25.1-4-7.7-5.5-15.1-12.9-16-22.7,8.7,2.2,15.1,10.3,19.2,17.8,4.2,7.5,3.2,6.1,3.2,6.5,0,.7-3.9,3-4.6,3.4-10.2,5.9-22.1,7.9-33.3,3.4h0Z"/>
    <path class="st1" d="M478,339.8c-.5,7.3-4.5,13.1-9.4,18.2l-6.3,5.1c9.9-2.1,21,.1,29.6,5.7,8.5,5.6,2.5,1.4,2.1,2-10.9,4.6-22.7,2.9-32.9-2.6-10.2-5.5-4.6-2.7-4.7-3.1s0-.8.1-1.1c.5-1.7,2.6-5.5,3.5-7.3,3.9-7,10.1-14.6,18.1-16.9h0Z"/>
    <path class="st1" d="M541.6,299c1.1-1.4,1.9-3.1,2.9-4.5,5.5-7.7,14.2-12.9,23.2-15.4-3.2,13.4-15.8,22.6-28.6,25.6-5.3-9.7-9.3-21.8-5.4-32.7.3-.3,1.2.8,1.4,1,6.1,6.4,7.4,17.5,6.4,25.9h0Z"/>
    <path class="st1" d="M353.2,132.6c.9,8.5-.4,17.1-4.3,24.6l-4.3,6.5c8.5-3.7,18.7-6.7,27.5-2.2-8.3,8.1-21.5,8.1-32.4,7.2-1.4-12.7,1.7-26.4,11.8-35,10-8.5,1.7-1.4,1.9-1.1h0Z"/>
    <path class="st1" d="M571.2,231.2v6.4c0,.9-.8,3.9-1.1,4.9-2.6,9.2-9.2,17.2-17.1,22.4-5.6-4.9-11.2-11.3-14.1-18.3-2.8-6.9-2-5.3-2-6.4v-4.3c9.1,3.9,14,13.4,16.4,22.5l2.3-8.2c2.3-6.1,7.1-12.6,12.1-16.7,1-.8,2.3-1.9,3.5-2.3h0Z"/>
    <path class="st1" d="M329.6,256.6c.1.7.4,1.3.5,2,1,7.5-2,15.6-5.6,22.1-3.6,6.5-4.4,7.3-4.7,7.4-1.4.3-8.1-4-9.6-5-7.9-5.7-14.2-14.4-15.1-24.3.3-.3,4,1.7,4.6,2.1,7.2,4,13.4,10.5,16.8,18l1.4,3.2c.7-8.7,3.1-18.4,9.9-24.2,6.8-5.8,1.6-1.4,1.9-1.2h0Z"/>
    <path class="st1" d="M337,318.3c-2-7.2-2.7-15.3,0-22.4.3-.8,2-4.6,2.7-4.6s2.4,4.8,2.6,5.5c2.2,7.2,1.6,19.4-1,26.4-.6,1.5-1.5,1.1-3.1,1-12.1-.9-25.1-8.2-30.5-19.3,6.4.2,13.1,2.1,18.8,5.2,5.7,3.1,7.6,5.1,10,8.2s.2.7.4.8c.8.2.2-.4.1-.8h0Z"/>
    <path class="st1" d="M358.1,173.1c.9,1-5.2,5.6-6.1,6.1-7.1,4.5-16.2,6.3-24.5,6.7-3.8-12.7-2.6-27.8,6.9-37.6.7,0,1.9,7.3,2,8.2.9,8.3-.9,16.6-4.9,23.9,7.7-5.5,16.9-9.4,26.6-7.3h0Z"/>
    <path class="st1" d="M559.9,302.1c-5.6,12.5-19.5,19.4-32.7,20.1-2.9-9.1-5.3-22.3-.7-31.1,1.4-2.6,1.4-2.2,2.8,0,4.5,7.6,3.4,17.2,1.6,25.6,7-8.7,17.7-14.2,28.9-14.7h0Z"/>
    <path class="st1" d="M333.3,274.7c4.1,10.6.3,22.7-4.6,32.4-10.4-1.9-21-8.6-26.4-17.8-1-1.7-2.6-4.9-3-6.7s0-.4.3-.3c9.2,1.9,18.5,8,23.9,15.6l2.4,3.8c-.8-7.9-.4-16.1,3.7-23.1.4-.7,2.7-4.4,3.6-3.8h0Z"/>
    <path class="st1" d="M518.1,185.4c9.8-1.3,18.6,4.6,25.4,11-3.1-8.8-3.2-18.5-.3-27.4,2.9-8.9,1.3-3.8,2-4.6s.5,0,.8.3c5.1,6.9,5.9,17.9,4.5,26.2-.3,1.6-2.7,10.7-3.8,11.4s-.7.1-1.1,0c-2.3-.3-6.4-1.7-8.7-2.6-7.3-2.7-15.2-7.2-18.7-14.4h0Z"/>
    <path class="st1" d="M386.2,356.8c-1.7-2-3.5-3.7-5.1-5.8-3.7-5-6.4-10.9-6.4-17.2,3.3-.5,4.9.9,6.9,3.2,5.9,6.3,9.1,15,11.1,23.3-12.1,5.8-26.9,7.5-38.4-.4,3.6-2.2,7.9-3.5,12.1-4.2,7.3-1.3,12.9-.6,19.9,1.5s0,.4.5.3c0-.3-.4-.4-.5-.5h0Z"/>
    <path class="st1" d="M483.2,355.7c9.2-2.5,16.4-3.2,25.6-.3,9.2,2.8,6.4,2.2,6.1,2.7-9.8,6.4-21.6,6.9-32.6,3.4-.8-.3-5.6-2-5.8-2.3s.5-3.2.8-4c1.7-6.4,4.7-13.9,9.1-18.9,4.4-5.1,2.1-2.3,2.5-2.5,1.3-.7,3.4-.4,4.9-.5,0,7.1-3.5,13.6-7.9,19-.8,1-2.2,2.2-2.9,3.3s-.4,0-.3.5c.4.2.5-.3.5-.3h0ZM482.4,356v.3c.2-.1.2-.2,0-.3Z"/>
    <path class="st1" d="M321.8,199c4-3.9,8.5-7.6,13.7-9.7,5.2-2.1,3.5-1.5,4.3-1l4,3.9c-4.1,5-10.4,8.3-16.4,10.6s-8,2.8-8.7,2.3-1.9-4.6-2.1-5.3c-3.2-9.9-4-21.8,1.5-31,.2,0,3,2.2,3.2,2.6.7,1,1.5,4.5,1.7,5.8,1.6,7.4,1.2,14.8-1.2,22h0Z"/>
    <path class="st1" d="M396.6,111.9c-2.3,11-9.2,21.1-19.1,26.6,5.6-.2,11.3-.6,16.7,1.2,0,2.7.3,5.5-.2,8.1-1.7-.4-3.5-.3-5.3-.6-5.9-.9-11.5-3.3-16.9-5.7,2.5-13.1,11.7-25.7,24.8-29.6h0Z"/>
    <path class="st1" d="M471.2,146.5v-8.1c4-1.4,8-1.7,12.2-1.6s1.2.3,1.8.3.7.2.7-.3c-10-5.1-16.4-14.7-19.2-25.4-2.8-10.6-.3-.3.3-.3,10.3,1.5,20,14,23.6,23s1.7,4.6,1.7,5.4-.2.4-.4.6c-.9.7-4,2.1-5.2,2.6-4.7,2.1-10,3.9-15.3,3.7h0Z"/>
    <path class="st1" d="M369.9,333.8c2,5.6,3.3,11.6,3.4,17.5-12.7,4-27.2,2.6-37.3-6.4-.1-.1-.7-.2-.3-.6s3.1-.9,3.6-1c9.6-2.1,19.9-.8,28.5,4.1-2.6-4.4-5.4-8.6-6.7-13.6h8.9,0Z"/>
    <path class="st1" d="M506.8,333.3c-.9,4.5-3.4,8.5-5.8,12.3.3.3,3.3-1.6,4-1.9,4.1-1.8,9.2-3.1,13.6-3.4,4.5-.3,4.2-.2,4.9,0s4.7,3.7,5.2,4.2.5.2.4.6c-9.5,7.3-22.5,7.7-33.8,4.8-.1-4.1.4-8.5,1.4-12.6.2-.7.9-3.8,1.1-4.1.4-.6,1.6,0,2.3,0,2.1,0,4.3,0,6.4,0h0ZM500.9,345.8v.3c.2-.1.2-.2,0-.3Z"/>
    <path class="st1" d="M340.8,341.1l-4.6,1.3-3.5,1.7c-.2,1,6.1,6,7.3,6.5.8.7-.1.6-.5,1-7.1,6.8-15.1,12.9-22.2,19.6-5,3.2-9.2-1-5.8-6.1,7.2-7.6,14.3-15.3,21.6-22.9.5-.5,2-2.1,2.5-2.2,1.4-.2,3.9,1.1,5.3,1h0Z"/>
    <path class="st1" d="M456.7,132.6c-.1,0-.8-.3-.7-.5l3.6-1.5,5.8-1.4c-10.1-3.3-18.6-11.5-22.2-21.4,11.1,1,20.2,8.5,26,17.6,5.8,9.1,3,4.9,3.4,6.5s0,.8-.3.8h-15.7Z"/>
    <path class="st1" d="M391.2,132.6c-.2,0-.4-.4-.4-.7,0-.7,2.8-5.7,3.4-6.5,4.7-7.6,12.2-14.2,20.9-16.7s3.5-1,5.2-.8c-3.9,9.9-12.2,18.2-22.5,21.3l4.5.9c.9.2,4.1,1.3,4.7,1.9s0,.7-.1.7h-15.7Z"/>
    <polygon class="st1" points="393.5 201.4 374.4 182.7 374.4 167.9 375.1 168.3 393.5 186.6 393.5 201.4"/>
    <path class="st1" d="M490.1,160.4l.9.2,25.1,25.1c.2.2.1.3,0,.5-.2.3-4.3,4.5-4.6,4.6s-.2.2-.4.1l-.5-.3-24.6-24.6c-.2-.4.1-.7.3-1,1-1.5,2.9-2.9,3.8-4.7h0Z"/>
    <path class="st1" d="M376.7,189.1l-32.3.3c-.8-.2-2.6-2.4-3.3-3.1,5.6-.7,11.8-3.4,16-7.2,4.1-3.8,4.3-5.2,4.6-5.1l15.1,15.2h0Z"/>
    <path class="st1" d="M329.1,149.3c.2.2-2.2,3.7-2.5,4.2-2.5,4.6-4.5,9.8-4.3,15.2-4.3-3.8-8.8-7.3-13-11.2s-4-3.7-5.5-5.5-1.5-1.7-1.7-2.6h27Z"/>
    <path class="st1" d="M489.5,119c5.8,2.7,10.7,7.1,14,12.6.9,1.5,4.1,8.1,3.8,9.5s-1.6,2-1.9,2.3-2.7,2.8-2.9,2.8c-.9.2-4.1-3.5-4.8-4.3-5.1-6.3-8.1-14.8-8.1-22.9h0Z"/>
    <path class="st1" d="M394,211.1c-.2,2.5.2,4.9.5,7.3h-19l-8-7.3h26.4,0Z"/>
    <path class="st1" d="M537.4,183.6c-4.4-.5-10.4-.5-14.6-2.1s-.5,0-.4-.4,5.5-5.8,5.9-5.8c1.8.7,3.4,1.9,5,3.1l-2.5-5.3,7.8-7.5c.8,6.1.1,12.2-1.3,18h0Z"/>
    <path class="st1" d="M500.8,147.8c.1.4-.2.5-.4.8-.6.8-1.9,2.1-2.6,2.9s-3.1,3.3-3.7,3.4c-1.4.3-6,.1-7.6,0s-9.4-1.9-9.8-3.5,2.8-2.2,3.5-2.5c6.4-2.9,13.9-2.4,20.6-1h0Z"/>
    <rect class="st1" x="350.3" y="239.3" width="9.2" height="11.5"/>
    <rect class="st1" x="505.7" y="238.6" width="9.2" height="11.5"/>
    <rect class="st1" x="506.3" y="294.6" width="9.2" height="11.5"/>
    <rect class="st1" x="350.5" y="293.5" width="9.2" height="11.5"/>
    <path class="st1" d="M426.2,125.2c.4.4-2,1.7-2.3,2-4.4,2.6-10.1,4.5-15.1,3.1s-2.3-.3-1.7-1.9c2.9-6.9,13.6-5.2,19.1-3.2h0Z"/>
    <path class="st1" d="M437.2,125c6.5-2.2,16.3-4.5,19.6,3.5-5.4,3.2-13.6.9-18.5-2.3-5-3.2-1.4-.8-1.1-1.1h0Z"/>
    <path class="st1" d="M548.7,322.5c.4.4-1.7,2.8-2.1,3.3-1,1.1-6.1,5.9-7.3,6.1s-.5,0-.7-.2c-.6-1.1-6.3-6.2-6.4-6.7s1.4-.9,1.9-1c4.7-1.5,9.8-1.5,14.7-1.4h-.1Z"/>
    <path class="st1" d="M371.8,165.3v14.1l-10.5-9.4c2.7-.6,5.5-1.5,7.9-2.9s1.6-1.4,2.6-1.8h0Z"/>
    <path class="st1" d="M431.4,121.1c2.9-.3,4.5,3.8,2,5.4-4.4,2.8-6.7-4.9-2-5.4Z"/>
    <path class="st1" d="M514,338c-.9-.3-1.4-6.3-1-6.3l6,4.7,1.5,1.6c-1.7-.3-5,.4-6.4,0h0Z"/>
    <path class="st1" d="M521.7,313.9c-.8-.8-4.5-3.9-4.7-4.6-.3-1,1.3-3.4,1.9-4.3,1.8,2.6,2.3,5.8,2.7,8.9h0Z"/>
    <path class="st1" d="M360,327.2c-.3,0-.4-.5-.4-.7-.4-2.6-.5-5.3-1-7.9s-.9-2.8-.9-3.3,1.7-2.4,2.3-2.7v14.7h0Z"/>
    <path class="st1" d="M550.2,265.8c3.2-.7,4,3.7,1.2,4.4-2.8.7-3.7-3.8-1.2-4.4Z"/>
    <path class="st1" d="M313.6,227.1c3.5-1,4.4,3.4,1.6,4.3s-3.9-3.6-1.6-4.3Z"/>
    <path class="st1" d="M387.9,132.6c2.8-.6,3.8,3.8,1.2,4.4s-3.9-3.8-1.2-4.4Z"/>
    <path class="st1" d="M510.7,340c-2,2.2-5.5-1.2-3.2-3.2s5.2,1.1,3.2,3.2Z"/>
    <path class="st1" d="M396,357.4c3.1-.4,3.6,4.7,0,4.4-3.7-.3-2.5-4.1,0-4.4Z"/>
    <path class="st1" d="M359.1,338c3.5-.7,3.6,5.6-.5,4.3s-1.6-3.9.5-4.3Z"/>
    <path class="st1" d="M315.9,268.4c2.7-.3,3.3,4,.7,4.4s-3.5-4.1-.7-4.4Z"/>
    <path class="st1" d="M352.8,154.6c2.8-.3,3.2,4,.7,4.4-2.5.3-3.6-4.1-.7-4.4Z"/>
    <path class="st1" d="M550.7,224.2c3.8-.9,3.7,5,.3,4.4-2.4-.5-2.3-3.9-.3-4.4Z"/>
    <path class="st1" d="M330.9,307.2c3.3-1,4.1,3.9,1.2,4.4s-3.4-3.7-1.2-4.4Z"/>
    <path class="st1" d="M326.7,187.6c3.4-.8,3.9,3.8,1.1,4.3s-3.7-3.7-1.1-4.3Z"/>
    <path class="st1" d="M537.4,185c2.7-.3,3.4,4,.7,4.4s-3.5-4.1-.7-4.4Z"/>
    <path class="st1" d="M475,131.6c3.3-.8,3.8,4,.9,4.4s-3.4-3.8-.9-4.4Z"/>
    <path class="st1" d="M536.1,304.5c2.6-.2,3.1,3.9.7,4.4-2.4.5-3.8-4.1-.7-4.4Z"/>
    <path class="st1" d="M472.4,356.6c3-.4,3.3,4,.7,4.4s-3.4-4.1-.7-4.4Z"/>
    <path class="st1" d="M549.7,278.3c-.1.4,0,1-.4,1.3-.3,0-.1-1-.1-1.3h.5,0Z"/>
    <path class="st1" d="M337,318.3c.1.3.6,1-.1.8s-.2-.5-.4-.8h.5,0Z"/>
    <path class="st1" d="M351.1,334.3c0,0,.4,0,.3.5-.3,0-.4-.4-.5-.5h.3Z"/>
    <path class="st1" d="M483.2,355.7s-.1.4-.5.3c-.2-.5.2-.4.3-.5l.3.3Z"/>
    <path class="st1" d="M386.2,356.8c.1.2.5.2.5.5-.5.2-.5-.3-.5-.3v-.3Z"/>
    <path class="st1" d="M445.8,286.2h-.5c0-.3-.1-1.6.1-1.6.3.4.3,1.1.4,1.6h0Z"/>
    <path class="st1" d="M455,285.6h-.3c0-.3-.1-1,.1-1v1h.2Z"/>
    <path class="st1" d="M405,294c-.9-2.9-1-6.2-1.6-9.2-.7-3-.1-.8-.4-.7l-1.3,9.9h3.4Z"/>
    <path class="st1" d="M482.4,356c.2.1.2.2,0,.3v-.3Z"/>
    <path class="st1" d="M500.9,345.8c.2.1.2.2,0,.3v-.3Z"/>
    <path class="st1" d="M484.3,294h-3.2l1.3-9.9c.4,0,.4.9.4,1.3.5,2.9,1,5.8,1.4,8.7h0Z"/>
    <path class="st1" d="M411,253c5.5-.8,5.3,7.5,0,6.5v-6.5Z"/>
    <path class="st1" d="M405,294h-3.4l1.3-9.9c.4,0,.4.5.4.7.7,3,.8,6.3,1.6,9.2h0Z"/>
  </g>
</svg>